<?xml version="1.0" encoding="UTF-8"?>
<svg xmlns="http://www.w3.org/2000/svg">
<g>
	<g>
		<rect x="236" y="230" width="40" height="40"/>
		<path d="M452,40h-24V0h-40v40H124V0H84v40H60C26.916,40,0,66.916,0,100v352c0,33.084,26.916,60,60,60h133h3h69.762
			c-13.828-11.414-25.872-24.911-35.663-40H196h-3H60c-11.028,0-20-8.972-20-20V188h432v40v2v0.099
			c15.088,9.791,28.586,21.836,40,35.663V230v-2V100C512,66.916,485.084,40,452,40z M472,148H40v-48c0-11.028,8.972-20,20-20h24v40
			h40V80h264v40h40V80h24c11.028,0,20,8.972,20,20V148z"/>
		<path d="M377,242c-74.439,0-135,60.561-135,135s60.561,135,135,135s135-60.561,135-135S451.439,242,377,242z M377,472
			c-52.383,0-95-42.617-95-95s42.617-95,95-95s95,42.617,95,95S429.383,472,377,472z"/>
		<polygon points="396,310 356,310 356,397 430,397 430,357 396,357"/>
		<rect x="156" y="310" width="40" height="40"/>
		<rect x="76" y="310" width="40" height="40"/>
		<rect x="76" y="230" width="40" height="40"/>
		<rect x="76" y="390" width="40" height="40"/>
		<rect x="156" y="230" width="40" height="40"/>
		<rect x="156" y="390" width="40" height="40"/>
	</g>
</g>
</svg>
