<?xml version="1.0" encoding="UTF-8"?>
<svg xmlns="http://www.w3.org/2000/svg">
<g>
	<path
		style="stroke:#ffffff;stroke-width:3.408;fill:#000000"
		d="m82.432 17.924c-41.335 0-64.571 21.371-64.571 65.036v450.12c0 40.84 20.891 62.23 62.192 62.23h452.03c41.3 0 62.22-20.32 62.22-62.23v-450.12c0-42.6-20.92-65.036-63.52-65.036 0 0-448.49-0.142-448.35 0z"/>
	<path
		style="fill:#ffffff"
		d="m510.2 147.39c29.15-29.15-11.17-67.265-39.96-38.48l-106.3 106.3-243.52-64.37-40.592 40.6 200.71 105.7-81.18 81.17-63.1-7.75-32.11 32.11 71.59 37.64 37.65 71.6 32.1-32.11-7.38-62.74 81.18-81.17 103.43 199.39 40.6-40.6-61.63-238.58 108.51-108.71z"/>
</g>
</svg>
