<!DOCTYPE svg PUBLIC "-//W3C//DTD SVG 1.1//EN" "http://www.w3.org/Graphics/SVG/1.1/DTD/svg11.dtd">
<svg xmlns="http://www.w3.org/2000/svg" xmlns:xlink="http://www.w3.org/1999/xlink" xmlns:jfreesvg="http://www.jfree.org/jfreesvg/svg" width="168" height="168" text-rendering="auto" shape-rendering="auto">
<defs></defs>
<g style="fill: rgb(0,0,0); fill-opacity: 1.0; stroke: none" transform="matrix(8.0,0.0,0.0,8.0,0.0,0.0)" ><path d="M 11.9499 1.6317 C 12.0002 1.6317 12.0471 1.6569 12.0749 1.6987 L 12.0749 1.6987 C 12.1081 1.7487 12.1512 1.7918 12.2012 1.8250 C 12.2563 1.8617 12.2809 1.9300 12.2618 1.9933 C 12.2514 2.0277 12.2294 2.0562 12.2009 2.0751 L 12.2009 2.0751 C 12.1512 2.1082 12.1084 2.1510 12.0752 2.2007 L 12.0752 2.2007 C 12.0476 2.2426 12.0007 2.2682 11.9499 2.2682 L 11.9499 2.2682 C 11.8992 2.2682 11.8523 2.2426 11.8247 2.2007 L 11.8247 2.2007 C 11.7915 2.1510 11.7487 2.1082 11.6990 2.0751 L 11.6990 2.0751 C 11.6705 2.0562 11.6485 2.0277 11.6381 1.9933 C 11.6190 1.9300 11.6436 1.8617 11.6987 1.8250 C 11.7487 1.7918 11.7918 1.7487 11.8250 1.6987 C 11.8528 1.6569 11.8997 1.6317 11.9499 1.6317 Z  M 8.4499 2.0 C 8.2014 2.0 8.0 2.2014 8.0 2.4500 C 8.0 2.6985 8.2014 2.9000 8.4499 2.9000 C 8.6985 2.9000 8.8999 2.6985 8.8999 2.4500 C 8.8999 2.2014 8.6985 2.0 8.4499 2.0 Z  M 9.9499 3.6317 C 10.0002 3.6317 10.0471 3.6569 10.0749 3.6987 C 10.1081 3.7487 10.1512 3.7918 10.2012 3.8250 C 10.2563 3.8617 10.2809 3.9300 10.2618 3.9933 C 10.2514 4.0277 10.2294 4.0562 10.2009 4.0751 L 10.2009 4.0751 C 10.1510 4.1083 10.1081 4.1513 10.0749 4.2012 C 10.0471 4.2430 10.0002 4.2682 9.9499 4.2682 L 9.9499 4.2682 C 9.8997 4.2682 9.8528 4.2430 9.8250 4.2012 C 9.7918 4.1513 9.7489 4.1083 9.6990 4.0751 L 9.6990 4.0751 C 9.6705 4.0562 9.6485 4.0277 9.6381 3.9933 C 9.6190 3.9300 9.6436 3.8617 9.6987 3.8250 C 9.7487 3.7918 9.7918 3.7487 9.8250 3.6987 C 9.8528 3.6569 9.8997 3.6317 9.9499 3.6317 Z  M 8.4499 0.0 C 8.2014 0.0 8.0 0.2014 8.0 0.4499 C 8.0 0.6985 8.2014 0.8999 8.4499 0.8999 C 8.6063 0.8999 8.7442 0.8203 8.8250 0.6987 C 8.8528 0.6569 8.8997 0.6317 8.9499 0.6317 L 8.9499 0.6317 C 9.0002 0.6317 9.0471 0.6569 9.0749 0.6987 C 9.1081 0.7487 9.1512 0.7918 9.2012 0.8250 C 9.2563 0.8617 9.2809 0.9300 9.2618 0.9933 C 9.2514 1.0277 9.2294 1.0562 9.2009 1.0751 L 9.2009 1.0751 C 9.0795 1.1560 9.0 1.2937 9.0 1.4500 C 9.0 1.6985 9.2014 1.8999 9.4499 1.8999 C 9.6063 1.8999 9.7442 1.8203 9.8250 1.6987 C 9.8528 1.6569 9.8997 1.6317 9.9499 1.6317 L 9.9499 1.6317 C 10.0002 1.6317 10.0471 1.6569 10.0749 1.6987 C 10.1557 1.8203 10.2936 1.8999 10.4499 1.8999 C 10.6063 1.8999 10.7442 1.8203 10.8250 1.6987 C 10.8528 1.6569 10.8997 1.6317 10.9499 1.6317 L 10.9499 1.6317 C 11.0002 1.6317 11.0471 1.6569 11.0749 1.6987 C 11.1081 1.7487 11.1512 1.7918 11.2012 1.8250 C 11.2563 1.8617 11.2809 1.9300 11.2618 1.9933 C 11.2514 2.0277 11.2294 2.0562 11.2009 2.0751 L 11.2009 2.0751 C 11.0795 2.1560 11.0 2.2937 11.0 2.4500 C 11.0 2.6985 11.2014 2.9000 11.4499 2.9000 C 11.6063 2.9000 11.7442 2.8203 11.8250 2.6987 C 11.8528 2.6569 11.8997 2.6317 11.9499 2.6317 L 11.9499 2.6317 C 12.0002 2.6317 12.0471 2.6569 12.0749 2.6987 C 12.1081 2.7487 12.1512 2.7918 12.2012 2.8250 C 12.2563 2.8617 12.2809 2.9300 12.2618 2.9933 C 12.2514 3.0277 12.2294 3.0562 12.2009 3.0751 L 12.2009 3.0751 C 12.0795 3.1560 12.0 3.2937 12.0 3.4500 C 12.0 3.6063 12.0796 3.7442 12.2012 3.8250 C 12.2563 3.8617 12.2809 3.9300 12.2618 3.9933 C 12.2514 4.0277 12.2294 4.0562 12.2009 4.0751 L 12.2009 4.0751 C 12.0795 4.1560 12.0 4.2937 12.0 4.4499 C 12.0 4.6985 12.2014 4.9000 12.4499 4.9000 C 12.6985 4.9000 12.8999 4.6985 12.8999 4.4499 C 12.8999 4.2937 12.8204 4.1560 12.6990 4.0751 L 12.6990 4.0751 C 12.6705 4.0562 12.6485 4.0277 12.6381 3.9933 C 12.6190 3.9300 12.6436 3.8617 12.6987 3.8250 C 12.8203 3.7442 12.8999 3.6063 12.8999 3.4500 C 12.8999 3.2937 12.8204 3.1560 12.6990 3.0751 L 12.6990 3.0751 C 12.6705 3.0562 12.6485 3.0277 12.6381 2.9933 C 12.6190 2.9300 12.6436 2.8617 12.6987 2.8250 C 12.8203 2.7442 12.8999 2.6063 12.8999 2.4500 C 12.8999 2.2937 12.8204 2.1560 12.6990 2.0751 L 12.6990 2.0751 C 12.6705 2.0562 12.6485 2.0277 12.6381 1.9933 C 12.6190 1.9300 12.6436 1.8617 12.6987 1.8250 C 12.8203 1.7442 12.8999 1.6063 12.8999 1.4500 C 12.8999 1.2937 12.8204 1.1560 12.6990 1.0751 L 12.6990 1.0751 C 12.6705 1.0562 12.6485 1.0277 12.6381 0.9933 C 12.6190 0.9300 12.6436 0.8617 12.6987 0.8250 C 12.8203 0.7442 12.8999 0.6063 12.8999 0.4499 C 12.8999 0.2014 12.6985 0.0 12.4499 0.0 C 12.2014 0.0 12.0 0.2014 12.0 0.4499 C 12.0 0.6063 12.0796 0.7442 12.2012 0.8250 C 12.2563 0.8617 12.2809 0.9300 12.2618 0.9933 C 12.2514 1.0277 12.2294 1.0562 12.2009 1.0751 L 12.2009 1.0751 C 12.1510 1.1083 12.1081 1.1513 12.0749 1.2012 C 12.0471 1.2430 12.0002 1.2682 11.9499 1.2682 L 11.9499 1.2682 C 11.8997 1.2682 11.8528 1.2430 11.8250 1.2012 C 11.7442 1.0796 11.6063 1.0 11.4499 1.0 C 11.2938 1.0 11.1561 1.0794 11.0752 1.2007 L 11.0752 1.2007 C 11.0476 1.2426 11.0007 1.2682 10.9499 1.2682 L 10.9499 1.2682 C 10.8992 1.2682 10.8523 1.2426 10.8247 1.2007 L 10.8247 1.2007 C 10.7438 1.0794 10.6061 1.0 10.4499 1.0 C 10.2938 1.0 10.1561 1.0794 10.0752 1.2007 L 10.0752 1.2007 C 10.0476 1.2426 10.0007 1.2682 9.9499 1.2682 L 9.9499 1.2682 C 9.8992 1.2682 9.8523 1.2426 9.8247 1.2007 L 9.8247 1.2007 C 9.7915 1.1510 9.7487 1.1082 9.6990 1.0751 L 9.6990 1.0751 C 9.6705 1.0562 9.6485 1.0277 9.6381 0.9933 C 9.6190 0.9300 9.6436 0.8617 9.6987 0.8250 C 9.8203 0.7442 9.8999 0.6063 9.8999 0.4499 C 9.8999 0.2014 9.6985 0.0 9.4499 0.0 C 9.2938 0.0 9.1561 0.0794 9.0752 0.2007 L 9.0752 0.2007 C 9.0476 0.2426 9.0007 0.2682 8.9499 0.2682 L 8.9499 0.2682 C 8.8992 0.2682 8.8523 0.2426 8.8247 0.2007 L 8.8247 0.2007 C 8.7438 0.0794 8.6061 0.0 8.4499 0.0 Z  M 3.5 2.0 C 2.6715 2.0 2.0 2.6715 2.0 3.5 C 2.0 4.3284 2.6715 5.0 3.5 5.0 C 4.3284 5.0 5.0 4.3284 5.0 3.5 C 5.0 2.6715 4.3284 2.0 3.5 2.0 Z  M 17.5 2.0 C 16.6715 2.0 16.0 2.6715 16.0 3.5 C 16.0 4.3284 16.6715 5.0 17.5 5.0 C 18.3284 5.0 19.0 4.3284 19.0 3.5 C 19.0 2.6715 18.3284 2.0 17.5 2.0 Z  M 9.9499 4.6317 C 10.0002 4.6317 10.0471 4.6569 10.0749 4.6987 C 10.1081 4.7487 10.1512 4.7918 10.2012 4.8250 C 10.2563 4.8617 10.2809 4.9300 10.2618 4.9933 C 10.2514 5.0277 10.2294 5.0562 10.2009 5.0751 L 10.2009 5.0751 C 10.1512 5.1082 10.1084 5.1510 10.0752 5.2007 L 10.0752 5.2007 C 10.0476 5.2426 10.0007 5.2682 9.9499 5.2682 L 9.9499 5.2682 C 9.8992 5.2682 9.8523 5.2426 9.8247 5.2007 L 9.8247 5.2007 C 9.7915 5.1510 9.7487 5.1082 9.6990 5.0751 L 9.6990 5.0751 C 9.6705 5.0562 9.6485 5.0277 9.6381 4.9933 C 9.6190 4.9300 9.6436 4.8617 9.6987 4.8250 C 9.7487 4.7918 9.7918 4.7487 9.8250 4.6987 C 9.8528 4.6569 9.8997 4.6317 9.9499 4.6317 Z  M 5.0 1.0 C 5.5522 1.0 6.0 1.4477 6.0 2.0 L 6.0 5.0 C 6.0 5.5522 5.5522 6.0 5.0 6.0 L 2.0 6.0 C 1.4477 6.0 1.0 5.5522 1.0 5.0 L 1.0 2.0 C 1.0 1.4477 1.4477 1.0 2.0 1.0 Z  M 19.0 1.0 C 19.5522 1.0 20.0 1.4477 20.0 2.0 L 20.0 5.0 C 20.0 5.5522 19.5522 6.0 19.0 6.0 L 16.0 6.0 C 15.4477 6.0 15.0 5.5522 15.0 5.0 L 15.0 2.0 C 15.0 1.4477 15.4477 1.0 16.0 1.0 Z  M 8.4499 6.0 C 8.2014 6.0 8.0 6.2014 8.0 6.4499 C 8.0 6.6985 8.2014 6.9000 8.4499 6.9000 C 8.6985 6.9000 8.8999 6.6985 8.8999 6.4499 C 8.8999 6.2014 8.6985 6.0 8.4499 6.0 Z  M 9.4499 3.0 C 9.2014 3.0 9.0 3.2014 9.0 3.4500 C 9.0 3.6063 9.0796 3.7442 9.2012 3.8250 C 9.2563 3.8617 9.2809 3.9300 9.2618 3.9933 C 9.2514 4.0277 9.2294 4.0562 9.2009 4.0751 L 9.2009 4.0751 C 9.1516 4.1079 9.1090 4.1503 9.0760 4.1996 L 9.0760 4.1996 C 9.0728 4.2044 9.0694 4.2091 9.0657 4.2136 L 9.0657 4.2136 C 9.0603 4.2202 9.0544 4.2262 9.0480 4.2317 L 9.0480 4.2317 C 9.0218 4.2543 8.9877 4.2681 8.9504 4.2682 L 8.9504 4.2682 C 8.9502 4.2682 8.9501 4.2682 8.9499 4.2682 L 8.9499 4.2682 C 8.8992 4.2682 8.8523 4.2426 8.8247 4.2007 L 8.8247 4.2007 C 8.7438 4.0794 8.6061 4.0 8.4499 4.0 C 8.2014 4.0 8.0 4.2014 8.0 4.4499 C 8.0 4.6985 8.2014 4.9000 8.4499 4.9000 C 8.6063 4.9000 8.7442 4.8203 8.8250 4.6987 C 8.8528 4.6569 8.8997 4.6317 8.9499 4.6317 L 8.9499 4.6317 C 9.0002 4.6317 9.0471 4.6569 9.0749 4.6987 C 9.1081 4.7487 9.1512 4.7918 9.2012 4.8250 C 9.2563 4.8617 9.2809 4.9300 9.2618 4.9933 C 9.2514 5.0277 9.2294 5.0562 9.2009 5.0751 L 9.2009 5.0751 C 9.0795 5.1560 9.0 5.2937 9.0 5.4499 C 9.0 5.6985 9.2014 5.9000 9.4499 5.9000 C 9.6063 5.9000 9.7442 5.8203 9.8250 5.6987 C 9.8528 5.6569 9.8997 5.6317 9.9499 5.6317 L 9.9499 5.6317 C 10.0002 5.6317 10.0471 5.6569 10.0749 5.6987 C 10.1081 5.7487 10.1512 5.7918 10.2012 5.8250 C 10.2563 5.8617 10.2809 5.9300 10.2618 5.9933 C 10.2514 6.0277 10.2294 6.0562 10.2009 6.0751 L 10.2009 6.0751 C 10.0795 6.1560 10.0 6.2937 10.0 6.4499 C 10.0 6.6985 10.2014 6.9000 10.4499 6.9000 C 10.6985 6.9000 10.8999 6.6985 10.8999 6.4499 C 10.8999 6.2937 10.8204 6.1560 10.6990 6.0751 L 10.6990 6.0751 C 10.6705 6.0562 10.6485 6.0277 10.6381 5.9933 C 10.6190 5.9300 10.6436 5.8617 10.6987 5.8250 C 10.7487 5.7918 10.7918 5.7487 10.8250 5.6987 C 10.8528 5.6569 10.8997 5.6317 10.9499 5.6317 L 10.9499 5.6317 C 11.0002 5.6317 11.0471 5.6569 11.0749 5.6987 C 11.1557 5.8203 11.2936 5.9000 11.4499 5.9000 C 11.6985 5.9000 11.8999 5.6985 11.8999 5.4499 C 11.8999 5.2014 11.6985 5.0 11.4499 5.0 C 11.2938 5.0 11.1561 5.0794 11.0752 5.2007 L 11.0752 5.2007 C 11.0476 5.2426 11.0007 5.2682 10.9499 5.2682 L 10.9499 5.2682 C 10.8992 5.2682 10.8523 5.2426 10.8247 5.2007 L 10.8247 5.2007 C 10.7915 5.1510 10.7487 5.1082 10.6990 5.0751 L 10.6990 5.0751 C 10.6705 5.0562 10.6485 5.0277 10.6381 4.9933 C 10.6190 4.9300 10.6436 4.8617 10.6987 4.8250 C 10.8203 4.7442 10.8999 4.6063 10.8999 4.4499 C 10.8999 4.2937 10.8204 4.1560 10.6990 4.0751 L 10.6990 4.0751 C 10.6705 4.0562 10.6485 4.0277 10.6381 3.9933 C 10.6190 3.9300 10.6436 3.8617 10.6987 3.8250 C 10.8203 3.7442 10.8999 3.6063 10.8999 3.4500 C 10.8999 3.2014 10.6985 3.0 10.4499 3.0 C 10.2938 3.0 10.1561 3.0794 10.0752 3.2007 L 10.0752 3.2007 C 10.0476 3.2426 10.0007 3.2682 9.9499 3.2682 L 9.9499 3.2682 C 9.8992 3.2682 9.8523 3.2426 9.8247 3.2007 L 9.8247 3.2007 C 9.7438 3.0794 9.6061 3.0 9.4499 3.0 Z  M 12.4499 6.0 C 12.2014 6.0 12.0 6.2014 12.0 6.4499 C 12.0 6.6985 12.2014 6.9000 12.4499 6.9000 C 12.6985 6.9000 12.8999 6.6985 12.8999 6.4499 C 12.8999 6.2014 12.6985 6.0 12.4499 6.0 Z  M 1.75 0.0 C 0.7835 0.0 0.0 0.7835 0.0 1.75 L 0.0 5.25 C 0.0 6.2164 0.7835 7.0 1.75 7.0 L 5.25 7.0 C 6.2164 7.0 7.0 6.2164 7.0 5.25 L 7.0 1.75 C 7.0 0.7835 6.2164 0.0 5.25 0.0 Z  M 15.75 0.0 C 14.7835 0.0 14.0 0.7835 14.0 1.75 L 14.0 5.25 C 14.0 6.2164 14.7835 7.0 15.75 7.0 L 19.25 7.0 C 20.2164 7.0 21.0 6.2164 21.0 5.25 L 21.0 1.75 C 21.0 0.7835 20.2164 0.0 19.25 0.0 Z  M 7.7984 8.2212 C 7.9023 8.2212 8.0005 8.2597 8.0760 8.3287 C 8.0721 8.3524 8.0703 8.3764 8.0708 8.4004 C 7.9961 8.4666 7.8993 8.5037 7.7984 8.5037 C 7.6786 8.5037 7.5653 8.4510 7.4878 8.3624 C 7.5653 8.2739 7.6786 8.2212 7.7984 8.2212 Z  M 9.8821 8.2212 C 10.0018 8.2212 10.1151 8.2739 10.1926 8.3624 C 10.1151 8.4510 10.0020 8.5037 9.8821 8.5037 C 9.7812 8.5037 9.6844 8.4666 9.6096 8.4006 C 9.6101 8.3764 9.6083 8.3523 9.6044 8.3287 C 9.6799 8.2597 9.7782 8.2212 9.8821 8.2212 Z  M 14.4499 8.0 C 14.2014 8.0 14.0 8.2014 14.0 8.4499 C 14.0 8.6985 14.2014 8.8999 14.4499 8.8999 C 14.6985 8.8999 14.8999 8.6985 14.8999 8.4499 C 14.8999 8.2014 14.6985 8.0 14.4499 8.0 Z  M 20.4500 8.0 C 20.2014 8.0 20.0 8.2014 20.0 8.4499 C 20.0 8.6985 20.2014 8.8999 20.4500 8.8999 C 20.6985 8.8999 20.8999 8.6985 20.8999 8.4499 C 20.8999 8.2014 20.6985 8.0 20.4500 8.0 Z  M 9.2068 8.2494 C 9.2491 8.2494 9.2876 8.2670 9.3155 8.2988 C 9.3431 8.3307 9.3553 8.3713 9.3495 8.4131 L 9.3253 8.5890 C 9.3023 8.5602 9.2672 8.5417 9.2276 8.5417 C 9.1587 8.5417 9.1028 8.5975 9.1028 8.6664 C 9.1028 8.7352 9.1587 8.7910 9.2276 8.7910 C 9.2549 8.7910 9.2801 8.7821 9.3007 8.7672 L 9.3007 8.7673 L 9.2342 9.2492 L 8.4462 9.2492 L 8.3797 8.7672 L 8.3797 8.7670 C 8.4002 8.7821 8.4255 8.7910 8.4529 8.7910 C 8.5218 8.7910 8.5775 8.7352 8.5775 8.6664 C 8.5775 8.5975 8.5218 8.5417 8.4529 8.5417 C 8.4133 8.5417 8.3781 8.5602 8.3552 8.5890 L 8.3309 8.4131 C 8.3251 8.3713 8.3372 8.3307 8.3649 8.2988 C 8.3927 8.2670 8.4313 8.2494 8.4736 8.2494 Z  M 11.3571 9.2865 C 11.2856 9.2865 11.2276 9.3445 11.2276 9.4159 C 11.2276 9.4873 11.2856 9.5453 11.3571 9.5453 L 11.9782 9.5453 C 12.0260 9.5453 12.0599 9.5718 12.0783 9.5971 C 12.0934 9.6178 12.1012 9.6500 12.1012 9.6684 C 12.1012 9.7398 12.1591 9.7978 12.2306 9.7978 C 12.3020 9.7978 12.3600 9.7398 12.3600 9.6684 C 12.3600 9.6129 12.3483 9.5593 12.3256 9.5097 C 12.3210 9.4995 12.2737 9.4184 12.2132 9.3678 C 12.1947 9.3522 12.1470 9.3260 12.1470 9.3260 C 12.0946 9.2998 12.0378 9.2865 11.9782 9.2865 Z  M 9.3001 9.5081 C 9.3547 9.5081 9.3992 9.5526 9.3992 9.6073 L 9.3992 9.7191 C 9.3992 9.7739 9.3547 9.8184 9.3001 9.8184 L 8.3805 9.8184 C 8.3257 9.8184 8.2812 9.7739 8.2812 9.7191 L 8.2812 9.6073 C 8.2812 9.5526 8.3257 9.5081 8.3805 9.5081 Z  M 18.9500 9.6317 C 19.0002 9.6317 19.0471 9.6569 19.0749 9.6987 C 19.1081 9.7487 19.1512 9.7918 19.2012 9.8250 C 19.2563 9.8617 19.2809 9.9300 19.2618 9.9933 C 19.2514 10.0277 19.2294 10.0562 19.2009 10.0751 L 19.2009 10.0751 C 19.1512 10.1082 19.1084 10.1510 19.0752 10.2007 L 19.0752 10.2007 C 19.0476 10.2426 19.0007 10.2682 18.9500 10.2682 L 18.9500 10.2682 C 18.8992 10.2682 18.8523 10.2426 18.8247 10.2007 L 18.8247 10.2007 C 18.7915 10.1510 18.7487 10.1082 18.6990 10.0751 L 18.6990 10.0751 C 18.6705 10.0562 18.6485 10.0277 18.6381 9.9933 C 18.6190 9.9300 18.6436 9.8617 18.6987 9.8250 C 18.7487 9.7918 18.7918 9.7487 18.8250 9.6987 C 18.8528 9.6569 18.8997 9.6317 18.9500 9.6317 Z  M 16.9500 9.6317 C 17.0002 9.6317 17.0471 9.6569 17.0749 9.6987 C 17.1081 9.7487 17.1512 9.7918 17.2012 9.8250 C 17.2563 9.8617 17.2809 9.9300 17.2618 9.9933 C 17.2514 10.0277 17.2294 10.0562 17.2009 10.0751 L 17.2009 10.0751 C 17.1510 10.1083 17.1081 10.1513 17.0749 10.2012 C 17.0471 10.2430 17.0002 10.2682 16.9500 10.2682 L 16.9500 10.2682 C 16.8997 10.2682 16.8528 10.2430 16.8250 10.2012 C 16.7918 10.1513 16.7489 10.1083 16.6990 10.0751 L 16.6990 10.0751 C 16.6705 10.0562 16.6485 10.0277 16.6381 9.9933 C 16.6190 9.9300 16.6436 9.8617 16.6987 9.8250 C 16.7487 9.7918 16.7918 9.7487 16.8250 9.6987 C 16.8528 9.6569 16.8997 9.6317 16.9500 9.6317 Z  M 17.9500 9.6317 C 18.0002 9.6317 18.0471 9.6569 18.0749 9.6987 C 18.1081 9.7487 18.1512 9.7918 18.2012 9.8250 C 18.2563 9.8617 18.2809 9.9300 18.2618 9.9933 C 18.2514 10.0277 18.2294 10.0562 18.2009 10.0751 L 18.2009 10.0751 C 18.1510 10.1083 18.1081 10.1513 18.0749 10.2012 C 18.0471 10.2430 18.0002 10.2682 17.9500 10.2682 L 17.9500 10.2682 C 17.8997 10.2682 17.8528 10.2430 17.8250 10.2012 C 17.7918 10.1513 17.7489 10.1083 17.6990 10.0751 L 17.6990 10.0751 C 17.6705 10.0562 17.6485 10.0277 17.6381 9.9933 C 17.6190 9.9300 17.6436 9.8617 17.6987 9.8250 C 17.7487 9.7918 17.7918 9.7487 17.8250 9.6987 C 17.8528 9.6569 17.8997 9.6317 17.9500 9.6317 Z  M 13.4764 10.1721 L 13.5379 10.3752 L 13.4149 10.3752 L 13.4764 10.1721 Z  M 3.4500 10.0 C 3.2014 10.0 3.0 10.2014 3.0 10.4499 C 3.0 10.6985 3.2014 10.8999 3.4500 10.8999 C 3.6985 10.8999 3.9000 10.6985 3.9000 10.4499 C 3.9000 10.2014 3.6985 10.0 3.4500 10.0 Z  M 17.9500 10.6317 C 18.0002 10.6317 18.0471 10.6569 18.0749 10.6987 C 18.1081 10.7487 18.1512 10.7918 18.2012 10.8250 C 18.2563 10.8617 18.2809 10.9300 18.2618 10.9933 C 18.2514 11.0277 18.2294 11.0562 18.2009 11.0751 L 18.2009 11.0751 C 18.1512 11.1082 18.1084 11.1510 18.0752 11.2007 L 18.0752 11.2007 C 18.0476 11.2426 18.0007 11.2682 17.9500 11.2682 L 17.9500 11.2682 C 17.8992 11.2682 17.8523 11.2426 17.8247 11.2007 L 17.8247 11.2007 C 17.7915 11.1510 17.7487 11.1082 17.6990 11.0751 L 17.6990 11.0751 C 17.6705 11.0562 17.6485 11.0277 17.6381 10.9933 C 17.6190 10.9300 17.6436 10.8617 17.6987 10.8250 C 17.7487 10.7918 17.7918 10.7487 17.8250 10.6987 C 17.8528 10.6569 17.8997 10.6317 17.9500 10.6317 Z  M 18.9500 10.6317 C 19.0002 10.6317 19.0471 10.6569 19.0749 10.6987 C 19.1081 10.7487 19.1512 10.7918 19.2012 10.8250 C 19.2563 10.8617 19.2809 10.9300 19.2618 10.9933 C 19.2514 11.0277 19.2294 11.0562 19.2009 11.0751 L 19.2009 11.0751 C 19.1512 11.1082 19.1084 11.1510 19.0752 11.2007 L 19.0752 11.2007 C 19.0476 11.2426 19.0007 11.2682 18.9500 11.2682 L 18.9500 11.2682 C 18.8992 11.2682 18.8523 11.2426 18.8247 11.2007 L 18.8247 11.2007 C 18.7915 11.1510 18.7487 11.1082 18.6990 11.0751 L 18.6990 11.0751 C 18.6705 11.0562 18.6485 11.0277 18.6381 10.9933 C 18.6190 10.9300 18.6436 10.8617 18.6987 10.8250 C 18.7487 10.7918 18.7918 10.7487 18.8250 10.6987 C 18.8528 10.6569 18.8997 10.6317 18.9500 10.6317 Z  M 16.9500 10.6317 C 17.0002 10.6317 17.0471 10.6569 17.0749 10.6987 C 17.1081 10.7487 17.1512 10.7918 17.2012 10.8250 C 17.2563 10.8617 17.2809 10.9300 17.2618 10.9933 C 17.2514 11.0277 17.2294 11.0562 17.2009 11.0751 L 17.2009 11.0751 C 17.1510 11.1083 17.1081 11.1513 17.0749 11.2012 C 17.0471 11.2430 17.0002 11.2682 16.9500 11.2682 L 16.9500 11.2682 C 16.8997 11.2682 16.8528 11.2430 16.8250 11.2012 C 16.7918 11.1513 16.7489 11.1083 16.6990 11.0751 L 16.6990 11.0751 C 16.6705 11.0562 16.6485 11.0277 16.6381 10.9933 C 16.6190 10.9300 16.6436 10.8617 16.6987 10.8250 C 16.7487 10.7918 16.7918 10.7487 16.8250 10.6987 C 16.8528 10.6569 16.8997 10.6317 16.9500 10.6317 Z  M 11.6562 11.1654 C 11.7040 11.2156 11.7571 11.2605 11.8141 11.2992 C 11.7726 11.3249 11.7283 11.3461 11.6821 11.3621 C 11.6121 11.3866 11.5382 11.3990 11.4625 11.3990 C 11.2629 11.3990 11.0788 11.3114 10.9538 11.1654 Z  M 1.4500 9.0 C 1.2014 9.0 1.0 9.2014 1.0 9.4499 C 1.0 9.6063 1.0796 9.7442 1.2012 9.8250 C 1.2563 9.8617 1.2809 9.9300 1.2618 9.9933 C 1.2514 10.0277 1.2294 10.0562 1.2009 10.0751 L 1.2009 10.0751 C 1.0795 10.1560 1.0 10.2937 1.0 10.4499 C 1.0 10.6063 1.0796 10.7442 1.2012 10.8250 C 1.2563 10.8617 1.2809 10.9300 1.2618 10.9933 C 1.2514 11.0277 1.2294 11.0562 1.2009 11.0751 L 1.2009 11.0751 C 1.1512 11.1082 1.1084 11.1510 1.0752 11.2007 L 1.0752 11.2007 C 1.0476 11.2426 1.0007 11.2682 0.9499 11.2682 L 0.9499 11.2682 C 0.8992 11.2682 0.8523 11.2426 0.8247 11.2007 L 0.8247 11.2007 C 0.7438 11.0794 0.6061 11.0 0.4499 11.0 C 0.2014 11.0 0.0 11.2014 0.0 11.4499 C 0.0 11.6985 0.2014 11.8999 0.4499 11.8999 C 0.6063 11.8999 0.7442 11.8203 0.8250 11.6987 C 0.8528 11.6569 0.8997 11.6317 0.9499 11.6317 L 0.9499 11.6317 C 1.0002 11.6317 1.0471 11.6569 1.0749 11.6987 C 1.1557 11.8203 1.2936 11.8999 1.4500 11.8999 C 1.6063 11.8999 1.7442 11.8203 1.8250 11.6987 C 1.8528 11.6569 1.8997 11.6317 1.9500 11.6317 L 1.9500 11.6317 C 2.0002 11.6317 2.0471 11.6569 2.0749 11.6987 C 2.1557 11.8203 2.2936 11.8999 2.4500 11.8999 C 2.6985 11.8999 2.9000 11.6985 2.9000 11.4499 C 2.9000 11.2014 2.6985 11.0 2.4500 11.0 C 2.2936 11.0 2.1557 11.0796 2.0749 11.2012 C 2.0471 11.2430 2.0002 11.2682 1.9500 11.2682 C 1.8997 11.2682 1.8528 11.2430 1.8250 11.2012 C 1.7918 11.1513 1.7489 11.1083 1.6990 11.0751 L 1.6990 11.0751 C 1.6705 11.0562 1.6485 11.0277 1.6381 10.9933 C 1.6190 10.9300 1.6436 10.8617 1.6987 10.8250 C 1.8203 10.7442 1.8999 10.6063 1.8999 10.4499 C 1.8999 10.2937 1.8204 10.1560 1.6990 10.0751 L 1.6990 10.0751 C 1.6705 10.0562 1.6485 10.0277 1.6381 9.9933 C 1.6190 9.9300 1.6436 9.8617 1.6987 9.8250 C 1.8203 9.7442 1.8999 9.6063 1.8999 9.4499 C 1.8999 9.2014 1.6985 9.0 1.4500 9.0 Z  M 9.1154 11.1116 L 9.1154 11.1116 C 9.1828 11.1348 9.2527 11.1507 9.3240 11.1588 L 9.4177 12.3027 L 9.2128 12.3027 L 9.1154 11.1116 Z  M 12.0608 11.4394 L 12.0482 12.3027 L 11.8425 12.3027 L 11.8529 11.5718 C 11.9276 11.5371 11.9976 11.4926 12.0608 11.4394 Z  M 9.5393 8.9314 C 9.5512 8.9352 11.9782 8.9371 11.9782 8.9371 C 12.1176 8.9371 12.2523 8.9880 12.3030 9.0133 C 12.3041 9.0138 12.4476 9.0769 12.5739 9.2445 C 12.6668 9.3678 12.7094 9.5621 12.7094 9.6684 L 12.7094 11.2582 L 12.5409 12.3027 L 12.3072 12.3027 L 12.3213 11.3214 C 12.3222 11.2587 12.2781 11.2045 12.2165 11.1925 C 12.1753 11.1846 12.1338 11.1723 12.0930 11.1561 C 11.9852 11.1131 11.8885 11.0430 11.8133 10.9531 C 11.7888 10.9236 11.7524 10.9066 11.7141 10.9066 L 10.1234 10.9066 C 10.0560 10.9066 9.9999 10.9582 9.9944 11.0254 L 9.8898 12.3027 L 9.6776 12.3027 L 9.5729 11.0254 C 9.5673 10.9582 9.5113 10.9066 9.4438 10.9066 L 9.4431 10.9066 C 9.4411 10.9065 9.4391 10.9065 9.4371 10.9065 C 9.2949 10.9065 9.1571 10.8656 9.0385 10.7883 C 8.8303 10.6527 8.7059 10.4235 8.7059 10.1752 L 8.7059 10.0772 L 9.3001 10.0772 C 9.4974 10.0772 9.6580 9.9166 9.6580 9.7191 L 9.6580 9.6073 C 9.6580 9.4789 9.5901 9.3661 9.4882 9.3028 L 9.5393 8.9314 Z  M 8.1193 7.4384 C 8.0479 7.4384 7.9899 7.4962 7.9899 7.5678 C 7.9899 7.7714 8.0796 7.9544 8.2216 8.0792 C 8.2146 8.0848 8.2078 8.0905 8.2012 8.0966 C 8.0863 8.0101 7.9459 7.9624 7.7984 7.9624 C 7.5596 7.9624 7.3369 8.0909 7.2173 8.2975 C 7.1942 8.3377 7.1942 8.3870 7.2173 8.4271 C 7.3369 8.6340 7.5595 8.7625 7.7984 8.7625 C 7.9071 8.7625 8.0128 8.7361 8.1073 8.6871 L 8.1922 9.3028 C 8.0903 9.3661 8.0224 9.4789 8.0224 9.6073 L 8.0224 9.7191 C 8.0224 9.9166 8.1830 10.0772 8.3805 10.0772 L 8.4471 10.0772 L 8.4471 10.1752 C 8.4471 10.4895 8.5943 10.7812 8.8438 10.9678 L 8.9646 12.4427 C 8.9701 12.5099 9.0262 12.5615 9.0935 12.5615 L 10.0090 12.5615 C 10.0764 12.5615 10.1324 12.5099 10.1380 12.4427 L 10.2426 11.1654 L 10.6426 11.1654 C 10.6548 11.1883 10.6680 11.2106 10.6818 11.2322 L 10.6818 11.5790 C 10.6818 11.6506 10.7398 11.7084 10.8112 11.7084 C 10.8828 11.7084 10.9406 11.6506 10.9406 11.5790 L 10.9406 11.4977 C 11.0007 11.5385 11.0654 11.5723 11.1337 11.5980 L 11.1337 11.8097 C 11.1337 11.8812 11.1915 11.9392 11.2631 11.9392 C 11.3345 11.9392 11.3925 11.8812 11.3925 11.8097 L 11.3925 11.6552 C 11.3974 11.6556 11.4072 11.6558 11.4201 11.6558 C 11.4683 11.6558 11.5591 11.6533 11.5930 11.6485 L 11.5930 11.6485 L 11.5817 12.4303 C 11.5813 12.4650 11.5947 12.4984 11.6190 12.5229 C 11.6433 12.5476 11.6766 12.5615 11.7111 12.5615 L 12.6512 12.5615 C 12.7147 12.5615 12.7688 12.5154 12.7789 12.4527 L 12.9666 11.2891 C 12.9677 11.2823 12.9682 11.2754 12.9682 11.2686 L 12.9682 9.6684 C 12.9682 9.5247 12.9381 9.3860 12.8786 9.2562 C 12.8657 9.2281 12.8021 9.1186 12.7847 9.0943 C 12.7447 9.0384 12.6992 8.9870 12.6490 8.9407 L 12.6490 8.9407 C 13.0401 8.9776 13.3470 9.3077 13.3470 9.7084 L 13.3470 9.8137 L 13.1585 10.4371 C 13.1466 10.4763 13.1539 10.5188 13.1784 10.5516 C 13.2029 10.5845 13.2413 10.6039 13.2823 10.6039 L 13.6705 10.6039 C 13.7114 10.6039 13.7500 10.5845 13.7745 10.5516 C 13.7989 10.5187 13.8063 10.4763 13.7944 10.4371 L 13.6058 9.8137 L 13.6058 9.7084 C 13.6058 9.1404 13.1437 8.6783 12.5759 8.6783 L 10.2068 8.6783 C 10.3118 8.6202 10.4014 8.5342 10.4632 8.4272 C 10.4864 8.3871 10.4864 8.3377 10.4631 8.2975 C 10.3434 8.0907 10.1208 7.9624 9.8822 7.9624 C 9.7345 7.9624 9.5941 8.0101 9.4792 8.0967 C 9.4726 8.0906 9.4658 8.0848 9.4589 8.0792 C 9.6008 7.9542 9.6905 7.7712 9.6905 7.5678 C 9.6905 7.4962 9.6325 7.4384 9.5611 7.4384 C 9.4897 7.4384 9.4317 7.4962 9.4317 7.5678 C 9.4317 7.8009 9.2420 7.9906 9.0089 7.9906 L 8.6715 7.9906 C 8.4385 7.9906 8.2487 7.8009 8.2487 7.5678 C 8.2487 7.4962 8.1909 7.4384 8.1193 7.4384 Z  M 5.4499 8.0 C 5.2014 8.0 5.0 8.2014 5.0 8.4499 C 5.0 8.6063 5.0796 8.7442 5.2012 8.8250 C 5.2563 8.8617 5.2809 8.9300 5.2618 8.9933 C 5.2514 9.0277 5.2294 9.0562 5.2009 9.0751 L 5.2009 9.0751 C 5.1516 9.1079 5.1090 9.1503 5.0760 9.1996 L 5.0760 9.1996 C 5.0728 9.2044 5.0694 9.2091 5.0657 9.2136 L 5.0657 9.2136 C 5.0603 9.2202 5.0544 9.2262 5.0480 9.2317 L 5.0480 9.2317 C 5.0218 9.2543 4.9877 9.2681 4.9504 9.2682 L 4.9504 9.2682 C 4.9502 9.2682 4.9501 9.2682 4.9499 9.2682 L 4.9499 9.2682 C 4.8992 9.2682 4.8523 9.2426 4.8247 9.2007 L 4.8247 9.2007 C 4.7438 9.0794 4.6061 9.0 4.4499 9.0 C 4.2014 9.0 4.0 9.2014 4.0 9.4499 C 4.0 9.6985 4.2014 9.8999 4.4499 9.8999 C 4.6063 9.8999 4.7442 9.8203 4.8250 9.6987 C 4.8528 9.6569 4.8997 9.6317 4.9499 9.6317 L 4.9499 9.6317 C 5.0002 9.6317 5.0471 9.6569 5.0749 9.6987 C 5.1081 9.7487 5.1512 9.7918 5.2012 9.8250 C 5.2563 9.8617 5.2809 9.9300 5.2618 9.9933 C 5.2514 10.0277 5.2294 10.0562 5.2009 10.0751 L 5.2009 10.0751 C 5.0795 10.1560 5.0 10.2937 5.0 10.4499 C 5.0 10.6063 5.0796 10.7442 5.2012 10.8250 C 5.2563 10.8617 5.2809 10.9300 5.2618 10.9933 C 5.2514 11.0277 5.2294 11.0562 5.2009 11.0751 L 5.2009 11.0751 C 5.0795 11.1560 5.0 11.2937 5.0 11.4499 C 5.0 11.6063 5.0796 11.7442 5.2012 11.8250 C 5.2563 11.8617 5.2809 11.9300 5.2618 11.9933 C 5.2514 12.0277 5.2294 12.0562 5.2009 12.0751 L 5.2009 12.0751 C 5.1512 12.1082 5.1084 12.1510 5.0752 12.2007 L 5.0752 12.2007 C 5.0476 12.2426 5.0007 12.2682 4.9499 12.2682 L 4.9499 12.2682 C 4.8992 12.2682 4.8523 12.2426 4.8247 12.2007 L 4.8247 12.2007 C 4.7438 12.0794 4.6061 12.0 4.4499 12.0 C 4.2014 12.0 4.0 12.2014 4.0 12.4499 C 4.0 12.6985 4.2014 12.8999 4.4499 12.8999 C 4.6063 12.8999 4.7442 12.8203 4.8250 12.6987 C 4.8528 12.6569 4.8997 12.6317 4.9499 12.6317 L 4.9499 12.6317 C 5.0002 12.6317 5.0471 12.6569 5.0749 12.6987 C 5.1557 12.8203 5.2936 12.8999 5.4499 12.8999 C 5.6063 12.8999 5.7442 12.8203 5.8250 12.6987 C 5.8528 12.6569 5.8997 12.6317 5.9499 12.6317 L 5.9499 12.6317 C 6.0002 12.6317 6.0471 12.6569 6.0749 12.6987 C 6.1557 12.8203 6.2936 12.8999 6.4499 12.8999 C 6.6985 12.8999 6.9000 12.6985 6.9000 12.4499 C 6.9000 12.2014 6.6985 12.0 6.4499 12.0 C 6.2938 12.0 6.1561 12.0794 6.0752 12.2007 L 6.0752 12.2007 C 6.0476 12.2426 6.0007 12.2682 5.9499 12.2682 L 5.9499 12.2682 C 5.8992 12.2682 5.8523 12.2426 5.8247 12.2007 L 5.8247 12.2007 C 5.7915 12.1510 5.7487 12.1082 5.6990 12.0751 L 5.6990 12.0751 C 5.6705 12.0562 5.6485 12.0277 5.6381 11.9933 C 5.6190 11.9300 5.6436 11.8617 5.6987 11.8250 C 5.8203 11.7442 5.9000 11.6063 5.9000 11.4499 C 5.9000 11.2937 5.8204 11.1560 5.6990 11.0751 L 5.6990 11.0751 C 5.6705 11.0562 5.6485 11.0277 5.6381 10.9933 C 5.6190 10.9300 5.6436 10.8617 5.6987 10.8250 C 5.7487 10.7918 5.7918 10.7487 5.8250 10.6987 C 5.8528 10.6569 5.8997 10.6317 5.9499 10.6317 L 5.9499 10.6317 C 6.0002 10.6317 6.0471 10.6569 6.0749 10.6987 C 6.1557 10.8203 6.2936 10.8999 6.4499 10.8999 C 6.6985 10.8999 6.9000 10.6985 6.9000 10.4499 C 6.9000 10.2014 6.6985 10.0 6.4499 10.0 C 6.2938 10.0 6.1561 10.0794 6.0752 10.2007 L 6.0752 10.2007 C 6.0476 10.2426 6.0007 10.2682 5.9499 10.2682 L 5.9499 10.2682 C 5.8992 10.2682 5.8523 10.2426 5.8247 10.2007 L 5.8247 10.2007 C 5.7915 10.1510 5.7487 10.1082 5.6990 10.0751 L 5.6990 10.0751 C 5.6705 10.0562 5.6485 10.0277 5.6381 9.9933 C 5.6190 9.9300 5.6436 9.8617 5.6987 9.8250 C 5.8203 9.7442 5.9000 9.6063 5.9000 9.4499 C 5.9000 9.2937 5.8204 9.1560 5.6990 9.0751 L 5.6990 9.0751 C 5.6705 9.0562 5.6485 9.0277 5.6381 8.9933 C 5.6190 8.9300 5.6436 8.8617 5.6987 8.8250 C 5.7487 8.7918 5.7918 8.7487 5.8250 8.6987 C 5.8528 8.6569 5.8997 8.6317 5.9499 8.6317 L 5.9499 8.6317 C 6.0002 8.6317 6.0471 8.6569 6.0749 8.6987 C 6.1557 8.8203 6.2936 8.8999 6.4499 8.8999 C 6.6985 8.8999 6.9000 8.6985 6.9000 8.4499 C 6.9000 8.2014 6.6985 8.0 6.4499 8.0 C 6.2938 8.0 6.1561 8.0794 6.0752 8.2007 L 6.0752 8.2007 C 6.0476 8.2426 6.0007 8.2682 5.9499 8.2682 L 5.9499 8.2682 C 5.8992 8.2682 5.8523 8.2426 5.8247 8.2007 L 5.8247 8.2007 C 5.7438 8.0794 5.6061 8.0 5.4499 8.0 Z  M 16.4500 8.0 C 16.2014 8.0 16.0 8.2014 16.0 8.4499 C 16.0 8.6063 16.0796 8.7442 16.2012 8.8250 C 16.2563 8.8617 16.2809 8.9300 16.2618 8.9933 C 16.2514 9.0277 16.2294 9.0562 16.2009 9.0751 L 16.2009 9.0751 C 16.0795 9.1560 16.0 9.2937 16.0 9.4499 C 16.0 9.6063 16.0796 9.7442 16.2012 9.8250 C 16.2563 9.8617 16.2809 9.9300 16.2618 9.9933 C 16.2514 10.0277 16.2294 10.0562 16.2009 10.0751 L 16.2009 10.0751 C 16.0795 10.1560 16.0 10.2937 16.0 10.4499 C 16.0 10.6063 16.0796 10.7442 16.2012 10.8250 C 16.2563 10.8617 16.2809 10.9300 16.2618 10.9933 C 16.2514 11.0277 16.2294 11.0562 16.2009 11.0751 L 16.2009 11.0751 C 16.0795 11.1560 16.0 11.2937 16.0 11.4499 C 16.0 11.6985 16.2014 11.8999 16.4500 11.8999 C 16.6063 11.8999 16.7442 11.8203 16.8250 11.6987 C 16.8528 11.6569 16.8997 11.6317 16.9500 11.6317 L 16.9500 11.6317 C 17.0002 11.6317 17.0471 11.6569 17.0749 11.6987 C 17.1081 11.7487 17.1512 11.7918 17.2012 11.8250 C 17.2563 11.8617 17.2809 11.9300 17.2618 11.9933 C 17.2514 12.0277 17.2294 12.0562 17.2009 12.0751 L 17.2009 12.0751 C 17.0795 12.1560 17.0 12.2937 17.0 12.4499 C 17.0 12.6985 17.2014 12.8999 17.4500 12.8999 C 17.6985 12.8999 17.8999 12.6985 17.8999 12.4499 C 17.8999 12.2937 17.8204 12.1560 17.6990 12.0751 L 17.6990 12.0751 C 17.6705 12.0562 17.6485 12.0277 17.6381 11.9933 C 17.6190 11.9300 17.6436 11.8617 17.6987 11.8250 C 17.7487 11.7918 17.7918 11.7487 17.8250 11.6987 C 17.8528 11.6569 17.8997 11.6317 17.9500 11.6317 L 17.9500 11.6317 C 18.0002 11.6317 18.0471 11.6569 18.0749 11.6987 C 18.1557 11.8203 18.2936 11.8999 18.4500 11.8999 C 18.6063 11.8999 18.7442 11.8203 18.8250 11.6987 C 18.8528 11.6569 18.8997 11.6317 18.9500 11.6317 L 18.9500 11.6317 C 19.0002 11.6317 19.0471 11.6569 19.0749 11.6987 C 19.1081 11.7487 19.1512 11.7918 19.2012 11.8250 C 19.2563 11.8617 19.2809 11.9300 19.2618 11.9933 C 19.2514 12.0277 19.2294 12.0562 19.2009 12.0751 L 19.2009 12.0751 C 19.0795 12.1560 19.0 12.2937 19.0 12.4499 C 19.0 12.6985 19.2014 12.8999 19.4500 12.8999 C 19.6985 12.8999 19.8999 12.6985 19.8999 12.4499 C 19.8999 12.2937 19.8204 12.1560 19.6990 12.0751 L 19.6990 12.0751 C 19.6705 12.0562 19.6485 12.0277 19.6381 11.9933 C 19.6190 11.9300 19.6436 11.8617 19.6987 11.8250 C 19.7487 11.7918 19.7918 11.7487 19.8250 11.6987 C 19.8528 11.6569 19.8997 11.6317 19.9500 11.6317 L 19.9500 11.6317 C 20.0002 11.6317 20.0471 11.6569 20.0749 11.6987 C 20.1557 11.8203 20.2936 11.8999 20.4500 11.8999 C 20.6985 11.8999 20.8999 11.6985 20.8999 11.4499 C 20.8999 11.2014 20.6985 11.0 20.4500 11.0 C 20.2938 11.0 20.1561 11.0794 20.0752 11.2007 L 20.0752 11.2007 C 20.0476 11.2426 20.0007 11.2682 19.9500 11.2682 L 19.9500 11.2682 C 19.8992 11.2682 19.8523 11.2426 19.8247 11.2007 L 19.8247 11.2007 C 19.7915 11.1510 19.7487 11.1082 19.6990 11.0751 L 19.6990 11.0751 C 19.6705 11.0562 19.6485 11.0277 19.6381 10.9933 C 19.6190 10.9300 19.6436 10.8617 19.6987 10.8250 C 19.8203 10.7442 19.8999 10.6063 19.8999 10.4499 C 19.8999 10.2937 19.8204 10.1560 19.6990 10.0751 L 19.6990 10.0751 C 19.6705 10.0562 19.6485 10.0277 19.6381 9.9933 C 19.6190 9.9300 19.6436 9.8617 19.6987 9.8250 C 19.8203 9.7442 19.8999 9.6063 19.8999 9.4499 C 19.8999 9.2014 19.6985 9.0 19.4500 9.0 C 19.2936 9.0 19.1557 9.0796 19.0749 9.2012 C 19.0471 9.2430 19.0002 9.2682 18.9500 9.2682 L 18.9500 9.2682 C 18.8997 9.2682 18.8528 9.2430 18.8250 9.2012 C 18.7918 9.1513 18.7489 9.1083 18.6990 9.0751 L 18.6990 9.0751 C 18.6705 9.0562 18.6485 9.0277 18.6381 8.9933 C 18.6190 8.9300 18.6436 8.8617 18.6987 8.8250 C 18.8203 8.7442 18.8999 8.6063 18.8999 8.4499 C 18.8999 8.2014 18.6985 8.0 18.4500 8.0 C 18.2014 8.0 18.0 8.2014 18.0 8.4499 C 18.0 8.6063 18.0796 8.7442 18.2012 8.8250 C 18.2563 8.8617 18.2809 8.9300 18.2618 8.9933 C 18.2514 9.0277 18.2294 9.0562 18.2009 9.0751 L 18.2009 9.0751 C 18.1510 9.1083 18.1081 9.1513 18.0749 9.2012 C 18.0471 9.2430 18.0002 9.2682 17.9500 9.2682 L 17.9500 9.2682 C 17.8997 9.2682 17.8528 9.2430 17.8250 9.2012 C 17.7442 9.0796 17.6063 9.0 17.4500 9.0 C 17.2936 9.0 17.1557 9.0796 17.0749 9.2012 C 17.0471 9.2430 17.0002 9.2682 16.9500 9.2682 L 16.9500 9.2682 C 16.8997 9.2682 16.8528 9.2430 16.8250 9.2012 C 16.7918 9.1513 16.7489 9.1083 16.6990 9.0751 L 16.6990 9.0751 C 16.6705 9.0562 16.6485 9.0277 16.6381 8.9933 C 16.6190 8.9300 16.6436 8.8617 16.6987 8.8250 C 16.8203 8.7442 16.8999 8.6063 16.8999 8.4499 C 16.8999 8.2014 16.6985 8.0 16.4500 8.0 Z  M 9.9499 14.6317 C 10.0002 14.6317 10.0471 14.6569 10.0749 14.6987 C 10.1081 14.7487 10.1512 14.7918 10.2012 14.8250 C 10.2563 14.8617 10.2809 14.9300 10.2618 14.9933 C 10.2514 15.0277 10.2294 15.0562 10.2009 15.0751 L 10.2009 15.0751 C 10.1510 15.1083 10.1081 15.1513 10.0749 15.2012 C 10.0471 15.2430 10.0002 15.2682 9.9499 15.2682 L 9.9499 15.2682 C 9.8997 15.2682 9.8528 15.2430 9.8250 15.2012 C 9.7918 15.1513 9.7489 15.1083 9.6990 15.0751 L 9.6990 15.0751 C 9.6705 15.0562 9.6485 15.0277 9.6381 14.9933 C 9.6190 14.9300 9.6436 14.8617 9.6987 14.8250 C 9.7487 14.7918 9.7918 14.7487 9.8250 14.6987 C 9.8528 14.6569 9.8997 14.6317 9.9499 14.6317 Z  M 13.4499 15.0 C 13.2014 15.0 13.0 15.2014 13.0 15.4499 C 13.0 15.6985 13.2014 15.8999 13.4499 15.8999 C 13.6985 15.8999 13.8999 15.6985 13.8999 15.4499 C 13.8999 15.2014 13.6985 15.0 13.4499 15.0 Z  M 20.4500 15.0 C 20.2014 15.0 20.0 15.2014 20.0 15.4499 C 20.0 15.6985 20.2014 15.8999 20.4500 15.8999 C 20.6985 15.8999 20.8999 15.6985 20.8999 15.4499 C 20.8999 15.2014 20.6985 15.0 20.4500 15.0 Z  M 17.9500 15.6317 C 18.0002 15.6317 18.0471 15.6569 18.0749 15.6987 C 18.1081 15.7487 18.1512 15.7918 18.2012 15.8250 C 18.2563 15.8617 18.2809 15.9300 18.2618 15.9933 C 18.2514 16.0277 18.2294 16.0562 18.2009 16.0751 L 18.2009 16.0751 C 18.1510 16.1083 18.1081 16.1513 18.0749 16.2012 C 18.0471 16.2430 18.0002 16.2682 17.9500 16.2682 L 17.9500 16.2682 C 17.8997 16.2682 17.8528 16.2430 17.8250 16.2012 C 17.7918 16.1513 17.7489 16.1083 17.6990 16.0751 L 17.6990 16.0751 C 17.6705 16.0562 17.6485 16.0277 17.6381 15.9933 C 17.6190 15.9300 17.6436 15.8617 17.6987 15.8250 C 17.7487 15.7918 17.7918 15.7487 17.8250 15.6987 C 17.8528 15.6569 17.8997 15.6317 17.9500 15.6317 Z  M 9.9499 15.6317 C 10.0002 15.6317 10.0471 15.6569 10.0749 15.6987 C 10.1081 15.7487 10.1512 15.7918 10.2012 15.8250 C 10.2563 15.8617 10.2809 15.9300 10.2618 15.9933 C 10.2514 16.0277 10.2294 16.0562 10.2009 16.0751 L 10.2009 16.0751 C 10.1512 16.1082 10.1084 16.1510 10.0752 16.2007 L 10.0752 16.2007 C 10.0476 16.2426 10.0007 16.2682 9.9499 16.2682 L 9.9499 16.2682 C 9.8992 16.2682 9.8523 16.2426 9.8247 16.2007 L 9.8247 16.2007 C 9.7915 16.1510 9.7487 16.1082 9.6990 16.0751 L 9.6990 16.0751 C 9.6705 16.0562 9.6485 16.0277 9.6381 15.9933 C 9.6190 15.9300 9.6436 15.8617 9.6987 15.8250 C 9.7487 15.7918 9.7918 15.7487 9.8250 15.6987 C 9.8528 15.6569 9.8997 15.6317 9.9499 15.6317 Z  M 13.4499 13.0 C 13.2014 13.0 13.0 13.2014 13.0 13.4499 C 13.0 13.6985 13.2014 13.8999 13.4499 13.8999 C 13.6063 13.8999 13.7442 13.8203 13.8250 13.6987 C 13.8528 13.6569 13.8997 13.6317 13.9499 13.6317 L 13.9499 13.6317 C 14.0002 13.6317 14.0471 13.6569 14.0749 13.6987 C 14.1557 13.8203 14.2936 13.8999 14.4499 13.8999 C 14.6063 13.8999 14.7442 13.8203 14.8250 13.6987 C 14.8528 13.6569 14.8997 13.6317 14.9499 13.6317 L 14.9499 13.6317 C 15.0002 13.6317 15.0471 13.6569 15.0749 13.6987 C 15.1081 13.7487 15.1512 13.7918 15.2012 13.8250 C 15.2563 13.8617 15.2809 13.9300 15.2618 13.9933 C 15.2514 14.0277 15.2294 14.0562 15.2009 14.0751 L 15.2009 14.0751 C 15.0795 14.1560 15.0 14.2937 15.0 14.4499 C 15.0 14.6063 15.0796 14.7442 15.2012 14.8250 C 15.2563 14.8617 15.2809 14.9300 15.2618 14.9933 C 15.2514 15.0277 15.2294 15.0562 15.2009 15.0751 L 15.2009 15.0751 C 15.0795 15.1560 15.0 15.2937 15.0 15.4499 C 15.0 15.6063 15.0796 15.7442 15.2012 15.8250 C 15.2563 15.8617 15.2809 15.9300 15.2618 15.9933 C 15.2514 16.0277 15.2294 16.0562 15.2009 16.0751 L 15.2009 16.0751 C 15.0795 16.1560 15.0 16.2937 15.0 16.4500 C 15.0 16.6985 15.2014 16.8999 15.4499 16.8999 C 15.6985 16.8999 15.8999 16.6985 15.8999 16.4500 C 15.8999 16.2937 15.8204 16.1560 15.6990 16.0751 L 15.6990 16.0751 C 15.6705 16.0562 15.6485 16.0277 15.6381 15.9933 C 15.6190 15.9300 15.6436 15.8617 15.6987 15.8250 C 15.7487 15.7918 15.7918 15.7487 15.8250 15.6987 C 15.8528 15.6569 15.8997 15.6317 15.9499 15.6317 L 15.9499 15.6317 C 16.0002 15.6317 16.0471 15.6569 16.0749 15.6987 C 16.1557 15.8203 16.2936 15.8999 16.4500 15.8999 C 16.6063 15.8999 16.7442 15.8203 16.8250 15.6987 C 16.8528 15.6569 16.8997 15.6317 16.9500 15.6317 L 16.9500 15.6317 C 17.0002 15.6317 17.0471 15.6569 17.0749 15.6987 C 17.1081 15.7487 17.1512 15.7918 17.2012 15.8250 C 17.2563 15.8617 17.2809 15.9300 17.2618 15.9933 C 17.2514 16.0277 17.2294 16.0562 17.2009 16.0751 L 17.2009 16.0751 C 17.0795 16.1560 17.0 16.2937 17.0 16.4500 C 17.0 16.6985 17.2014 16.8999 17.4500 16.8999 C 17.6063 16.8999 17.7442 16.8203 17.8250 16.6987 C 17.8528 16.6569 17.8997 16.6317 17.9500 16.6317 L 17.9500 16.6317 C 18.0002 16.6317 18.0471 16.6569 18.0749 16.6987 C 18.1081 16.7487 18.1512 16.7918 18.2012 16.8250 C 18.2563 16.8617 18.2809 16.9300 18.2618 16.9933 C 18.2514 17.0277 18.2294 17.0562 18.2009 17.0751 L 18.2009 17.0751 C 18.0795 17.1560 18.0 17.2937 18.0 17.4500 C 18.0 17.6985 18.2014 17.8999 18.4500 17.8999 C 18.6985 17.8999 18.8999 17.6985 18.8999 17.4500 C 18.8999 17.2937 18.8204 17.1560 18.6990 17.0751 L 18.6990 17.0751 C 18.6705 17.0562 18.6485 17.0277 18.6381 16.9933 C 18.6190 16.9300 18.6436 16.8617 18.6987 16.8250 C 18.7487 16.7918 18.7918 16.7487 18.8250 16.6987 C 18.8528 16.6569 18.8997 16.6317 18.9500 16.6317 L 18.9500 16.6317 C 19.0002 16.6317 19.0471 16.6569 19.0749 16.6987 C 19.1557 16.8203 19.2936 16.8999 19.4500 16.8999 C 19.6985 16.8999 19.8999 16.6985 19.8999 16.4500 C 19.8999 16.2014 19.6985 16.0 19.4500 16.0 C 19.2936 16.0 19.1557 16.0796 19.0749 16.2012 C 19.0471 16.2430 19.0002 16.2682 18.9500 16.2682 L 18.9500 16.2682 C 18.8997 16.2682 18.8528 16.2430 18.8250 16.2012 C 18.7918 16.1513 18.7489 16.1083 18.6990 16.0751 L 18.6990 16.0751 C 18.6705 16.0562 18.6485 16.0277 18.6381 15.9933 C 18.6190 15.9300 18.6436 15.8617 18.6987 15.8250 C 18.8203 15.7442 18.8999 15.6063 18.8999 15.4499 C 18.8999 15.2937 18.8204 15.1560 18.6990 15.0751 L 18.6990 15.0751 C 18.6705 15.0562 18.6485 15.0277 18.6381 14.9933 C 18.6190 14.9300 18.6436 14.8617 18.6987 14.8250 C 18.7487 14.7918 18.7918 14.7487 18.8250 14.6987 C 18.8528 14.6569 18.8997 14.6317 18.9500 14.6317 L 18.9500 14.6317 C 19.0002 14.6317 19.0471 14.6569 19.0749 14.6987 C 19.1557 14.8203 19.2936 14.8999 19.4500 14.8999 C 19.6985 14.8999 19.8999 14.6985 19.8999 14.4499 C 19.8999 14.2014 19.6985 14.0 19.4500 14.0 C 19.2936 14.0 19.1557 14.0796 19.0749 14.2012 C 19.0471 14.2430 19.0002 14.2682 18.9500 14.2682 C 18.8997 14.2682 18.8528 14.2430 18.8250 14.2012 C 18.7442 14.0796 18.6063 14.0 18.4500 14.0 C 18.2014 14.0 18.0 14.2014 18.0 14.4499 C 18.0 14.6063 18.0796 14.7442 18.2012 14.8250 C 18.2563 14.8617 18.2809 14.9300 18.2618 14.9933 C 18.2514 15.0277 18.2294 15.0562 18.2009 15.0751 L 18.2009 15.0751 C 18.1512 15.1082 18.1084 15.1510 18.0752 15.2007 L 18.0752 15.2007 C 18.0476 15.2426 18.0007 15.2682 17.9500 15.2682 L 17.9500 15.2682 C 17.8992 15.2682 17.8523 15.2426 17.8247 15.2007 L 17.8247 15.2007 C 17.7438 15.0794 17.6061 15.0 17.4500 15.0 C 17.2938 15.0 17.1561 15.0794 17.0752 15.2007 L 17.0752 15.2007 C 17.0476 15.2426 17.0007 15.2682 16.9500 15.2682 L 16.9500 15.2682 C 16.8992 15.2682 16.8523 15.2426 16.8247 15.2007 L 16.8247 15.2007 C 16.7438 15.0794 16.6061 15.0 16.4500 15.0 C 16.2936 15.0 16.1557 15.0796 16.0749 15.2012 C 16.0471 15.2430 16.0002 15.2682 15.9499 15.2682 L 15.9499 15.2682 C 15.8997 15.2682 15.8528 15.2430 15.8250 15.2012 C 15.7918 15.1513 15.7489 15.1083 15.6990 15.0751 L 15.6990 15.0751 C 15.6705 15.0562 15.6485 15.0277 15.6381 14.9933 C 15.6190 14.9300 15.6436 14.8617 15.6987 14.8250 C 15.8203 14.7442 15.8999 14.6063 15.8999 14.4499 C 15.8999 14.2937 15.8204 14.1560 15.6990 14.0751 L 15.6990 14.0751 C 15.6705 14.0562 15.6485 14.0277 15.6381 13.9933 C 15.6190 13.9300 15.6436 13.8617 15.6987 13.8250 C 15.8203 13.7442 15.8999 13.6063 15.8999 13.4499 C 15.8999 13.2014 15.6985 13.0 15.4499 13.0 C 15.2936 13.0 15.1557 13.0796 15.0749 13.2012 C 15.0471 13.2430 15.0002 13.2682 14.9499 13.2682 L 14.9499 13.2682 C 14.8997 13.2682 14.8528 13.2430 14.8250 13.2012 C 14.7442 13.0796 14.6063 13.0 14.4499 13.0 C 14.2938 13.0 14.1561 13.0794 14.0752 13.2007 L 14.0752 13.2007 C 14.0476 13.2426 14.0007 13.2682 13.9499 13.2682 L 13.9499 13.2682 C 13.8992 13.2682 13.8523 13.2426 13.8247 13.2007 L 13.8247 13.2007 C 13.7438 13.0794 13.6061 13.0 13.4499 13.0 Z  M 10.9499 17.6317 C 11.0002 17.6317 11.0471 17.6569 11.0749 17.6987 C 11.1081 17.7487 11.1512 17.7918 11.2012 17.8250 C 11.2563 17.8617 11.2809 17.9300 11.2618 17.9933 C 11.2514 18.0277 11.2294 18.0562 11.2009 18.0751 L 11.2009 18.0751 C 11.1510 18.1083 11.1081 18.1513 11.0749 18.2012 C 11.0471 18.2430 11.0002 18.2682 10.9499 18.2682 L 10.9499 18.2682 C 10.8997 18.2682 10.8528 18.2430 10.8250 18.2012 C 10.7918 18.1513 10.7489 18.1083 10.6990 18.0751 L 10.6990 18.0751 C 10.6705 18.0562 10.6485 18.0277 10.6381 17.9933 C 10.6190 17.9300 10.6436 17.8617 10.6987 17.8250 C 10.7487 17.7918 10.7918 17.7487 10.8250 17.6987 C 10.8528 17.6569 10.8997 17.6317 10.9499 17.6317 Z  M 17.4500 18.0 C 17.2014 18.0 17.0 18.2014 17.0 18.4500 C 17.0 18.6985 17.2014 18.8999 17.4500 18.8999 C 17.6985 18.8999 17.8999 18.6985 17.8999 18.4500 C 17.8999 18.2014 17.6985 18.0 17.4500 18.0 Z  M 19.4500 18.0 C 19.2014 18.0 19.0 18.2014 19.0 18.4500 C 19.0 18.6985 19.2014 18.8999 19.4500 18.8999 C 19.6063 18.8999 19.7442 18.8203 19.8250 18.6987 C 19.8528 18.6569 19.8997 18.6317 19.9500 18.6317 L 19.9500 18.6317 C 20.0002 18.6317 20.0471 18.6569 20.0749 18.6987 C 20.1557 18.8203 20.2936 18.8999 20.4500 18.8999 C 20.6985 18.8999 20.8999 18.6985 20.8999 18.4500 C 20.8999 18.2014 20.6985 18.0 20.4500 18.0 C 20.2936 18.0 20.1557 18.0796 20.0749 18.2012 C 20.0471 18.2430 20.0002 18.2682 19.9500 18.2682 C 19.8997 18.2682 19.8528 18.2430 19.8250 18.2012 C 19.7442 18.0796 19.6063 18.0 19.4500 18.0 Z  M 3.5 16.0 C 2.6715 16.0 2.0 16.6715 2.0 17.5 C 2.0 18.3284 2.6715 19.0 3.5 19.0 C 4.3284 19.0 5.0 18.3284 5.0 17.5 C 5.0 16.6715 4.3284 16.0 3.5 16.0 Z  M 13.9499 18.6317 C 14.0002 18.6317 14.0471 18.6569 14.0749 18.6987 C 14.1081 18.7487 14.1512 18.7918 14.2012 18.8250 C 14.2563 18.8617 14.2809 18.9300 14.2618 18.9933 C 14.2514 19.0277 14.2294 19.0562 14.2009 19.0751 L 14.2009 19.0751 C 14.1510 19.1083 14.1081 19.1513 14.0749 19.2012 C 14.0471 19.2430 14.0002 19.2682 13.9499 19.2682 L 13.9499 19.2682 C 13.8997 19.2682 13.8528 19.2430 13.8250 19.2012 C 13.7918 19.1513 13.7489 19.1083 13.6990 19.0751 L 13.6990 19.0751 C 13.6705 19.0562 13.6485 19.0277 13.6381 18.9933 C 13.6190 18.9300 13.6436 18.8617 13.6987 18.8250 C 13.7487 18.7918 13.7918 18.7487 13.8250 18.6987 C 13.8528 18.6569 13.8997 18.6317 13.9499 18.6317 Z  M 10.9499 18.6317 C 11.0002 18.6317 11.0471 18.6569 11.0749 18.6987 C 11.1081 18.7487 11.1512 18.7918 11.2012 18.8250 C 11.2563 18.8617 11.2809 18.9300 11.2618 18.9933 C 11.2514 19.0277 11.2294 19.0562 11.2009 19.0751 L 11.2009 19.0751 C 11.1512 19.1082 11.1084 19.1510 11.0752 19.2007 L 11.0752 19.2007 C 11.0476 19.2426 11.0007 19.2682 10.9499 19.2682 L 10.9499 19.2682 C 10.8992 19.2682 10.8523 19.2426 10.8247 19.2007 L 10.8247 19.2007 C 10.7915 19.1510 10.7487 19.1082 10.6990 19.0751 L 10.6990 19.0751 C 10.6705 19.0562 10.6485 19.0277 10.6381 18.9933 C 10.6190 18.9300 10.6436 18.8617 10.6987 18.8250 C 10.7487 18.7918 10.7918 18.7487 10.8250 18.6987 C 10.8528 18.6569 10.8997 18.6317 10.9499 18.6317 Z  M 9.9499 18.6317 C 10.0002 18.6317 10.0471 18.6569 10.0749 18.6987 C 10.1081 18.7487 10.1512 18.7918 10.2012 18.8250 C 10.2563 18.8617 10.2809 18.9300 10.2618 18.9933 C 10.2514 19.0277 10.2294 19.0562 10.2009 19.0751 L 10.2009 19.0751 C 10.1512 19.1082 10.1084 19.1510 10.0752 19.2007 L 10.0752 19.2007 C 10.0476 19.2426 10.0007 19.2682 9.9499 19.2682 L 9.9499 19.2682 C 9.8992 19.2682 9.8523 19.2426 9.8247 19.2007 L 9.8247 19.2007 C 9.7915 19.1510 9.7487 19.1082 9.6990 19.0751 L 9.6990 19.0751 C 9.6705 19.0562 9.6485 19.0277 9.6381 18.9933 C 9.6190 18.9300 9.6436 18.8617 9.6987 18.8250 C 9.7487 18.7918 9.7918 18.7487 9.8250 18.6987 C 9.8528 18.6569 9.8997 18.6317 9.9499 18.6317 Z  M 5.0 15.0 C 5.5522 15.0 6.0 15.4477 6.0 16.0 L 6.0 19.0 C 6.0 19.5522 5.5522 20.0 5.0 20.0 L 2.0 20.0 C 1.4477 20.0 1.0 19.5522 1.0 19.0 L 1.0 16.0 C 1.0 15.4477 1.4477 15.0 2.0 15.0 Z  M 13.9499 19.6317 C 14.0002 19.6317 14.0471 19.6569 14.0749 19.6987 C 14.1081 19.7487 14.1512 19.7918 14.2012 19.8250 C 14.2563 19.8617 14.2809 19.9300 14.2618 19.9933 C 14.2514 20.0277 14.2294 20.0562 14.2009 20.0751 L 14.2009 20.0751 C 14.1510 20.1083 14.1081 20.1513 14.0749 20.2012 C 14.0471 20.2430 14.0002 20.2682 13.9499 20.2682 L 13.9499 20.2682 C 13.8997 20.2682 13.8528 20.2430 13.8250 20.2012 C 13.7918 20.1513 13.7489 20.1083 13.6990 20.0751 L 13.6990 20.0751 C 13.6705 20.0562 13.6485 20.0277 13.6381 19.9933 C 13.6190 19.9300 13.6436 19.8617 13.6987 19.8250 C 13.7487 19.7918 13.7918 19.7487 13.8250 19.6987 C 13.8528 19.6569 13.8997 19.6317 13.9499 19.6317 Z  M 11.9499 18.6317 C 12.0002 18.6317 12.0471 18.6569 12.0749 18.6987 C 12.1557 18.8203 12.2936 18.8999 12.4499 18.8999 C 12.6063 18.8999 12.7442 18.8203 12.8250 18.6987 C 12.8528 18.6569 12.8997 18.6317 12.9499 18.6317 L 12.9499 18.6317 C 13.0002 18.6317 13.0471 18.6569 13.0749 18.6987 C 13.1081 18.7487 13.1512 18.7918 13.2012 18.8250 C 13.2563 18.8617 13.2809 18.9300 13.2618 18.9933 C 13.2514 19.0277 13.2294 19.0562 13.2009 19.0751 L 13.2009 19.0751 C 13.0795 19.1560 13.0 19.2937 13.0 19.4500 C 13.0 19.6063 13.0796 19.7442 13.2012 19.8250 C 13.2563 19.8617 13.2809 19.9300 13.2618 19.9933 C 13.2514 20.0277 13.2294 20.0562 13.2009 20.0751 L 13.2009 20.0751 C 13.1510 20.1083 13.1081 20.1513 13.0749 20.2012 C 13.0471 20.2430 13.0002 20.2682 12.9499 20.2682 L 12.9499 20.2682 C 12.8997 20.2682 12.8528 20.2430 12.8250 20.2012 C 12.7442 20.0796 12.6063 20.0 12.4499 20.0 C 12.2938 20.0 12.1561 20.0794 12.0752 20.2007 L 12.0752 20.2007 C 12.0476 20.2426 12.0007 20.2682 11.9499 20.2682 L 11.9499 20.2682 C 11.8992 20.2682 11.8523 20.2426 11.8247 20.2007 L 11.8247 20.2007 C 11.7915 20.1510 11.7487 20.1082 11.6990 20.0751 L 11.6990 20.0751 C 11.6705 20.0562 11.6485 20.0277 11.6381 19.9933 C 11.6190 19.9300 11.6436 19.8617 11.6987 19.8250 C 11.8203 19.7442 11.8999 19.6063 11.8999 19.4500 C 11.8999 19.2937 11.8204 19.1560 11.6990 19.0751 L 11.6990 19.0751 C 11.6705 19.0562 11.6485 19.0277 11.6381 18.9933 C 11.6190 18.9300 11.6436 18.8617 11.6987 18.8250 C 11.7487 18.7918 11.7918 18.7487 11.8250 18.6987 C 11.8528 18.6569 11.8997 18.6317 11.9499 18.6317 Z  M 10.9499 19.6317 C 11.0002 19.6317 11.0471 19.6569 11.0749 19.6987 C 11.1081 19.7487 11.1512 19.7918 11.2012 19.8250 C 11.2563 19.8617 11.2809 19.9300 11.2618 19.9933 C 11.2514 20.0277 11.2294 20.0562 11.2009 20.0751 L 11.2009 20.0751 C 11.1512 20.1082 11.1084 20.1510 11.0752 20.2007 L 11.0752 20.2007 C 11.0476 20.2426 11.0007 20.2682 10.9499 20.2682 L 10.9499 20.2682 C 10.8992 20.2682 10.8523 20.2426 10.8247 20.2007 L 10.8247 20.2007 C 10.7915 20.1510 10.7487 20.1082 10.6990 20.0751 L 10.6990 20.0751 C 10.6705 20.0562 10.6485 20.0277 10.6381 19.9933 C 10.6190 19.9300 10.6436 19.8617 10.6987 19.8250 C 10.7487 19.7918 10.7918 19.7487 10.8250 19.6987 C 10.8528 19.6569 10.8997 19.6317 10.9499 19.6317 Z  M 8.4499 13.0 C 8.2014 13.0 8.0 13.2014 8.0 13.4499 C 8.0 13.6985 8.2014 13.8999 8.4499 13.8999 C 8.6063 13.8999 8.7442 13.8203 8.8250 13.6987 C 8.8528 13.6569 8.8997 13.6317 8.9499 13.6317 L 8.9499 13.6317 C 9.0002 13.6317 9.0471 13.6569 9.0749 13.6987 C 9.1081 13.7487 9.1512 13.7918 9.2012 13.8250 C 9.2563 13.8617 9.2809 13.9300 9.2618 13.9933 C 9.2514 14.0277 9.2294 14.0562 9.2009 14.0751 L 9.2009 14.0751 C 9.0795 14.1560 9.0 14.2937 9.0 14.4499 C 9.0 14.6063 9.0796 14.7442 9.2012 14.8250 C 9.2563 14.8617 9.2809 14.9300 9.2618 14.9933 C 9.2514 15.0277 9.2294 15.0562 9.2009 15.0751 L 9.2009 15.0751 C 9.1512 15.1082 9.1084 15.1510 9.0752 15.2007 L 9.0752 15.2007 C 9.0476 15.2426 9.0007 15.2682 8.9499 15.2682 L 8.9499 15.2682 C 8.8992 15.2682 8.8523 15.2426 8.8247 15.2007 L 8.8247 15.2007 C 8.7438 15.0794 8.6061 15.0 8.4499 15.0 C 8.2014 15.0 8.0 15.2014 8.0 15.4499 C 8.0 15.6985 8.2014 15.8999 8.4499 15.8999 C 8.6063 15.8999 8.7442 15.8203 8.8250 15.6987 C 8.8528 15.6569 8.8997 15.6317 8.9499 15.6317 L 8.9499 15.6317 C 9.0002 15.6317 9.0471 15.6569 9.0749 15.6987 C 9.1081 15.7487 9.1512 15.7918 9.2012 15.8250 C 9.2563 15.8617 9.2809 15.9300 9.2618 15.9933 C 9.2514 16.0277 9.2294 16.0562 9.2009 16.0751 L 9.2009 16.0751 C 9.0795 16.1560 9.0 16.2937 9.0 16.4500 C 9.0 16.6985 9.2014 16.8999 9.4499 16.8999 C 9.6063 16.8999 9.7442 16.8203 9.8250 16.6987 C 9.8528 16.6569 9.8997 16.6317 9.9499 16.6317 L 9.9499 16.6317 C 10.0002 16.6317 10.0471 16.6569 10.0749 16.6987 C 10.1081 16.7487 10.1512 16.7918 10.2012 16.8250 C 10.2563 16.8617 10.2809 16.9300 10.2618 16.9933 C 10.2514 17.0277 10.2294 17.0562 10.2009 17.0751 L 10.2009 17.0751 C 10.0795 17.1560 10.0 17.2937 10.0 17.4500 C 10.0 17.6063 10.0796 17.7442 10.2012 17.8250 C 10.2563 17.8617 10.2809 17.9300 10.2618 17.9933 C 10.2514 18.0277 10.2294 18.0562 10.2009 18.0751 L 10.2009 18.0751 C 10.1512 18.1082 10.1084 18.1510 10.0752 18.2007 L 10.0752 18.2007 C 10.0476 18.2426 10.0007 18.2682 9.9499 18.2682 L 9.9499 18.2682 C 9.8992 18.2682 9.8523 18.2426 9.8247 18.2007 L 9.8247 18.2007 C 9.7438 18.0794 9.6061 18.0 9.4499 18.0 C 9.2014 18.0 9.0 18.2014 9.0 18.4500 C 9.0 18.6063 9.0796 18.7442 9.2012 18.8250 C 9.2563 18.8617 9.2809 18.9300 9.2618 18.9933 C 9.2514 19.0277 9.2294 19.0562 9.2009 19.0751 L 9.2009 19.0751 C 9.0795 19.1560 9.0 19.2937 9.0 19.4500 C 9.0 19.6985 9.2014 19.8999 9.4499 19.8999 C 9.6063 19.8999 9.7442 19.8203 9.8250 19.6987 C 9.8528 19.6569 9.8997 19.6317 9.9499 19.6317 L 9.9499 19.6317 C 10.0002 19.6317 10.0471 19.6569 10.0749 19.6987 C 10.1081 19.7487 10.1512 19.7918 10.2012 19.8250 C 10.2563 19.8617 10.2809 19.9300 10.2618 19.9933 C 10.2514 20.0277 10.2294 20.0562 10.2009 20.0751 L 10.2009 20.0751 C 10.0795 20.1560 10.0 20.2937 10.0 20.4500 C 10.0 20.6985 10.2014 20.8999 10.4499 20.8999 C 10.6063 20.8999 10.7442 20.8203 10.8250 20.6987 C 10.8528 20.6569 10.8997 20.6317 10.9499 20.6317 L 10.9499 20.6317 C 11.0002 20.6317 11.0471 20.6569 11.0749 20.6987 C 11.1557 20.8203 11.2936 20.8999 11.4499 20.8999 C 11.6063 20.8999 11.7442 20.8203 11.8250 20.6987 C 11.8528 20.6569 11.8997 20.6317 11.9499 20.6317 L 11.9499 20.6317 C 12.0002 20.6317 12.0471 20.6569 12.0749 20.6987 C 12.1557 20.8203 12.2936 20.8999 12.4499 20.8999 C 12.6063 20.8999 12.7442 20.8203 12.8250 20.6987 C 12.8528 20.6569 12.8997 20.6317 12.9499 20.6317 L 12.9499 20.6317 C 13.0002 20.6317 13.0471 20.6569 13.0749 20.6987 C 13.1557 20.8203 13.2936 20.8999 13.4499 20.8999 C 13.6063 20.8999 13.7442 20.8203 13.8250 20.6987 C 13.8528 20.6569 13.8997 20.6317 13.9499 20.6317 L 13.9499 20.6317 C 14.0002 20.6317 14.0471 20.6569 14.0749 20.6987 C 14.1557 20.8203 14.2936 20.8999 14.4499 20.8999 C 14.6985 20.8999 14.8999 20.6985 14.8999 20.4500 C 14.8999 20.2937 14.8204 20.1560 14.6990 20.0751 L 14.6990 20.0751 C 14.6705 20.0562 14.6485 20.0277 14.6381 19.9933 C 14.6190 19.9300 14.6436 19.8617 14.6987 19.8250 C 14.8203 19.7442 14.8999 19.6063 14.8999 19.4500 C 14.8999 19.2937 14.8204 19.1560 14.6990 19.0751 L 14.6990 19.0751 C 14.6705 19.0562 14.6485 19.0277 14.6381 18.9933 C 14.6190 18.9300 14.6436 18.8617 14.6987 18.8250 C 14.8203 18.7442 14.8999 18.6063 14.8999 18.4500 C 14.8999 18.2014 14.6985 18.0 14.4499 18.0 C 14.2936 18.0 14.1557 18.0796 14.0749 18.2012 C 14.0471 18.2430 14.0002 18.2682 13.9499 18.2682 L 13.9499 18.2682 C 13.8997 18.2682 13.8528 18.2430 13.8250 18.2012 C 13.7918 18.1513 13.7489 18.1083 13.6990 18.0751 L 13.6990 18.0751 C 13.6705 18.0562 13.6485 18.0277 13.6381 17.9933 C 13.6190 17.9300 13.6436 17.8617 13.6987 17.8250 C 13.8203 17.7442 13.8999 17.6063 13.8999 17.4500 C 13.8999 17.2014 13.6985 17.0 13.4499 17.0 C 13.2014 17.0 13.0 17.2014 13.0 17.4500 C 13.0 17.6063 13.0796 17.7442 13.2012 17.8250 C 13.2563 17.8617 13.2809 17.9300 13.2618 17.9933 C 13.2514 18.0277 13.2294 18.0562 13.2009 18.0751 L 13.2009 18.0751 C 13.1510 18.1083 13.1081 18.1513 13.0749 18.2012 C 13.0471 18.2430 13.0002 18.2682 12.9499 18.2682 L 12.9499 18.2682 C 12.8997 18.2682 12.8528 18.2430 12.8250 18.2012 C 12.7442 18.0796 12.6063 18.0 12.4499 18.0 C 12.2936 18.0 12.1557 18.0796 12.0749 18.2012 C 12.0471 18.2430 12.0002 18.2682 11.9499 18.2682 L 11.9499 18.2682 C 11.8997 18.2682 11.8528 18.2430 11.8250 18.2012 C 11.7918 18.1513 11.7489 18.1083 11.6990 18.0751 L 11.6990 18.0751 C 11.6705 18.0562 11.6485 18.0277 11.6381 17.9933 C 11.6190 17.9300 11.6436 17.8617 11.6987 17.8250 C 11.8203 17.7442 11.8999 17.6063 11.8999 17.4500 C 11.8999 17.2014 11.6985 17.0 11.4499 17.0 C 11.2938 17.0 11.1561 17.0794 11.0752 17.2007 L 11.0752 17.2007 C 11.0476 17.2426 11.0007 17.2682 10.9499 17.2682 L 10.9499 17.2682 C 10.8992 17.2682 10.8523 17.2426 10.8247 17.2007 L 10.8247 17.2007 C 10.7915 17.1510 10.7487 17.1082 10.6990 17.0751 L 10.6990 17.0751 C 10.6705 17.0562 10.6485 17.0277 10.6381 16.9933 C 10.6190 16.9300 10.6436 16.8617 10.6987 16.8250 C 10.8203 16.7442 10.8999 16.6063 10.8999 16.4500 C 10.8999 16.2937 10.8204 16.1560 10.6990 16.0751 L 10.6990 16.0751 C 10.6705 16.0562 10.6485 16.0277 10.6381 15.9933 C 10.6190 15.9300 10.6436 15.8617 10.6987 15.8250 C 10.8203 15.7442 10.8999 15.6063 10.8999 15.4499 C 10.8999 15.2937 10.8204 15.1560 10.6990 15.0751 L 10.6990 15.0751 C 10.6705 15.0562 10.6485 15.0277 10.6381 14.9933 C 10.6190 14.9300 10.6436 14.8617 10.6987 14.8250 C 10.7487 14.7918 10.7918 14.7487 10.8250 14.6987 C 10.8528 14.6569 10.8997 14.6317 10.9499 14.6317 L 10.9499 14.6317 C 11.0002 14.6317 11.0471 14.6569 11.0749 14.6987 C 11.1557 14.8203 11.2936 14.8999 11.4499 14.8999 C 11.6063 14.8999 11.7442 14.8203 11.8250 14.6987 C 11.8528 14.6569 11.8997 14.6317 11.9499 14.6317 L 11.9499 14.6317 C 12.0002 14.6317 12.0471 14.6569 12.0749 14.6987 C 12.1557 14.8203 12.2936 14.8999 12.4499 14.8999 C 12.6985 14.8999 12.8999 14.6985 12.8999 14.4499 C 12.8999 14.2014 12.6985 14.0 12.4499 14.0 C 12.2938 14.0 12.1561 14.0794 12.0752 14.2007 L 12.0752 14.2007 C 12.0476 14.2426 12.0007 14.2682 11.9499 14.2682 L 11.9499 14.2682 C 11.8992 14.2682 11.8523 14.2426 11.8247 14.2007 L 11.8247 14.2007 C 11.7915 14.1510 11.7487 14.1082 11.6990 14.0751 L 11.6990 14.0751 C 11.6705 14.0562 11.6485 14.0277 11.6381 13.9933 C 11.6190 13.9300 11.6436 13.8617 11.6987 13.8250 C 11.8203 13.7442 11.8999 13.6063 11.8999 13.4499 C 11.8999 13.2014 11.6985 13.0 11.4499 13.0 C 11.2014 13.0 11.0 13.2014 11.0 13.4499 C 11.0 13.6063 11.0796 13.7442 11.2012 13.8250 C 11.2563 13.8617 11.2809 13.9300 11.2618 13.9933 C 11.2514 14.0277 11.2294 14.0562 11.2009 14.0751 L 11.2009 14.0751 C 11.1512 14.1082 11.1084 14.1510 11.0752 14.2007 L 11.0752 14.2007 C 11.0476 14.2426 11.0007 14.2682 10.9499 14.2682 L 10.9499 14.2682 C 10.8992 14.2682 10.8523 14.2426 10.8247 14.2007 L 10.8247 14.2007 C 10.7438 14.0794 10.6061 14.0 10.4499 14.0 C 10.2938 14.0 10.1561 14.0794 10.0752 14.2007 L 10.0752 14.2007 C 10.0476 14.2426 10.0007 14.2682 9.9499 14.2682 L 9.9499 14.2682 C 9.8992 14.2682 9.8523 14.2426 9.8247 14.2007 L 9.8247 14.2007 C 9.7915 14.1510 9.7487 14.1082 9.6990 14.0751 L 9.6990 14.0751 C 9.6705 14.0562 9.6485 14.0277 9.6381 13.9933 C 9.6190 13.9300 9.6436 13.8617 9.6987 13.8250 C 9.8203 13.7442 9.8999 13.6063 9.8999 13.4499 C 9.8999 13.2014 9.6985 13.0 9.4499 13.0 C 9.2938 13.0 9.1561 13.0794 9.0752 13.2007 L 9.0752 13.2007 C 9.0476 13.2426 9.0007 13.2682 8.9499 13.2682 L 8.9499 13.2682 C 8.8992 13.2682 8.8523 13.2426 8.8247 13.2007 L 8.8247 13.2007 C 8.7438 13.0794 8.6061 13.0 8.4499 13.0 Z  M 16.4500 19.0 C 16.2014 19.0 16.0 19.2014 16.0 19.4500 C 16.0 19.6063 16.0796 19.7442 16.2012 19.8250 C 16.2563 19.8617 16.2809 19.9300 16.2618 19.9933 C 16.2514 20.0277 16.2294 20.0562 16.2009 20.0751 L 16.2009 20.0751 C 16.0795 20.1560 16.0 20.2937 16.0 20.4500 C 16.0 20.6985 16.2014 20.8999 16.4500 20.8999 C 16.6985 20.8999 16.8999 20.6985 16.8999 20.4500 C 16.8999 20.2937 16.8204 20.1560 16.6990 20.0751 L 16.6990 20.0751 C 16.6705 20.0562 16.6485 20.0277 16.6381 19.9933 C 16.6190 19.9300 16.6436 19.8617 16.6987 19.8250 C 16.8203 19.7442 16.8999 19.6063 16.8999 19.4500 C 16.8999 19.2014 16.6985 19.0 16.4500 19.0 Z  M 18.4500 19.0 C 18.2014 19.0 18.0 19.2014 18.0 19.4500 C 18.0 19.6063 18.0796 19.7442 18.2012 19.8250 C 18.2563 19.8617 18.2809 19.9300 18.2618 19.9933 C 18.2514 20.0277 18.2294 20.0562 18.2009 20.0751 L 18.2009 20.0751 C 18.0795 20.1560 18.0 20.2937 18.0 20.4500 C 18.0 20.6985 18.2014 20.8999 18.4500 20.8999 C 18.6063 20.8999 18.7442 20.8203 18.8250 20.6987 C 18.8528 20.6569 18.8997 20.6317 18.9500 20.6317 L 18.9500 20.6317 C 19.0002 20.6317 19.0471 20.6569 19.0749 20.6987 C 19.1557 20.8203 19.2936 20.8999 19.4500 20.8999 C 19.6985 20.8999 19.8999 20.6985 19.8999 20.4500 C 19.8999 20.2014 19.6985 20.0 19.4500 20.0 C 19.2936 20.0 19.1557 20.0796 19.0749 20.2012 C 19.0471 20.2430 19.0002 20.2682 18.9500 20.2682 L 18.9500 20.2682 C 18.8997 20.2682 18.8528 20.2430 18.8250 20.2012 C 18.7918 20.1513 18.7489 20.1083 18.6990 20.0751 L 18.6990 20.0751 C 18.6705 20.0562 18.6485 20.0277 18.6381 19.9933 C 18.6190 19.9300 18.6436 19.8617 18.6987 19.8250 C 18.8203 19.7442 18.8999 19.6063 18.8999 19.4500 C 18.8999 19.2014 18.6985 19.0 18.4500 19.0 Z  M 1.75 14.0 C 0.7835 14.0 0.0 14.7835 0.0 15.75 L 0.0 19.25 C 0.0 20.2164 0.7835 21.0 1.75 21.0 L 5.25 21.0 C 6.2164 21.0 7.0 20.2164 7.0 19.25 L 7.0 15.75 C 7.0 14.7835 6.2164 14.0 5.25 14.0 Z "/></g></svg>
