<!DOCTYPE svg PUBLIC "-//W3C//DTD SVG 1.1//EN" "http://www.w3.org/Graphics/SVG/1.1/DTD/svg11.dtd">
<svg xmlns="http://www.w3.org/2000/svg" xmlns:xlink="http://www.w3.org/1999/xlink" xmlns:jfreesvg="http://www.jfree.org/jfreesvg/svg" width="232" height="232" text-rendering="auto" shape-rendering="auto">
<defs></defs>
<g style="fill: rgb(0,0,0); fill-opacity: 1.0; stroke: none" transform="matrix(8.0,0.0,0.0,8.0,0.0,0.0)" ><path d="M 8.0 0.0 L 8.0 0.8999 L 8.8999 0.8999 L 8.8999 0.0 Z  M 11.0 0.0 L 11.0 0.8999 L 11.8999 0.8999 L 11.8999 0.0 Z  M 15.0 0.0 L 15.0 0.8999 L 15.8999 0.8999 L 15.8999 0.0 Z  M 16.0 0.0 L 16.0 0.8999 L 16.8999 0.8999 L 16.8999 0.0 Z  M 17.0 0.0 L 17.0 0.8999 L 17.8999 0.8999 L 17.8999 0.0 Z  M 8.0 1.0 L 8.0 1.8999 L 8.8999 1.8999 L 8.8999 1.0 Z  M 10.0 1.0 L 10.0 1.8999 L 10.8999 1.8999 L 10.8999 1.0 Z  M 16.0 1.0 L 16.0 1.8999 L 16.8999 1.8999 L 16.8999 1.0 Z  M 17.0 1.0 L 17.0 1.8999 L 17.8999 1.8999 L 17.8999 1.0 Z  M 18.0 1.0 L 18.0 1.8999 L 18.8999 1.8999 L 18.8999 1.0 Z  M 19.0 1.0 L 19.0 1.8999 L 19.8999 1.8999 L 19.8999 1.0 Z  M 8.0 2.0 L 8.0 2.9000 L 8.8999 2.9000 L 8.8999 2.0 Z  M 9.0 2.0 L 9.0 2.9000 L 9.8999 2.9000 L 9.8999 2.0 Z  M 11.0 2.0 L 11.0 2.9000 L 11.8999 2.9000 L 11.8999 2.0 Z  M 15.0 2.0 L 15.0 2.9000 L 15.8999 2.9000 L 15.8999 2.0 Z  M 16.0 2.0 L 16.0 2.9000 L 16.8999 2.9000 L 16.8999 2.0 Z  M 19.0 2.0 L 19.0 2.9000 L 19.8999 2.9000 L 19.8999 2.0 Z  M 11.0 3.0 L 11.0 3.9000 L 11.8999 3.9000 L 11.8999 3.0 Z  M 12.0 3.0 L 12.0 3.9000 L 12.8999 3.9000 L 12.8999 3.0 Z  M 16.0 3.0 L 16.0 3.9000 L 16.8999 3.9000 L 16.8999 3.0 Z  M 17.0 3.0 L 17.0 3.9000 L 17.8999 3.9000 L 17.8999 3.0 Z  M 20.0 3.0 L 20.0 3.9000 L 20.8999 3.9000 L 20.8999 3.0 Z  M 8.0 4.0 L 8.0 4.9000 L 8.8999 4.9000 L 8.8999 4.0 Z  M 9.0 4.0 L 9.0 4.9000 L 9.8999 4.9000 L 9.8999 4.0 Z  M 10.0 4.0 L 10.0 4.9000 L 10.8999 4.9000 L 10.8999 4.0 Z  M 11.0 4.0 L 11.0 4.9000 L 11.8999 4.9000 L 11.8999 4.0 Z  M 12.0 4.0 L 12.0 4.9000 L 12.8999 4.9000 L 12.8999 4.0 Z  M 14.0 4.0 L 14.0 4.9000 L 14.8999 4.9000 L 14.8999 4.0 Z  M 15.0 4.0 L 15.0 4.9000 L 15.8999 4.9000 L 15.8999 4.0 Z  M 16.0 4.0 L 16.0 4.9000 L 16.8999 4.9000 L 16.8999 4.0 Z  M 17.0 4.0 L 17.0 4.9000 L 17.8999 4.9000 L 17.8999 4.0 Z  M 19.0 4.0 L 19.0 4.9000 L 19.8999 4.9000 L 19.8999 4.0 Z  M 2.0 2.0 L 2.0 5.0 L 5.0 5.0 L 5.0 2.0 Z  M 24.0 2.0 L 24.0 5.0 L 27.0 5.0 L 27.0 2.0 Z  M 10.0 5.0 L 10.0 5.9000 L 10.8999 5.9000 L 10.8999 5.0 Z  M 11.0 5.0 L 11.0 5.9000 L 11.8999 5.9000 L 11.8999 5.0 Z  M 15.0 5.0 L 15.0 5.9000 L 15.8999 5.9000 L 15.8999 5.0 Z  M 16.0 5.0 L 16.0 5.9000 L 16.8999 5.9000 L 16.8999 5.0 Z  M 18.0 5.0 L 18.0 5.9000 L 18.8999 5.9000 L 18.8999 5.0 Z  M 6.0 1.0 L 6.0 6.0 L 1.0 6.0 L 1.0 1.0 Z  M 28.0 1.0 L 28.0 6.0 L 23.0 6.0 L 23.0 1.0 Z  M 8.0 6.0 L 8.0 6.9000 L 8.8999 6.9000 L 8.8999 6.0 Z  M 10.0 6.0 L 10.0 6.9000 L 10.8999 6.9000 L 10.8999 6.0 Z  M 12.0 6.0 L 12.0 6.9000 L 12.8999 6.9000 L 12.8999 6.0 Z  M 14.0 6.0 L 14.0 6.9000 L 14.8999 6.9000 L 14.8999 6.0 Z  M 16.0 6.0 L 16.0 6.9000 L 16.8999 6.9000 L 16.8999 6.0 Z  M 18.0 6.0 L 18.0 6.9000 L 18.8999 6.9000 L 18.8999 6.0 Z  M 20.0 6.0 L 20.0 6.9000 L 20.8999 6.9000 L 20.8999 6.0 Z  M 0.0 0.0 L 0.0 7.0 L 7.0 7.0 L 7.0 0.0 Z  M 22.0 0.0 L 22.0 7.0 L 29.0 7.0 L 29.0 0.0 Z  M 9.0 7.0 L 9.0 7.9000 L 9.8999 7.9000 L 9.8999 7.0 Z  M 10.0 7.0 L 10.0 7.9000 L 10.8999 7.9000 L 10.8999 7.0 Z  M 11.0 7.0 L 11.0 7.9000 L 11.8999 7.9000 L 11.8999 7.0 Z  M 13.0 7.0 L 13.0 7.9000 L 13.8999 7.9000 L 13.8999 7.0 Z  M 15.0 7.0 L 15.0 7.9000 L 15.8999 7.9000 L 15.8999 7.0 Z  M 16.0 7.0 L 16.0 7.9000 L 16.8999 7.9000 L 16.8999 7.0 Z  M 19.0 7.0 L 19.0 7.9000 L 19.8999 7.9000 L 19.8999 7.0 Z  M 20.0 7.0 L 20.0 7.9000 L 20.8999 7.9000 L 20.8999 7.0 Z  M 0.0 8.0 L 0.0 8.8999 L 0.8999 8.8999 L 0.8999 8.0 Z  M 3.0 8.0 L 3.0 8.8999 L 3.9000 8.8999 L 3.9000 8.0 Z  M 4.0 8.0 L 4.0 8.8999 L 4.9000 8.8999 L 4.9000 8.0 Z  M 5.0 8.0 L 5.0 8.8999 L 5.9000 8.8999 L 5.9000 8.0 Z  M 6.0 8.0 L 6.0 8.8999 L 6.9000 8.8999 L 6.9000 8.0 Z  M 7.0 8.0 L 7.0 8.8999 L 7.9000 8.8999 L 7.9000 8.0 Z  M 8.0 8.0 L 8.0 8.8999 L 8.8999 8.8999 L 8.8999 8.0 Z  M 9.0 8.0 L 9.0 8.8999 L 9.8999 8.8999 L 9.8999 8.0 Z  M 11.0 8.0 L 11.0 8.8999 L 11.8999 8.8999 L 11.8999 8.0 Z  M 13.0 8.0 L 13.0 8.8999 L 13.8999 8.8999 L 13.8999 8.0 Z  M 17.0 8.0 L 17.0 8.8999 L 17.8999 8.8999 L 17.8999 8.0 Z  M 19.0 8.0 L 19.0 8.8999 L 19.8999 8.8999 L 19.8999 8.0 Z  M 20.0 8.0 L 20.0 8.8999 L 20.8999 8.8999 L 20.8999 8.0 Z  M 21.0 8.0 L 21.0 8.8999 L 21.8999 8.8999 L 21.8999 8.0 Z  M 24.0 8.0 L 24.0 8.8999 L 24.8999 8.8999 L 24.8999 8.0 Z  M 26.0 8.0 L 26.0 8.8999 L 26.8999 8.8999 L 26.8999 8.0 Z  M 27.0 8.0 L 27.0 8.8999 L 27.8999 8.8999 L 27.8999 8.0 Z  M 28.0 8.0 L 28.0 8.8999 L 28.8999 8.8999 L 28.8999 8.0 Z  M 1.0 9.0 L 1.0 9.8999 L 1.8999 9.8999 L 1.8999 9.0 Z  M 2.0 9.0 L 2.0 9.8999 L 2.9000 9.8999 L 2.9000 9.0 Z  M 5.0 9.0 L 5.0 9.8999 L 5.9000 9.8999 L 5.9000 9.0 Z  M 7.0 9.0 L 7.0 9.8999 L 7.9000 9.8999 L 7.9000 9.0 Z  M 9.0 9.0 L 9.0 9.8999 L 9.8999 9.8999 L 9.8999 9.0 Z  M 11.0 9.0 L 11.0 9.8999 L 11.8999 9.8999 L 11.8999 9.0 Z  M 12.0 9.0 L 12.0 9.8999 L 12.8999 9.8999 L 12.8999 9.0 Z  M 13.0 9.0 L 13.0 9.8999 L 13.8999 9.8999 L 13.8999 9.0 Z  M 16.0 9.0 L 16.0 9.8999 L 16.8999 9.8999 L 16.8999 9.0 Z  M 19.0 9.0 L 19.0 9.8999 L 19.8999 9.8999 L 19.8999 9.0 Z  M 21.0 9.0 L 21.0 9.8999 L 21.8999 9.8999 L 21.8999 9.0 Z  M 24.0 9.0 L 24.0 9.8999 L 24.8999 9.8999 L 24.8999 9.0 Z  M 28.0 9.0 L 28.0 9.8999 L 28.8999 9.8999 L 28.8999 9.0 Z  M 0.0 10.0 L 0.0 10.8999 L 0.8999 10.8999 L 0.8999 10.0 Z  M 2.0 10.0 L 2.0 10.8999 L 2.9000 10.8999 L 2.9000 10.0 Z  M 6.0 10.0 L 6.0 10.8999 L 6.9000 10.8999 L 6.9000 10.0 Z  M 10.0 10.0 L 10.0 10.8999 L 10.8999 10.8999 L 10.8999 10.0 Z  M 11.0 10.0 L 11.0 10.8999 L 11.8999 10.8999 L 11.8999 10.0 Z  M 13.0 10.0 L 13.0 10.8999 L 13.8999 10.8999 L 13.8999 10.0 Z  M 15.0 10.0 L 15.0 10.8999 L 15.8999 10.8999 L 15.8999 10.0 Z  M 16.0 10.0 L 16.0 10.8999 L 16.8999 10.8999 L 16.8999 10.0 Z  M 20.0 10.0 L 20.0 10.8999 L 20.8999 10.8999 L 20.8999 10.0 Z  M 21.0 10.0 L 21.0 10.8999 L 21.8999 10.8999 L 21.8999 10.0 Z  M 22.0 10.0 L 22.0 10.8999 L 22.8999 10.8999 L 22.8999 10.0 Z  M 25.0 10.0 L 25.0 10.8999 L 25.8999 10.8999 L 25.8999 10.0 Z  M 26.0 10.0 L 26.0 10.8999 L 26.8999 10.8999 L 26.8999 10.0 Z  M 0.0 11.0 L 0.0 11.8999 L 0.8999 11.8999 L 0.8999 11.0 Z  M 1.0 11.0 L 1.0 11.8999 L 1.8999 11.8999 L 1.8999 11.0 Z  M 2.0 11.0 L 2.0 11.8999 L 2.9000 11.8999 L 2.9000 11.0 Z  M 5.0 11.0 L 5.0 11.8999 L 5.9000 11.8999 L 5.9000 11.0 Z  M 7.0 11.0 L 7.0 11.8999 L 7.9000 11.8999 L 7.9000 11.0 Z  M 8.0 11.0 L 8.0 11.8999 L 8.8999 11.8999 L 8.8999 11.0 Z  M 10.0 11.0 L 10.0 11.8999 L 10.8999 11.8999 L 10.8999 11.0 Z  M 13.0 11.0 L 13.0 11.8999 L 13.8999 11.8999 L 13.8999 11.0 Z  M 16.0 11.0 L 16.0 11.8999 L 16.8999 11.8999 L 16.8999 11.0 Z  M 17.0 11.0 L 17.0 11.8999 L 17.8999 11.8999 L 17.8999 11.0 Z  M 19.0 11.0 L 19.0 11.8999 L 19.8999 11.8999 L 19.8999 11.0 Z  M 23.0 11.0 L 23.0 11.8999 L 23.8999 11.8999 L 23.8999 11.0 Z  M 24.0 11.0 L 24.0 11.8999 L 24.8999 11.8999 L 24.8999 11.0 Z  M 0.0 12.0 L 0.0 12.8999 L 0.8999 12.8999 L 0.8999 12.0 Z  M 2.0 12.0 L 2.0 12.8999 L 2.9000 12.8999 L 2.9000 12.0 Z  M 6.0 12.0 L 6.0 12.8999 L 6.9000 12.8999 L 6.9000 12.0 Z  M 7.0 12.0 L 7.0 12.8999 L 7.9000 12.8999 L 7.9000 12.0 Z  M 8.0 12.0 L 8.0 12.8999 L 8.8999 12.8999 L 8.8999 12.0 Z  M 9.0 12.0 L 9.0 12.8999 L 9.8999 12.8999 L 9.8999 12.0 Z  M 11.0 12.0 L 11.0 12.8999 L 11.8999 12.8999 L 11.8999 12.0 Z  M 12.0 12.0 L 12.0 12.8999 L 12.8999 12.8999 L 12.8999 12.0 Z  M 13.0 12.0 L 13.0 12.8999 L 13.8999 12.8999 L 13.8999 12.0 Z  M 15.0 12.0 L 15.0 12.8999 L 15.8999 12.8999 L 15.8999 12.0 Z  M 16.0 12.0 L 16.0 12.8999 L 16.8999 12.8999 L 16.8999 12.0 Z  M 22.0 12.0 L 22.0 12.8999 L 22.8999 12.8999 L 22.8999 12.0 Z  M 24.0 12.0 L 24.0 12.8999 L 24.8999 12.8999 L 24.8999 12.0 Z  M 28.0 12.0 L 28.0 12.8999 L 28.8999 12.8999 L 28.8999 12.0 Z  M 2.0 13.0 L 2.0 13.8999 L 2.9000 13.8999 L 2.9000 13.0 Z  M 7.0 13.0 L 7.0 13.8999 L 7.9000 13.8999 L 7.9000 13.0 Z  M 9.0 13.0 L 9.0 13.8999 L 9.8999 13.8999 L 9.8999 13.0 Z  M 11.0 13.0 L 11.0 13.8999 L 11.8999 13.8999 L 11.8999 13.0 Z  M 12.0 13.0 L 12.0 13.8999 L 12.8999 13.8999 L 12.8999 13.0 Z  M 13.0 13.0 L 13.0 13.8999 L 13.8999 13.8999 L 13.8999 13.0 Z  M 14.0 13.0 L 14.0 13.8999 L 14.8999 13.8999 L 14.8999 13.0 Z  M 16.0 13.0 L 16.0 13.8999 L 16.8999 13.8999 L 16.8999 13.0 Z  M 17.0 13.0 L 17.0 13.8999 L 17.8999 13.8999 L 17.8999 13.0 Z  M 18.0 13.0 L 18.0 13.8999 L 18.8999 13.8999 L 18.8999 13.0 Z  M 20.0 13.0 L 20.0 13.8999 L 20.8999 13.8999 L 20.8999 13.0 Z  M 22.0 13.0 L 22.0 13.8999 L 22.8999 13.8999 L 22.8999 13.0 Z  M 23.0 13.0 L 23.0 13.8999 L 23.8999 13.8999 L 23.8999 13.0 Z  M 24.0 13.0 L 24.0 13.8999 L 24.8999 13.8999 L 24.8999 13.0 Z  M 25.0 13.0 L 25.0 13.8999 L 25.8999 13.8999 L 25.8999 13.0 Z  M 0.0 14.0 L 0.0 14.8999 L 0.8999 14.8999 L 0.8999 14.0 Z  M 1.0 14.0 L 1.0 14.8999 L 1.8999 14.8999 L 1.8999 14.0 Z  M 6.0 14.0 L 6.0 14.8999 L 6.9000 14.8999 L 6.9000 14.0 Z  M 9.0 14.0 L 9.0 14.8999 L 9.8999 14.8999 L 9.8999 14.0 Z  M 11.0 14.0 L 11.0 14.8999 L 11.8999 14.8999 L 11.8999 14.0 Z  M 12.0 14.0 L 12.0 14.8999 L 12.8999 14.8999 L 12.8999 14.0 Z  M 13.0 14.0 L 13.0 14.8999 L 13.8999 14.8999 L 13.8999 14.0 Z  M 16.0 14.0 L 16.0 14.8999 L 16.8999 14.8999 L 16.8999 14.0 Z  M 17.0 14.0 L 17.0 14.8999 L 17.8999 14.8999 L 17.8999 14.0 Z  M 19.0 14.0 L 19.0 14.8999 L 19.8999 14.8999 L 19.8999 14.0 Z  M 21.0 14.0 L 21.0 14.8999 L 21.8999 14.8999 L 21.8999 14.0 Z  M 23.0 14.0 L 23.0 14.8999 L 23.8999 14.8999 L 23.8999 14.0 Z  M 25.0 14.0 L 25.0 14.8999 L 25.8999 14.8999 L 25.8999 14.0 Z  M 26.0 14.0 L 26.0 14.8999 L 26.8999 14.8999 L 26.8999 14.0 Z  M 28.0 14.0 L 28.0 14.8999 L 28.8999 14.8999 L 28.8999 14.0 Z  M 11.0 15.0 L 11.0 15.8999 L 11.8999 15.8999 L 11.8999 15.0 Z  M 12.0 15.0 L 12.0 15.8999 L 12.8999 15.8999 L 12.8999 15.0 Z  M 15.0 15.0 L 15.0 15.8999 L 15.8999 15.8999 L 15.8999 15.0 Z  M 20.0 15.0 L 20.0 15.8999 L 20.8999 15.8999 L 20.8999 15.0 Z  M 21.0 15.0 L 21.0 15.8999 L 21.8999 15.8999 L 21.8999 15.0 Z  M 25.0 15.0 L 25.0 15.8999 L 25.8999 15.8999 L 25.8999 15.0 Z  M 26.0 15.0 L 26.0 15.8999 L 26.8999 15.8999 L 26.8999 15.0 Z  M 27.0 15.0 L 27.0 15.8999 L 27.8999 15.8999 L 27.8999 15.0 Z  M 28.0 15.0 L 28.0 15.8999 L 28.8999 15.8999 L 28.8999 15.0 Z  M 2.0 16.0 L 2.0 16.8999 L 2.9000 16.8999 L 2.9000 16.0 Z  M 4.0 16.0 L 4.0 16.8999 L 4.9000 16.8999 L 4.9000 16.0 Z  M 6.0 16.0 L 6.0 16.8999 L 6.9000 16.8999 L 6.9000 16.0 Z  M 9.0 16.0 L 9.0 16.8999 L 9.8999 16.8999 L 9.8999 16.0 Z  M 14.0 16.0 L 14.0 16.8999 L 14.8999 16.8999 L 14.8999 16.0 Z  M 16.0 16.0 L 16.0 16.8999 L 16.8999 16.8999 L 16.8999 16.0 Z  M 25.0 16.0 L 25.0 16.8999 L 25.8999 16.8999 L 25.8999 16.0 Z  M 26.0 16.0 L 26.0 16.8999 L 26.8999 16.8999 L 26.8999 16.0 Z  M 27.0 16.0 L 27.0 16.8999 L 27.8999 16.8999 L 27.8999 16.0 Z  M 28.0 16.0 L 28.0 16.8999 L 28.8999 16.8999 L 28.8999 16.0 Z  M 0.0 17.0 L 0.0 17.8999 L 0.8999 17.8999 L 0.8999 17.0 Z  M 2.0 17.0 L 2.0 17.8999 L 2.9000 17.8999 L 2.9000 17.0 Z  M 4.0 17.0 L 4.0 17.8999 L 4.9000 17.8999 L 4.9000 17.0 Z  M 8.0 17.0 L 8.0 17.8999 L 8.8999 17.8999 L 8.8999 17.0 Z  M 9.0 17.0 L 9.0 17.8999 L 9.8999 17.8999 L 9.8999 17.0 Z  M 10.0 17.0 L 10.0 17.8999 L 10.8999 17.8999 L 10.8999 17.0 Z  M 13.0 17.0 L 13.0 17.8999 L 13.8999 17.8999 L 13.8999 17.0 Z  M 14.0 17.0 L 14.0 17.8999 L 14.8999 17.8999 L 14.8999 17.0 Z  M 16.0 17.0 L 16.0 17.8999 L 16.8999 17.8999 L 16.8999 17.0 Z  M 17.0 17.0 L 17.0 17.8999 L 17.8999 17.8999 L 17.8999 17.0 Z  M 20.0 17.0 L 20.0 17.8999 L 20.8999 17.8999 L 20.8999 17.0 Z  M 21.0 17.0 L 21.0 17.8999 L 21.8999 17.8999 L 21.8999 17.0 Z  M 23.0 17.0 L 23.0 17.8999 L 23.8999 17.8999 L 23.8999 17.0 Z  M 24.0 17.0 L 24.0 17.8999 L 24.8999 17.8999 L 24.8999 17.0 Z  M 25.0 17.0 L 25.0 17.8999 L 25.8999 17.8999 L 25.8999 17.0 Z  M 28.0 17.0 L 28.0 17.8999 L 28.8999 17.8999 L 28.8999 17.0 Z  M 0.0 18.0 L 0.0 18.8999 L 0.8999 18.8999 L 0.8999 18.0 Z  M 1.0 18.0 L 1.0 18.8999 L 1.8999 18.8999 L 1.8999 18.0 Z  M 2.0 18.0 L 2.0 18.8999 L 2.9000 18.8999 L 2.9000 18.0 Z  M 3.0 18.0 L 3.0 18.8999 L 3.9000 18.8999 L 3.9000 18.0 Z  M 4.0 18.0 L 4.0 18.8999 L 4.9000 18.8999 L 4.9000 18.0 Z  M 6.0 18.0 L 6.0 18.8999 L 6.9000 18.8999 L 6.9000 18.0 Z  M 11.0 18.0 L 11.0 18.8999 L 11.8999 18.8999 L 11.8999 18.0 Z  M 12.0 18.0 L 12.0 18.8999 L 12.8999 18.8999 L 12.8999 18.0 Z  M 15.0 18.0 L 15.0 18.8999 L 15.8999 18.8999 L 15.8999 18.0 Z  M 18.0 18.0 L 18.0 18.8999 L 18.8999 18.8999 L 18.8999 18.0 Z  M 19.0 18.0 L 19.0 18.8999 L 19.8999 18.8999 L 19.8999 18.0 Z  M 22.0 18.0 L 22.0 18.8999 L 22.8999 18.8999 L 22.8999 18.0 Z  M 24.0 18.0 L 24.0 18.8999 L 24.8999 18.8999 L 24.8999 18.0 Z  M 25.0 18.0 L 25.0 18.8999 L 25.8999 18.8999 L 25.8999 18.0 Z  M 26.0 18.0 L 26.0 18.8999 L 26.8999 18.8999 L 26.8999 18.0 Z  M 28.0 18.0 L 28.0 18.8999 L 28.8999 18.8999 L 28.8999 18.0 Z  M 0.0 19.0 L 0.0 19.8999 L 0.8999 19.8999 L 0.8999 19.0 Z  M 1.0 19.0 L 1.0 19.8999 L 1.8999 19.8999 L 1.8999 19.0 Z  M 4.0 19.0 L 4.0 19.8999 L 4.9000 19.8999 L 4.9000 19.0 Z  M 5.0 19.0 L 5.0 19.8999 L 5.9000 19.8999 L 5.9000 19.0 Z  M 7.0 19.0 L 7.0 19.8999 L 7.9000 19.8999 L 7.9000 19.0 Z  M 8.0 19.0 L 8.0 19.8999 L 8.8999 19.8999 L 8.8999 19.0 Z  M 9.0 19.0 L 9.0 19.8999 L 9.8999 19.8999 L 9.8999 19.0 Z  M 10.0 19.0 L 10.0 19.8999 L 10.8999 19.8999 L 10.8999 19.0 Z  M 12.0 19.0 L 12.0 19.8999 L 12.8999 19.8999 L 12.8999 19.0 Z  M 14.0 19.0 L 14.0 19.8999 L 14.8999 19.8999 L 14.8999 19.0 Z  M 18.0 19.0 L 18.0 19.8999 L 18.8999 19.8999 L 18.8999 19.0 Z  M 20.0 19.0 L 20.0 19.8999 L 20.8999 19.8999 L 20.8999 19.0 Z  M 21.0 19.0 L 21.0 19.8999 L 21.8999 19.8999 L 21.8999 19.0 Z  M 24.0 19.0 L 24.0 19.8999 L 24.8999 19.8999 L 24.8999 19.0 Z  M 25.0 19.0 L 25.0 19.8999 L 25.8999 19.8999 L 25.8999 19.0 Z  M 26.0 19.0 L 26.0 19.8999 L 26.8999 19.8999 L 26.8999 19.0 Z  M 27.0 19.0 L 27.0 19.8999 L 27.8999 19.8999 L 27.8999 19.0 Z  M 28.0 19.0 L 28.0 19.8999 L 28.8999 19.8999 L 28.8999 19.0 Z  M 0.0 20.0 L 0.0 20.8999 L 0.8999 20.8999 L 0.8999 20.0 Z  M 1.0 20.0 L 1.0 20.8999 L 1.8999 20.8999 L 1.8999 20.0 Z  M 2.0 20.0 L 2.0 20.8999 L 2.9000 20.8999 L 2.9000 20.0 Z  M 3.0 20.0 L 3.0 20.8999 L 3.9000 20.8999 L 3.9000 20.0 Z  M 4.0 20.0 L 4.0 20.8999 L 4.9000 20.8999 L 4.9000 20.0 Z  M 6.0 20.0 L 6.0 20.8999 L 6.9000 20.8999 L 6.9000 20.0 Z  M 7.0 20.0 L 7.0 20.8999 L 7.9000 20.8999 L 7.9000 20.0 Z  M 9.0 20.0 L 9.0 20.8999 L 9.8999 20.8999 L 9.8999 20.0 Z  M 12.0 20.0 L 12.0 20.8999 L 12.8999 20.8999 L 12.8999 20.0 Z  M 13.0 20.0 L 13.0 20.8999 L 13.8999 20.8999 L 13.8999 20.0 Z  M 14.0 20.0 L 14.0 20.8999 L 14.8999 20.8999 L 14.8999 20.0 Z  M 15.0 20.0 L 15.0 20.8999 L 15.8999 20.8999 L 15.8999 20.0 Z  M 16.0 20.0 L 16.0 20.8999 L 16.8999 20.8999 L 16.8999 20.0 Z  M 17.0 20.0 L 17.0 20.8999 L 17.8999 20.8999 L 17.8999 20.0 Z  M 20.0 20.0 L 20.0 20.8999 L 20.8999 20.8999 L 20.8999 20.0 Z  M 21.0 20.0 L 21.0 20.8999 L 21.8999 20.8999 L 21.8999 20.0 Z  M 22.0 20.0 L 22.0 20.8999 L 22.8999 20.8999 L 22.8999 20.0 Z  M 23.0 20.0 L 23.0 20.8999 L 23.8999 20.8999 L 23.8999 20.0 Z  M 24.0 20.0 L 24.0 20.8999 L 24.8999 20.8999 L 24.8999 20.0 Z  M 26.0 20.0 L 26.0 20.8999 L 26.8999 20.8999 L 26.8999 20.0 Z  M 28.0 20.0 L 28.0 20.8999 L 28.8999 20.8999 L 28.8999 20.0 Z  M 8.0 21.0 L 8.0 21.8999 L 8.8999 21.8999 L 8.8999 21.0 Z  M 11.0 21.0 L 11.0 21.8999 L 11.8999 21.8999 L 11.8999 21.0 Z  M 14.0 21.0 L 14.0 21.8999 L 14.8999 21.8999 L 14.8999 21.0 Z  M 18.0 21.0 L 18.0 21.8999 L 18.8999 21.8999 L 18.8999 21.0 Z  M 19.0 21.0 L 19.0 21.8999 L 19.8999 21.8999 L 19.8999 21.0 Z  M 20.0 21.0 L 20.0 21.8999 L 20.8999 21.8999 L 20.8999 21.0 Z  M 24.0 21.0 L 24.0 21.8999 L 24.8999 21.8999 L 24.8999 21.0 Z  M 27.0 21.0 L 27.0 21.8999 L 27.8999 21.8999 L 27.8999 21.0 Z  M 28.0 21.0 L 28.0 21.8999 L 28.8999 21.8999 L 28.8999 21.0 Z  M 8.0 22.0 L 8.0 22.8999 L 8.8999 22.8999 L 8.8999 22.0 Z  M 10.0 22.0 L 10.0 22.8999 L 10.8999 22.8999 L 10.8999 22.0 Z  M 14.0 22.0 L 14.0 22.8999 L 14.8999 22.8999 L 14.8999 22.0 Z  M 17.0 22.0 L 17.0 22.8999 L 17.8999 22.8999 L 17.8999 22.0 Z  M 19.0 22.0 L 19.0 22.8999 L 19.8999 22.8999 L 19.8999 22.0 Z  M 20.0 22.0 L 20.0 22.8999 L 20.8999 22.8999 L 20.8999 22.0 Z  M 22.0 22.0 L 22.0 22.8999 L 22.8999 22.8999 L 22.8999 22.0 Z  M 24.0 22.0 L 24.0 22.8999 L 24.8999 22.8999 L 24.8999 22.0 Z  M 8.0 23.0 L 8.0 23.8999 L 8.8999 23.8999 L 8.8999 23.0 Z  M 10.0 23.0 L 10.0 23.8999 L 10.8999 23.8999 L 10.8999 23.0 Z  M 11.0 23.0 L 11.0 23.8999 L 11.8999 23.8999 L 11.8999 23.0 Z  M 14.0 23.0 L 14.0 23.8999 L 14.8999 23.8999 L 14.8999 23.0 Z  M 15.0 23.0 L 15.0 23.8999 L 15.8999 23.8999 L 15.8999 23.0 Z  M 17.0 23.0 L 17.0 23.8999 L 17.8999 23.8999 L 17.8999 23.0 Z  M 18.0 23.0 L 18.0 23.8999 L 18.8999 23.8999 L 18.8999 23.0 Z  M 20.0 23.0 L 20.0 23.8999 L 20.8999 23.8999 L 20.8999 23.0 Z  M 24.0 23.0 L 24.0 23.8999 L 24.8999 23.8999 L 24.8999 23.0 Z  M 25.0 23.0 L 25.0 23.8999 L 25.8999 23.8999 L 25.8999 23.0 Z  M 8.0 24.0 L 8.0 24.8999 L 8.8999 24.8999 L 8.8999 24.0 Z  M 9.0 24.0 L 9.0 24.8999 L 9.8999 24.8999 L 9.8999 24.0 Z  M 10.0 24.0 L 10.0 24.8999 L 10.8999 24.8999 L 10.8999 24.0 Z  M 11.0 24.0 L 11.0 24.8999 L 11.8999 24.8999 L 11.8999 24.0 Z  M 12.0 24.0 L 12.0 24.8999 L 12.8999 24.8999 L 12.8999 24.0 Z  M 13.0 24.0 L 13.0 24.8999 L 13.8999 24.8999 L 13.8999 24.0 Z  M 14.0 24.0 L 14.0 24.8999 L 14.8999 24.8999 L 14.8999 24.0 Z  M 16.0 24.0 L 16.0 24.8999 L 16.8999 24.8999 L 16.8999 24.0 Z  M 18.0 24.0 L 18.0 24.8999 L 18.8999 24.8999 L 18.8999 24.0 Z  M 19.0 24.0 L 19.0 24.8999 L 19.8999 24.8999 L 19.8999 24.0 Z  M 20.0 24.0 L 20.0 24.8999 L 20.8999 24.8999 L 20.8999 24.0 Z  M 21.0 24.0 L 21.0 24.8999 L 21.8999 24.8999 L 21.8999 24.0 Z  M 22.0 24.0 L 22.0 24.8999 L 22.8999 24.8999 L 22.8999 24.0 Z  M 23.0 24.0 L 23.0 24.8999 L 23.8999 24.8999 L 23.8999 24.0 Z  M 24.0 24.0 L 24.0 24.8999 L 24.8999 24.8999 L 24.8999 24.0 Z  M 26.0 24.0 L 26.0 24.8999 L 26.8999 24.8999 L 26.8999 24.0 Z  M 8.0 25.0 L 8.0 25.8999 L 8.8999 25.8999 L 8.8999 25.0 Z  M 11.0 25.0 L 11.0 25.8999 L 11.8999 25.8999 L 11.8999 25.0 Z  M 12.0 25.0 L 12.0 25.8999 L 12.8999 25.8999 L 12.8999 25.0 Z  M 17.0 25.0 L 17.0 25.8999 L 17.8999 25.8999 L 17.8999 25.0 Z  M 19.0 25.0 L 19.0 25.8999 L 19.8999 25.8999 L 19.8999 25.0 Z  M 21.0 25.0 L 21.0 25.8999 L 21.8999 25.8999 L 21.8999 25.0 Z  M 24.0 25.0 L 24.0 25.8999 L 24.8999 25.8999 L 24.8999 25.0 Z  M 26.0 25.0 L 26.0 25.8999 L 26.8999 25.8999 L 26.8999 25.0 Z  M 27.0 25.0 L 27.0 25.8999 L 27.8999 25.8999 L 27.8999 25.0 Z  M 10.0 26.0 L 10.0 26.8999 L 10.8999 26.8999 L 10.8999 26.0 Z  M 11.0 26.0 L 11.0 26.8999 L 11.8999 26.8999 L 11.8999 26.0 Z  M 13.0 26.0 L 13.0 26.8999 L 13.8999 26.8999 L 13.8999 26.0 Z  M 15.0 26.0 L 15.0 26.8999 L 15.8999 26.8999 L 15.8999 26.0 Z  M 17.0 26.0 L 17.0 26.8999 L 17.8999 26.8999 L 17.8999 26.0 Z  M 18.0 26.0 L 18.0 26.8999 L 18.8999 26.8999 L 18.8999 26.0 Z  M 19.0 26.0 L 19.0 26.8999 L 19.8999 26.8999 L 19.8999 26.0 Z  M 21.0 26.0 L 21.0 26.8999 L 21.8999 26.8999 L 21.8999 26.0 Z  M 23.0 26.0 L 23.0 26.8999 L 23.8999 26.8999 L 23.8999 26.0 Z  M 24.0 26.0 L 24.0 26.8999 L 24.8999 26.8999 L 24.8999 26.0 Z  M 26.0 26.0 L 26.0 26.8999 L 26.8999 26.8999 L 26.8999 26.0 Z  M 27.0 26.0 L 27.0 26.8999 L 27.8999 26.8999 L 27.8999 26.0 Z  M 28.0 26.0 L 28.0 26.8999 L 28.8999 26.8999 L 28.8999 26.0 Z  M 2.0 24.0 L 2.0 27.0 L 5.0 27.0 L 5.0 24.0 Z  M 9.0 27.0 L 9.0 27.8999 L 9.8999 27.8999 L 9.8999 27.0 Z  M 11.0 27.0 L 11.0 27.8999 L 11.8999 27.8999 L 11.8999 27.0 Z  M 15.0 27.0 L 15.0 27.8999 L 15.8999 27.8999 L 15.8999 27.0 Z  M 16.0 27.0 L 16.0 27.8999 L 16.8999 27.8999 L 16.8999 27.0 Z  M 19.0 27.0 L 19.0 27.8999 L 19.8999 27.8999 L 19.8999 27.0 Z  M 24.0 27.0 L 24.0 27.8999 L 24.8999 27.8999 L 24.8999 27.0 Z  M 25.0 27.0 L 25.0 27.8999 L 25.8999 27.8999 L 25.8999 27.0 Z  M 26.0 27.0 L 26.0 27.8999 L 26.8999 27.8999 L 26.8999 27.0 Z  M 28.0 27.0 L 28.0 27.8999 L 28.8999 27.8999 L 28.8999 27.0 Z  M 6.0 23.0 L 6.0 28.0 L 1.0 28.0 L 1.0 23.0 Z  M 8.0 28.0 L 8.0 28.8999 L 8.8999 28.8999 L 8.8999 28.0 Z  M 10.0 28.0 L 10.0 28.8999 L 10.8999 28.8999 L 10.8999 28.0 Z  M 11.0 28.0 L 11.0 28.8999 L 11.8999 28.8999 L 11.8999 28.0 Z  M 13.0 28.0 L 13.0 28.8999 L 13.8999 28.8999 L 13.8999 28.0 Z  M 14.0 28.0 L 14.0 28.8999 L 14.8999 28.8999 L 14.8999 28.0 Z  M 16.0 28.0 L 16.0 28.8999 L 16.8999 28.8999 L 16.8999 28.0 Z  M 18.0 28.0 L 18.0 28.8999 L 18.8999 28.8999 L 18.8999 28.0 Z  M 19.0 28.0 L 19.0 28.8999 L 19.8999 28.8999 L 19.8999 28.0 Z  M 20.0 28.0 L 20.0 28.8999 L 20.8999 28.8999 L 20.8999 28.0 Z  M 21.0 28.0 L 21.0 28.8999 L 21.8999 28.8999 L 21.8999 28.0 Z  M 23.0 28.0 L 23.0 28.8999 L 23.8999 28.8999 L 23.8999 28.0 Z  M 24.0 28.0 L 24.0 28.8999 L 24.8999 28.8999 L 24.8999 28.0 Z  M 25.0 28.0 L 25.0 28.8999 L 25.8999 28.8999 L 25.8999 28.0 Z  M 26.0 28.0 L 26.0 28.8999 L 26.8999 28.8999 L 26.8999 28.0 Z  M 0.0 22.0 L 0.0 29.0 L 7.0 29.0 L 7.0 22.0 Z "/></g></svg>
