<!DOCTYPE svg PUBLIC "-//W3C//DTD SVG 1.1//EN" "http://www.w3.org/Graphics/SVG/1.1/DTD/svg11.dtd">
<svg xmlns="http://www.w3.org/2000/svg" xmlns:xlink="http://www.w3.org/1999/xlink" xmlns:jfreesvg="http://www.jfree.org/jfreesvg/svg" width="232" height="232" text-rendering="auto" shape-rendering="auto">
<defs></defs>
<g style="fill: rgb(0,0,0); fill-opacity: 1.0; stroke: none" transform="matrix(8.0,0.0,0.0,8.0,0.0,0.0)" ><path d="M 8.4499 0.0 C 8.2014 0.0 8.0 0.2014 8.0 0.4499 C 8.0 0.6985 8.2014 0.8999 8.4499 0.8999 C 8.6985 0.8999 8.8999 0.6985 8.8999 0.4499 C 8.8999 0.2014 8.6985 0.0 8.4499 0.0 Z  M 11.4499 0.0 C 11.2014 0.0 11.0 0.2014 11.0 0.4499 C 11.0 0.6985 11.2014 0.8999 11.4499 0.8999 C 11.6985 0.8999 11.8999 0.6985 11.8999 0.4499 C 11.8999 0.2014 11.6985 0.0 11.4499 0.0 Z  M 15.4499 0.0 C 15.2014 0.0 15.0 0.2014 15.0 0.4499 C 15.0 0.6985 15.2014 0.8999 15.4499 0.8999 C 15.6985 0.8999 15.8999 0.6985 15.8999 0.4499 C 15.8999 0.2014 15.6985 0.0 15.4499 0.0 Z  M 16.4500 0.0 C 16.2014 0.0 16.0 0.2014 16.0 0.4499 C 16.0 0.6985 16.2014 0.8999 16.4500 0.8999 C 16.6985 0.8999 16.8999 0.6985 16.8999 0.4499 C 16.8999 0.2014 16.6985 0.0 16.4500 0.0 Z  M 17.4500 0.0 C 17.2014 0.0 17.0 0.2014 17.0 0.4499 C 17.0 0.6985 17.2014 0.8999 17.4500 0.8999 C 17.6985 0.8999 17.8999 0.6985 17.8999 0.4499 C 17.8999 0.2014 17.6985 0.0 17.4500 0.0 Z  M 8.4499 1.0 C 8.2014 1.0 8.0 1.2014 8.0 1.4500 C 8.0 1.6985 8.2014 1.8999 8.4499 1.8999 C 8.6985 1.8999 8.8999 1.6985 8.8999 1.4500 C 8.8999 1.2014 8.6985 1.0 8.4499 1.0 Z  M 10.4499 1.0 C 10.2014 1.0 10.0 1.2014 10.0 1.4500 C 10.0 1.6985 10.2014 1.8999 10.4499 1.8999 C 10.6985 1.8999 10.8999 1.6985 10.8999 1.4500 C 10.8999 1.2014 10.6985 1.0 10.4499 1.0 Z  M 16.4500 1.0 C 16.2014 1.0 16.0 1.2014 16.0 1.4500 C 16.0 1.6985 16.2014 1.8999 16.4500 1.8999 C 16.6985 1.8999 16.8999 1.6985 16.8999 1.4500 C 16.8999 1.2014 16.6985 1.0 16.4500 1.0 Z  M 17.4500 1.0 C 17.2014 1.0 17.0 1.2014 17.0 1.4500 C 17.0 1.6985 17.2014 1.8999 17.4500 1.8999 C 17.6985 1.8999 17.8999 1.6985 17.8999 1.4500 C 17.8999 1.2014 17.6985 1.0 17.4500 1.0 Z  M 18.4500 1.0 C 18.2014 1.0 18.0 1.2014 18.0 1.4500 C 18.0 1.6985 18.2014 1.8999 18.4500 1.8999 C 18.6985 1.8999 18.8999 1.6985 18.8999 1.4500 C 18.8999 1.2014 18.6985 1.0 18.4500 1.0 Z  M 19.4500 1.0 C 19.2014 1.0 19.0 1.2014 19.0 1.4500 C 19.0 1.6985 19.2014 1.8999 19.4500 1.8999 C 19.6985 1.8999 19.8999 1.6985 19.8999 1.4500 C 19.8999 1.2014 19.6985 1.0 19.4500 1.0 Z  M 8.4499 2.0 C 8.2014 2.0 8.0 2.2014 8.0 2.4500 C 8.0 2.6985 8.2014 2.9000 8.4499 2.9000 C 8.6985 2.9000 8.8999 2.6985 8.8999 2.4500 C 8.8999 2.2014 8.6985 2.0 8.4499 2.0 Z  M 9.4499 2.0 C 9.2014 2.0 9.0 2.2014 9.0 2.4500 C 9.0 2.6985 9.2014 2.9000 9.4499 2.9000 C 9.6985 2.9000 9.8999 2.6985 9.8999 2.4500 C 9.8999 2.2014 9.6985 2.0 9.4499 2.0 Z  M 11.4499 2.0 C 11.2014 2.0 11.0 2.2014 11.0 2.4500 C 11.0 2.6985 11.2014 2.9000 11.4499 2.9000 C 11.6985 2.9000 11.8999 2.6985 11.8999 2.4500 C 11.8999 2.2014 11.6985 2.0 11.4499 2.0 Z  M 15.4499 2.0 C 15.2014 2.0 15.0 2.2014 15.0 2.4500 C 15.0 2.6985 15.2014 2.9000 15.4499 2.9000 C 15.6985 2.9000 15.8999 2.6985 15.8999 2.4500 C 15.8999 2.2014 15.6985 2.0 15.4499 2.0 Z  M 16.4500 2.0 C 16.2014 2.0 16.0 2.2014 16.0 2.4500 C 16.0 2.6985 16.2014 2.9000 16.4500 2.9000 C 16.6985 2.9000 16.8999 2.6985 16.8999 2.4500 C 16.8999 2.2014 16.6985 2.0 16.4500 2.0 Z  M 19.4500 2.0 C 19.2014 2.0 19.0 2.2014 19.0 2.4500 C 19.0 2.6985 19.2014 2.9000 19.4500 2.9000 C 19.6985 2.9000 19.8999 2.6985 19.8999 2.4500 C 19.8999 2.2014 19.6985 2.0 19.4500 2.0 Z  M 11.4499 3.0 C 11.2014 3.0 11.0 3.2014 11.0 3.4500 C 11.0 3.6985 11.2014 3.9000 11.4499 3.9000 C 11.6985 3.9000 11.8999 3.6985 11.8999 3.4500 C 11.8999 3.2014 11.6985 3.0 11.4499 3.0 Z  M 12.4499 3.0 C 12.2014 3.0 12.0 3.2014 12.0 3.4500 C 12.0 3.6985 12.2014 3.9000 12.4499 3.9000 C 12.6985 3.9000 12.8999 3.6985 12.8999 3.4500 C 12.8999 3.2014 12.6985 3.0 12.4499 3.0 Z  M 16.4500 3.0 C 16.2014 3.0 16.0 3.2014 16.0 3.4500 C 16.0 3.6985 16.2014 3.9000 16.4500 3.9000 C 16.6985 3.9000 16.8999 3.6985 16.8999 3.4500 C 16.8999 3.2014 16.6985 3.0 16.4500 3.0 Z  M 17.4500 3.0 C 17.2014 3.0 17.0 3.2014 17.0 3.4500 C 17.0 3.6985 17.2014 3.9000 17.4500 3.9000 C 17.6985 3.9000 17.8999 3.6985 17.8999 3.4500 C 17.8999 3.2014 17.6985 3.0 17.4500 3.0 Z  M 20.4500 3.0 C 20.2014 3.0 20.0 3.2014 20.0 3.4500 C 20.0 3.6985 20.2014 3.9000 20.4500 3.9000 C 20.6985 3.9000 20.8999 3.6985 20.8999 3.4500 C 20.8999 3.2014 20.6985 3.0 20.4500 3.0 Z  M 8.4499 4.0 C 8.2014 4.0 8.0 4.2014 8.0 4.4499 C 8.0 4.6985 8.2014 4.9000 8.4499 4.9000 C 8.6985 4.9000 8.8999 4.6985 8.8999 4.4499 C 8.8999 4.2014 8.6985 4.0 8.4499 4.0 Z  M 9.4499 4.0 C 9.2014 4.0 9.0 4.2014 9.0 4.4499 C 9.0 4.6985 9.2014 4.9000 9.4499 4.9000 C 9.6985 4.9000 9.8999 4.6985 9.8999 4.4499 C 9.8999 4.2014 9.6985 4.0 9.4499 4.0 Z  M 10.4499 4.0 C 10.2014 4.0 10.0 4.2014 10.0 4.4499 C 10.0 4.6985 10.2014 4.9000 10.4499 4.9000 C 10.6985 4.9000 10.8999 4.6985 10.8999 4.4499 C 10.8999 4.2014 10.6985 4.0 10.4499 4.0 Z  M 11.4499 4.0 C 11.2014 4.0 11.0 4.2014 11.0 4.4499 C 11.0 4.6985 11.2014 4.9000 11.4499 4.9000 C 11.6985 4.9000 11.8999 4.6985 11.8999 4.4499 C 11.8999 4.2014 11.6985 4.0 11.4499 4.0 Z  M 12.4499 4.0 C 12.2014 4.0 12.0 4.2014 12.0 4.4499 C 12.0 4.6985 12.2014 4.9000 12.4499 4.9000 C 12.6985 4.9000 12.8999 4.6985 12.8999 4.4499 C 12.8999 4.2014 12.6985 4.0 12.4499 4.0 Z  M 14.4499 4.0 C 14.2014 4.0 14.0 4.2014 14.0 4.4499 C 14.0 4.6985 14.2014 4.9000 14.4499 4.9000 C 14.6985 4.9000 14.8999 4.6985 14.8999 4.4499 C 14.8999 4.2014 14.6985 4.0 14.4499 4.0 Z  M 15.4499 4.0 C 15.2014 4.0 15.0 4.2014 15.0 4.4499 C 15.0 4.6985 15.2014 4.9000 15.4499 4.9000 C 15.6985 4.9000 15.8999 4.6985 15.8999 4.4499 C 15.8999 4.2014 15.6985 4.0 15.4499 4.0 Z  M 16.4500 4.0 C 16.2014 4.0 16.0 4.2014 16.0 4.4499 C 16.0 4.6985 16.2014 4.9000 16.4500 4.9000 C 16.6985 4.9000 16.8999 4.6985 16.8999 4.4499 C 16.8999 4.2014 16.6985 4.0 16.4500 4.0 Z  M 17.4500 4.0 C 17.2014 4.0 17.0 4.2014 17.0 4.4499 C 17.0 4.6985 17.2014 4.9000 17.4500 4.9000 C 17.6985 4.9000 17.8999 4.6985 17.8999 4.4499 C 17.8999 4.2014 17.6985 4.0 17.4500 4.0 Z  M 19.4500 4.0 C 19.2014 4.0 19.0 4.2014 19.0 4.4499 C 19.0 4.6985 19.2014 4.9000 19.4500 4.9000 C 19.6985 4.9000 19.8999 4.6985 19.8999 4.4499 C 19.8999 4.2014 19.6985 4.0 19.4500 4.0 Z  M 2.5 2.0 C 2.2238 2.0 2.0 2.2238 2.0 2.5 L 2.0 4.5 C 2.0 4.7761 2.2238 5.0 2.5 5.0 L 4.5 5.0 C 4.7761 5.0 5.0 4.7761 5.0 4.5 L 5.0 2.5 C 5.0 2.2238 4.7761 2.0 4.5 2.0 Z  M 24.5 2.0 C 24.2238 2.0 24.0 2.2238 24.0 2.5 L 24.0 4.5 C 24.0 4.7761 24.2238 5.0 24.5 5.0 L 26.5 5.0 C 26.7761 5.0 27.0 4.7761 27.0 4.5 L 27.0 2.5 C 27.0 2.2238 26.7761 2.0 26.5 2.0 Z  M 10.4499 5.0 C 10.2014 5.0 10.0 5.2014 10.0 5.4499 C 10.0 5.6985 10.2014 5.9000 10.4499 5.9000 C 10.6985 5.9000 10.8999 5.6985 10.8999 5.4499 C 10.8999 5.2014 10.6985 5.0 10.4499 5.0 Z  M 11.4499 5.0 C 11.2014 5.0 11.0 5.2014 11.0 5.4499 C 11.0 5.6985 11.2014 5.9000 11.4499 5.9000 C 11.6985 5.9000 11.8999 5.6985 11.8999 5.4499 C 11.8999 5.2014 11.6985 5.0 11.4499 5.0 Z  M 15.4499 5.0 C 15.2014 5.0 15.0 5.2014 15.0 5.4499 C 15.0 5.6985 15.2014 5.9000 15.4499 5.9000 C 15.6985 5.9000 15.8999 5.6985 15.8999 5.4499 C 15.8999 5.2014 15.6985 5.0 15.4499 5.0 Z  M 16.4500 5.0 C 16.2014 5.0 16.0 5.2014 16.0 5.4499 C 16.0 5.6985 16.2014 5.9000 16.4500 5.9000 C 16.6985 5.9000 16.8999 5.6985 16.8999 5.4499 C 16.8999 5.2014 16.6985 5.0 16.4500 5.0 Z  M 18.4500 5.0 C 18.2014 5.0 18.0 5.2014 18.0 5.4499 C 18.0 5.6985 18.2014 5.9000 18.4500 5.9000 C 18.6985 5.9000 18.8999 5.6985 18.8999 5.4499 C 18.8999 5.2014 18.6985 5.0 18.4500 5.0 Z  M 5.5 1.0 C 5.7761 1.0 6.0 1.2238 6.0 1.5 L 6.0 5.5 C 6.0 5.7761 5.7761 6.0 5.5 6.0 L 1.5 6.0 C 1.2238 6.0 1.0 5.7761 1.0 5.5 L 1.0 1.5 C 1.0 1.2238 1.2238 1.0 1.5 1.0 Z  M 27.5 1.0 C 27.7761 1.0 28.0 1.2238 28.0 1.5 L 28.0 5.5 C 28.0 5.7761 27.7761 6.0 27.5 6.0 L 23.5 6.0 C 23.2238 6.0 23.0 5.7761 23.0 5.5 L 23.0 1.5 C 23.0 1.2238 23.2238 1.0 23.5 1.0 Z  M 8.4499 6.0 C 8.2014 6.0 8.0 6.2014 8.0 6.4499 C 8.0 6.6985 8.2014 6.9000 8.4499 6.9000 C 8.6985 6.9000 8.8999 6.6985 8.8999 6.4499 C 8.8999 6.2014 8.6985 6.0 8.4499 6.0 Z  M 10.4499 6.0 C 10.2014 6.0 10.0 6.2014 10.0 6.4499 C 10.0 6.6985 10.2014 6.9000 10.4499 6.9000 C 10.6985 6.9000 10.8999 6.6985 10.8999 6.4499 C 10.8999 6.2014 10.6985 6.0 10.4499 6.0 Z  M 12.4499 6.0 C 12.2014 6.0 12.0 6.2014 12.0 6.4499 C 12.0 6.6985 12.2014 6.9000 12.4499 6.9000 C 12.6985 6.9000 12.8999 6.6985 12.8999 6.4499 C 12.8999 6.2014 12.6985 6.0 12.4499 6.0 Z  M 14.4499 6.0 C 14.2014 6.0 14.0 6.2014 14.0 6.4499 C 14.0 6.6985 14.2014 6.9000 14.4499 6.9000 C 14.6985 6.9000 14.8999 6.6985 14.8999 6.4499 C 14.8999 6.2014 14.6985 6.0 14.4499 6.0 Z  M 16.4500 6.0 C 16.2014 6.0 16.0 6.2014 16.0 6.4499 C 16.0 6.6985 16.2014 6.9000 16.4500 6.9000 C 16.6985 6.9000 16.8999 6.6985 16.8999 6.4499 C 16.8999 6.2014 16.6985 6.0 16.4500 6.0 Z  M 18.4500 6.0 C 18.2014 6.0 18.0 6.2014 18.0 6.4499 C 18.0 6.6985 18.2014 6.9000 18.4500 6.9000 C 18.6985 6.9000 18.8999 6.6985 18.8999 6.4499 C 18.8999 6.2014 18.6985 6.0 18.4500 6.0 Z  M 20.4500 6.0 C 20.2014 6.0 20.0 6.2014 20.0 6.4499 C 20.0 6.6985 20.2014 6.9000 20.4500 6.9000 C 20.6985 6.9000 20.8999 6.6985 20.8999 6.4499 C 20.8999 6.2014 20.6985 6.0 20.4500 6.0 Z  M 1.0 0.0 C 0.4477 0.0 0.0 0.4477 0.0 1.0 L 0.0 6.0 C 0.0 6.5522 0.4477 7.0 1.0 7.0 L 6.0 7.0 C 6.5522 7.0 7.0 6.5522 7.0 6.0 L 7.0 1.0 C 7.0 0.4477 6.5522 0.0 6.0 0.0 Z  M 23.0 0.0 C 22.4477 0.0 22.0 0.4477 22.0 1.0 L 22.0 6.0 C 22.0 6.5522 22.4477 7.0 23.0 7.0 L 28.0 7.0 C 28.5522 7.0 29.0 6.5522 29.0 6.0 L 29.0 1.0 C 29.0 0.4477 28.5522 0.0 28.0 0.0 Z  M 9.4499 7.0 C 9.2014 7.0 9.0 7.2014 9.0 7.4499 C 9.0 7.6985 9.2014 7.9000 9.4499 7.9000 C 9.6985 7.9000 9.8999 7.6985 9.8999 7.4499 C 9.8999 7.2014 9.6985 7.0 9.4499 7.0 Z  M 10.4499 7.0 C 10.2014 7.0 10.0 7.2014 10.0 7.4499 C 10.0 7.6985 10.2014 7.9000 10.4499 7.9000 C 10.6985 7.9000 10.8999 7.6985 10.8999 7.4499 C 10.8999 7.2014 10.6985 7.0 10.4499 7.0 Z  M 11.4499 7.0 C 11.2014 7.0 11.0 7.2014 11.0 7.4499 C 11.0 7.6985 11.2014 7.9000 11.4499 7.9000 C 11.6985 7.9000 11.8999 7.6985 11.8999 7.4499 C 11.8999 7.2014 11.6985 7.0 11.4499 7.0 Z  M 13.4499 7.0 C 13.2014 7.0 13.0 7.2014 13.0 7.4499 C 13.0 7.6985 13.2014 7.9000 13.4499 7.9000 C 13.6985 7.9000 13.8999 7.6985 13.8999 7.4499 C 13.8999 7.2014 13.6985 7.0 13.4499 7.0 Z  M 15.4499 7.0 C 15.2014 7.0 15.0 7.2014 15.0 7.4499 C 15.0 7.6985 15.2014 7.9000 15.4499 7.9000 C 15.6985 7.9000 15.8999 7.6985 15.8999 7.4499 C 15.8999 7.2014 15.6985 7.0 15.4499 7.0 Z  M 16.4500 7.0 C 16.2014 7.0 16.0 7.2014 16.0 7.4499 C 16.0 7.6985 16.2014 7.9000 16.4500 7.9000 C 16.6985 7.9000 16.8999 7.6985 16.8999 7.4499 C 16.8999 7.2014 16.6985 7.0 16.4500 7.0 Z  M 19.4500 7.0 C 19.2014 7.0 19.0 7.2014 19.0 7.4499 C 19.0 7.6985 19.2014 7.9000 19.4500 7.9000 C 19.6985 7.9000 19.8999 7.6985 19.8999 7.4499 C 19.8999 7.2014 19.6985 7.0 19.4500 7.0 Z  M 20.4500 7.0 C 20.2014 7.0 20.0 7.2014 20.0 7.4499 C 20.0 7.6985 20.2014 7.9000 20.4500 7.9000 C 20.6985 7.9000 20.8999 7.6985 20.8999 7.4499 C 20.8999 7.2014 20.6985 7.0 20.4500 7.0 Z  M 0.4499 8.0 C 0.2014 8.0 0.0 8.2014 0.0 8.4499 C 0.0 8.6985 0.2014 8.8999 0.4499 8.8999 C 0.6985 8.8999 0.8999 8.6985 0.8999 8.4499 C 0.8999 8.2014 0.6985 8.0 0.4499 8.0 Z  M 3.4500 8.0 C 3.2014 8.0 3.0 8.2014 3.0 8.4499 C 3.0 8.6985 3.2014 8.8999 3.4500 8.8999 C 3.6985 8.8999 3.9000 8.6985 3.9000 8.4499 C 3.9000 8.2014 3.6985 8.0 3.4500 8.0 Z  M 4.4499 8.0 C 4.2014 8.0 4.0 8.2014 4.0 8.4499 C 4.0 8.6985 4.2014 8.8999 4.4499 8.8999 C 4.6985 8.8999 4.9000 8.6985 4.9000 8.4499 C 4.9000 8.2014 4.6985 8.0 4.4499 8.0 Z  M 5.4499 8.0 C 5.2014 8.0 5.0 8.2014 5.0 8.4499 C 5.0 8.6985 5.2014 8.8999 5.4499 8.8999 C 5.6985 8.8999 5.9000 8.6985 5.9000 8.4499 C 5.9000 8.2014 5.6985 8.0 5.4499 8.0 Z  M 6.4499 8.0 C 6.2014 8.0 6.0 8.2014 6.0 8.4499 C 6.0 8.6985 6.2014 8.8999 6.4499 8.8999 C 6.6985 8.8999 6.9000 8.6985 6.9000 8.4499 C 6.9000 8.2014 6.6985 8.0 6.4499 8.0 Z  M 7.4499 8.0 C 7.2014 8.0 7.0 8.2014 7.0 8.4499 C 7.0 8.6985 7.2014 8.8999 7.4499 8.8999 C 7.6985 8.8999 7.9000 8.6985 7.9000 8.4499 C 7.9000 8.2014 7.6985 8.0 7.4499 8.0 Z  M 8.4499 8.0 C 8.2014 8.0 8.0 8.2014 8.0 8.4499 C 8.0 8.6985 8.2014 8.8999 8.4499 8.8999 C 8.6985 8.8999 8.8999 8.6985 8.8999 8.4499 C 8.8999 8.2014 8.6985 8.0 8.4499 8.0 Z  M 9.4499 8.0 C 9.2014 8.0 9.0 8.2014 9.0 8.4499 C 9.0 8.6985 9.2014 8.8999 9.4499 8.8999 C 9.6985 8.8999 9.8999 8.6985 9.8999 8.4499 C 9.8999 8.2014 9.6985 8.0 9.4499 8.0 Z  M 11.4499 8.0 C 11.2014 8.0 11.0 8.2014 11.0 8.4499 C 11.0 8.6985 11.2014 8.8999 11.4499 8.8999 C 11.6985 8.8999 11.8999 8.6985 11.8999 8.4499 C 11.8999 8.2014 11.6985 8.0 11.4499 8.0 Z  M 13.4499 8.0 C 13.2014 8.0 13.0 8.2014 13.0 8.4499 C 13.0 8.6985 13.2014 8.8999 13.4499 8.8999 C 13.6985 8.8999 13.8999 8.6985 13.8999 8.4499 C 13.8999 8.2014 13.6985 8.0 13.4499 8.0 Z  M 17.4500 8.0 C 17.2014 8.0 17.0 8.2014 17.0 8.4499 C 17.0 8.6985 17.2014 8.8999 17.4500 8.8999 C 17.6985 8.8999 17.8999 8.6985 17.8999 8.4499 C 17.8999 8.2014 17.6985 8.0 17.4500 8.0 Z  M 19.4500 8.0 C 19.2014 8.0 19.0 8.2014 19.0 8.4499 C 19.0 8.6985 19.2014 8.8999 19.4500 8.8999 C 19.6985 8.8999 19.8999 8.6985 19.8999 8.4499 C 19.8999 8.2014 19.6985 8.0 19.4500 8.0 Z  M 20.4500 8.0 C 20.2014 8.0 20.0 8.2014 20.0 8.4499 C 20.0 8.6985 20.2014 8.8999 20.4500 8.8999 C 20.6985 8.8999 20.8999 8.6985 20.8999 8.4499 C 20.8999 8.2014 20.6985 8.0 20.4500 8.0 Z  M 21.4500 8.0 C 21.2014 8.0 21.0 8.2014 21.0 8.4499 C 21.0 8.6985 21.2014 8.8999 21.4500 8.8999 C 21.6985 8.8999 21.8999 8.6985 21.8999 8.4499 C 21.8999 8.2014 21.6985 8.0 21.4500 8.0 Z  M 24.4500 8.0 C 24.2014 8.0 24.0 8.2014 24.0 8.4499 C 24.0 8.6985 24.2014 8.8999 24.4500 8.8999 C 24.6985 8.8999 24.8999 8.6985 24.8999 8.4499 C 24.8999 8.2014 24.6985 8.0 24.4500 8.0 Z  M 26.4500 8.0 C 26.2014 8.0 26.0 8.2014 26.0 8.4499 C 26.0 8.6985 26.2014 8.8999 26.4500 8.8999 C 26.6985 8.8999 26.8999 8.6985 26.8999 8.4499 C 26.8999 8.2014 26.6985 8.0 26.4500 8.0 Z  M 27.4500 8.0 C 27.2014 8.0 27.0 8.2014 27.0 8.4499 C 27.0 8.6985 27.2014 8.8999 27.4500 8.8999 C 27.6985 8.8999 27.8999 8.6985 27.8999 8.4499 C 27.8999 8.2014 27.6985 8.0 27.4500 8.0 Z  M 28.4500 8.0 C 28.2014 8.0 28.0 8.2014 28.0 8.4499 C 28.0 8.6985 28.2014 8.8999 28.4500 8.8999 C 28.6985 8.8999 28.8999 8.6985 28.8999 8.4499 C 28.8999 8.2014 28.6985 8.0 28.4500 8.0 Z  M 1.4500 9.0 C 1.2014 9.0 1.0 9.2014 1.0 9.4499 C 1.0 9.6985 1.2014 9.8999 1.4500 9.8999 C 1.6985 9.8999 1.8999 9.6985 1.8999 9.4499 C 1.8999 9.2014 1.6985 9.0 1.4500 9.0 Z  M 2.4500 9.0 C 2.2014 9.0 2.0 9.2014 2.0 9.4499 C 2.0 9.6985 2.2014 9.8999 2.4500 9.8999 C 2.6985 9.8999 2.9000 9.6985 2.9000 9.4499 C 2.9000 9.2014 2.6985 9.0 2.4500 9.0 Z  M 5.4499 9.0 C 5.2014 9.0 5.0 9.2014 5.0 9.4499 C 5.0 9.6985 5.2014 9.8999 5.4499 9.8999 C 5.6985 9.8999 5.9000 9.6985 5.9000 9.4499 C 5.9000 9.2014 5.6985 9.0 5.4499 9.0 Z  M 7.4499 9.0 C 7.2014 9.0 7.0 9.2014 7.0 9.4499 C 7.0 9.6985 7.2014 9.8999 7.4499 9.8999 C 7.6985 9.8999 7.9000 9.6985 7.9000 9.4499 C 7.9000 9.2014 7.6985 9.0 7.4499 9.0 Z  M 9.4499 9.0 C 9.2014 9.0 9.0 9.2014 9.0 9.4499 C 9.0 9.6985 9.2014 9.8999 9.4499 9.8999 C 9.6985 9.8999 9.8999 9.6985 9.8999 9.4499 C 9.8999 9.2014 9.6985 9.0 9.4499 9.0 Z  M 11.4499 9.0 C 11.2014 9.0 11.0 9.2014 11.0 9.4499 C 11.0 9.6985 11.2014 9.8999 11.4499 9.8999 C 11.6985 9.8999 11.8999 9.6985 11.8999 9.4499 C 11.8999 9.2014 11.6985 9.0 11.4499 9.0 Z  M 12.4499 9.0 C 12.2014 9.0 12.0 9.2014 12.0 9.4499 C 12.0 9.6985 12.2014 9.8999 12.4499 9.8999 C 12.6985 9.8999 12.8999 9.6985 12.8999 9.4499 C 12.8999 9.2014 12.6985 9.0 12.4499 9.0 Z  M 13.4499 9.0 C 13.2014 9.0 13.0 9.2014 13.0 9.4499 C 13.0 9.6985 13.2014 9.8999 13.4499 9.8999 C 13.6985 9.8999 13.8999 9.6985 13.8999 9.4499 C 13.8999 9.2014 13.6985 9.0 13.4499 9.0 Z  M 16.4500 9.0 C 16.2014 9.0 16.0 9.2014 16.0 9.4499 C 16.0 9.6985 16.2014 9.8999 16.4500 9.8999 C 16.6985 9.8999 16.8999 9.6985 16.8999 9.4499 C 16.8999 9.2014 16.6985 9.0 16.4500 9.0 Z  M 19.4500 9.0 C 19.2014 9.0 19.0 9.2014 19.0 9.4499 C 19.0 9.6985 19.2014 9.8999 19.4500 9.8999 C 19.6985 9.8999 19.8999 9.6985 19.8999 9.4499 C 19.8999 9.2014 19.6985 9.0 19.4500 9.0 Z  M 21.4500 9.0 C 21.2014 9.0 21.0 9.2014 21.0 9.4499 C 21.0 9.6985 21.2014 9.8999 21.4500 9.8999 C 21.6985 9.8999 21.8999 9.6985 21.8999 9.4499 C 21.8999 9.2014 21.6985 9.0 21.4500 9.0 Z  M 24.4500 9.0 C 24.2014 9.0 24.0 9.2014 24.0 9.4499 C 24.0 9.6985 24.2014 9.8999 24.4500 9.8999 C 24.6985 9.8999 24.8999 9.6985 24.8999 9.4499 C 24.8999 9.2014 24.6985 9.0 24.4500 9.0 Z  M 28.4500 9.0 C 28.2014 9.0 28.0 9.2014 28.0 9.4499 C 28.0 9.6985 28.2014 9.8999 28.4500 9.8999 C 28.6985 9.8999 28.8999 9.6985 28.8999 9.4499 C 28.8999 9.2014 28.6985 9.0 28.4500 9.0 Z  M 0.4499 10.0 C 0.2014 10.0 0.0 10.2014 0.0 10.4499 C 0.0 10.6985 0.2014 10.8999 0.4499 10.8999 C 0.6985 10.8999 0.8999 10.6985 0.8999 10.4499 C 0.8999 10.2014 0.6985 10.0 0.4499 10.0 Z  M 2.4500 10.0 C 2.2014 10.0 2.0 10.2014 2.0 10.4499 C 2.0 10.6985 2.2014 10.8999 2.4500 10.8999 C 2.6985 10.8999 2.9000 10.6985 2.9000 10.4499 C 2.9000 10.2014 2.6985 10.0 2.4500 10.0 Z  M 6.4499 10.0 C 6.2014 10.0 6.0 10.2014 6.0 10.4499 C 6.0 10.6985 6.2014 10.8999 6.4499 10.8999 C 6.6985 10.8999 6.9000 10.6985 6.9000 10.4499 C 6.9000 10.2014 6.6985 10.0 6.4499 10.0 Z  M 10.4499 10.0 C 10.2014 10.0 10.0 10.2014 10.0 10.4499 C 10.0 10.6985 10.2014 10.8999 10.4499 10.8999 C 10.6985 10.8999 10.8999 10.6985 10.8999 10.4499 C 10.8999 10.2014 10.6985 10.0 10.4499 10.0 Z  M 11.4499 10.0 C 11.2014 10.0 11.0 10.2014 11.0 10.4499 C 11.0 10.6985 11.2014 10.8999 11.4499 10.8999 C 11.6985 10.8999 11.8999 10.6985 11.8999 10.4499 C 11.8999 10.2014 11.6985 10.0 11.4499 10.0 Z  M 13.4499 10.0 C 13.2014 10.0 13.0 10.2014 13.0 10.4499 C 13.0 10.6985 13.2014 10.8999 13.4499 10.8999 C 13.6985 10.8999 13.8999 10.6985 13.8999 10.4499 C 13.8999 10.2014 13.6985 10.0 13.4499 10.0 Z  M 15.4499 10.0 C 15.2014 10.0 15.0 10.2014 15.0 10.4499 C 15.0 10.6985 15.2014 10.8999 15.4499 10.8999 C 15.6985 10.8999 15.8999 10.6985 15.8999 10.4499 C 15.8999 10.2014 15.6985 10.0 15.4499 10.0 Z  M 16.4500 10.0 C 16.2014 10.0 16.0 10.2014 16.0 10.4499 C 16.0 10.6985 16.2014 10.8999 16.4500 10.8999 C 16.6985 10.8999 16.8999 10.6985 16.8999 10.4499 C 16.8999 10.2014 16.6985 10.0 16.4500 10.0 Z  M 20.4500 10.0 C 20.2014 10.0 20.0 10.2014 20.0 10.4499 C 20.0 10.6985 20.2014 10.8999 20.4500 10.8999 C 20.6985 10.8999 20.8999 10.6985 20.8999 10.4499 C 20.8999 10.2014 20.6985 10.0 20.4500 10.0 Z  M 21.4500 10.0 C 21.2014 10.0 21.0 10.2014 21.0 10.4499 C 21.0 10.6985 21.2014 10.8999 21.4500 10.8999 C 21.6985 10.8999 21.8999 10.6985 21.8999 10.4499 C 21.8999 10.2014 21.6985 10.0 21.4500 10.0 Z  M 22.4500 10.0 C 22.2014 10.0 22.0 10.2014 22.0 10.4499 C 22.0 10.6985 22.2014 10.8999 22.4500 10.8999 C 22.6985 10.8999 22.8999 10.6985 22.8999 10.4499 C 22.8999 10.2014 22.6985 10.0 22.4500 10.0 Z  M 25.4500 10.0 C 25.2014 10.0 25.0 10.2014 25.0 10.4499 C 25.0 10.6985 25.2014 10.8999 25.4500 10.8999 C 25.6985 10.8999 25.8999 10.6985 25.8999 10.4499 C 25.8999 10.2014 25.6985 10.0 25.4500 10.0 Z  M 26.4500 10.0 C 26.2014 10.0 26.0 10.2014 26.0 10.4499 C 26.0 10.6985 26.2014 10.8999 26.4500 10.8999 C 26.6985 10.8999 26.8999 10.6985 26.8999 10.4499 C 26.8999 10.2014 26.6985 10.0 26.4500 10.0 Z  M 0.4499 11.0 C 0.2014 11.0 0.0 11.2014 0.0 11.4499 C 0.0 11.6985 0.2014 11.8999 0.4499 11.8999 C 0.6985 11.8999 0.8999 11.6985 0.8999 11.4499 C 0.8999 11.2014 0.6985 11.0 0.4499 11.0 Z  M 1.4500 11.0 C 1.2014 11.0 1.0 11.2014 1.0 11.4499 C 1.0 11.6985 1.2014 11.8999 1.4500 11.8999 C 1.6985 11.8999 1.8999 11.6985 1.8999 11.4499 C 1.8999 11.2014 1.6985 11.0 1.4500 11.0 Z  M 2.4500 11.0 C 2.2014 11.0 2.0 11.2014 2.0 11.4499 C 2.0 11.6985 2.2014 11.8999 2.4500 11.8999 C 2.6985 11.8999 2.9000 11.6985 2.9000 11.4499 C 2.9000 11.2014 2.6985 11.0 2.4500 11.0 Z  M 5.4499 11.0 C 5.2014 11.0 5.0 11.2014 5.0 11.4499 C 5.0 11.6985 5.2014 11.8999 5.4499 11.8999 C 5.6985 11.8999 5.9000 11.6985 5.9000 11.4499 C 5.9000 11.2014 5.6985 11.0 5.4499 11.0 Z  M 7.4499 11.0 C 7.2014 11.0 7.0 11.2014 7.0 11.4499 C 7.0 11.6985 7.2014 11.8999 7.4499 11.8999 C 7.6985 11.8999 7.9000 11.6985 7.9000 11.4499 C 7.9000 11.2014 7.6985 11.0 7.4499 11.0 Z  M 8.4499 11.0 C 8.2014 11.0 8.0 11.2014 8.0 11.4499 C 8.0 11.6985 8.2014 11.8999 8.4499 11.8999 C 8.6985 11.8999 8.8999 11.6985 8.8999 11.4499 C 8.8999 11.2014 8.6985 11.0 8.4499 11.0 Z  M 10.4499 11.0 C 10.2014 11.0 10.0 11.2014 10.0 11.4499 C 10.0 11.6985 10.2014 11.8999 10.4499 11.8999 C 10.6985 11.8999 10.8999 11.6985 10.8999 11.4499 C 10.8999 11.2014 10.6985 11.0 10.4499 11.0 Z  M 13.4499 11.0 C 13.2014 11.0 13.0 11.2014 13.0 11.4499 C 13.0 11.6985 13.2014 11.8999 13.4499 11.8999 C 13.6985 11.8999 13.8999 11.6985 13.8999 11.4499 C 13.8999 11.2014 13.6985 11.0 13.4499 11.0 Z  M 16.4500 11.0 C 16.2014 11.0 16.0 11.2014 16.0 11.4499 C 16.0 11.6985 16.2014 11.8999 16.4500 11.8999 C 16.6985 11.8999 16.8999 11.6985 16.8999 11.4499 C 16.8999 11.2014 16.6985 11.0 16.4500 11.0 Z  M 17.4500 11.0 C 17.2014 11.0 17.0 11.2014 17.0 11.4499 C 17.0 11.6985 17.2014 11.8999 17.4500 11.8999 C 17.6985 11.8999 17.8999 11.6985 17.8999 11.4499 C 17.8999 11.2014 17.6985 11.0 17.4500 11.0 Z  M 19.4500 11.0 C 19.2014 11.0 19.0 11.2014 19.0 11.4499 C 19.0 11.6985 19.2014 11.8999 19.4500 11.8999 C 19.6985 11.8999 19.8999 11.6985 19.8999 11.4499 C 19.8999 11.2014 19.6985 11.0 19.4500 11.0 Z  M 23.4500 11.0 C 23.2014 11.0 23.0 11.2014 23.0 11.4499 C 23.0 11.6985 23.2014 11.8999 23.4500 11.8999 C 23.6985 11.8999 23.8999 11.6985 23.8999 11.4499 C 23.8999 11.2014 23.6985 11.0 23.4500 11.0 Z  M 24.4500 11.0 C 24.2014 11.0 24.0 11.2014 24.0 11.4499 C 24.0 11.6985 24.2014 11.8999 24.4500 11.8999 C 24.6985 11.8999 24.8999 11.6985 24.8999 11.4499 C 24.8999 11.2014 24.6985 11.0 24.4500 11.0 Z  M 0.4499 12.0 C 0.2014 12.0 0.0 12.2014 0.0 12.4499 C 0.0 12.6985 0.2014 12.8999 0.4499 12.8999 C 0.6985 12.8999 0.8999 12.6985 0.8999 12.4499 C 0.8999 12.2014 0.6985 12.0 0.4499 12.0 Z  M 2.4500 12.0 C 2.2014 12.0 2.0 12.2014 2.0 12.4499 C 2.0 12.6985 2.2014 12.8999 2.4500 12.8999 C 2.6985 12.8999 2.9000 12.6985 2.9000 12.4499 C 2.9000 12.2014 2.6985 12.0 2.4500 12.0 Z  M 6.4499 12.0 C 6.2014 12.0 6.0 12.2014 6.0 12.4499 C 6.0 12.6985 6.2014 12.8999 6.4499 12.8999 C 6.6985 12.8999 6.9000 12.6985 6.9000 12.4499 C 6.9000 12.2014 6.6985 12.0 6.4499 12.0 Z  M 7.4499 12.0 C 7.2014 12.0 7.0 12.2014 7.0 12.4499 C 7.0 12.6985 7.2014 12.8999 7.4499 12.8999 C 7.6985 12.8999 7.9000 12.6985 7.9000 12.4499 C 7.9000 12.2014 7.6985 12.0 7.4499 12.0 Z  M 8.4499 12.0 C 8.2014 12.0 8.0 12.2014 8.0 12.4499 C 8.0 12.6985 8.2014 12.8999 8.4499 12.8999 C 8.6985 12.8999 8.8999 12.6985 8.8999 12.4499 C 8.8999 12.2014 8.6985 12.0 8.4499 12.0 Z  M 9.4499 12.0 C 9.2014 12.0 9.0 12.2014 9.0 12.4499 C 9.0 12.6985 9.2014 12.8999 9.4499 12.8999 C 9.6985 12.8999 9.8999 12.6985 9.8999 12.4499 C 9.8999 12.2014 9.6985 12.0 9.4499 12.0 Z  M 11.4499 12.0 C 11.2014 12.0 11.0 12.2014 11.0 12.4499 C 11.0 12.6985 11.2014 12.8999 11.4499 12.8999 C 11.6985 12.8999 11.8999 12.6985 11.8999 12.4499 C 11.8999 12.2014 11.6985 12.0 11.4499 12.0 Z  M 12.4499 12.0 C 12.2014 12.0 12.0 12.2014 12.0 12.4499 C 12.0 12.6985 12.2014 12.8999 12.4499 12.8999 C 12.6985 12.8999 12.8999 12.6985 12.8999 12.4499 C 12.8999 12.2014 12.6985 12.0 12.4499 12.0 Z  M 13.4499 12.0 C 13.2014 12.0 13.0 12.2014 13.0 12.4499 C 13.0 12.6985 13.2014 12.8999 13.4499 12.8999 C 13.6985 12.8999 13.8999 12.6985 13.8999 12.4499 C 13.8999 12.2014 13.6985 12.0 13.4499 12.0 Z  M 15.4499 12.0 C 15.2014 12.0 15.0 12.2014 15.0 12.4499 C 15.0 12.6985 15.2014 12.8999 15.4499 12.8999 C 15.6985 12.8999 15.8999 12.6985 15.8999 12.4499 C 15.8999 12.2014 15.6985 12.0 15.4499 12.0 Z  M 16.4500 12.0 C 16.2014 12.0 16.0 12.2014 16.0 12.4499 C 16.0 12.6985 16.2014 12.8999 16.4500 12.8999 C 16.6985 12.8999 16.8999 12.6985 16.8999 12.4499 C 16.8999 12.2014 16.6985 12.0 16.4500 12.0 Z  M 22.4500 12.0 C 22.2014 12.0 22.0 12.2014 22.0 12.4499 C 22.0 12.6985 22.2014 12.8999 22.4500 12.8999 C 22.6985 12.8999 22.8999 12.6985 22.8999 12.4499 C 22.8999 12.2014 22.6985 12.0 22.4500 12.0 Z  M 24.4500 12.0 C 24.2014 12.0 24.0 12.2014 24.0 12.4499 C 24.0 12.6985 24.2014 12.8999 24.4500 12.8999 C 24.6985 12.8999 24.8999 12.6985 24.8999 12.4499 C 24.8999 12.2014 24.6985 12.0 24.4500 12.0 Z  M 28.4500 12.0 C 28.2014 12.0 28.0 12.2014 28.0 12.4499 C 28.0 12.6985 28.2014 12.8999 28.4500 12.8999 C 28.6985 12.8999 28.8999 12.6985 28.8999 12.4499 C 28.8999 12.2014 28.6985 12.0 28.4500 12.0 Z  M 2.4500 13.0 C 2.2014 13.0 2.0 13.2014 2.0 13.4499 C 2.0 13.6985 2.2014 13.8999 2.4500 13.8999 C 2.6985 13.8999 2.9000 13.6985 2.9000 13.4499 C 2.9000 13.2014 2.6985 13.0 2.4500 13.0 Z  M 7.4499 13.0 C 7.2014 13.0 7.0 13.2014 7.0 13.4499 C 7.0 13.6985 7.2014 13.8999 7.4499 13.8999 C 7.6985 13.8999 7.9000 13.6985 7.9000 13.4499 C 7.9000 13.2014 7.6985 13.0 7.4499 13.0 Z  M 9.4499 13.0 C 9.2014 13.0 9.0 13.2014 9.0 13.4499 C 9.0 13.6985 9.2014 13.8999 9.4499 13.8999 C 9.6985 13.8999 9.8999 13.6985 9.8999 13.4499 C 9.8999 13.2014 9.6985 13.0 9.4499 13.0 Z  M 11.4499 13.0 C 11.2014 13.0 11.0 13.2014 11.0 13.4499 C 11.0 13.6985 11.2014 13.8999 11.4499 13.8999 C 11.6985 13.8999 11.8999 13.6985 11.8999 13.4499 C 11.8999 13.2014 11.6985 13.0 11.4499 13.0 Z  M 12.4499 13.0 C 12.2014 13.0 12.0 13.2014 12.0 13.4499 C 12.0 13.6985 12.2014 13.8999 12.4499 13.8999 C 12.6985 13.8999 12.8999 13.6985 12.8999 13.4499 C 12.8999 13.2014 12.6985 13.0 12.4499 13.0 Z  M 13.4499 13.0 C 13.2014 13.0 13.0 13.2014 13.0 13.4499 C 13.0 13.6985 13.2014 13.8999 13.4499 13.8999 C 13.6985 13.8999 13.8999 13.6985 13.8999 13.4499 C 13.8999 13.2014 13.6985 13.0 13.4499 13.0 Z  M 14.4499 13.0 C 14.2014 13.0 14.0 13.2014 14.0 13.4499 C 14.0 13.6985 14.2014 13.8999 14.4499 13.8999 C 14.6985 13.8999 14.8999 13.6985 14.8999 13.4499 C 14.8999 13.2014 14.6985 13.0 14.4499 13.0 Z  M 16.4500 13.0 C 16.2014 13.0 16.0 13.2014 16.0 13.4499 C 16.0 13.6985 16.2014 13.8999 16.4500 13.8999 C 16.6985 13.8999 16.8999 13.6985 16.8999 13.4499 C 16.8999 13.2014 16.6985 13.0 16.4500 13.0 Z  M 17.4500 13.0 C 17.2014 13.0 17.0 13.2014 17.0 13.4499 C 17.0 13.6985 17.2014 13.8999 17.4500 13.8999 C 17.6985 13.8999 17.8999 13.6985 17.8999 13.4499 C 17.8999 13.2014 17.6985 13.0 17.4500 13.0 Z  M 18.4500 13.0 C 18.2014 13.0 18.0 13.2014 18.0 13.4499 C 18.0 13.6985 18.2014 13.8999 18.4500 13.8999 C 18.6985 13.8999 18.8999 13.6985 18.8999 13.4499 C 18.8999 13.2014 18.6985 13.0 18.4500 13.0 Z  M 20.4500 13.0 C 20.2014 13.0 20.0 13.2014 20.0 13.4499 C 20.0 13.6985 20.2014 13.8999 20.4500 13.8999 C 20.6985 13.8999 20.8999 13.6985 20.8999 13.4499 C 20.8999 13.2014 20.6985 13.0 20.4500 13.0 Z  M 22.4500 13.0 C 22.2014 13.0 22.0 13.2014 22.0 13.4499 C 22.0 13.6985 22.2014 13.8999 22.4500 13.8999 C 22.6985 13.8999 22.8999 13.6985 22.8999 13.4499 C 22.8999 13.2014 22.6985 13.0 22.4500 13.0 Z  M 23.4500 13.0 C 23.2014 13.0 23.0 13.2014 23.0 13.4499 C 23.0 13.6985 23.2014 13.8999 23.4500 13.8999 C 23.6985 13.8999 23.8999 13.6985 23.8999 13.4499 C 23.8999 13.2014 23.6985 13.0 23.4500 13.0 Z  M 24.4500 13.0 C 24.2014 13.0 24.0 13.2014 24.0 13.4499 C 24.0 13.6985 24.2014 13.8999 24.4500 13.8999 C 24.6985 13.8999 24.8999 13.6985 24.8999 13.4499 C 24.8999 13.2014 24.6985 13.0 24.4500 13.0 Z  M 25.4500 13.0 C 25.2014 13.0 25.0 13.2014 25.0 13.4499 C 25.0 13.6985 25.2014 13.8999 25.4500 13.8999 C 25.6985 13.8999 25.8999 13.6985 25.8999 13.4499 C 25.8999 13.2014 25.6985 13.0 25.4500 13.0 Z  M 0.4499 14.0 C 0.2014 14.0 0.0 14.2014 0.0 14.4499 C 0.0 14.6985 0.2014 14.8999 0.4499 14.8999 C 0.6985 14.8999 0.8999 14.6985 0.8999 14.4499 C 0.8999 14.2014 0.6985 14.0 0.4499 14.0 Z  M 1.4500 14.0 C 1.2014 14.0 1.0 14.2014 1.0 14.4499 C 1.0 14.6985 1.2014 14.8999 1.4500 14.8999 C 1.6985 14.8999 1.8999 14.6985 1.8999 14.4499 C 1.8999 14.2014 1.6985 14.0 1.4500 14.0 Z  M 6.4499 14.0 C 6.2014 14.0 6.0 14.2014 6.0 14.4499 C 6.0 14.6985 6.2014 14.8999 6.4499 14.8999 C 6.6985 14.8999 6.9000 14.6985 6.9000 14.4499 C 6.9000 14.2014 6.6985 14.0 6.4499 14.0 Z  M 9.4499 14.0 C 9.2014 14.0 9.0 14.2014 9.0 14.4499 C 9.0 14.6985 9.2014 14.8999 9.4499 14.8999 C 9.6985 14.8999 9.8999 14.6985 9.8999 14.4499 C 9.8999 14.2014 9.6985 14.0 9.4499 14.0 Z  M 11.4499 14.0 C 11.2014 14.0 11.0 14.2014 11.0 14.4499 C 11.0 14.6985 11.2014 14.8999 11.4499 14.8999 C 11.6985 14.8999 11.8999 14.6985 11.8999 14.4499 C 11.8999 14.2014 11.6985 14.0 11.4499 14.0 Z  M 12.4499 14.0 C 12.2014 14.0 12.0 14.2014 12.0 14.4499 C 12.0 14.6985 12.2014 14.8999 12.4499 14.8999 C 12.6985 14.8999 12.8999 14.6985 12.8999 14.4499 C 12.8999 14.2014 12.6985 14.0 12.4499 14.0 Z  M 13.4499 14.0 C 13.2014 14.0 13.0 14.2014 13.0 14.4499 C 13.0 14.6985 13.2014 14.8999 13.4499 14.8999 C 13.6985 14.8999 13.8999 14.6985 13.8999 14.4499 C 13.8999 14.2014 13.6985 14.0 13.4499 14.0 Z  M 16.4500 14.0 C 16.2014 14.0 16.0 14.2014 16.0 14.4499 C 16.0 14.6985 16.2014 14.8999 16.4500 14.8999 C 16.6985 14.8999 16.8999 14.6985 16.8999 14.4499 C 16.8999 14.2014 16.6985 14.0 16.4500 14.0 Z  M 17.4500 14.0 C 17.2014 14.0 17.0 14.2014 17.0 14.4499 C 17.0 14.6985 17.2014 14.8999 17.4500 14.8999 C 17.6985 14.8999 17.8999 14.6985 17.8999 14.4499 C 17.8999 14.2014 17.6985 14.0 17.4500 14.0 Z  M 19.4500 14.0 C 19.2014 14.0 19.0 14.2014 19.0 14.4499 C 19.0 14.6985 19.2014 14.8999 19.4500 14.8999 C 19.6985 14.8999 19.8999 14.6985 19.8999 14.4499 C 19.8999 14.2014 19.6985 14.0 19.4500 14.0 Z  M 21.4500 14.0 C 21.2014 14.0 21.0 14.2014 21.0 14.4499 C 21.0 14.6985 21.2014 14.8999 21.4500 14.8999 C 21.6985 14.8999 21.8999 14.6985 21.8999 14.4499 C 21.8999 14.2014 21.6985 14.0 21.4500 14.0 Z  M 23.4500 14.0 C 23.2014 14.0 23.0 14.2014 23.0 14.4499 C 23.0 14.6985 23.2014 14.8999 23.4500 14.8999 C 23.6985 14.8999 23.8999 14.6985 23.8999 14.4499 C 23.8999 14.2014 23.6985 14.0 23.4500 14.0 Z  M 25.4500 14.0 C 25.2014 14.0 25.0 14.2014 25.0 14.4499 C 25.0 14.6985 25.2014 14.8999 25.4500 14.8999 C 25.6985 14.8999 25.8999 14.6985 25.8999 14.4499 C 25.8999 14.2014 25.6985 14.0 25.4500 14.0 Z  M 26.4500 14.0 C 26.2014 14.0 26.0 14.2014 26.0 14.4499 C 26.0 14.6985 26.2014 14.8999 26.4500 14.8999 C 26.6985 14.8999 26.8999 14.6985 26.8999 14.4499 C 26.8999 14.2014 26.6985 14.0 26.4500 14.0 Z  M 28.4500 14.0 C 28.2014 14.0 28.0 14.2014 28.0 14.4499 C 28.0 14.6985 28.2014 14.8999 28.4500 14.8999 C 28.6985 14.8999 28.8999 14.6985 28.8999 14.4499 C 28.8999 14.2014 28.6985 14.0 28.4500 14.0 Z  M 11.4499 15.0 C 11.2014 15.0 11.0 15.2014 11.0 15.4499 C 11.0 15.6985 11.2014 15.8999 11.4499 15.8999 C 11.6985 15.8999 11.8999 15.6985 11.8999 15.4499 C 11.8999 15.2014 11.6985 15.0 11.4499 15.0 Z  M 12.4499 15.0 C 12.2014 15.0 12.0 15.2014 12.0 15.4499 C 12.0 15.6985 12.2014 15.8999 12.4499 15.8999 C 12.6985 15.8999 12.8999 15.6985 12.8999 15.4499 C 12.8999 15.2014 12.6985 15.0 12.4499 15.0 Z  M 15.4499 15.0 C 15.2014 15.0 15.0 15.2014 15.0 15.4499 C 15.0 15.6985 15.2014 15.8999 15.4499 15.8999 C 15.6985 15.8999 15.8999 15.6985 15.8999 15.4499 C 15.8999 15.2014 15.6985 15.0 15.4499 15.0 Z  M 20.4500 15.0 C 20.2014 15.0 20.0 15.2014 20.0 15.4499 C 20.0 15.6985 20.2014 15.8999 20.4500 15.8999 C 20.6985 15.8999 20.8999 15.6985 20.8999 15.4499 C 20.8999 15.2014 20.6985 15.0 20.4500 15.0 Z  M 21.4500 15.0 C 21.2014 15.0 21.0 15.2014 21.0 15.4499 C 21.0 15.6985 21.2014 15.8999 21.4500 15.8999 C 21.6985 15.8999 21.8999 15.6985 21.8999 15.4499 C 21.8999 15.2014 21.6985 15.0 21.4500 15.0 Z  M 25.4500 15.0 C 25.2014 15.0 25.0 15.2014 25.0 15.4499 C 25.0 15.6985 25.2014 15.8999 25.4500 15.8999 C 25.6985 15.8999 25.8999 15.6985 25.8999 15.4499 C 25.8999 15.2014 25.6985 15.0 25.4500 15.0 Z  M 26.4500 15.0 C 26.2014 15.0 26.0 15.2014 26.0 15.4499 C 26.0 15.6985 26.2014 15.8999 26.4500 15.8999 C 26.6985 15.8999 26.8999 15.6985 26.8999 15.4499 C 26.8999 15.2014 26.6985 15.0 26.4500 15.0 Z  M 27.4500 15.0 C 27.2014 15.0 27.0 15.2014 27.0 15.4499 C 27.0 15.6985 27.2014 15.8999 27.4500 15.8999 C 27.6985 15.8999 27.8999 15.6985 27.8999 15.4499 C 27.8999 15.2014 27.6985 15.0 27.4500 15.0 Z  M 28.4500 15.0 C 28.2014 15.0 28.0 15.2014 28.0 15.4499 C 28.0 15.6985 28.2014 15.8999 28.4500 15.8999 C 28.6985 15.8999 28.8999 15.6985 28.8999 15.4499 C 28.8999 15.2014 28.6985 15.0 28.4500 15.0 Z  M 2.4500 16.0 C 2.2014 16.0 2.0 16.2014 2.0 16.4500 C 2.0 16.6985 2.2014 16.8999 2.4500 16.8999 C 2.6985 16.8999 2.9000 16.6985 2.9000 16.4500 C 2.9000 16.2014 2.6985 16.0 2.4500 16.0 Z  M 4.4499 16.0 C 4.2014 16.0 4.0 16.2014 4.0 16.4500 C 4.0 16.6985 4.2014 16.8999 4.4499 16.8999 C 4.6985 16.8999 4.9000 16.6985 4.9000 16.4500 C 4.9000 16.2014 4.6985 16.0 4.4499 16.0 Z  M 6.4499 16.0 C 6.2014 16.0 6.0 16.2014 6.0 16.4500 C 6.0 16.6985 6.2014 16.8999 6.4499 16.8999 C 6.6985 16.8999 6.9000 16.6985 6.9000 16.4500 C 6.9000 16.2014 6.6985 16.0 6.4499 16.0 Z  M 9.4499 16.0 C 9.2014 16.0 9.0 16.2014 9.0 16.4500 C 9.0 16.6985 9.2014 16.8999 9.4499 16.8999 C 9.6985 16.8999 9.8999 16.6985 9.8999 16.4500 C 9.8999 16.2014 9.6985 16.0 9.4499 16.0 Z  M 14.4499 16.0 C 14.2014 16.0 14.0 16.2014 14.0 16.4500 C 14.0 16.6985 14.2014 16.8999 14.4499 16.8999 C 14.6985 16.8999 14.8999 16.6985 14.8999 16.4500 C 14.8999 16.2014 14.6985 16.0 14.4499 16.0 Z  M 16.4500 16.0 C 16.2014 16.0 16.0 16.2014 16.0 16.4500 C 16.0 16.6985 16.2014 16.8999 16.4500 16.8999 C 16.6985 16.8999 16.8999 16.6985 16.8999 16.4500 C 16.8999 16.2014 16.6985 16.0 16.4500 16.0 Z  M 25.4500 16.0 C 25.2014 16.0 25.0 16.2014 25.0 16.4500 C 25.0 16.6985 25.2014 16.8999 25.4500 16.8999 C 25.6985 16.8999 25.8999 16.6985 25.8999 16.4500 C 25.8999 16.2014 25.6985 16.0 25.4500 16.0 Z  M 26.4500 16.0 C 26.2014 16.0 26.0 16.2014 26.0 16.4500 C 26.0 16.6985 26.2014 16.8999 26.4500 16.8999 C 26.6985 16.8999 26.8999 16.6985 26.8999 16.4500 C 26.8999 16.2014 26.6985 16.0 26.4500 16.0 Z  M 27.4500 16.0 C 27.2014 16.0 27.0 16.2014 27.0 16.4500 C 27.0 16.6985 27.2014 16.8999 27.4500 16.8999 C 27.6985 16.8999 27.8999 16.6985 27.8999 16.4500 C 27.8999 16.2014 27.6985 16.0 27.4500 16.0 Z  M 28.4500 16.0 C 28.2014 16.0 28.0 16.2014 28.0 16.4500 C 28.0 16.6985 28.2014 16.8999 28.4500 16.8999 C 28.6985 16.8999 28.8999 16.6985 28.8999 16.4500 C 28.8999 16.2014 28.6985 16.0 28.4500 16.0 Z  M 0.4499 17.0 C 0.2014 17.0 0.0 17.2014 0.0 17.4500 C 0.0 17.6985 0.2014 17.8999 0.4499 17.8999 C 0.6985 17.8999 0.8999 17.6985 0.8999 17.4500 C 0.8999 17.2014 0.6985 17.0 0.4499 17.0 Z  M 2.4500 17.0 C 2.2014 17.0 2.0 17.2014 2.0 17.4500 C 2.0 17.6985 2.2014 17.8999 2.4500 17.8999 C 2.6985 17.8999 2.9000 17.6985 2.9000 17.4500 C 2.9000 17.2014 2.6985 17.0 2.4500 17.0 Z  M 4.4499 17.0 C 4.2014 17.0 4.0 17.2014 4.0 17.4500 C 4.0 17.6985 4.2014 17.8999 4.4499 17.8999 C 4.6985 17.8999 4.9000 17.6985 4.9000 17.4500 C 4.9000 17.2014 4.6985 17.0 4.4499 17.0 Z  M 8.4499 17.0 C 8.2014 17.0 8.0 17.2014 8.0 17.4500 C 8.0 17.6985 8.2014 17.8999 8.4499 17.8999 C 8.6985 17.8999 8.8999 17.6985 8.8999 17.4500 C 8.8999 17.2014 8.6985 17.0 8.4499 17.0 Z  M 9.4499 17.0 C 9.2014 17.0 9.0 17.2014 9.0 17.4500 C 9.0 17.6985 9.2014 17.8999 9.4499 17.8999 C 9.6985 17.8999 9.8999 17.6985 9.8999 17.4500 C 9.8999 17.2014 9.6985 17.0 9.4499 17.0 Z  M 10.4499 17.0 C 10.2014 17.0 10.0 17.2014 10.0 17.4500 C 10.0 17.6985 10.2014 17.8999 10.4499 17.8999 C 10.6985 17.8999 10.8999 17.6985 10.8999 17.4500 C 10.8999 17.2014 10.6985 17.0 10.4499 17.0 Z  M 13.4499 17.0 C 13.2014 17.0 13.0 17.2014 13.0 17.4500 C 13.0 17.6985 13.2014 17.8999 13.4499 17.8999 C 13.6985 17.8999 13.8999 17.6985 13.8999 17.4500 C 13.8999 17.2014 13.6985 17.0 13.4499 17.0 Z  M 14.4499 17.0 C 14.2014 17.0 14.0 17.2014 14.0 17.4500 C 14.0 17.6985 14.2014 17.8999 14.4499 17.8999 C 14.6985 17.8999 14.8999 17.6985 14.8999 17.4500 C 14.8999 17.2014 14.6985 17.0 14.4499 17.0 Z  M 16.4500 17.0 C 16.2014 17.0 16.0 17.2014 16.0 17.4500 C 16.0 17.6985 16.2014 17.8999 16.4500 17.8999 C 16.6985 17.8999 16.8999 17.6985 16.8999 17.4500 C 16.8999 17.2014 16.6985 17.0 16.4500 17.0 Z  M 17.4500 17.0 C 17.2014 17.0 17.0 17.2014 17.0 17.4500 C 17.0 17.6985 17.2014 17.8999 17.4500 17.8999 C 17.6985 17.8999 17.8999 17.6985 17.8999 17.4500 C 17.8999 17.2014 17.6985 17.0 17.4500 17.0 Z  M 20.4500 17.0 C 20.2014 17.0 20.0 17.2014 20.0 17.4500 C 20.0 17.6985 20.2014 17.8999 20.4500 17.8999 C 20.6985 17.8999 20.8999 17.6985 20.8999 17.4500 C 20.8999 17.2014 20.6985 17.0 20.4500 17.0 Z  M 21.4500 17.0 C 21.2014 17.0 21.0 17.2014 21.0 17.4500 C 21.0 17.6985 21.2014 17.8999 21.4500 17.8999 C 21.6985 17.8999 21.8999 17.6985 21.8999 17.4500 C 21.8999 17.2014 21.6985 17.0 21.4500 17.0 Z  M 23.4500 17.0 C 23.2014 17.0 23.0 17.2014 23.0 17.4500 C 23.0 17.6985 23.2014 17.8999 23.4500 17.8999 C 23.6985 17.8999 23.8999 17.6985 23.8999 17.4500 C 23.8999 17.2014 23.6985 17.0 23.4500 17.0 Z  M 24.4500 17.0 C 24.2014 17.0 24.0 17.2014 24.0 17.4500 C 24.0 17.6985 24.2014 17.8999 24.4500 17.8999 C 24.6985 17.8999 24.8999 17.6985 24.8999 17.4500 C 24.8999 17.2014 24.6985 17.0 24.4500 17.0 Z  M 25.4500 17.0 C 25.2014 17.0 25.0 17.2014 25.0 17.4500 C 25.0 17.6985 25.2014 17.8999 25.4500 17.8999 C 25.6985 17.8999 25.8999 17.6985 25.8999 17.4500 C 25.8999 17.2014 25.6985 17.0 25.4500 17.0 Z  M 28.4500 17.0 C 28.2014 17.0 28.0 17.2014 28.0 17.4500 C 28.0 17.6985 28.2014 17.8999 28.4500 17.8999 C 28.6985 17.8999 28.8999 17.6985 28.8999 17.4500 C 28.8999 17.2014 28.6985 17.0 28.4500 17.0 Z  M 0.4499 18.0 C 0.2014 18.0 0.0 18.2014 0.0 18.4500 C 0.0 18.6985 0.2014 18.8999 0.4499 18.8999 C 0.6985 18.8999 0.8999 18.6985 0.8999 18.4500 C 0.8999 18.2014 0.6985 18.0 0.4499 18.0 Z  M 1.4500 18.0 C 1.2014 18.0 1.0 18.2014 1.0 18.4500 C 1.0 18.6985 1.2014 18.8999 1.4500 18.8999 C 1.6985 18.8999 1.8999 18.6985 1.8999 18.4500 C 1.8999 18.2014 1.6985 18.0 1.4500 18.0 Z  M 2.4500 18.0 C 2.2014 18.0 2.0 18.2014 2.0 18.4500 C 2.0 18.6985 2.2014 18.8999 2.4500 18.8999 C 2.6985 18.8999 2.9000 18.6985 2.9000 18.4500 C 2.9000 18.2014 2.6985 18.0 2.4500 18.0 Z  M 3.4500 18.0 C 3.2014 18.0 3.0 18.2014 3.0 18.4500 C 3.0 18.6985 3.2014 18.8999 3.4500 18.8999 C 3.6985 18.8999 3.9000 18.6985 3.9000 18.4500 C 3.9000 18.2014 3.6985 18.0 3.4500 18.0 Z  M 4.4499 18.0 C 4.2014 18.0 4.0 18.2014 4.0 18.4500 C 4.0 18.6985 4.2014 18.8999 4.4499 18.8999 C 4.6985 18.8999 4.9000 18.6985 4.9000 18.4500 C 4.9000 18.2014 4.6985 18.0 4.4499 18.0 Z  M 6.4499 18.0 C 6.2014 18.0 6.0 18.2014 6.0 18.4500 C 6.0 18.6985 6.2014 18.8999 6.4499 18.8999 C 6.6985 18.8999 6.9000 18.6985 6.9000 18.4500 C 6.9000 18.2014 6.6985 18.0 6.4499 18.0 Z  M 11.4499 18.0 C 11.2014 18.0 11.0 18.2014 11.0 18.4500 C 11.0 18.6985 11.2014 18.8999 11.4499 18.8999 C 11.6985 18.8999 11.8999 18.6985 11.8999 18.4500 C 11.8999 18.2014 11.6985 18.0 11.4499 18.0 Z  M 12.4499 18.0 C 12.2014 18.0 12.0 18.2014 12.0 18.4500 C 12.0 18.6985 12.2014 18.8999 12.4499 18.8999 C 12.6985 18.8999 12.8999 18.6985 12.8999 18.4500 C 12.8999 18.2014 12.6985 18.0 12.4499 18.0 Z  M 15.4499 18.0 C 15.2014 18.0 15.0 18.2014 15.0 18.4500 C 15.0 18.6985 15.2014 18.8999 15.4499 18.8999 C 15.6985 18.8999 15.8999 18.6985 15.8999 18.4500 C 15.8999 18.2014 15.6985 18.0 15.4499 18.0 Z  M 18.4500 18.0 C 18.2014 18.0 18.0 18.2014 18.0 18.4500 C 18.0 18.6985 18.2014 18.8999 18.4500 18.8999 C 18.6985 18.8999 18.8999 18.6985 18.8999 18.4500 C 18.8999 18.2014 18.6985 18.0 18.4500 18.0 Z  M 19.4500 18.0 C 19.2014 18.0 19.0 18.2014 19.0 18.4500 C 19.0 18.6985 19.2014 18.8999 19.4500 18.8999 C 19.6985 18.8999 19.8999 18.6985 19.8999 18.4500 C 19.8999 18.2014 19.6985 18.0 19.4500 18.0 Z  M 22.4500 18.0 C 22.2014 18.0 22.0 18.2014 22.0 18.4500 C 22.0 18.6985 22.2014 18.8999 22.4500 18.8999 C 22.6985 18.8999 22.8999 18.6985 22.8999 18.4500 C 22.8999 18.2014 22.6985 18.0 22.4500 18.0 Z  M 24.4500 18.0 C 24.2014 18.0 24.0 18.2014 24.0 18.4500 C 24.0 18.6985 24.2014 18.8999 24.4500 18.8999 C 24.6985 18.8999 24.8999 18.6985 24.8999 18.4500 C 24.8999 18.2014 24.6985 18.0 24.4500 18.0 Z  M 25.4500 18.0 C 25.2014 18.0 25.0 18.2014 25.0 18.4500 C 25.0 18.6985 25.2014 18.8999 25.4500 18.8999 C 25.6985 18.8999 25.8999 18.6985 25.8999 18.4500 C 25.8999 18.2014 25.6985 18.0 25.4500 18.0 Z  M 26.4500 18.0 C 26.2014 18.0 26.0 18.2014 26.0 18.4500 C 26.0 18.6985 26.2014 18.8999 26.4500 18.8999 C 26.6985 18.8999 26.8999 18.6985 26.8999 18.4500 C 26.8999 18.2014 26.6985 18.0 26.4500 18.0 Z  M 28.4500 18.0 C 28.2014 18.0 28.0 18.2014 28.0 18.4500 C 28.0 18.6985 28.2014 18.8999 28.4500 18.8999 C 28.6985 18.8999 28.8999 18.6985 28.8999 18.4500 C 28.8999 18.2014 28.6985 18.0 28.4500 18.0 Z  M 0.4499 19.0 C 0.2014 19.0 0.0 19.2014 0.0 19.4500 C 0.0 19.6985 0.2014 19.8999 0.4499 19.8999 C 0.6985 19.8999 0.8999 19.6985 0.8999 19.4500 C 0.8999 19.2014 0.6985 19.0 0.4499 19.0 Z  M 1.4500 19.0 C 1.2014 19.0 1.0 19.2014 1.0 19.4500 C 1.0 19.6985 1.2014 19.8999 1.4500 19.8999 C 1.6985 19.8999 1.8999 19.6985 1.8999 19.4500 C 1.8999 19.2014 1.6985 19.0 1.4500 19.0 Z  M 4.4499 19.0 C 4.2014 19.0 4.0 19.2014 4.0 19.4500 C 4.0 19.6985 4.2014 19.8999 4.4499 19.8999 C 4.6985 19.8999 4.9000 19.6985 4.9000 19.4500 C 4.9000 19.2014 4.6985 19.0 4.4499 19.0 Z  M 5.4499 19.0 C 5.2014 19.0 5.0 19.2014 5.0 19.4500 C 5.0 19.6985 5.2014 19.8999 5.4499 19.8999 C 5.6985 19.8999 5.9000 19.6985 5.9000 19.4500 C 5.9000 19.2014 5.6985 19.0 5.4499 19.0 Z  M 7.4499 19.0 C 7.2014 19.0 7.0 19.2014 7.0 19.4500 C 7.0 19.6985 7.2014 19.8999 7.4499 19.8999 C 7.6985 19.8999 7.9000 19.6985 7.9000 19.4500 C 7.9000 19.2014 7.6985 19.0 7.4499 19.0 Z  M 8.4499 19.0 C 8.2014 19.0 8.0 19.2014 8.0 19.4500 C 8.0 19.6985 8.2014 19.8999 8.4499 19.8999 C 8.6985 19.8999 8.8999 19.6985 8.8999 19.4500 C 8.8999 19.2014 8.6985 19.0 8.4499 19.0 Z  M 9.4499 19.0 C 9.2014 19.0 9.0 19.2014 9.0 19.4500 C 9.0 19.6985 9.2014 19.8999 9.4499 19.8999 C 9.6985 19.8999 9.8999 19.6985 9.8999 19.4500 C 9.8999 19.2014 9.6985 19.0 9.4499 19.0 Z  M 10.4499 19.0 C 10.2014 19.0 10.0 19.2014 10.0 19.4500 C 10.0 19.6985 10.2014 19.8999 10.4499 19.8999 C 10.6985 19.8999 10.8999 19.6985 10.8999 19.4500 C 10.8999 19.2014 10.6985 19.0 10.4499 19.0 Z  M 12.4499 19.0 C 12.2014 19.0 12.0 19.2014 12.0 19.4500 C 12.0 19.6985 12.2014 19.8999 12.4499 19.8999 C 12.6985 19.8999 12.8999 19.6985 12.8999 19.4500 C 12.8999 19.2014 12.6985 19.0 12.4499 19.0 Z  M 14.4499 19.0 C 14.2014 19.0 14.0 19.2014 14.0 19.4500 C 14.0 19.6985 14.2014 19.8999 14.4499 19.8999 C 14.6985 19.8999 14.8999 19.6985 14.8999 19.4500 C 14.8999 19.2014 14.6985 19.0 14.4499 19.0 Z  M 18.4500 19.0 C 18.2014 19.0 18.0 19.2014 18.0 19.4500 C 18.0 19.6985 18.2014 19.8999 18.4500 19.8999 C 18.6985 19.8999 18.8999 19.6985 18.8999 19.4500 C 18.8999 19.2014 18.6985 19.0 18.4500 19.0 Z  M 20.4500 19.0 C 20.2014 19.0 20.0 19.2014 20.0 19.4500 C 20.0 19.6985 20.2014 19.8999 20.4500 19.8999 C 20.6985 19.8999 20.8999 19.6985 20.8999 19.4500 C 20.8999 19.2014 20.6985 19.0 20.4500 19.0 Z  M 21.4500 19.0 C 21.2014 19.0 21.0 19.2014 21.0 19.4500 C 21.0 19.6985 21.2014 19.8999 21.4500 19.8999 C 21.6985 19.8999 21.8999 19.6985 21.8999 19.4500 C 21.8999 19.2014 21.6985 19.0 21.4500 19.0 Z  M 24.4500 19.0 C 24.2014 19.0 24.0 19.2014 24.0 19.4500 C 24.0 19.6985 24.2014 19.8999 24.4500 19.8999 C 24.6985 19.8999 24.8999 19.6985 24.8999 19.4500 C 24.8999 19.2014 24.6985 19.0 24.4500 19.0 Z  M 25.4500 19.0 C 25.2014 19.0 25.0 19.2014 25.0 19.4500 C 25.0 19.6985 25.2014 19.8999 25.4500 19.8999 C 25.6985 19.8999 25.8999 19.6985 25.8999 19.4500 C 25.8999 19.2014 25.6985 19.0 25.4500 19.0 Z  M 26.4500 19.0 C 26.2014 19.0 26.0 19.2014 26.0 19.4500 C 26.0 19.6985 26.2014 19.8999 26.4500 19.8999 C 26.6985 19.8999 26.8999 19.6985 26.8999 19.4500 C 26.8999 19.2014 26.6985 19.0 26.4500 19.0 Z  M 27.4500 19.0 C 27.2014 19.0 27.0 19.2014 27.0 19.4500 C 27.0 19.6985 27.2014 19.8999 27.4500 19.8999 C 27.6985 19.8999 27.8999 19.6985 27.8999 19.4500 C 27.8999 19.2014 27.6985 19.0 27.4500 19.0 Z  M 28.4500 19.0 C 28.2014 19.0 28.0 19.2014 28.0 19.4500 C 28.0 19.6985 28.2014 19.8999 28.4500 19.8999 C 28.6985 19.8999 28.8999 19.6985 28.8999 19.4500 C 28.8999 19.2014 28.6985 19.0 28.4500 19.0 Z  M 0.4499 20.0 C 0.2014 20.0 0.0 20.2014 0.0 20.4500 C 0.0 20.6985 0.2014 20.8999 0.4499 20.8999 C 0.6985 20.8999 0.8999 20.6985 0.8999 20.4500 C 0.8999 20.2014 0.6985 20.0 0.4499 20.0 Z  M 1.4500 20.0 C 1.2014 20.0 1.0 20.2014 1.0 20.4500 C 1.0 20.6985 1.2014 20.8999 1.4500 20.8999 C 1.6985 20.8999 1.8999 20.6985 1.8999 20.4500 C 1.8999 20.2014 1.6985 20.0 1.4500 20.0 Z  M 2.4500 20.0 C 2.2014 20.0 2.0 20.2014 2.0 20.4500 C 2.0 20.6985 2.2014 20.8999 2.4500 20.8999 C 2.6985 20.8999 2.9000 20.6985 2.9000 20.4500 C 2.9000 20.2014 2.6985 20.0 2.4500 20.0 Z  M 3.4500 20.0 C 3.2014 20.0 3.0 20.2014 3.0 20.4500 C 3.0 20.6985 3.2014 20.8999 3.4500 20.8999 C 3.6985 20.8999 3.9000 20.6985 3.9000 20.4500 C 3.9000 20.2014 3.6985 20.0 3.4500 20.0 Z  M 4.4499 20.0 C 4.2014 20.0 4.0 20.2014 4.0 20.4500 C 4.0 20.6985 4.2014 20.8999 4.4499 20.8999 C 4.6985 20.8999 4.9000 20.6985 4.9000 20.4500 C 4.9000 20.2014 4.6985 20.0 4.4499 20.0 Z  M 6.4499 20.0 C 6.2014 20.0 6.0 20.2014 6.0 20.4500 C 6.0 20.6985 6.2014 20.8999 6.4499 20.8999 C 6.6985 20.8999 6.9000 20.6985 6.9000 20.4500 C 6.9000 20.2014 6.6985 20.0 6.4499 20.0 Z  M 7.4499 20.0 C 7.2014 20.0 7.0 20.2014 7.0 20.4500 C 7.0 20.6985 7.2014 20.8999 7.4499 20.8999 C 7.6985 20.8999 7.9000 20.6985 7.9000 20.4500 C 7.9000 20.2014 7.6985 20.0 7.4499 20.0 Z  M 9.4499 20.0 C 9.2014 20.0 9.0 20.2014 9.0 20.4500 C 9.0 20.6985 9.2014 20.8999 9.4499 20.8999 C 9.6985 20.8999 9.8999 20.6985 9.8999 20.4500 C 9.8999 20.2014 9.6985 20.0 9.4499 20.0 Z  M 12.4499 20.0 C 12.2014 20.0 12.0 20.2014 12.0 20.4500 C 12.0 20.6985 12.2014 20.8999 12.4499 20.8999 C 12.6985 20.8999 12.8999 20.6985 12.8999 20.4500 C 12.8999 20.2014 12.6985 20.0 12.4499 20.0 Z  M 13.4499 20.0 C 13.2014 20.0 13.0 20.2014 13.0 20.4500 C 13.0 20.6985 13.2014 20.8999 13.4499 20.8999 C 13.6985 20.8999 13.8999 20.6985 13.8999 20.4500 C 13.8999 20.2014 13.6985 20.0 13.4499 20.0 Z  M 14.4499 20.0 C 14.2014 20.0 14.0 20.2014 14.0 20.4500 C 14.0 20.6985 14.2014 20.8999 14.4499 20.8999 C 14.6985 20.8999 14.8999 20.6985 14.8999 20.4500 C 14.8999 20.2014 14.6985 20.0 14.4499 20.0 Z  M 15.4499 20.0 C 15.2014 20.0 15.0 20.2014 15.0 20.4500 C 15.0 20.6985 15.2014 20.8999 15.4499 20.8999 C 15.6985 20.8999 15.8999 20.6985 15.8999 20.4500 C 15.8999 20.2014 15.6985 20.0 15.4499 20.0 Z  M 16.4500 20.0 C 16.2014 20.0 16.0 20.2014 16.0 20.4500 C 16.0 20.6985 16.2014 20.8999 16.4500 20.8999 C 16.6985 20.8999 16.8999 20.6985 16.8999 20.4500 C 16.8999 20.2014 16.6985 20.0 16.4500 20.0 Z  M 17.4500 20.0 C 17.2014 20.0 17.0 20.2014 17.0 20.4500 C 17.0 20.6985 17.2014 20.8999 17.4500 20.8999 C 17.6985 20.8999 17.8999 20.6985 17.8999 20.4500 C 17.8999 20.2014 17.6985 20.0 17.4500 20.0 Z  M 20.4500 20.0 C 20.2014 20.0 20.0 20.2014 20.0 20.4500 C 20.0 20.6985 20.2014 20.8999 20.4500 20.8999 C 20.6985 20.8999 20.8999 20.6985 20.8999 20.4500 C 20.8999 20.2014 20.6985 20.0 20.4500 20.0 Z  M 21.4500 20.0 C 21.2014 20.0 21.0 20.2014 21.0 20.4500 C 21.0 20.6985 21.2014 20.8999 21.4500 20.8999 C 21.6985 20.8999 21.8999 20.6985 21.8999 20.4500 C 21.8999 20.2014 21.6985 20.0 21.4500 20.0 Z  M 22.4500 20.0 C 22.2014 20.0 22.0 20.2014 22.0 20.4500 C 22.0 20.6985 22.2014 20.8999 22.4500 20.8999 C 22.6985 20.8999 22.8999 20.6985 22.8999 20.4500 C 22.8999 20.2014 22.6985 20.0 22.4500 20.0 Z  M 23.4500 20.0 C 23.2014 20.0 23.0 20.2014 23.0 20.4500 C 23.0 20.6985 23.2014 20.8999 23.4500 20.8999 C 23.6985 20.8999 23.8999 20.6985 23.8999 20.4500 C 23.8999 20.2014 23.6985 20.0 23.4500 20.0 Z  M 24.4500 20.0 C 24.2014 20.0 24.0 20.2014 24.0 20.4500 C 24.0 20.6985 24.2014 20.8999 24.4500 20.8999 C 24.6985 20.8999 24.8999 20.6985 24.8999 20.4500 C 24.8999 20.2014 24.6985 20.0 24.4500 20.0 Z  M 26.4500 20.0 C 26.2014 20.0 26.0 20.2014 26.0 20.4500 C 26.0 20.6985 26.2014 20.8999 26.4500 20.8999 C 26.6985 20.8999 26.8999 20.6985 26.8999 20.4500 C 26.8999 20.2014 26.6985 20.0 26.4500 20.0 Z  M 28.4500 20.0 C 28.2014 20.0 28.0 20.2014 28.0 20.4500 C 28.0 20.6985 28.2014 20.8999 28.4500 20.8999 C 28.6985 20.8999 28.8999 20.6985 28.8999 20.4500 C 28.8999 20.2014 28.6985 20.0 28.4500 20.0 Z  M 8.4499 21.0 C 8.2014 21.0 8.0 21.2014 8.0 21.4500 C 8.0 21.6985 8.2014 21.8999 8.4499 21.8999 C 8.6985 21.8999 8.8999 21.6985 8.8999 21.4500 C 8.8999 21.2014 8.6985 21.0 8.4499 21.0 Z  M 11.4499 21.0 C 11.2014 21.0 11.0 21.2014 11.0 21.4500 C 11.0 21.6985 11.2014 21.8999 11.4499 21.8999 C 11.6985 21.8999 11.8999 21.6985 11.8999 21.4500 C 11.8999 21.2014 11.6985 21.0 11.4499 21.0 Z  M 14.4499 21.0 C 14.2014 21.0 14.0 21.2014 14.0 21.4500 C 14.0 21.6985 14.2014 21.8999 14.4499 21.8999 C 14.6985 21.8999 14.8999 21.6985 14.8999 21.4500 C 14.8999 21.2014 14.6985 21.0 14.4499 21.0 Z  M 18.4500 21.0 C 18.2014 21.0 18.0 21.2014 18.0 21.4500 C 18.0 21.6985 18.2014 21.8999 18.4500 21.8999 C 18.6985 21.8999 18.8999 21.6985 18.8999 21.4500 C 18.8999 21.2014 18.6985 21.0 18.4500 21.0 Z  M 19.4500 21.0 C 19.2014 21.0 19.0 21.2014 19.0 21.4500 C 19.0 21.6985 19.2014 21.8999 19.4500 21.8999 C 19.6985 21.8999 19.8999 21.6985 19.8999 21.4500 C 19.8999 21.2014 19.6985 21.0 19.4500 21.0 Z  M 20.4500 21.0 C 20.2014 21.0 20.0 21.2014 20.0 21.4500 C 20.0 21.6985 20.2014 21.8999 20.4500 21.8999 C 20.6985 21.8999 20.8999 21.6985 20.8999 21.4500 C 20.8999 21.2014 20.6985 21.0 20.4500 21.0 Z  M 24.4500 21.0 C 24.2014 21.0 24.0 21.2014 24.0 21.4500 C 24.0 21.6985 24.2014 21.8999 24.4500 21.8999 C 24.6985 21.8999 24.8999 21.6985 24.8999 21.4500 C 24.8999 21.2014 24.6985 21.0 24.4500 21.0 Z  M 27.4500 21.0 C 27.2014 21.0 27.0 21.2014 27.0 21.4500 C 27.0 21.6985 27.2014 21.8999 27.4500 21.8999 C 27.6985 21.8999 27.8999 21.6985 27.8999 21.4500 C 27.8999 21.2014 27.6985 21.0 27.4500 21.0 Z  M 28.4500 21.0 C 28.2014 21.0 28.0 21.2014 28.0 21.4500 C 28.0 21.6985 28.2014 21.8999 28.4500 21.8999 C 28.6985 21.8999 28.8999 21.6985 28.8999 21.4500 C 28.8999 21.2014 28.6985 21.0 28.4500 21.0 Z  M 8.4499 22.0 C 8.2014 22.0 8.0 22.2014 8.0 22.4500 C 8.0 22.6985 8.2014 22.8999 8.4499 22.8999 C 8.6985 22.8999 8.8999 22.6985 8.8999 22.4500 C 8.8999 22.2014 8.6985 22.0 8.4499 22.0 Z  M 10.4499 22.0 C 10.2014 22.0 10.0 22.2014 10.0 22.4500 C 10.0 22.6985 10.2014 22.8999 10.4499 22.8999 C 10.6985 22.8999 10.8999 22.6985 10.8999 22.4500 C 10.8999 22.2014 10.6985 22.0 10.4499 22.0 Z  M 14.4499 22.0 C 14.2014 22.0 14.0 22.2014 14.0 22.4500 C 14.0 22.6985 14.2014 22.8999 14.4499 22.8999 C 14.6985 22.8999 14.8999 22.6985 14.8999 22.4500 C 14.8999 22.2014 14.6985 22.0 14.4499 22.0 Z  M 17.4500 22.0 C 17.2014 22.0 17.0 22.2014 17.0 22.4500 C 17.0 22.6985 17.2014 22.8999 17.4500 22.8999 C 17.6985 22.8999 17.8999 22.6985 17.8999 22.4500 C 17.8999 22.2014 17.6985 22.0 17.4500 22.0 Z  M 19.4500 22.0 C 19.2014 22.0 19.0 22.2014 19.0 22.4500 C 19.0 22.6985 19.2014 22.8999 19.4500 22.8999 C 19.6985 22.8999 19.8999 22.6985 19.8999 22.4500 C 19.8999 22.2014 19.6985 22.0 19.4500 22.0 Z  M 20.4500 22.0 C 20.2014 22.0 20.0 22.2014 20.0 22.4500 C 20.0 22.6985 20.2014 22.8999 20.4500 22.8999 C 20.6985 22.8999 20.8999 22.6985 20.8999 22.4500 C 20.8999 22.2014 20.6985 22.0 20.4500 22.0 Z  M 22.4500 22.0 C 22.2014 22.0 22.0 22.2014 22.0 22.4500 C 22.0 22.6985 22.2014 22.8999 22.4500 22.8999 C 22.6985 22.8999 22.8999 22.6985 22.8999 22.4500 C 22.8999 22.2014 22.6985 22.0 22.4500 22.0 Z  M 24.4500 22.0 C 24.2014 22.0 24.0 22.2014 24.0 22.4500 C 24.0 22.6985 24.2014 22.8999 24.4500 22.8999 C 24.6985 22.8999 24.8999 22.6985 24.8999 22.4500 C 24.8999 22.2014 24.6985 22.0 24.4500 22.0 Z  M 8.4499 23.0 C 8.2014 23.0 8.0 23.2014 8.0 23.4500 C 8.0 23.6985 8.2014 23.8999 8.4499 23.8999 C 8.6985 23.8999 8.8999 23.6985 8.8999 23.4500 C 8.8999 23.2014 8.6985 23.0 8.4499 23.0 Z  M 10.4499 23.0 C 10.2014 23.0 10.0 23.2014 10.0 23.4500 C 10.0 23.6985 10.2014 23.8999 10.4499 23.8999 C 10.6985 23.8999 10.8999 23.6985 10.8999 23.4500 C 10.8999 23.2014 10.6985 23.0 10.4499 23.0 Z  M 11.4499 23.0 C 11.2014 23.0 11.0 23.2014 11.0 23.4500 C 11.0 23.6985 11.2014 23.8999 11.4499 23.8999 C 11.6985 23.8999 11.8999 23.6985 11.8999 23.4500 C 11.8999 23.2014 11.6985 23.0 11.4499 23.0 Z  M 14.4499 23.0 C 14.2014 23.0 14.0 23.2014 14.0 23.4500 C 14.0 23.6985 14.2014 23.8999 14.4499 23.8999 C 14.6985 23.8999 14.8999 23.6985 14.8999 23.4500 C 14.8999 23.2014 14.6985 23.0 14.4499 23.0 Z  M 15.4499 23.0 C 15.2014 23.0 15.0 23.2014 15.0 23.4500 C 15.0 23.6985 15.2014 23.8999 15.4499 23.8999 C 15.6985 23.8999 15.8999 23.6985 15.8999 23.4500 C 15.8999 23.2014 15.6985 23.0 15.4499 23.0 Z  M 17.4500 23.0 C 17.2014 23.0 17.0 23.2014 17.0 23.4500 C 17.0 23.6985 17.2014 23.8999 17.4500 23.8999 C 17.6985 23.8999 17.8999 23.6985 17.8999 23.4500 C 17.8999 23.2014 17.6985 23.0 17.4500 23.0 Z  M 18.4500 23.0 C 18.2014 23.0 18.0 23.2014 18.0 23.4500 C 18.0 23.6985 18.2014 23.8999 18.4500 23.8999 C 18.6985 23.8999 18.8999 23.6985 18.8999 23.4500 C 18.8999 23.2014 18.6985 23.0 18.4500 23.0 Z  M 20.4500 23.0 C 20.2014 23.0 20.0 23.2014 20.0 23.4500 C 20.0 23.6985 20.2014 23.8999 20.4500 23.8999 C 20.6985 23.8999 20.8999 23.6985 20.8999 23.4500 C 20.8999 23.2014 20.6985 23.0 20.4500 23.0 Z  M 24.4500 23.0 C 24.2014 23.0 24.0 23.2014 24.0 23.4500 C 24.0 23.6985 24.2014 23.8999 24.4500 23.8999 C 24.6985 23.8999 24.8999 23.6985 24.8999 23.4500 C 24.8999 23.2014 24.6985 23.0 24.4500 23.0 Z  M 25.4500 23.0 C 25.2014 23.0 25.0 23.2014 25.0 23.4500 C 25.0 23.6985 25.2014 23.8999 25.4500 23.8999 C 25.6985 23.8999 25.8999 23.6985 25.8999 23.4500 C 25.8999 23.2014 25.6985 23.0 25.4500 23.0 Z  M 8.4499 24.0 C 8.2014 24.0 8.0 24.2014 8.0 24.4500 C 8.0 24.6985 8.2014 24.8999 8.4499 24.8999 C 8.6985 24.8999 8.8999 24.6985 8.8999 24.4500 C 8.8999 24.2014 8.6985 24.0 8.4499 24.0 Z  M 9.4499 24.0 C 9.2014 24.0 9.0 24.2014 9.0 24.4500 C 9.0 24.6985 9.2014 24.8999 9.4499 24.8999 C 9.6985 24.8999 9.8999 24.6985 9.8999 24.4500 C 9.8999 24.2014 9.6985 24.0 9.4499 24.0 Z  M 10.4499 24.0 C 10.2014 24.0 10.0 24.2014 10.0 24.4500 C 10.0 24.6985 10.2014 24.8999 10.4499 24.8999 C 10.6985 24.8999 10.8999 24.6985 10.8999 24.4500 C 10.8999 24.2014 10.6985 24.0 10.4499 24.0 Z  M 11.4499 24.0 C 11.2014 24.0 11.0 24.2014 11.0 24.4500 C 11.0 24.6985 11.2014 24.8999 11.4499 24.8999 C 11.6985 24.8999 11.8999 24.6985 11.8999 24.4500 C 11.8999 24.2014 11.6985 24.0 11.4499 24.0 Z  M 12.4499 24.0 C 12.2014 24.0 12.0 24.2014 12.0 24.4500 C 12.0 24.6985 12.2014 24.8999 12.4499 24.8999 C 12.6985 24.8999 12.8999 24.6985 12.8999 24.4500 C 12.8999 24.2014 12.6985 24.0 12.4499 24.0 Z  M 13.4499 24.0 C 13.2014 24.0 13.0 24.2014 13.0 24.4500 C 13.0 24.6985 13.2014 24.8999 13.4499 24.8999 C 13.6985 24.8999 13.8999 24.6985 13.8999 24.4500 C 13.8999 24.2014 13.6985 24.0 13.4499 24.0 Z  M 14.4499 24.0 C 14.2014 24.0 14.0 24.2014 14.0 24.4500 C 14.0 24.6985 14.2014 24.8999 14.4499 24.8999 C 14.6985 24.8999 14.8999 24.6985 14.8999 24.4500 C 14.8999 24.2014 14.6985 24.0 14.4499 24.0 Z  M 16.4500 24.0 C 16.2014 24.0 16.0 24.2014 16.0 24.4500 C 16.0 24.6985 16.2014 24.8999 16.4500 24.8999 C 16.6985 24.8999 16.8999 24.6985 16.8999 24.4500 C 16.8999 24.2014 16.6985 24.0 16.4500 24.0 Z  M 18.4500 24.0 C 18.2014 24.0 18.0 24.2014 18.0 24.4500 C 18.0 24.6985 18.2014 24.8999 18.4500 24.8999 C 18.6985 24.8999 18.8999 24.6985 18.8999 24.4500 C 18.8999 24.2014 18.6985 24.0 18.4500 24.0 Z  M 19.4500 24.0 C 19.2014 24.0 19.0 24.2014 19.0 24.4500 C 19.0 24.6985 19.2014 24.8999 19.4500 24.8999 C 19.6985 24.8999 19.8999 24.6985 19.8999 24.4500 C 19.8999 24.2014 19.6985 24.0 19.4500 24.0 Z  M 20.4500 24.0 C 20.2014 24.0 20.0 24.2014 20.0 24.4500 C 20.0 24.6985 20.2014 24.8999 20.4500 24.8999 C 20.6985 24.8999 20.8999 24.6985 20.8999 24.4500 C 20.8999 24.2014 20.6985 24.0 20.4500 24.0 Z  M 21.4500 24.0 C 21.2014 24.0 21.0 24.2014 21.0 24.4500 C 21.0 24.6985 21.2014 24.8999 21.4500 24.8999 C 21.6985 24.8999 21.8999 24.6985 21.8999 24.4500 C 21.8999 24.2014 21.6985 24.0 21.4500 24.0 Z  M 22.4500 24.0 C 22.2014 24.0 22.0 24.2014 22.0 24.4500 C 22.0 24.6985 22.2014 24.8999 22.4500 24.8999 C 22.6985 24.8999 22.8999 24.6985 22.8999 24.4500 C 22.8999 24.2014 22.6985 24.0 22.4500 24.0 Z  M 23.4500 24.0 C 23.2014 24.0 23.0 24.2014 23.0 24.4500 C 23.0 24.6985 23.2014 24.8999 23.4500 24.8999 C 23.6985 24.8999 23.8999 24.6985 23.8999 24.4500 C 23.8999 24.2014 23.6985 24.0 23.4500 24.0 Z  M 24.4500 24.0 C 24.2014 24.0 24.0 24.2014 24.0 24.4500 C 24.0 24.6985 24.2014 24.8999 24.4500 24.8999 C 24.6985 24.8999 24.8999 24.6985 24.8999 24.4500 C 24.8999 24.2014 24.6985 24.0 24.4500 24.0 Z  M 26.4500 24.0 C 26.2014 24.0 26.0 24.2014 26.0 24.4500 C 26.0 24.6985 26.2014 24.8999 26.4500 24.8999 C 26.6985 24.8999 26.8999 24.6985 26.8999 24.4500 C 26.8999 24.2014 26.6985 24.0 26.4500 24.0 Z  M 8.4499 25.0 C 8.2014 25.0 8.0 25.2014 8.0 25.4500 C 8.0 25.6985 8.2014 25.8999 8.4499 25.8999 C 8.6985 25.8999 8.8999 25.6985 8.8999 25.4500 C 8.8999 25.2014 8.6985 25.0 8.4499 25.0 Z  M 11.4499 25.0 C 11.2014 25.0 11.0 25.2014 11.0 25.4500 C 11.0 25.6985 11.2014 25.8999 11.4499 25.8999 C 11.6985 25.8999 11.8999 25.6985 11.8999 25.4500 C 11.8999 25.2014 11.6985 25.0 11.4499 25.0 Z  M 12.4499 25.0 C 12.2014 25.0 12.0 25.2014 12.0 25.4500 C 12.0 25.6985 12.2014 25.8999 12.4499 25.8999 C 12.6985 25.8999 12.8999 25.6985 12.8999 25.4500 C 12.8999 25.2014 12.6985 25.0 12.4499 25.0 Z  M 17.4500 25.0 C 17.2014 25.0 17.0 25.2014 17.0 25.4500 C 17.0 25.6985 17.2014 25.8999 17.4500 25.8999 C 17.6985 25.8999 17.8999 25.6985 17.8999 25.4500 C 17.8999 25.2014 17.6985 25.0 17.4500 25.0 Z  M 19.4500 25.0 C 19.2014 25.0 19.0 25.2014 19.0 25.4500 C 19.0 25.6985 19.2014 25.8999 19.4500 25.8999 C 19.6985 25.8999 19.8999 25.6985 19.8999 25.4500 C 19.8999 25.2014 19.6985 25.0 19.4500 25.0 Z  M 21.4500 25.0 C 21.2014 25.0 21.0 25.2014 21.0 25.4500 C 21.0 25.6985 21.2014 25.8999 21.4500 25.8999 C 21.6985 25.8999 21.8999 25.6985 21.8999 25.4500 C 21.8999 25.2014 21.6985 25.0 21.4500 25.0 Z  M 24.4500 25.0 C 24.2014 25.0 24.0 25.2014 24.0 25.4500 C 24.0 25.6985 24.2014 25.8999 24.4500 25.8999 C 24.6985 25.8999 24.8999 25.6985 24.8999 25.4500 C 24.8999 25.2014 24.6985 25.0 24.4500 25.0 Z  M 26.4500 25.0 C 26.2014 25.0 26.0 25.2014 26.0 25.4500 C 26.0 25.6985 26.2014 25.8999 26.4500 25.8999 C 26.6985 25.8999 26.8999 25.6985 26.8999 25.4500 C 26.8999 25.2014 26.6985 25.0 26.4500 25.0 Z  M 27.4500 25.0 C 27.2014 25.0 27.0 25.2014 27.0 25.4500 C 27.0 25.6985 27.2014 25.8999 27.4500 25.8999 C 27.6985 25.8999 27.8999 25.6985 27.8999 25.4500 C 27.8999 25.2014 27.6985 25.0 27.4500 25.0 Z  M 10.4499 26.0 C 10.2014 26.0 10.0 26.2014 10.0 26.4500 C 10.0 26.6985 10.2014 26.8999 10.4499 26.8999 C 10.6985 26.8999 10.8999 26.6985 10.8999 26.4500 C 10.8999 26.2014 10.6985 26.0 10.4499 26.0 Z  M 11.4499 26.0 C 11.2014 26.0 11.0 26.2014 11.0 26.4500 C 11.0 26.6985 11.2014 26.8999 11.4499 26.8999 C 11.6985 26.8999 11.8999 26.6985 11.8999 26.4500 C 11.8999 26.2014 11.6985 26.0 11.4499 26.0 Z  M 13.4499 26.0 C 13.2014 26.0 13.0 26.2014 13.0 26.4500 C 13.0 26.6985 13.2014 26.8999 13.4499 26.8999 C 13.6985 26.8999 13.8999 26.6985 13.8999 26.4500 C 13.8999 26.2014 13.6985 26.0 13.4499 26.0 Z  M 15.4499 26.0 C 15.2014 26.0 15.0 26.2014 15.0 26.4500 C 15.0 26.6985 15.2014 26.8999 15.4499 26.8999 C 15.6985 26.8999 15.8999 26.6985 15.8999 26.4500 C 15.8999 26.2014 15.6985 26.0 15.4499 26.0 Z  M 17.4500 26.0 C 17.2014 26.0 17.0 26.2014 17.0 26.4500 C 17.0 26.6985 17.2014 26.8999 17.4500 26.8999 C 17.6985 26.8999 17.8999 26.6985 17.8999 26.4500 C 17.8999 26.2014 17.6985 26.0 17.4500 26.0 Z  M 18.4500 26.0 C 18.2014 26.0 18.0 26.2014 18.0 26.4500 C 18.0 26.6985 18.2014 26.8999 18.4500 26.8999 C 18.6985 26.8999 18.8999 26.6985 18.8999 26.4500 C 18.8999 26.2014 18.6985 26.0 18.4500 26.0 Z  M 19.4500 26.0 C 19.2014 26.0 19.0 26.2014 19.0 26.4500 C 19.0 26.6985 19.2014 26.8999 19.4500 26.8999 C 19.6985 26.8999 19.8999 26.6985 19.8999 26.4500 C 19.8999 26.2014 19.6985 26.0 19.4500 26.0 Z  M 21.4500 26.0 C 21.2014 26.0 21.0 26.2014 21.0 26.4500 C 21.0 26.6985 21.2014 26.8999 21.4500 26.8999 C 21.6985 26.8999 21.8999 26.6985 21.8999 26.4500 C 21.8999 26.2014 21.6985 26.0 21.4500 26.0 Z  M 23.4500 26.0 C 23.2014 26.0 23.0 26.2014 23.0 26.4500 C 23.0 26.6985 23.2014 26.8999 23.4500 26.8999 C 23.6985 26.8999 23.8999 26.6985 23.8999 26.4500 C 23.8999 26.2014 23.6985 26.0 23.4500 26.0 Z  M 24.4500 26.0 C 24.2014 26.0 24.0 26.2014 24.0 26.4500 C 24.0 26.6985 24.2014 26.8999 24.4500 26.8999 C 24.6985 26.8999 24.8999 26.6985 24.8999 26.4500 C 24.8999 26.2014 24.6985 26.0 24.4500 26.0 Z  M 26.4500 26.0 C 26.2014 26.0 26.0 26.2014 26.0 26.4500 C 26.0 26.6985 26.2014 26.8999 26.4500 26.8999 C 26.6985 26.8999 26.8999 26.6985 26.8999 26.4500 C 26.8999 26.2014 26.6985 26.0 26.4500 26.0 Z  M 27.4500 26.0 C 27.2014 26.0 27.0 26.2014 27.0 26.4500 C 27.0 26.6985 27.2014 26.8999 27.4500 26.8999 C 27.6985 26.8999 27.8999 26.6985 27.8999 26.4500 C 27.8999 26.2014 27.6985 26.0 27.4500 26.0 Z  M 28.4500 26.0 C 28.2014 26.0 28.0 26.2014 28.0 26.4500 C 28.0 26.6985 28.2014 26.8999 28.4500 26.8999 C 28.6985 26.8999 28.8999 26.6985 28.8999 26.4500 C 28.8999 26.2014 28.6985 26.0 28.4500 26.0 Z  M 2.5 24.0 C 2.2238 24.0 2.0 24.2238 2.0 24.5 L 2.0 26.5 C 2.0 26.7761 2.2238 27.0 2.5 27.0 L 4.5 27.0 C 4.7761 27.0 5.0 26.7761 5.0 26.5 L 5.0 24.5 C 5.0 24.2238 4.7761 24.0 4.5 24.0 Z  M 9.4499 27.0 C 9.2014 27.0 9.0 27.2014 9.0 27.4500 C 9.0 27.6985 9.2014 27.8999 9.4499 27.8999 C 9.6985 27.8999 9.8999 27.6985 9.8999 27.4500 C 9.8999 27.2014 9.6985 27.0 9.4499 27.0 Z  M 11.4499 27.0 C 11.2014 27.0 11.0 27.2014 11.0 27.4500 C 11.0 27.6985 11.2014 27.8999 11.4499 27.8999 C 11.6985 27.8999 11.8999 27.6985 11.8999 27.4500 C 11.8999 27.2014 11.6985 27.0 11.4499 27.0 Z  M 15.4499 27.0 C 15.2014 27.0 15.0 27.2014 15.0 27.4500 C 15.0 27.6985 15.2014 27.8999 15.4499 27.8999 C 15.6985 27.8999 15.8999 27.6985 15.8999 27.4500 C 15.8999 27.2014 15.6985 27.0 15.4499 27.0 Z  M 16.4500 27.0 C 16.2014 27.0 16.0 27.2014 16.0 27.4500 C 16.0 27.6985 16.2014 27.8999 16.4500 27.8999 C 16.6985 27.8999 16.8999 27.6985 16.8999 27.4500 C 16.8999 27.2014 16.6985 27.0 16.4500 27.0 Z  M 19.4500 27.0 C 19.2014 27.0 19.0 27.2014 19.0 27.4500 C 19.0 27.6985 19.2014 27.8999 19.4500 27.8999 C 19.6985 27.8999 19.8999 27.6985 19.8999 27.4500 C 19.8999 27.2014 19.6985 27.0 19.4500 27.0 Z  M 24.4500 27.0 C 24.2014 27.0 24.0 27.2014 24.0 27.4500 C 24.0 27.6985 24.2014 27.8999 24.4500 27.8999 C 24.6985 27.8999 24.8999 27.6985 24.8999 27.4500 C 24.8999 27.2014 24.6985 27.0 24.4500 27.0 Z  M 25.4500 27.0 C 25.2014 27.0 25.0 27.2014 25.0 27.4500 C 25.0 27.6985 25.2014 27.8999 25.4500 27.8999 C 25.6985 27.8999 25.8999 27.6985 25.8999 27.4500 C 25.8999 27.2014 25.6985 27.0 25.4500 27.0 Z  M 26.4500 27.0 C 26.2014 27.0 26.0 27.2014 26.0 27.4500 C 26.0 27.6985 26.2014 27.8999 26.4500 27.8999 C 26.6985 27.8999 26.8999 27.6985 26.8999 27.4500 C 26.8999 27.2014 26.6985 27.0 26.4500 27.0 Z  M 28.4500 27.0 C 28.2014 27.0 28.0 27.2014 28.0 27.4500 C 28.0 27.6985 28.2014 27.8999 28.4500 27.8999 C 28.6985 27.8999 28.8999 27.6985 28.8999 27.4500 C 28.8999 27.2014 28.6985 27.0 28.4500 27.0 Z  M 5.5 23.0 C 5.7761 23.0 6.0 23.2238 6.0 23.5 L 6.0 27.5 C 6.0 27.7761 5.7761 28.0 5.5 28.0 L 1.5 28.0 C 1.2238 28.0 1.0 27.7761 1.0 27.5 L 1.0 23.5 C 1.0 23.2238 1.2238 23.0 1.5 23.0 Z  M 8.4499 28.0 C 8.2014 28.0 8.0 28.2014 8.0 28.4500 C 8.0 28.6985 8.2014 28.8999 8.4499 28.8999 C 8.6985 28.8999 8.8999 28.6985 8.8999 28.4500 C 8.8999 28.2014 8.6985 28.0 8.4499 28.0 Z  M 10.4499 28.0 C 10.2014 28.0 10.0 28.2014 10.0 28.4500 C 10.0 28.6985 10.2014 28.8999 10.4499 28.8999 C 10.6985 28.8999 10.8999 28.6985 10.8999 28.4500 C 10.8999 28.2014 10.6985 28.0 10.4499 28.0 Z  M 11.4499 28.0 C 11.2014 28.0 11.0 28.2014 11.0 28.4500 C 11.0 28.6985 11.2014 28.8999 11.4499 28.8999 C 11.6985 28.8999 11.8999 28.6985 11.8999 28.4500 C 11.8999 28.2014 11.6985 28.0 11.4499 28.0 Z  M 13.4499 28.0 C 13.2014 28.0 13.0 28.2014 13.0 28.4500 C 13.0 28.6985 13.2014 28.8999 13.4499 28.8999 C 13.6985 28.8999 13.8999 28.6985 13.8999 28.4500 C 13.8999 28.2014 13.6985 28.0 13.4499 28.0 Z  M 14.4499 28.0 C 14.2014 28.0 14.0 28.2014 14.0 28.4500 C 14.0 28.6985 14.2014 28.8999 14.4499 28.8999 C 14.6985 28.8999 14.8999 28.6985 14.8999 28.4500 C 14.8999 28.2014 14.6985 28.0 14.4499 28.0 Z  M 16.4500 28.0 C 16.2014 28.0 16.0 28.2014 16.0 28.4500 C 16.0 28.6985 16.2014 28.8999 16.4500 28.8999 C 16.6985 28.8999 16.8999 28.6985 16.8999 28.4500 C 16.8999 28.2014 16.6985 28.0 16.4500 28.0 Z  M 18.4500 28.0 C 18.2014 28.0 18.0 28.2014 18.0 28.4500 C 18.0 28.6985 18.2014 28.8999 18.4500 28.8999 C 18.6985 28.8999 18.8999 28.6985 18.8999 28.4500 C 18.8999 28.2014 18.6985 28.0 18.4500 28.0 Z  M 19.4500 28.0 C 19.2014 28.0 19.0 28.2014 19.0 28.4500 C 19.0 28.6985 19.2014 28.8999 19.4500 28.8999 C 19.6985 28.8999 19.8999 28.6985 19.8999 28.4500 C 19.8999 28.2014 19.6985 28.0 19.4500 28.0 Z  M 20.4500 28.0 C 20.2014 28.0 20.0 28.2014 20.0 28.4500 C 20.0 28.6985 20.2014 28.8999 20.4500 28.8999 C 20.6985 28.8999 20.8999 28.6985 20.8999 28.4500 C 20.8999 28.2014 20.6985 28.0 20.4500 28.0 Z  M 21.4500 28.0 C 21.2014 28.0 21.0 28.2014 21.0 28.4500 C 21.0 28.6985 21.2014 28.8999 21.4500 28.8999 C 21.6985 28.8999 21.8999 28.6985 21.8999 28.4500 C 21.8999 28.2014 21.6985 28.0 21.4500 28.0 Z  M 23.4500 28.0 C 23.2014 28.0 23.0 28.2014 23.0 28.4500 C 23.0 28.6985 23.2014 28.8999 23.4500 28.8999 C 23.6985 28.8999 23.8999 28.6985 23.8999 28.4500 C 23.8999 28.2014 23.6985 28.0 23.4500 28.0 Z  M 24.4500 28.0 C 24.2014 28.0 24.0 28.2014 24.0 28.4500 C 24.0 28.6985 24.2014 28.8999 24.4500 28.8999 C 24.6985 28.8999 24.8999 28.6985 24.8999 28.4500 C 24.8999 28.2014 24.6985 28.0 24.4500 28.0 Z  M 25.4500 28.0 C 25.2014 28.0 25.0 28.2014 25.0 28.4500 C 25.0 28.6985 25.2014 28.8999 25.4500 28.8999 C 25.6985 28.8999 25.8999 28.6985 25.8999 28.4500 C 25.8999 28.2014 25.6985 28.0 25.4500 28.0 Z  M 26.4500 28.0 C 26.2014 28.0 26.0 28.2014 26.0 28.4500 C 26.0 28.6985 26.2014 28.8999 26.4500 28.8999 C 26.6985 28.8999 26.8999 28.6985 26.8999 28.4500 C 26.8999 28.2014 26.6985 28.0 26.4500 28.0 Z  M 1.0 22.0 C 0.4477 22.0 0.0 22.4477 0.0 23.0 L 0.0 28.0 C 0.0 28.5522 0.4477 29.0 1.0 29.0 L 6.0 29.0 C 6.5522 29.0 7.0 28.5522 7.0 28.0 L 7.0 23.0 C 7.0 22.4477 6.5522 22.0 6.0 22.0 Z "/></g></svg>
