<!DOCTYPE svg PUBLIC "-//W3C//DTD SVG 1.1//EN" "http://www.w3.org/Graphics/SVG/1.1/DTD/svg11.dtd">
<svg xmlns="http://www.w3.org/2000/svg" xmlns:xlink="http://www.w3.org/1999/xlink" xmlns:jfreesvg="http://www.jfree.org/jfreesvg/svg" width="328" height="328" text-rendering="auto" shape-rendering="auto">
<defs></defs>
<g style="fill: rgb(0,0,0); fill-opacity: 1.0; stroke: none" transform="matrix(8.0,0.0,0.0,8.0,0.0,0.0)" ><path d="M 19.4995 0.0 C 19.2236 0.0 19.0 0.2236 19.0 0.4995 L 19.0 0.5004 C 19.0 0.7763 19.2236 1.0 19.4995 1.0 L 19.5004 1.0 C 19.7763 1.0 20.0 0.7763 20.0 0.5004 L 20.0 0.4995 C 20.0 0.2236 19.7763 0.0 19.5004 0.0 Z  M 21.4995 0.0 C 21.2236 0.0 21.0 0.2236 21.0 0.4995 L 21.0 0.5004 C 21.0 0.7763 21.2236 1.0 21.4995 1.0 L 21.5004 1.0 C 21.7763 1.0 22.0 0.7763 22.0 0.5004 L 22.0 0.4995 C 22.0 0.2236 21.7763 0.0 21.5004 0.0 Z  M 28.4995 0.0 C 28.2236 0.0 28.0 0.2236 28.0 0.4995 L 28.0 0.5004 C 28.0 0.7763 28.2236 1.0 28.4995 1.0 L 28.5004 1.0 C 28.7763 1.0 29.0 0.7763 29.0 0.5004 L 29.0 0.4995 C 29.0 0.2236 28.7763 0.0 28.5004 0.0 Z  M 20.4995 1.0 C 20.2236 1.0 20.0 1.2236 20.0 1.4995 L 20.0 1.5004 C 20.0 1.7763 20.2236 2.0 20.4995 2.0 L 20.5004 2.0 C 20.7763 2.0 21.0 1.7763 21.0 1.5004 L 21.0 1.4995 C 21.0 1.2236 20.7763 1.0 20.5004 1.0 Z  M 30.4995 0.0 C 30.2236 0.0 30.0 0.2236 30.0 0.4995 L 30.0 1.0 L 30.0 1.5004 C 30.0 1.7763 30.2236 2.0 30.4995 2.0 L 30.5004 2.0 C 30.7763 2.0 31.0 1.7763 31.0 1.5004 L 31.0 1.25 C 31.0 1.1119 31.1119 1.0 31.25 1.0 L 31.75 1.0 C 31.8880 1.0 32.0 1.1119 32.0 1.25 L 32.0 1.5004 C 32.0 1.7763 32.2236 2.0 32.4995 2.0 L 32.5004 2.0 C 32.7763 2.0 33.0 1.7763 33.0 1.5004 L 33.0 1.0 L 33.0 0.4995 C 33.0 0.2236 32.7763 0.0 32.5004 0.0 Z  M 8.4995 0.0 C 8.2236 0.0 8.0 0.2236 8.0 0.4995 L 8.0 1.0 L 8.0 2.0 L 8.0 2.5004 C 8.0 2.7763 8.2236 3.0 8.4995 3.0 L 8.5004 3.0 C 8.7763 3.0 9.0 2.7763 9.0 2.5004 L 9.0 2.25 C 9.0 2.1119 9.1119 2.0 9.25 2.0 L 9.5004 2.0 C 9.7763 2.0 10.0 1.7763 10.0 1.5004 L 10.0 1.0 L 10.0 0.4995 C 10.0 0.2236 9.7763 0.0 9.5004 0.0 Z  M 10.4995 2.0 C 10.2236 2.0 10.0 2.2236 10.0 2.4995 L 10.0 2.5004 C 10.0 2.7763 10.2236 3.0 10.4995 3.0 L 10.5004 3.0 C 10.7763 3.0 11.0 2.7763 11.0 2.5004 L 11.0 2.4995 C 11.0 2.2236 10.7763 2.0 10.5004 2.0 Z  M 3.5 2.0 C 2.6715 2.0 2.0 2.6715 2.0 3.5 C 2.0 4.3284 2.6715 5.0 3.5 5.0 C 4.3284 5.0 5.0 4.3284 5.0 3.5 C 5.0 2.6715 4.3284 2.0 3.5 2.0 Z  M 9.4995 4.0 C 9.2236 4.0 9.0 4.2236 9.0 4.4994 L 9.0 4.5005 C 9.0 4.7763 9.2236 5.0 9.4995 5.0 L 9.5004 5.0 C 9.7763 5.0 10.0 4.7763 10.0 4.5005 L 10.0 4.4994 C 10.0 4.2236 9.7763 4.0 9.5004 4.0 Z  M 13.4995 0.0 C 13.2236 0.0 13.0 0.2236 13.0 0.4995 L 13.0 0.75 C 13.0 0.8880 12.8880 1.0 12.75 1.0 L 11.4995 1.0 C 11.2236 1.0 11.0 1.2236 11.0 1.4995 L 11.0 1.5004 C 11.0 1.7763 11.2236 2.0 11.4995 2.0 L 11.75 2.0 C 11.8880 2.0 12.0 2.1119 12.0 2.25 L 12.0 3.0 L 12.0 3.5004 C 12.0 3.7763 12.2236 4.0 12.4995 4.0 L 12.5004 4.0 C 12.7763 4.0 13.0 3.7763 13.0 3.5004 L 13.0 3.0 L 13.0 2.25 C 13.0 2.1119 13.1119 2.0 13.25 2.0 L 14.5004 2.0 C 14.7763 2.0 15.0 1.7763 15.0 1.5004 L 15.0 1.25 C 15.0 1.1119 15.1119 1.0 15.25 1.0 L 15.75 1.0 C 15.8880 1.0 16.0 1.1119 16.0 1.25 L 16.0 1.75 C 16.0 1.8880 15.8880 2.0 15.75 2.0 L 15.4995 2.0 C 15.2236 2.0 15.0 2.2236 15.0 2.4995 L 15.0 3.0 L 15.0 4.0 L 15.0 4.5005 C 15.0 4.7763 15.2236 5.0 15.4995 5.0 L 15.5004 5.0 C 15.7763 5.0 16.0 4.7763 16.0 4.5005 L 16.0 4.0 L 16.0 3.25 C 16.0 3.1119 16.1119 3.0 16.25 3.0 L 17.5004 3.0 C 17.7763 3.0 18.0 2.7763 18.0 2.5004 L 18.0 2.4995 C 18.0 2.2236 17.7763 2.0 17.5004 2.0 L 17.25 2.0 C 17.1119 2.0 17.0 1.8880 17.0 1.75 L 17.0 1.0 L 17.0 0.4995 C 17.0 0.2236 16.7763 0.0 16.5004 0.0 Z  M 37.5 2.0 C 36.6715 2.0 36.0 2.6715 36.0 3.5 C 36.0 4.3284 36.6715 5.0 37.5 5.0 C 38.3284 5.0 39.0 4.3284 39.0 3.5 C 39.0 2.6715 38.3284 2.0 37.5 2.0 Z  M 5.5 1.0 C 5.7761 1.0 6.0 1.2238 6.0 1.5 L 6.0 5.5 C 6.0 5.7761 5.7761 6.0 5.5 6.0 L 1.5 6.0 C 1.2238 6.0 1.0 5.7761 1.0 5.5 L 1.0 1.5 C 1.0 1.2238 1.2238 1.0 1.5 1.0 Z  M 39.5 1.0 C 39.7761 1.0 40.0 1.2238 40.0 1.5 L 40.0 5.5 C 40.0 5.7761 39.7761 6.0 39.5 6.0 L 35.5 6.0 C 35.2238 6.0 35.0 5.7761 35.0 5.5 L 35.0 1.5 C 35.0 1.2238 35.2238 1.0 35.5 1.0 Z  M 1.0 0.0 C 0.4477 0.0 0.0 0.4477 0.0 1.0 L 0.0 6.0 C 0.0 6.5522 0.4477 7.0 1.0 7.0 L 6.0 7.0 C 6.5522 7.0 7.0 6.5522 7.0 6.0 L 7.0 1.0 C 7.0 0.4477 6.5522 0.0 6.0 0.0 Z  M 10.4995 5.0 C 10.2236 5.0 10.0 5.2236 10.0 5.4994 L 10.0 6.0 L 10.0 6.5005 C 10.0 6.7763 10.2236 7.0 10.4995 7.0 L 10.5004 7.0 C 10.7763 7.0 11.0 6.7763 11.0 6.5005 L 11.0 6.0 L 11.0 5.4994 C 11.0 5.2236 10.7763 5.0 10.5004 5.0 Z  M 14.4995 5.0 C 14.2236 5.0 14.0 5.2236 14.0 5.4994 L 14.0 6.0 L 14.0 6.5005 C 14.0 6.7763 14.2236 7.0 14.4995 7.0 L 14.5004 7.0 C 14.7763 7.0 15.0 6.7763 15.0 6.5005 L 15.0 6.0 L 15.0 5.4994 C 15.0 5.2236 14.7763 5.0 14.5004 5.0 Z  M 16.4995 6.0 C 16.2236 6.0 16.0 6.2236 16.0 6.4994 L 16.0 6.5005 C 16.0 6.7763 16.2236 7.0 16.4995 7.0 L 16.5004 7.0 C 16.7763 7.0 17.0 6.7763 17.0 6.5005 L 17.0 6.4994 C 17.0 6.2236 16.7763 6.0 16.5004 6.0 Z  M 17.4995 4.0 C 17.2236 4.0 17.0 4.2236 17.0 4.4994 L 17.0 5.0 L 17.0 5.5005 C 17.0 5.7763 17.2236 6.0 17.4995 6.0 L 17.75 6.0 C 17.8880 6.0 18.0 6.1119 18.0 6.25 L 18.0 6.5005 C 18.0 6.7763 18.2236 7.0 18.4995 7.0 L 18.5004 7.0 C 18.7763 7.0 19.0 6.7763 19.0 6.5005 L 19.0 6.0 L 19.0 5.0 L 19.0 4.4994 C 19.0 4.2236 18.7763 4.0 18.5004 4.0 Z  M 26.4995 6.0 C 26.2236 6.0 26.0 6.2236 26.0 6.4994 L 26.0 6.5005 C 26.0 6.7763 26.2236 7.0 26.4995 7.0 L 26.5004 7.0 C 26.7763 7.0 27.0 6.7763 27.0 6.5005 L 27.0 6.4994 C 27.0 6.2236 26.7763 6.0 26.5004 6.0 Z  M 28.4995 4.0 C 28.2236 4.0 28.0 4.2236 28.0 4.4994 L 28.0 4.75 C 28.0 4.8880 27.8880 5.0 27.75 5.0 L 27.4995 5.0 C 27.2236 5.0 27.0 5.2236 27.0 5.4994 L 27.0 5.5005 C 27.0 5.7763 27.2236 6.0 27.4995 6.0 L 27.75 6.0 C 27.8880 6.0 28.0 6.1119 28.0 6.25 L 28.0 6.5005 C 28.0 6.7763 28.2236 7.0 28.4995 7.0 L 28.5004 7.0 C 28.7763 7.0 29.0 6.7763 29.0 6.5005 L 29.0 6.25 C 29.0 6.1119 29.1119 6.0 29.25 6.0 L 29.5004 6.0 C 29.7763 6.0 30.0 5.7763 30.0 5.5005 L 30.0 5.4994 C 30.0 5.2236 29.7763 5.0 29.5004 5.0 L 29.25 5.0 C 29.1119 5.0 29.0 4.8880 29.0 4.75 L 29.0 4.4994 C 29.0 4.2236 28.7763 4.0 28.5004 4.0 Z  M 30.4995 6.0 C 30.2236 6.0 30.0 6.2236 30.0 6.4994 L 30.0 6.5005 C 30.0 6.7763 30.2236 7.0 30.4995 7.0 L 30.5004 7.0 C 30.7763 7.0 31.0 6.7763 31.0 6.5005 L 31.0 6.4994 C 31.0 6.2236 30.7763 6.0 30.5004 6.0 Z  M 30.4995 3.0 C 30.2236 3.0 30.0 3.2236 30.0 3.4995 L 30.0 3.5004 C 30.0 3.7763 30.2236 4.0 30.4995 4.0 L 30.75 4.0 C 30.8880 4.0 31.0 4.1119 31.0 4.25 L 31.0 4.5005 C 31.0 4.7763 31.2236 5.0 31.4995 5.0 L 31.75 5.0 C 31.8880 5.0 32.0 5.1119 32.0 5.25 L 32.0 6.0 L 32.0 6.5005 C 32.0 6.7763 32.2236 7.0 32.4995 7.0 L 32.5004 7.0 C 32.7763 7.0 33.0 6.7763 33.0 6.5005 L 33.0 6.0 L 33.0 5.0 L 33.0 4.4994 C 33.0 4.2236 32.7763 4.0 32.5004 4.0 L 32.25 4.0 C 32.1119 4.0 32.0 3.8880 32.0 3.75 L 32.0 3.4995 C 32.0 3.2236 31.7763 3.0 31.5004 3.0 Z  M 35.0 0.0 C 34.4477 0.0 34.0 0.4477 34.0 1.0 L 34.0 6.0 C 34.0 6.5522 34.4477 7.0 35.0 7.0 L 40.0 7.0 C 40.5522 7.0 41.0 6.5522 41.0 6.0 L 41.0 1.0 C 41.0 0.4477 40.5522 0.0 40.0 0.0 Z  M 12.4995 5.0 C 12.2236 5.0 12.0 5.2236 12.0 5.4994 L 12.0 6.0 L 12.0 7.0 L 12.0 7.5005 C 12.0 7.7763 12.2236 8.0 12.4995 8.0 L 12.5004 8.0 C 12.7763 8.0 13.0 7.7763 13.0 7.5005 L 13.0 7.0 L 13.0 6.0 L 13.0 5.4994 C 13.0 5.2236 12.7763 5.0 12.5004 5.0 Z  M 17.4995 7.0 C 17.2236 7.0 17.0 7.2236 17.0 7.4994 L 17.0 7.5005 C 17.0 7.7763 17.2236 8.0 17.4995 8.0 L 17.5004 8.0 C 17.7763 8.0 18.0 7.7763 18.0 7.5005 L 18.0 7.4994 C 18.0 7.2236 17.7763 7.0 17.5004 7.0 Z  M 25.4995 0.0 C 25.2236 0.0 25.0 0.2236 25.0 0.4995 L 25.0 0.75 C 25.0 0.8880 24.8880 1.0 24.75 1.0 L 22.4995 1.0 C 22.2236 1.0 22.0 1.2236 22.0 1.4995 L 22.0 2.0 L 22.0 2.5004 C 22.0 2.7763 22.2236 3.0 22.4995 3.0 L 22.75 3.0 C 22.8880 3.0 23.0 3.1119 23.0 3.25 L 23.0 3.75 C 23.0 3.8880 22.8880 4.0 22.75 4.0 L 20.4995 4.0 C 20.2236 4.0 20.0 4.2236 20.0 4.4994 L 20.0 5.0 L 20.0 6.0 L 20.0 7.0 L 20.0 7.5005 C 20.0 7.7763 20.2236 8.0 20.4995 8.0 L 20.5004 8.0 C 20.7763 8.0 21.0 7.7763 21.0 7.5005 L 21.0 7.0 L 21.0 6.0 L 21.0 5.25 C 21.0 5.1119 21.1119 5.0 21.25 5.0 L 21.75 5.0 C 21.8880 5.0 22.0 5.1119 22.0 5.25 L 22.0 6.0 L 22.0 6.5005 C 22.0 6.7763 22.2236 7.0 22.4995 7.0 L 22.5004 7.0 C 22.7763 7.0 23.0 6.7763 23.0 6.5005 L 23.0 6.0 L 23.0 5.25 C 23.0 5.1119 23.1119 5.0 23.25 5.0 L 23.5004 5.0 C 23.7763 5.0 24.0 4.7763 24.0 4.5005 L 24.0 4.25 C 24.0 4.1119 24.1119 4.0 24.25 4.0 L 24.5004 4.0 C 24.7763 4.0 25.0 3.7763 25.0 3.5004 L 25.0 3.25 C 25.0 3.1119 25.1119 3.0 25.25 3.0 L 25.5004 3.0 C 25.7763 3.0 26.0 2.7763 26.0 2.5004 L 26.0 2.25 C 26.0 2.1119 26.1119 2.0 26.25 2.0 L 26.75 2.0 C 26.8880 2.0 27.0 2.1119 27.0 2.25 L 27.0 2.75 C 27.0 2.8880 26.8880 3.0 26.75 3.0 L 26.4995 3.0 C 26.2236 3.0 26.0 3.2236 26.0 3.4995 L 26.0 3.5004 C 26.0 3.7763 26.2236 4.0 26.4995 4.0 L 27.5004 4.0 C 27.7763 4.0 28.0 3.7763 28.0 3.5004 L 28.0 3.25 C 28.0 3.1119 28.1119 3.0 28.25 3.0 L 28.5004 3.0 C 28.7763 3.0 29.0 2.7763 29.0 2.5004 L 29.0 2.4995 C 29.0 2.2236 28.7763 2.0 28.5004 2.0 L 28.25 2.0 C 28.1119 2.0 28.0 1.8880 28.0 1.75 L 28.0 1.4995 C 28.0 1.2236 27.7763 1.0 27.5004 1.0 L 27.25 1.0 C 27.1119 1.0 27.0 0.8880 27.0 0.75 L 27.0 0.4995 C 27.0 0.2236 26.7763 0.0 26.5004 0.0 Z  M 31.4995 7.0 C 31.2236 7.0 31.0 7.2236 31.0 7.4994 L 31.0 7.5005 C 31.0 7.7763 31.2236 8.0 31.4995 8.0 L 31.5004 8.0 C 31.7763 8.0 32.0 7.7763 32.0 7.5005 L 32.0 7.4994 C 32.0 7.2236 31.7763 7.0 31.5004 7.0 Z  M 6.4994 8.0 C 6.2236 8.0 6.0 8.2236 6.0 8.4995 L 6.0 8.5004 C 6.0 8.7763 6.2236 9.0 6.4994 9.0 L 6.5005 9.0 C 6.7763 9.0 7.0 8.7763 7.0 8.5004 L 7.0 8.4995 C 7.0 8.2236 6.7763 8.0 6.5005 8.0 Z  M 8.4995 5.0 C 8.2236 5.0 8.0 5.2236 8.0 5.4994 L 8.0 6.0 L 8.0 7.0 L 8.0 8.0 L 8.0 8.5004 C 8.0 8.7763 8.2236 9.0 8.4995 9.0 L 8.5004 9.0 C 8.7763 9.0 9.0 8.7763 9.0 8.5004 L 9.0 8.25 C 9.0 8.1119 9.1119 8.0 9.25 8.0 L 9.5004 8.0 C 9.7763 8.0 10.0 7.7763 10.0 7.5005 L 10.0 7.4994 C 10.0 7.2236 9.7763 7.0 9.5004 7.0 L 9.25 7.0 C 9.1119 7.0 9.0 6.8880 9.0 6.75 L 9.0 6.0 L 9.0 5.4994 C 9.0 5.2236 8.7763 5.0 8.5004 5.0 Z  M 10.4995 8.0 C 10.2236 8.0 10.0 8.2236 10.0 8.4995 L 10.0 8.5004 C 10.0 8.7763 10.2236 9.0 10.4995 9.0 L 10.5004 9.0 C 10.7763 9.0 11.0 8.7763 11.0 8.5004 L 11.0 8.4995 C 11.0 8.2236 10.7763 8.0 10.5004 8.0 Z  M 21.4995 8.0 C 21.2236 8.0 21.0 8.2236 21.0 8.4995 L 21.0 8.5004 C 21.0 8.7763 21.2236 9.0 21.4995 9.0 L 21.5004 9.0 C 21.7763 9.0 22.0 8.7763 22.0 8.5004 L 22.0 8.4995 C 22.0 8.2236 21.7763 8.0 21.5004 8.0 Z  M 27.4995 8.0 C 27.2236 8.0 27.0 8.2236 27.0 8.4995 L 27.0 8.5004 C 27.0 8.7763 27.2236 9.0 27.4995 9.0 L 27.5004 9.0 C 27.7763 9.0 28.0 8.7763 28.0 8.5004 L 28.0 8.4995 C 28.0 8.2236 27.7763 8.0 27.5004 8.0 Z  M 0.4995 9.0 C 0.2236 9.0 0.0 9.2236 0.0 9.4995 L 0.0 9.5004 C 0.0 9.7763 0.2236 10.0 0.4995 10.0 L 0.5004 10.0 C 0.7763 10.0 1.0 9.7763 1.0 9.5004 L 1.0 9.4995 C 1.0 9.2236 0.7763 9.0 0.5004 9.0 Z  M 2.4995 8.0 C 2.2236 8.0 2.0 8.2236 2.0 8.4995 L 2.0 9.0 L 2.0 9.5004 C 2.0 9.7763 2.2236 10.0 2.4995 10.0 L 2.5004 10.0 C 2.7763 10.0 3.0 9.7763 3.0 9.5004 L 3.0 9.25 C 3.0 9.1119 3.1119 9.0 3.25 9.0 L 4.5005 9.0 C 4.7763 9.0 5.0 8.7763 5.0 8.5004 L 5.0 8.4995 C 5.0 8.2236 4.7763 8.0 4.5005 8.0 Z  M 7.4994 9.0 C 7.2236 9.0 7.0 9.2236 7.0 9.4995 L 7.0 9.5004 C 7.0 9.7763 7.2236 10.0 7.4994 10.0 L 7.5005 10.0 C 7.7763 10.0 8.0 9.7763 8.0 9.5004 L 8.0 9.4995 C 8.0 9.2236 7.7763 9.0 7.5005 9.0 Z  M 22.4995 9.0 C 22.2236 9.0 22.0 9.2236 22.0 9.4995 L 22.0 9.5004 C 22.0 9.7763 22.2236 10.0 22.4995 10.0 L 22.5004 10.0 C 22.7763 10.0 23.0 9.7763 23.0 9.5004 L 23.0 9.4995 C 23.0 9.2236 22.7763 9.0 22.5004 9.0 Z  M 24.4995 5.0 C 24.2236 5.0 24.0 5.2236 24.0 5.4994 L 24.0 6.0 L 24.0 7.0 L 24.0 7.75 C 24.0 7.8880 23.8880 8.0 23.75 8.0 L 23.4995 8.0 C 23.2236 8.0 23.0 8.2236 23.0 8.4995 L 23.0 8.5004 C 23.0 8.7763 23.2236 9.0 23.4995 9.0 L 23.75 9.0 C 23.8880 9.0 24.0 9.1119 24.0 9.25 L 24.0 9.5004 C 24.0 9.7763 24.2236 10.0 24.4995 10.0 L 24.5004 10.0 C 24.7763 10.0 25.0 9.7763 25.0 9.5004 L 25.0 9.25 C 25.0 9.1119 25.1119 9.0 25.25 9.0 L 25.5004 9.0 C 25.7763 9.0 26.0 8.7763 26.0 8.5004 L 26.0 8.4995 C 26.0 8.2236 25.7763 8.0 25.5004 8.0 L 25.25 8.0 C 25.1119 8.0 25.0 7.8880 25.0 7.75 L 25.0 7.0 L 25.0 6.0 L 25.0 5.4994 C 25.0 5.2236 24.7763 5.0 24.5004 5.0 Z  M 38.4995 8.0 C 38.2236 8.0 38.0 8.2236 38.0 8.4995 L 38.0 9.0 L 38.0 9.5004 C 38.0 9.7763 38.2236 10.0 38.4995 10.0 L 40.5004 10.0 C 40.7763 10.0 41.0 9.7763 41.0 9.5004 L 41.0 9.0 L 41.0 8.4995 C 41.0 8.2236 40.7763 8.0 40.5004 8.0 Z  M 13.4995 8.0 C 13.2236 8.0 13.0 8.2236 13.0 8.4995 L 13.0 8.5004 C 13.0 8.7763 13.2236 9.0 13.4995 9.0 L 13.75 9.0 C 13.8880 9.0 14.0 9.1119 14.0 9.25 L 14.0 9.75 C 14.0 9.8880 13.8880 10.0 13.75 10.0 L 13.4995 10.0 C 13.2236 10.0 13.0 10.2236 13.0 10.4995 L 13.0 10.5004 C 13.0 10.7763 13.2236 11.0 13.4995 11.0 L 14.5004 11.0 C 14.7763 11.0 15.0 10.7763 15.0 10.5004 L 15.0 10.0 L 15.0 9.0 L 15.0 8.4995 C 15.0 8.2236 14.7763 8.0 14.5004 8.0 Z  M 16.4995 8.0 C 16.2236 8.0 16.0 8.2236 16.0 8.4995 L 16.0 9.0 L 16.0 10.0 L 16.0 10.5004 C 16.0 10.7763 16.2236 11.0 16.4995 11.0 L 17.5004 11.0 C 17.7763 11.0 18.0 10.7763 18.0 10.5004 L 18.0 10.25 C 18.0 10.1119 18.1119 10.0 18.25 10.0 L 19.5004 10.0 C 19.7763 10.0 20.0 9.7763 20.0 9.5004 L 20.0 9.0 L 20.0 8.4995 C 20.0 8.2236 19.7763 8.0 19.5004 8.0 L 19.4995 8.0 C 19.2236 8.0 19.0 8.2236 19.0 8.4995 L 19.0 8.75 C 19.0 8.8880 18.8880 9.0 18.75 9.0 L 17.25 9.0 C 17.1119 9.0 17.0 8.8880 17.0 8.75 L 17.0 8.4995 C 17.0 8.2236 16.7763 8.0 16.5004 8.0 Z  M 21.4995 10.0 C 21.2236 10.0 21.0 10.2236 21.0 10.4995 L 21.0 10.5004 C 21.0 10.7763 21.2236 11.0 21.4995 11.0 L 21.5004 11.0 C 21.7763 11.0 22.0 10.7763 22.0 10.5004 L 22.0 10.4995 C 22.0 10.2236 21.7763 10.0 21.5004 10.0 Z  M 31.75 10.0 C 31.8880 10.0 32.0 10.1119 32.0 10.25 L 32.0 10.75 C 32.0 10.8880 31.8880 11.0 31.75 11.0 L 31.25 11.0 C 31.1119 11.0 31.0 10.8880 31.0 10.75 L 31.0 10.25 C 31.0 10.1119 31.1119 10.0 31.25 10.0 Z  M 34.75 10.0 C 34.8880 10.0 35.0 10.1119 35.0 10.25 L 35.0 10.75 C 35.0 10.8880 34.8880 11.0 34.75 11.0 L 34.25 11.0 C 34.1119 11.0 34.0 10.8880 34.0 10.75 L 34.0 10.25 C 34.0 10.1119 34.1119 10.0 34.25 10.0 Z  M 9.4995 9.0 C 9.2236 9.0 9.0 9.2236 9.0 9.4995 L 9.0 9.75 C 9.0 9.8880 8.8880 10.0 8.75 10.0 L 8.4995 10.0 C 8.2236 10.0 8.0 10.2236 8.0 10.4995 L 8.0 10.75 C 8.0 10.8880 7.8880 11.0 7.75 11.0 L 7.4994 11.0 C 7.2236 11.0 7.0 11.2236 7.0 11.4995 L 7.0 11.5004 C 7.0 11.7763 7.2236 12.0 7.4994 12.0 L 8.5004 12.0 C 8.7763 12.0 9.0 11.7763 9.0 11.5004 L 9.0 11.25 C 9.0 11.1119 9.1119 11.0 9.25 11.0 L 10.5004 11.0 C 10.7763 11.0 11.0 10.7763 11.0 10.5004 L 11.0 10.4995 C 11.0 10.2236 10.7763 10.0 10.5004 10.0 L 10.25 10.0 C 10.1119 10.0 10.0 9.8880 10.0 9.75 L 10.0 9.4995 C 10.0 9.2236 9.7763 9.0 9.5004 9.0 Z  M 1.4995 13.0 C 1.2236 13.0 1.0 13.2236 1.0 13.4995 L 1.0 13.5004 C 1.0 13.7763 1.2236 14.0 1.4995 14.0 L 1.5004 14.0 C 1.7763 14.0 2.0 13.7763 2.0 13.5004 L 2.0 13.4995 C 2.0 13.2236 1.7763 13.0 1.5004 13.0 Z  M 6.4994 14.0 C 6.2236 14.0 6.0 14.2236 6.0 14.4995 L 6.0 14.5004 C 6.0 14.7763 6.2236 15.0 6.4994 15.0 L 6.5005 15.0 C 6.7763 15.0 7.0 14.7763 7.0 14.5004 L 7.0 14.4995 C 7.0 14.2236 6.7763 14.0 6.5005 14.0 Z  M 29.4995 12.0 C 29.2236 12.0 29.0 12.2236 29.0 12.4995 L 29.0 13.0 L 29.0 14.0 L 29.0 14.5004 C 29.0 14.7763 29.2236 15.0 29.4995 15.0 L 29.5004 15.0 C 29.7763 15.0 30.0 14.7763 30.0 14.5004 L 30.0 14.25 C 30.0 14.1119 30.1119 14.0 30.25 14.0 L 30.5004 14.0 C 30.7763 14.0 31.0 13.7763 31.0 13.5004 L 31.0 13.4995 C 31.0 13.2236 30.7763 13.0 30.5004 13.0 L 30.25 13.0 C 30.1119 13.0 30.0 12.8880 30.0 12.75 L 30.0 12.4995 C 30.0 12.2236 29.7763 12.0 29.5004 12.0 Z  M 29.4995 8.0 C 29.2236 8.0 29.0 8.2236 29.0 8.4995 L 29.0 8.75 C 29.0 8.8880 28.8880 9.0 28.75 9.0 L 28.4995 9.0 C 28.2236 9.0 28.0 9.2236 28.0 9.4995 L 28.0 9.75 C 28.0 9.8880 27.8880 10.0 27.75 10.0 L 27.25 10.0 C 27.1119 10.0 27.0 9.8880 27.0 9.75 L 27.0 9.4995 C 27.0 9.2236 26.7763 9.0 26.5004 9.0 L 26.4995 9.0 C 26.2236 9.0 26.0 9.2236 26.0 9.4995 L 26.0 10.0 L 26.0 10.5004 C 26.0 10.7763 26.2236 11.0 26.4995 11.0 L 28.5004 11.0 C 28.7763 11.0 29.0 10.7763 29.0 10.5004 L 29.0 10.25 C 29.0 10.1119 29.1119 10.0 29.25 10.0 L 29.75 10.0 C 29.8880 10.0 30.0 10.1119 30.0 10.25 L 30.0 11.0 L 30.0 11.5004 C 30.0 11.7763 30.2236 12.0 30.4995 12.0 L 30.75 12.0 C 30.8880 12.0 31.0 12.1119 31.0 12.25 L 31.0 12.5004 C 31.0 12.7763 31.2236 13.0 31.4995 13.0 L 31.5004 13.0 C 31.7763 13.0 32.0 12.7763 32.0 12.5004 L 32.0 12.25 C 32.0 12.1119 32.1119 12.0 32.25 12.0 L 32.75 12.0 C 32.8880 12.0 33.0 12.1119 33.0 12.25 L 33.0 12.75 C 33.0 12.8880 32.8880 13.0 32.75 13.0 L 32.4995 13.0 C 32.2236 13.0 32.0 13.2236 32.0 13.4995 L 32.0 13.5004 C 32.0 13.7763 32.2236 14.0 32.4995 14.0 L 32.75 14.0 C 32.8880 14.0 33.0 14.1119 33.0 14.25 L 33.0 14.5004 C 33.0 14.7763 33.2236 15.0 33.4995 15.0 L 33.5004 15.0 C 33.7763 15.0 34.0 14.7763 34.0 14.5004 L 34.0 14.0 L 34.0 13.0 L 34.0 12.25 C 34.0 12.1119 34.1119 12.0 34.25 12.0 L 36.75 12.0 C 36.8880 12.0 37.0 12.1119 37.0 12.25 L 37.0 12.5004 C 37.0 12.7763 37.2236 13.0 37.4995 13.0 L 38.5004 13.0 C 38.7763 13.0 39.0 12.7763 39.0 12.5004 L 39.0 12.4995 C 39.0 12.2236 38.7763 12.0 38.5004 12.0 L 38.25 12.0 C 38.1119 12.0 38.0 11.8880 38.0 11.75 L 38.0 11.4995 C 38.0 11.2236 37.7763 11.0 37.5004 11.0 L 37.25 11.0 C 37.1119 11.0 37.0 10.8880 37.0 10.75 L 37.0 10.0 L 37.0 9.4995 C 37.0 9.2236 36.7763 9.0 36.5004 9.0 L 36.25 9.0 C 36.1119 9.0 36.0 8.8880 36.0 8.75 L 36.0 8.4995 C 36.0 8.2236 35.7763 8.0 35.5004 8.0 L 33.4995 8.0 C 33.2236 8.0 33.0 8.2236 33.0 8.4995 L 33.0 8.75 C 33.0 8.8880 32.8880 9.0 32.75 9.0 L 30.25 9.0 C 30.1119 9.0 30.0 8.8880 30.0 8.75 L 30.0 8.4995 C 30.0 8.2236 29.7763 8.0 29.5004 8.0 Z  M 9.4995 12.0 C 9.2236 12.0 9.0 12.2236 9.0 12.4995 L 9.0 13.0 L 9.0 14.0 L 9.0 15.0 L 9.0 15.5004 C 9.0 15.7763 9.2236 16.0 9.4995 16.0 L 10.5004 16.0 C 10.7763 16.0 11.0 15.7763 11.0 15.5004 L 11.0 15.4995 C 11.0 15.2236 10.7763 15.0 10.5004 15.0 L 10.25 15.0 C 10.1119 15.0 10.0 14.8880 10.0 14.75 L 10.0 14.25 C 10.0 14.1119 10.1119 14.0 10.25 14.0 L 10.5004 14.0 C 10.7763 14.0 11.0 13.7763 11.0 13.5004 L 11.0 13.4995 C 11.0 13.2236 10.7763 13.0 10.5004 13.0 L 10.25 13.0 C 10.1119 13.0 10.0 12.8880 10.0 12.75 L 10.0 12.4995 C 10.0 12.2236 9.7763 12.0 9.5004 12.0 Z  M 39.4995 11.0 C 39.2236 11.0 39.0 11.2236 39.0 11.4995 L 39.0 11.5004 C 39.0 11.7763 39.2236 12.0 39.4995 12.0 L 39.75 12.0 C 39.8880 12.0 40.0 12.1119 40.0 12.25 L 40.0 12.75 C 40.0 12.8880 39.8880 13.0 39.75 13.0 L 39.4995 13.0 C 39.2236 13.0 39.0 13.2236 39.0 13.4995 L 39.0 13.75 C 39.0 13.8880 38.8880 14.0 38.75 14.0 L 37.4995 14.0 C 37.2236 14.0 37.0 14.2236 37.0 14.4995 L 37.0 15.0 L 37.0 15.5004 C 37.0 15.7763 37.2236 16.0 37.4995 16.0 L 37.5004 16.0 C 37.7763 16.0 38.0 15.7763 38.0 15.5004 L 38.0 15.25 C 38.0 15.1119 38.1119 15.0 38.25 15.0 L 39.5004 15.0 C 39.7763 15.0 40.0 14.7763 40.0 14.5004 L 40.0 14.25 C 40.0 14.1119 40.1119 14.0 40.25 14.0 L 40.5004 14.0 C 40.7763 14.0 41.0 13.7763 41.0 13.5004 L 41.0 13.0 L 41.0 12.0 L 41.0 11.4995 C 41.0 11.2236 40.7763 11.0 40.5004 11.0 Z  M 1.4995 10.0 C 1.2236 10.0 1.0 10.2236 1.0 10.4995 L 1.0 10.75 C 1.0 10.8880 0.8880 11.0 0.75 11.0 L 0.4995 11.0 C 0.2236 11.0 0.0 11.2236 0.0 11.4995 L 0.0 11.5004 C 0.0 11.7763 0.2236 12.0 0.4995 12.0 L 1.75 12.0 C 1.8880 12.0 2.0 12.1119 2.0 12.25 L 2.0 12.5004 C 2.0 12.7763 2.2236 13.0 2.4995 13.0 L 2.5004 13.0 C 2.7763 13.0 3.0 12.7763 3.0 12.5004 L 3.0 12.25 C 3.0 12.1119 3.1119 12.0 3.25 12.0 L 3.75 12.0 C 3.8880 12.0 4.0 12.1119 4.0 12.25 L 4.0 12.75 C 4.0 12.8880 3.8880 13.0 3.75 13.0 L 3.4995 13.0 C 3.2236 13.0 3.0 13.2236 3.0 13.4995 L 3.0 14.0 L 3.0 14.5004 C 3.0 14.7763 3.2236 15.0 3.4995 15.0 L 3.75 15.0 C 3.8880 15.0 4.0 15.1119 4.0 15.25 L 4.0 15.5004 C 4.0 15.7763 4.2236 16.0 4.4994 16.0 L 4.75 16.0 C 4.8880 16.0 5.0 16.1119 5.0 16.25 L 5.0 16.5004 C 5.0 16.7763 5.2236 17.0 5.4994 17.0 L 6.5005 17.0 C 6.7763 17.0 7.0 16.7763 7.0 16.5004 L 7.0 16.4995 C 7.0 16.2236 6.7763 16.0 6.5005 16.0 L 6.25 16.0 C 6.1119 16.0 6.0 15.8880 6.0 15.75 L 6.0 15.4995 C 6.0 15.2236 5.7763 15.0 5.5005 15.0 L 5.25 15.0 C 5.1119 15.0 5.0 14.8880 5.0 14.75 L 5.0 14.0 L 5.0 13.25 C 5.0 13.1119 5.1119 13.0 5.25 13.0 L 6.5005 13.0 C 6.7763 13.0 7.0 12.7763 7.0 12.5004 L 7.0 12.4995 C 7.0 12.2236 6.7763 12.0 6.5005 12.0 L 6.25 12.0 C 6.1119 12.0 6.0 11.8880 6.0 11.75 L 6.0 11.25 C 6.0 11.1119 6.1119 11.0 6.25 11.0 L 6.5005 11.0 C 6.7763 11.0 7.0 10.7763 7.0 10.5004 L 7.0 10.4995 C 7.0 10.2236 6.7763 10.0 6.5005 10.0 L 4.4994 10.0 C 4.2236 10.0 4.0 10.2236 4.0 10.4995 L 4.0 10.75 C 4.0 10.8880 3.8880 11.0 3.75 11.0 L 2.25 11.0 C 2.1119 11.0 2.0 10.8880 2.0 10.75 L 2.0 10.4995 C 2.0 10.2236 1.7763 10.0 1.5004 10.0 Z  M 33.4995 16.0 C 33.2236 16.0 33.0 16.2236 33.0 16.4995 L 33.0 16.5004 C 33.0 16.7763 33.2236 17.0 33.4995 17.0 L 33.5004 17.0 C 33.7763 17.0 34.0 16.7763 34.0 16.5004 L 34.0 16.4995 C 34.0 16.2236 33.7763 16.0 33.5004 16.0 Z  M 1.4995 15.0 C 1.2236 15.0 1.0 15.2236 1.0 15.4995 L 1.0 15.75 C 1.0 15.8880 0.8880 16.0 0.75 16.0 L 0.4995 16.0 C 0.2236 16.0 0.0 16.2236 0.0 16.4995 L 0.0 16.5004 C 0.0 16.7763 0.2236 17.0 0.4995 17.0 L 0.75 17.0 C 0.8880 17.0 1.0 17.1119 1.0 17.25 L 1.0 17.5004 C 1.0 17.7763 1.2236 18.0 1.4995 18.0 L 1.5004 18.0 C 1.7763 18.0 2.0 17.7763 2.0 17.5004 L 2.0 17.25 C 2.0 17.1119 2.1119 17.0 2.25 17.0 L 3.5004 17.0 C 3.7763 17.0 4.0 16.7763 4.0 16.5004 L 4.0 16.4995 C 4.0 16.2236 3.7763 16.0 3.5004 16.0 L 2.25 16.0 C 2.1119 16.0 2.0 15.8880 2.0 15.75 L 2.0 15.4995 C 2.0 15.2236 1.7763 15.0 1.5004 15.0 Z  M 8.4995 16.0 C 8.2236 16.0 8.0 16.2236 8.0 16.4995 L 8.0 16.75 C 8.0 16.8880 7.8880 17.0 7.75 17.0 L 7.4994 17.0 C 7.2236 17.0 7.0 17.2236 7.0 17.4995 L 7.0 17.5004 C 7.0 17.7763 7.2236 18.0 7.4994 18.0 L 10.5004 18.0 C 10.7763 18.0 11.0 17.7763 11.0 17.5004 L 11.0 17.4995 C 11.0 17.2236 10.7763 17.0 10.5004 17.0 L 9.25 17.0 C 9.1119 17.0 9.0 16.8880 9.0 16.75 L 9.0 16.4995 C 9.0 16.2236 8.7763 16.0 8.5004 16.0 Z  M 0.4995 18.0 C 0.2236 18.0 0.0 18.2236 0.0 18.4995 L 0.0 18.5004 C 0.0 18.7763 0.2236 19.0 0.4995 19.0 L 0.5004 19.0 C 0.7763 19.0 1.0 18.7763 1.0 18.5004 L 1.0 18.4995 C 1.0 18.2236 0.7763 18.0 0.5004 18.0 Z  M 6.4994 18.0 C 6.2236 18.0 6.0 18.2236 6.0 18.4995 L 6.0 18.5004 C 6.0 18.7763 6.2236 19.0 6.4994 19.0 L 6.5005 19.0 C 6.7763 19.0 7.0 18.7763 7.0 18.5004 L 7.0 18.4995 C 7.0 18.2236 6.7763 18.0 6.5005 18.0 Z  M 31.4995 14.0 C 31.2236 14.0 31.0 14.2236 31.0 14.4995 L 31.0 14.75 C 31.0 14.8880 30.8880 15.0 30.75 15.0 L 30.4995 15.0 C 30.2236 15.0 30.0 15.2236 30.0 15.4995 L 30.0 15.5004 C 30.0 15.7763 30.2236 16.0 30.4995 16.0 L 30.75 16.0 C 30.8880 16.0 31.0 16.1119 31.0 16.25 L 31.0 16.75 C 31.0 16.8880 30.8880 17.0 30.75 17.0 L 30.25 17.0 C 30.1119 17.0 30.0 16.8880 30.0 16.75 L 30.0 16.4995 C 30.0 16.2236 29.7763 16.0 29.5004 16.0 L 29.4995 16.0 C 29.2236 16.0 29.0 16.2236 29.0 16.4995 L 29.0 17.0 L 29.0 18.0 L 29.0 19.0 L 29.0 19.5004 C 29.0 19.7763 29.2236 20.0 29.4995 20.0 L 30.5004 20.0 C 30.7763 20.0 31.0 19.7763 31.0 19.5004 L 31.0 19.4995 C 31.0 19.2236 30.7763 19.0 30.5004 19.0 L 30.25 19.0 C 30.1119 19.0 30.0 18.8880 30.0 18.75 L 30.0 18.25 C 30.0 18.1119 30.1119 18.0 30.25 18.0 L 31.75 18.0 C 31.8880 18.0 32.0 18.1119 32.0 18.25 L 32.0 18.5004 C 32.0 18.7763 32.2236 19.0 32.4995 19.0 L 32.5004 19.0 C 32.7763 19.0 33.0 18.7763 33.0 18.5004 L 33.0 18.0 L 33.0 17.4995 C 33.0 17.2236 32.7763 17.0 32.5004 17.0 L 32.25 17.0 C 32.1119 17.0 32.0 16.8880 32.0 16.75 L 32.0 16.25 C 32.0 16.1119 32.1119 16.0 32.25 16.0 L 32.5004 16.0 C 32.7763 16.0 33.0 15.7763 33.0 15.5004 L 33.0 15.4995 C 33.0 15.2236 32.7763 15.0 32.5004 15.0 L 32.25 15.0 C 32.1119 15.0 32.0 14.8880 32.0 14.75 L 32.0 14.4995 C 32.0 14.2236 31.7763 14.0 31.5004 14.0 Z  M 35.4995 13.0 C 35.2236 13.0 35.0 13.2236 35.0 13.4995 L 35.0 14.0 L 35.0 14.75 C 35.0 14.8880 34.8880 15.0 34.75 15.0 L 34.4995 15.0 C 34.2236 15.0 34.0 15.2236 34.0 15.4995 L 34.0 15.5004 C 34.0 15.7763 34.2236 16.0 34.4995 16.0 L 34.75 16.0 C 34.8880 16.0 35.0 16.1119 35.0 16.25 L 35.0 16.75 C 35.0 16.8880 34.8880 17.0 34.75 17.0 L 34.4995 17.0 C 34.2236 17.0 34.0 17.2236 34.0 17.4995 L 34.0 18.0 L 34.0 18.5004 C 34.0 18.7763 34.2236 19.0 34.4995 19.0 L 34.5004 19.0 C 34.7763 19.0 35.0 18.7763 35.0 18.5004 L 35.0 18.25 C 35.0 18.1119 35.1119 18.0 35.25 18.0 L 35.75 18.0 C 35.8880 18.0 36.0 18.1119 36.0 18.25 L 36.0 19.0 L 36.0 19.5004 C 36.0 19.7763 36.2236 20.0 36.4995 20.0 L 37.5004 20.0 C 37.7763 20.0 38.0 19.7763 38.0 19.5004 L 38.0 19.4995 C 38.0 19.2236 37.7763 19.0 37.5004 19.0 L 37.25 19.0 C 37.1119 19.0 37.0 18.8880 37.0 18.75 L 37.0 18.25 C 37.0 18.1119 37.1119 18.0 37.25 18.0 L 37.75 18.0 C 37.8880 18.0 38.0 18.1119 38.0 18.25 L 38.0 18.5004 C 38.0 18.7763 38.2236 19.0 38.4995 19.0 L 38.5004 19.0 C 38.7763 19.0 39.0 18.7763 39.0 18.5004 L 39.0 18.25 C 39.0 18.1119 39.1119 18.0 39.25 18.0 L 40.5004 18.0 C 40.7763 18.0 41.0 17.7763 41.0 17.5004 L 41.0 17.0 L 41.0 16.4995 C 41.0 16.2236 40.7763 16.0 40.5004 16.0 L 40.4995 16.0 C 40.2236 16.0 40.0 16.2236 40.0 16.4995 L 40.0 16.75 C 40.0 16.8880 39.8880 17.0 39.75 17.0 L 39.25 17.0 C 39.1119 17.0 39.0 16.8880 39.0 16.75 L 39.0 16.4995 C 39.0 16.2236 38.7763 16.0 38.5004 16.0 L 38.4995 16.0 C 38.2236 16.0 38.0 16.2236 38.0 16.4995 L 38.0 16.75 C 38.0 16.8880 37.8880 17.0 37.75 17.0 L 36.25 17.0 C 36.1119 17.0 36.0 16.8880 36.0 16.75 L 36.0 16.0 L 36.0 15.0 L 36.0 14.25 C 36.0 14.1119 36.1119 14.0 36.25 14.0 L 36.5004 14.0 C 36.7763 14.0 37.0 13.7763 37.0 13.5004 L 37.0 13.4995 C 37.0 13.2236 36.7763 13.0 36.5004 13.0 Z  M 4.4994 18.0 C 4.2236 18.0 4.0 18.2236 4.0 18.4995 L 4.0 19.0 L 4.0 19.5004 C 4.0 19.7763 4.2236 20.0 4.4994 20.0 L 4.75 20.0 C 4.8880 20.0 5.0 20.1119 5.0 20.25 L 5.0 20.5004 C 5.0 20.7763 5.2236 21.0 5.4994 21.0 L 6.5005 21.0 C 6.7763 21.0 7.0 20.7763 7.0 20.5004 L 7.0 20.4995 C 7.0 20.2236 6.7763 20.0 6.5005 20.0 L 6.25 20.0 C 6.1119 20.0 6.0 19.8880 6.0 19.75 L 6.0 19.4995 C 6.0 19.2236 5.7763 19.0 5.5005 19.0 L 5.25 19.0 C 5.1119 19.0 5.0 18.8880 5.0 18.75 L 5.0 18.4995 C 5.0 18.2236 4.7763 18.0 4.5005 18.0 Z  M 9.4995 19.0 C 9.2236 19.0 9.0 19.2236 9.0 19.4995 L 9.0 20.0 L 9.0 20.5004 C 9.0 20.7763 9.2236 21.0 9.4995 21.0 L 10.5004 21.0 C 10.7763 21.0 11.0 20.7763 11.0 20.5004 L 11.0 20.0 L 11.0 19.4995 C 11.0 19.2236 10.7763 19.0 10.5004 19.0 Z  M 8.4995 21.0 C 8.2236 21.0 8.0 21.2236 8.0 21.4995 L 8.0 21.5004 C 8.0 21.7763 8.2236 22.0 8.4995 22.0 L 8.5004 22.0 C 8.7763 22.0 9.0 21.7763 9.0 21.5004 L 9.0 21.4995 C 9.0 21.2236 8.7763 21.0 8.5004 21.0 Z  M 2.4995 18.0 C 2.2236 18.0 2.0 18.2236 2.0 18.4995 L 2.0 18.75 C 2.0 18.8880 1.8880 19.0 1.75 19.0 L 1.4995 19.0 C 1.2236 19.0 1.0 19.2236 1.0 19.4995 L 1.0 20.0 L 1.0 20.75 C 1.0 20.8880 0.8880 21.0 0.75 21.0 L 0.4995 21.0 C 0.2236 21.0 0.0 21.2236 0.0 21.4995 L 0.0 21.5004 C 0.0 21.7763 0.2236 22.0 0.4995 22.0 L 1.75 22.0 C 1.8880 22.0 2.0 22.1119 2.0 22.25 L 2.0 22.5004 C 2.0 22.7763 2.2236 23.0 2.4995 23.0 L 3.5004 23.0 C 3.7763 23.0 4.0 22.7763 4.0 22.5004 L 4.0 22.4995 C 4.0 22.2236 3.7763 22.0 3.5004 22.0 L 3.25 22.0 C 3.1119 22.0 3.0 21.8880 3.0 21.75 L 3.0 21.0 L 3.0 20.0 L 3.0 19.0 L 3.0 18.4995 C 3.0 18.2236 2.7763 18.0 2.5004 18.0 Z  M 5.4994 22.0 C 5.2236 22.0 5.0 22.2236 5.0 22.4995 L 5.0 22.5004 C 5.0 22.7763 5.2236 23.0 5.4994 23.0 L 7.5005 23.0 C 7.7763 23.0 8.0 22.7763 8.0 22.5004 L 8.0 22.4995 C 8.0 22.2236 7.7763 22.0 7.5005 22.0 Z  M 9.4995 22.0 C 9.2236 22.0 9.0 22.2236 9.0 22.4995 L 9.0 22.5004 C 9.0 22.7763 9.2236 23.0 9.4995 23.0 L 10.5004 23.0 C 10.7763 23.0 11.0 22.7763 11.0 22.5004 L 11.0 22.4995 C 11.0 22.2236 10.7763 22.0 10.5004 22.0 Z  M 8.4995 23.0 C 8.2236 23.0 8.0 23.2236 8.0 23.4995 L 8.0 23.5004 C 8.0 23.7763 8.2236 24.0 8.4995 24.0 L 8.5004 24.0 C 8.7763 24.0 9.0 23.7763 9.0 23.5004 L 9.0 23.4995 C 9.0 23.2236 8.7763 23.0 8.5004 23.0 Z  M 31.4995 23.0 C 31.2236 23.0 31.0 23.2236 31.0 23.4995 L 31.0 23.5004 C 31.0 23.7763 31.2236 24.0 31.4995 24.0 L 31.5004 24.0 C 31.7763 24.0 32.0 23.7763 32.0 23.5004 L 32.0 23.4995 C 32.0 23.2236 31.7763 23.0 31.5004 23.0 Z  M 5.4994 24.0 C 5.2236 24.0 5.0 24.2236 5.0 24.4995 L 5.0 24.5004 C 5.0 24.7763 5.2236 25.0 5.4994 25.0 L 6.5005 25.0 C 6.7763 25.0 7.0 24.7763 7.0 24.5004 L 7.0 24.4995 C 7.0 24.2236 6.7763 24.0 6.5005 24.0 Z  M 31.4995 25.0 C 31.2236 25.0 31.0 25.2236 31.0 25.4995 L 31.0 25.5004 C 31.0 25.7763 31.2236 26.0 31.4995 26.0 L 31.5004 26.0 C 31.7763 26.0 32.0 25.7763 32.0 25.5004 L 32.0 25.4995 C 32.0 25.2236 31.7763 25.0 31.5004 25.0 Z  M 0.4995 24.0 C 0.2236 24.0 0.0 24.2236 0.0 24.4995 L 0.0 25.0 L 0.0 25.5004 C 0.0 25.7763 0.2236 26.0 0.4995 26.0 L 0.75 26.0 C 0.8880 26.0 1.0 26.1119 1.0 26.25 L 1.0 26.5004 C 1.0 26.7763 1.2236 27.0 1.4995 27.0 L 1.5004 27.0 C 1.7763 27.0 2.0 26.7763 2.0 26.5004 L 2.0 26.25 C 2.0 26.1119 2.1119 26.0 2.25 26.0 L 2.5004 26.0 C 2.7763 26.0 3.0 25.7763 3.0 25.5004 L 3.0 25.25 C 3.0 25.1119 3.1119 25.0 3.25 25.0 L 3.5004 25.0 C 3.7763 25.0 4.0 24.7763 4.0 24.5004 L 4.0 24.4995 C 4.0 24.2236 3.7763 24.0 3.5004 24.0 Z  M 3.4995 26.0 C 3.2236 26.0 3.0 26.2236 3.0 26.4995 L 3.0 26.5004 C 3.0 26.7763 3.2236 27.0 3.4995 27.0 L 3.5004 27.0 C 3.7763 27.0 4.0 26.7763 4.0 26.5004 L 4.0 26.4995 C 4.0 26.2236 3.7763 26.0 3.5004 26.0 Z  M 29.4995 24.0 C 29.2236 24.0 29.0 24.2236 29.0 24.4995 L 29.0 25.0 L 29.0 26.0 L 29.0 26.5004 C 29.0 26.7763 29.2236 27.0 29.4995 27.0 L 29.5004 27.0 C 29.7763 27.0 30.0 26.7763 30.0 26.5004 L 30.0 26.0 L 30.0 25.0 L 30.0 24.4995 C 30.0 24.2236 29.7763 24.0 29.5004 24.0 Z  M 0.4995 27.0 C 0.2236 27.0 0.0 27.2236 0.0 27.4995 L 0.0 27.5004 C 0.0 27.7763 0.2236 28.0 0.4995 28.0 L 0.5004 28.0 C 0.7763 28.0 1.0 27.7763 1.0 27.5004 L 1.0 27.4995 C 1.0 27.2236 0.7763 27.0 0.5004 27.0 Z  M 9.4995 24.0 C 9.2236 24.0 9.0 24.2236 9.0 24.4995 L 9.0 25.0 L 9.0 25.5004 C 9.0 25.7763 9.2236 26.0 9.4995 26.0 L 9.75 26.0 C 9.8880 26.0 10.0 26.1119 10.0 26.25 L 10.0 27.0 L 10.0 27.5004 C 10.0 27.7763 10.2236 28.0 10.4995 28.0 L 10.5004 28.0 C 10.7763 28.0 11.0 27.7763 11.0 27.5004 L 11.0 27.0 L 11.0 26.0 L 11.0 25.0 L 11.0 24.4995 C 11.0 24.2236 10.7763 24.0 10.5004 24.0 Z  M 40.4995 27.0 C 40.2236 27.0 40.0 27.2236 40.0 27.4995 L 40.0 27.5004 C 40.0 27.7763 40.2236 28.0 40.4995 28.0 L 40.5004 28.0 C 40.7763 28.0 41.0 27.7763 41.0 27.5004 L 41.0 27.4995 C 41.0 27.2236 40.7763 27.0 40.5004 27.0 Z  M 39.4995 19.0 C 39.2236 19.0 39.0 19.2236 39.0 19.4995 L 39.0 19.5004 C 39.0 19.7763 39.2236 20.0 39.4995 20.0 L 39.75 20.0 C 39.8880 20.0 40.0 20.1119 40.0 20.25 L 40.0 20.75 C 40.0 20.8880 39.8880 21.0 39.75 21.0 L 39.25 21.0 C 39.1119 21.0 39.0 20.8880 39.0 20.75 L 39.0 20.4995 C 39.0 20.2236 38.7763 20.0 38.5004 20.0 L 38.4995 20.0 C 38.2236 20.0 38.0 20.2236 38.0 20.4995 L 38.0 21.0 L 38.0 21.75 C 38.0 21.8880 37.8880 22.0 37.75 22.0 L 37.25 22.0 C 37.1119 22.0 37.0 21.8880 37.0 21.75 L 37.0 21.4995 C 37.0 21.2236 36.7763 21.0 36.5004 21.0 L 36.25 21.0 C 36.1119 21.0 36.0 20.8880 36.0 20.75 L 36.0 20.4995 C 36.0 20.2236 35.7763 20.0 35.5004 20.0 L 35.4995 20.0 C 35.2236 20.0 35.0 20.2236 35.0 20.4995 L 35.0 20.75 C 35.0 20.8880 34.8880 21.0 34.75 21.0 L 29.4995 21.0 C 29.2236 21.0 29.0 21.2236 29.0 21.4995 L 29.0 21.5004 C 29.0 21.7763 29.2236 22.0 29.4995 22.0 L 29.75 22.0 C 29.8880 22.0 30.0 22.1119 30.0 22.25 L 30.0 22.5004 C 30.0 22.7763 30.2236 23.0 30.4995 23.0 L 30.5004 23.0 C 30.7763 23.0 31.0 22.7763 31.0 22.5004 L 31.0 22.25 C 31.0 22.1119 31.1119 22.0 31.25 22.0 L 33.75 22.0 C 33.8880 22.0 34.0 22.1119 34.0 22.25 L 34.0 22.75 C 34.0 22.8880 33.8880 23.0 33.75 23.0 L 33.4995 23.0 C 33.2236 23.0 33.0 23.2236 33.0 23.4995 L 33.0 23.5004 C 33.0 23.7763 33.2236 24.0 33.4995 24.0 L 34.5004 24.0 C 34.7763 24.0 35.0 23.7763 35.0 23.5004 L 35.0 23.0 L 35.0 22.25 C 35.0 22.1119 35.1119 22.0 35.25 22.0 L 35.75 22.0 C 35.8880 22.0 36.0 22.1119 36.0 22.25 L 36.0 22.5004 C 36.0 22.7763 36.2236 23.0 36.4995 23.0 L 36.75 23.0 C 36.8880 23.0 37.0 23.1119 37.0 23.25 L 37.0 24.0 L 37.0 24.75 C 37.0 24.8880 36.8880 25.0 36.75 25.0 L 36.25 25.0 C 36.1119 25.0 36.0 24.8880 36.0 24.75 L 36.0 24.4995 C 36.0 24.2236 35.7763 24.0 35.5004 24.0 L 35.4995 24.0 C 35.2236 24.0 35.0 24.2236 35.0 24.4995 L 35.0 24.75 C 35.0 24.8880 34.8880 25.0 34.75 25.0 L 34.4995 25.0 C 34.2236 25.0 34.0 25.2236 34.0 25.4995 L 34.0 26.0 L 34.0 26.75 C 34.0 26.8880 33.8880 27.0 33.75 27.0 L 33.25 27.0 C 33.1119 27.0 33.0 26.8880 33.0 26.75 L 33.0 26.4995 C 33.0 26.2236 32.7763 26.0 32.5004 26.0 L 32.4995 26.0 C 32.2236 26.0 32.0 26.2236 32.0 26.4995 L 32.0 26.75 C 32.0 26.8880 31.8880 27.0 31.75 27.0 L 31.4995 27.0 C 31.2236 27.0 31.0 27.2236 31.0 27.4995 L 31.0 28.0 L 31.0 28.5004 C 31.0 28.7763 31.2236 29.0 31.4995 29.0 L 32.5004 29.0 C 32.7763 29.0 33.0 28.7763 33.0 28.5004 L 33.0 28.25 C 33.0 28.1119 33.1119 28.0 33.25 28.0 L 33.75 28.0 C 33.8880 28.0 34.0 28.1119 34.0 28.25 L 34.0 28.5004 C 34.0 28.7763 34.2236 29.0 34.4995 29.0 L 34.5004 29.0 C 34.7763 29.0 35.0 28.7763 35.0 28.5004 L 35.0 28.25 C 35.0 28.1119 35.1119 28.0 35.25 28.0 L 35.5004 28.0 C 35.7763 28.0 36.0 27.7763 36.0 27.5004 L 36.0 27.0 L 36.0 26.25 C 36.0 26.1119 36.1119 26.0 36.25 26.0 L 37.5004 26.0 C 37.7763 26.0 38.0 25.7763 38.0 25.5004 L 38.0 25.25 C 38.0 25.1119 38.1119 25.0 38.25 25.0 L 38.75 25.0 C 38.8880 25.0 39.0 25.1119 39.0 25.25 L 39.0 26.0 L 39.0 26.5004 C 39.0 26.7763 39.2236 27.0 39.4995 27.0 L 39.5004 27.0 C 39.7763 27.0 40.0 26.7763 40.0 26.5004 L 40.0 26.25 C 40.0 26.1119 40.1119 26.0 40.25 26.0 L 40.5004 26.0 C 40.7763 26.0 41.0 25.7763 41.0 25.5004 L 41.0 25.4995 C 41.0 25.2236 40.7763 25.0 40.5004 25.0 L 40.25 25.0 C 40.1119 25.0 40.0 24.8880 40.0 24.75 L 40.0 24.4995 C 40.0 24.2236 39.7763 24.0 39.5004 24.0 L 38.25 24.0 C 38.1119 24.0 38.0 23.8880 38.0 23.75 L 38.0 23.25 C 38.0 23.1119 38.1119 23.0 38.25 23.0 L 38.5004 23.0 C 38.7763 23.0 39.0 22.7763 39.0 22.5004 L 39.0 22.25 C 39.0 22.1119 39.1119 22.0 39.25 22.0 L 40.5004 22.0 C 40.7763 22.0 41.0 21.7763 41.0 21.5004 L 41.0 21.0 L 41.0 20.0 L 41.0 19.4995 C 41.0 19.2236 40.7763 19.0 40.5004 19.0 Z  M 29.4995 28.0 C 29.2236 28.0 29.0 28.2236 29.0 28.4995 L 29.0 28.75 C 29.0 28.8880 28.8880 29.0 28.75 29.0 L 27.4995 29.0 C 27.2236 29.0 27.0 29.2236 27.0 29.4995 L 27.0 29.5004 C 27.0 29.7763 27.2236 30.0 27.4995 30.0 L 30.5004 30.0 C 30.7763 30.0 31.0 29.7763 31.0 29.5004 L 31.0 29.4995 C 31.0 29.2236 30.7763 29.0 30.5004 29.0 L 30.25 29.0 C 30.1119 29.0 30.0 28.8880 30.0 28.75 L 30.0 28.4995 C 30.0 28.2236 29.7763 28.0 29.5004 28.0 Z  M 24.4995 29.0 C 24.2236 29.0 24.0 29.2236 24.0 29.4995 L 24.0 29.5004 C 24.0 29.7763 24.2236 30.0 24.4995 30.0 L 24.75 30.0 C 24.8880 30.0 25.0 30.1119 25.0 30.25 L 25.0 30.5004 C 25.0 30.7763 25.2236 31.0 25.4995 31.0 L 26.5004 31.0 C 26.7763 31.0 27.0 30.7763 27.0 30.5004 L 27.0 30.4995 C 27.0 30.2236 26.7763 30.0 26.5004 30.0 L 26.25 30.0 C 26.1119 30.0 26.0 29.8880 26.0 29.75 L 26.0 29.4995 C 26.0 29.2236 25.7763 29.0 25.5004 29.0 Z  M 7.4994 25.0 C 7.2236 25.0 7.0 25.2236 7.0 25.4995 L 7.0 25.75 C 7.0 25.8880 6.8880 26.0 6.75 26.0 L 5.4994 26.0 C 5.2236 26.0 5.0 26.2236 5.0 26.4995 L 5.0 26.5004 C 5.0 26.7763 5.2236 27.0 5.4994 27.0 L 6.75 27.0 C 6.8880 27.0 7.0 27.1119 7.0 27.25 L 7.0 27.75 C 7.0 27.8880 6.8880 28.0 6.75 28.0 L 6.4994 28.0 C 6.2236 28.0 6.0 28.2236 6.0 28.4995 L 6.0 28.5004 C 6.0 28.7763 6.2236 29.0 6.4994 29.0 L 7.75 29.0 C 7.8880 29.0 8.0 29.1119 8.0 29.25 L 8.0 29.75 C 8.0 29.8880 7.8880 30.0 7.75 30.0 L 6.25 30.0 C 6.1119 30.0 6.0 29.8880 6.0 29.75 L 6.0 29.4995 C 6.0 29.2236 5.7763 29.0 5.5005 29.0 L 3.25 29.0 C 3.1119 29.0 3.0 28.8880 3.0 28.75 L 3.0 28.4995 C 3.0 28.2236 2.7763 28.0 2.5004 28.0 L 1.4995 28.0 C 1.2236 28.0 1.0 28.2236 1.0 28.4995 L 1.0 28.5004 C 1.0 28.7763 1.2236 29.0 1.4995 29.0 L 1.75 29.0 C 1.8880 29.0 2.0 29.1119 2.0 29.25 L 2.0 30.0 L 2.0 30.5004 C 2.0 30.7763 2.2236 31.0 2.4995 31.0 L 6.75 31.0 C 6.8880 31.0 7.0 31.1119 7.0 31.25 L 7.0 31.5004 C 7.0 31.7763 7.2236 32.0 7.4994 32.0 L 8.5004 32.0 C 8.7763 32.0 9.0 31.7763 9.0 31.5004 L 9.0 31.0 L 9.0 30.25 C 9.0 30.1119 9.1119 30.0 9.25 30.0 L 9.5004 30.0 C 9.7763 30.0 10.0 29.7763 10.0 29.5004 L 10.0 29.4995 C 10.0 29.2236 9.7763 29.0 9.5004 29.0 L 9.25 29.0 C 9.1119 29.0 9.0 28.8880 9.0 28.75 L 9.0 28.4995 C 9.0 28.2236 8.7763 28.0 8.5004 28.0 L 8.25 28.0 C 8.1119 28.0 8.0 27.8880 8.0 27.75 L 8.0 27.0 L 8.0 26.0 L 8.0 25.4995 C 8.0 25.2236 7.7763 25.0 7.5005 25.0 Z  M 17.4995 31.0 C 17.2236 31.0 17.0 31.2236 17.0 31.4995 L 17.0 31.5004 C 17.0 31.7763 17.2236 32.0 17.4995 32.0 L 17.5004 32.0 C 17.7763 32.0 18.0 31.7763 18.0 31.5004 L 18.0 31.4995 C 18.0 31.2236 17.7763 31.0 17.5004 31.0 Z  M 24.4995 31.0 C 24.2236 31.0 24.0 31.2236 24.0 31.4995 L 24.0 31.5004 C 24.0 31.7763 24.2236 32.0 24.4995 32.0 L 24.5004 32.0 C 24.7763 32.0 25.0 31.7763 25.0 31.5004 L 25.0 31.4995 C 25.0 31.2236 24.7763 31.0 24.5004 31.0 Z  M 28.4995 31.0 C 28.2236 31.0 28.0 31.2236 28.0 31.4995 L 28.0 31.5004 C 28.0 31.7763 28.2236 32.0 28.4995 32.0 L 28.5004 32.0 C 28.7763 32.0 29.0 31.7763 29.0 31.5004 L 29.0 31.4995 C 29.0 31.2236 28.7763 31.0 28.5004 31.0 Z  M 0.4995 29.0 C 0.2236 29.0 0.0 29.2236 0.0 29.4995 L 0.0 30.0 L 0.0 31.0 L 0.0 32.0 L 0.0 32.5004 C 0.0 32.7763 0.2236 33.0 0.4995 33.0 L 0.5004 33.0 C 0.7763 33.0 1.0 32.7763 1.0 32.5004 L 1.0 32.0 L 1.0 31.0 L 1.0 30.0 L 1.0 29.4995 C 1.0 29.2236 0.7763 29.0 0.5004 29.0 Z  M 2.4995 32.0 C 2.2236 32.0 2.0 32.2236 2.0 32.4995 L 2.0 32.5004 C 2.0 32.7763 2.2236 33.0 2.4995 33.0 L 6.5005 33.0 C 6.7763 33.0 7.0 32.7763 7.0 32.5004 L 7.0 32.4995 C 7.0 32.2236 6.7763 32.0 6.5005 32.0 Z  M 13.4995 32.0 C 13.2236 32.0 13.0 32.2236 13.0 32.4995 L 13.0 32.5004 C 13.0 32.7763 13.2236 33.0 13.4995 33.0 L 13.5004 33.0 C 13.7763 33.0 14.0 32.7763 14.0 32.5004 L 14.0 32.4995 C 14.0 32.2236 13.7763 32.0 13.5004 32.0 Z  M 16.4995 32.0 C 16.2236 32.0 16.0 32.2236 16.0 32.4995 L 16.0 32.5004 C 16.0 32.7763 16.2236 33.0 16.4995 33.0 L 16.5004 33.0 C 16.7763 33.0 17.0 32.7763 17.0 32.5004 L 17.0 32.4995 C 17.0 32.2236 16.7763 32.0 16.5004 32.0 Z  M 29.4995 32.0 C 29.2236 32.0 29.0 32.2236 29.0 32.4995 L 29.0 32.5004 C 29.0 32.7763 29.2236 33.0 29.4995 33.0 L 29.5004 33.0 C 29.7763 33.0 30.0 32.7763 30.0 32.5004 L 30.0 32.4995 C 30.0 32.2236 29.7763 32.0 29.5004 32.0 Z  M 8.4995 33.0 C 8.2236 33.0 8.0 33.2236 8.0 33.4995 L 8.0 33.5004 C 8.0 33.7763 8.2236 34.0 8.4995 34.0 L 8.5004 34.0 C 8.7763 34.0 9.0 33.7763 9.0 33.5004 L 9.0 33.4995 C 9.0 33.2236 8.7763 33.0 8.5004 33.0 Z  M 14.4995 33.0 C 14.2236 33.0 14.0 33.2236 14.0 33.4995 L 14.0 33.5004 C 14.0 33.7763 14.2236 34.0 14.4995 34.0 L 14.5004 34.0 C 14.7763 34.0 15.0 33.7763 15.0 33.5004 L 15.0 33.4995 C 15.0 33.2236 14.7763 33.0 14.5004 33.0 Z  M 25.4995 32.0 C 25.2236 32.0 25.0 32.2236 25.0 32.4995 L 25.0 32.5004 C 25.0 32.7763 25.2236 33.0 25.4995 33.0 L 25.75 33.0 C 25.8880 33.0 26.0 33.1119 26.0 33.25 L 26.0 33.5004 C 26.0 33.7763 26.2236 34.0 26.4995 34.0 L 26.5004 34.0 C 26.7763 34.0 27.0 33.7763 27.0 33.5004 L 27.0 33.0 L 27.0 32.4995 C 27.0 32.2236 26.7763 32.0 26.5004 32.0 Z  M 34.4995 34.0 C 34.2236 34.0 34.0 34.2236 34.0 34.4995 L 34.0 34.5004 C 34.0 34.7763 34.2236 35.0 34.4995 35.0 L 34.5004 35.0 C 34.7763 35.0 35.0 34.7763 35.0 34.5004 L 35.0 34.4995 C 35.0 34.2236 34.7763 34.0 34.5004 34.0 Z  M 28.4995 33.0 C 28.2236 33.0 28.0 33.2236 28.0 33.4995 L 28.0 33.75 C 28.0 33.8880 27.8880 34.0 27.75 34.0 L 27.4995 34.0 C 27.2236 34.0 27.0 34.2236 27.0 34.4995 L 27.0 35.0 L 27.0 35.5004 C 27.0 35.7763 27.2236 36.0 27.4995 36.0 L 27.5004 36.0 C 27.7763 36.0 28.0 35.7763 28.0 35.5004 L 28.0 35.25 C 28.0 35.1119 28.1119 35.0 28.25 35.0 L 28.5004 35.0 C 28.7763 35.0 29.0 34.7763 29.0 34.5004 L 29.0 34.0 L 29.0 33.4995 C 29.0 33.2236 28.7763 33.0 28.5004 33.0 Z  M 35.75 33.0 C 35.8880 33.0 36.0 33.1119 36.0 33.25 L 36.0 34.0 L 36.0 35.0 L 36.0 35.75 C 36.0 35.8880 35.8880 36.0 35.75 36.0 L 33.25 36.0 C 33.1119 36.0 33.0 35.8880 33.0 35.75 L 33.0 35.0 L 33.0 34.0 L 33.0 33.25 C 33.0 33.1119 33.1119 33.0 33.25 33.0 Z  M 30.4995 36.0 C 30.2236 36.0 30.0 36.2236 30.0 36.4995 L 30.0 36.5004 C 30.0 36.7763 30.2236 37.0 30.4995 37.0 L 30.5004 37.0 C 30.7763 37.0 31.0 36.7763 31.0 36.5004 L 31.0 36.4995 C 31.0 36.2236 30.7763 36.0 30.5004 36.0 Z  M 19.4995 32.0 C 19.2236 32.0 19.0 32.2236 19.0 32.4995 L 19.0 32.75 C 19.0 32.8880 18.8880 33.0 18.75 33.0 L 17.4995 33.0 C 17.2236 33.0 17.0 33.2236 17.0 33.4995 L 17.0 33.75 C 17.0 33.8880 16.8880 34.0 16.75 34.0 L 16.4995 34.0 C 16.2236 34.0 16.0 34.2236 16.0 34.4995 L 16.0 35.0 L 16.0 36.0 L 16.0 37.0 L 16.0 37.5004 C 16.0 37.7763 16.2236 38.0 16.4995 38.0 L 16.5004 38.0 C 16.7763 38.0 17.0 37.7763 17.0 37.5004 L 17.0 37.0 L 17.0 36.25 C 17.0 36.1119 17.1119 36.0 17.25 36.0 L 18.5004 36.0 C 18.7763 36.0 19.0 35.7763 19.0 35.5004 L 19.0 35.25 C 19.0 35.1119 19.1119 35.0 19.25 35.0 L 19.5004 35.0 C 19.7763 35.0 20.0 34.7763 20.0 34.5004 L 20.0 34.0 L 20.0 33.25 C 20.0 33.1119 20.1119 33.0 20.25 33.0 L 20.5004 33.0 C 20.7763 33.0 21.0 32.7763 21.0 32.5004 L 21.0 32.4995 C 21.0 32.2236 20.7763 32.0 20.5004 32.0 Z  M 18.4995 37.0 C 18.2236 37.0 18.0 37.2236 18.0 37.4995 L 18.0 37.5004 C 18.0 37.7763 18.2236 38.0 18.4995 38.0 L 18.5004 38.0 C 18.7763 38.0 19.0 37.7763 19.0 37.5004 L 19.0 37.4995 C 19.0 37.2236 18.7763 37.0 18.5004 37.0 Z  M 12.4995 29.0 C 12.2236 29.0 12.0 29.2236 12.0 29.4995 L 12.0 30.0 L 12.0 30.5004 C 12.0 30.7763 12.2236 31.0 12.4995 31.0 L 14.75 31.0 C 14.8880 31.0 15.0 31.1119 15.0 31.25 L 15.0 31.5004 C 15.0 31.7763 15.2236 32.0 15.4995 32.0 L 15.5004 32.0 C 15.7763 32.0 16.0 31.7763 16.0 31.5004 L 16.0 31.25 C 16.0 31.1119 16.1119 31.0 16.25 31.0 L 16.5004 31.0 C 16.7763 31.0 17.0 30.7763 17.0 30.5004 L 17.0 30.25 C 17.0 30.1119 17.1119 30.0 17.25 30.0 L 17.75 30.0 C 17.8880 30.0 18.0 30.1119 18.0 30.25 L 18.0 30.5004 C 18.0 30.7763 18.2236 31.0 18.4995 31.0 L 18.5004 31.0 C 18.7763 31.0 19.0 30.7763 19.0 30.5004 L 19.0 30.25 C 19.0 30.1119 19.1119 30.0 19.25 30.0 L 19.75 30.0 C 19.8880 30.0 20.0 30.1119 20.0 30.25 L 20.0 30.5004 C 20.0 30.7763 20.2236 31.0 20.4995 31.0 L 21.75 31.0 C 21.8880 31.0 22.0 31.1119 22.0 31.25 L 22.0 32.0 L 22.0 33.0 L 22.0 33.75 C 22.0 33.8880 21.8880 34.0 21.75 34.0 L 21.4995 34.0 C 21.2236 34.0 21.0 34.2236 21.0 34.4995 L 21.0 35.0 L 21.0 35.75 C 21.0 35.8880 20.8880 36.0 20.75 36.0 L 20.4995 36.0 C 20.2236 36.0 20.0 36.2236 20.0 36.4995 L 20.0 37.0 L 20.0 37.5004 C 20.0 37.7763 20.2236 38.0 20.4995 38.0 L 20.5004 38.0 C 20.7763 38.0 21.0 37.7763 21.0 37.5004 L 21.0 37.25 C 21.0 37.1119 21.1119 37.0 21.25 37.0 L 21.5004 37.0 C 21.7763 37.0 22.0 36.7763 22.0 36.5004 L 22.0 36.25 C 22.0 36.1119 22.1119 36.0 22.25 36.0 L 22.5004 36.0 C 22.7763 36.0 23.0 35.7763 23.0 35.5004 L 23.0 35.25 C 23.0 35.1119 23.1119 35.0 23.25 35.0 L 23.5004 35.0 C 23.7763 35.0 24.0 34.7763 24.0 34.5004 L 24.0 34.0 L 24.0 33.0 L 24.0 32.4995 C 24.0 32.2236 23.7763 32.0 23.5004 32.0 L 23.25 32.0 C 23.1119 32.0 23.0 31.8880 23.0 31.75 L 23.0 31.25 C 23.0 31.1119 23.1119 31.0 23.25 31.0 L 23.5004 31.0 C 23.7763 31.0 24.0 30.7763 24.0 30.5004 L 24.0 30.4995 C 24.0 30.2236 23.7763 30.0 23.5004 30.0 L 21.25 30.0 C 21.1119 30.0 21.0 29.8880 21.0 29.75 L 21.0 29.4995 C 21.0 29.2236 20.7763 29.0 20.5004 29.0 L 16.4995 29.0 C 16.2236 29.0 16.0 29.2236 16.0 29.4995 L 16.0 29.75 C 16.0 29.8880 15.8880 30.0 15.75 30.0 L 13.25 30.0 C 13.1119 30.0 13.0 29.8880 13.0 29.75 L 13.0 29.4995 C 13.0 29.2236 12.7763 29.0 12.5004 29.0 Z  M 23.4995 37.0 C 23.2236 37.0 23.0 37.2236 23.0 37.4995 L 23.0 37.5004 C 23.0 37.7763 23.2236 38.0 23.4995 38.0 L 23.5004 38.0 C 23.7763 38.0 24.0 37.7763 24.0 37.5004 L 24.0 37.4995 C 24.0 37.2236 23.7763 37.0 23.5004 37.0 Z  M 34.75 37.0 C 34.8880 37.0 35.0 37.1119 35.0 37.25 L 35.0 37.75 C 35.0 37.8880 34.8880 38.0 34.75 38.0 L 34.25 38.0 C 34.1119 38.0 34.0 37.8880 34.0 37.75 L 34.0 37.25 C 34.0 37.1119 34.1119 37.0 34.25 37.0 Z  M 40.4995 37.0 C 40.2236 37.0 40.0 37.2236 40.0 37.4995 L 40.0 37.5004 C 40.0 37.7763 40.2236 38.0 40.4995 38.0 L 40.5004 38.0 C 40.7763 38.0 41.0 37.7763 41.0 37.5004 L 41.0 37.4995 C 41.0 37.2236 40.7763 37.0 40.5004 37.0 Z  M 3.5 36.0 C 2.6715 36.0 2.0 36.6715 2.0 37.5 C 2.0 38.3284 2.6715 39.0 3.5 39.0 C 4.3284 39.0 5.0 38.3284 5.0 37.5 C 5.0 36.6715 4.3284 36.0 3.5 36.0 Z  M 22.4995 38.0 C 22.2236 38.0 22.0 38.2236 22.0 38.4995 L 22.0 38.5004 C 22.0 38.7763 22.2236 39.0 22.4995 39.0 L 22.5004 39.0 C 22.7763 39.0 23.0 38.7763 23.0 38.5004 L 23.0 38.4995 C 23.0 38.2236 22.7763 38.0 22.5004 38.0 Z  M 25.4995 34.0 C 25.2236 34.0 25.0 34.2236 25.0 34.4995 L 25.0 35.0 L 25.0 36.0 L 25.0 36.5004 C 25.0 36.7763 25.2236 37.0 25.4995 37.0 L 25.75 37.0 C 25.8880 37.0 26.0 37.1119 26.0 37.25 L 26.0 38.0 L 26.0 38.5004 C 26.0 38.7763 26.2236 39.0 26.4995 39.0 L 27.5004 39.0 C 27.7763 39.0 28.0 38.7763 28.0 38.5004 L 28.0 38.4995 C 28.0 38.2236 27.7763 38.0 27.5004 38.0 L 27.25 38.0 C 27.1119 38.0 27.0 37.8880 27.0 37.75 L 27.0 37.0 L 27.0 36.4995 C 27.0 36.2236 26.7763 36.0 26.5004 36.0 L 26.25 36.0 C 26.1119 36.0 26.0 35.8880 26.0 35.75 L 26.0 35.0 L 26.0 34.4995 C 26.0 34.2236 25.7763 34.0 25.5004 34.0 Z  M 5.5 35.0 C 5.7761 35.0 6.0 35.2238 6.0 35.5 L 6.0 39.5 C 6.0 39.7761 5.7761 40.0 5.5 40.0 L 1.5 40.0 C 1.2238 40.0 1.0 39.7761 1.0 39.5 L 1.0 35.5 C 1.0 35.2238 1.2238 35.0 1.5 35.0 Z  M 28.4995 39.0 C 28.2236 39.0 28.0 39.2236 28.0 39.4995 L 28.0 39.5004 C 28.0 39.7763 28.2236 40.0 28.4995 40.0 L 28.5004 40.0 C 28.7763 40.0 29.0 39.7763 29.0 39.5004 L 29.0 39.4995 C 29.0 39.2236 28.7763 39.0 28.5004 39.0 Z  M 39.4995 38.0 C 39.2236 38.0 39.0 38.2236 39.0 38.4995 L 39.0 39.0 L 39.0 39.5004 C 39.0 39.7763 39.2236 40.0 39.4995 40.0 L 39.5004 40.0 C 39.7763 40.0 40.0 39.7763 40.0 39.5004 L 40.0 39.0 L 40.0 38.4995 C 40.0 38.2236 39.7763 38.0 39.5004 38.0 Z  M 1.0 34.0 C 0.4477 34.0 0.0 34.4477 0.0 35.0 L 0.0 40.0 C 0.0 40.5522 0.4477 41.0 1.0 41.0 L 6.0 41.0 C 6.5522 41.0 7.0 40.5522 7.0 40.0 L 7.0 35.0 C 7.0 34.4477 6.5522 34.0 6.0 34.0 Z  M 10.4995 32.0 C 10.2236 32.0 10.0 32.2236 10.0 32.4995 L 10.0 33.0 L 10.0 33.5004 C 10.0 33.7763 10.2236 34.0 10.4995 34.0 L 11.75 34.0 C 11.8880 34.0 12.0 34.1119 12.0 34.25 L 12.0 34.75 C 12.0 34.8880 11.8880 35.0 11.75 35.0 L 9.4995 35.0 C 9.2236 35.0 9.0 35.2236 9.0 35.4995 L 9.0 35.75 C 9.0 35.8880 8.8880 36.0 8.75 36.0 L 8.4995 36.0 C 8.2236 36.0 8.0 36.2236 8.0 36.4995 L 8.0 37.0 L 8.0 38.0 L 8.0 38.5004 C 8.0 38.7763 8.2236 39.0 8.4995 39.0 L 9.75 39.0 C 9.8880 39.0 10.0 39.1119 10.0 39.25 L 10.0 39.75 C 10.0 39.8880 9.8880 40.0 9.75 40.0 L 9.4995 40.0 C 9.2236 40.0 9.0 40.2236 9.0 40.4995 L 9.0 40.5004 C 9.0 40.7763 9.2236 41.0 9.4995 41.0 L 10.5004 41.0 C 10.7763 41.0 11.0 40.7763 11.0 40.5004 L 11.0 40.25 C 11.0 40.1119 11.1119 40.0 11.25 40.0 L 11.5004 40.0 C 11.7763 40.0 12.0 39.7763 12.0 39.5004 L 12.0 39.4995 C 12.0 39.2236 11.7763 39.0 11.5004 39.0 L 11.25 39.0 C 11.1119 39.0 11.0 38.8880 11.0 38.75 L 11.0 38.0 L 11.0 37.0 L 11.0 36.25 C 11.0 36.1119 11.1119 36.0 11.25 36.0 L 12.75 36.0 C 12.8880 36.0 13.0 36.1119 13.0 36.25 L 13.0 36.75 C 13.0 36.8880 12.8880 37.0 12.75 37.0 L 12.4995 37.0 C 12.2236 37.0 12.0 37.2236 12.0 37.4995 L 12.0 37.5004 C 12.0 37.7763 12.2236 38.0 12.4995 38.0 L 12.75 38.0 C 12.8880 38.0 13.0 38.1119 13.0 38.25 L 13.0 39.0 L 13.0 40.0 L 13.0 40.5004 C 13.0 40.7763 13.2236 41.0 13.4995 41.0 L 13.5004 41.0 C 13.7763 41.0 14.0 40.7763 14.0 40.5004 L 14.0 40.25 C 14.0 40.1119 14.1119 40.0 14.25 40.0 L 14.75 40.0 C 14.8880 40.0 15.0 40.1119 15.0 40.25 L 15.0 40.5004 C 15.0 40.7763 15.2236 41.0 15.4995 41.0 L 15.5004 41.0 C 15.7763 41.0 16.0 40.7763 16.0 40.5004 L 16.0 40.0 L 16.0 39.0 L 16.0 38.4995 C 16.0 38.2236 15.7763 38.0 15.5004 38.0 L 15.4995 38.0 C 15.2236 38.0 15.0 38.2236 15.0 38.4995 L 15.0 38.75 C 15.0 38.8880 14.8880 39.0 14.75 39.0 L 14.25 39.0 C 14.1119 39.0 14.0 38.8880 14.0 38.75 L 14.0 38.0 L 14.0 37.0 L 14.0 36.25 C 14.0 36.1119 14.1119 36.0 14.25 36.0 L 14.5004 36.0 C 14.7763 36.0 15.0 35.7763 15.0 35.5004 L 15.0 35.4995 C 15.0 35.2236 14.7763 35.0 14.5004 35.0 L 13.25 35.0 C 13.1119 35.0 13.0 34.8880 13.0 34.75 L 13.0 34.0 L 13.0 33.4995 C 13.0 33.2236 12.7763 33.0 12.5004 33.0 L 12.25 33.0 C 12.1119 33.0 12.0 32.8880 12.0 32.75 L 12.0 32.4995 C 12.0 32.2236 11.7763 32.0 11.5004 32.0 Z  M 18.4995 39.0 C 18.2236 39.0 18.0 39.2236 18.0 39.4995 L 18.0 39.5004 C 18.0 39.7763 18.2236 40.0 18.4995 40.0 L 19.75 40.0 C 19.8880 40.0 20.0 40.1119 20.0 40.25 L 20.0 40.5004 C 20.0 40.7763 20.2236 41.0 20.4995 41.0 L 23.5004 41.0 C 23.7763 41.0 24.0 40.7763 24.0 40.5004 L 24.0 40.4995 C 24.0 40.2236 23.7763 40.0 23.5004 40.0 L 22.25 40.0 C 22.1119 40.0 22.0 39.8880 22.0 39.75 L 22.0 39.4995 C 22.0 39.2236 21.7763 39.0 21.5004 39.0 Z  M 25.4995 39.0 C 25.2236 39.0 25.0 39.2236 25.0 39.4995 L 25.0 40.0 L 25.0 40.5004 C 25.0 40.7763 25.2236 41.0 25.4995 41.0 L 27.5004 41.0 C 27.7763 41.0 28.0 40.7763 28.0 40.5004 L 28.0 40.4995 C 28.0 40.2236 27.7763 40.0 27.5004 40.0 L 26.25 40.0 C 26.1119 40.0 26.0 39.8880 26.0 39.75 L 26.0 39.4995 C 26.0 39.2236 25.7763 39.0 25.5004 39.0 Z  M 29.4995 40.0 C 29.2236 40.0 29.0 40.2236 29.0 40.4995 L 29.0 40.5004 C 29.0 40.7763 29.2236 41.0 29.4995 41.0 L 29.5004 41.0 C 29.7763 41.0 30.0 40.7763 30.0 40.5004 L 30.0 40.4995 C 30.0 40.2236 29.7763 40.0 29.5004 40.0 Z  M 37.4995 27.0 C 37.2236 27.0 37.0 27.2236 37.0 27.4995 L 37.0 28.0 L 37.0 28.75 C 37.0 28.8880 36.8880 29.0 36.75 29.0 L 36.4995 29.0 C 36.2236 29.0 36.0 29.2236 36.0 29.4995 L 36.0 29.75 C 36.0 29.8880 35.8880 30.0 35.75 30.0 L 34.25 30.0 C 34.1119 30.0 34.0 29.8880 34.0 29.75 L 34.0 29.4995 C 34.0 29.2236 33.7763 29.0 33.5004 29.0 L 33.4995 29.0 C 33.2236 29.0 33.0 29.2236 33.0 29.4995 L 33.0 29.75 C 33.0 29.8880 32.8880 30.0 32.75 30.0 L 32.4995 30.0 C 32.2236 30.0 32.0 30.2236 32.0 30.4995 L 32.0 30.5004 C 32.0 30.7763 32.2236 31.0 32.4995 31.0 L 32.75 31.0 C 32.8880 31.0 33.0 31.1119 33.0 31.25 L 33.0 31.75 C 33.0 31.8880 32.8880 32.0 32.75 32.0 L 32.4995 32.0 C 32.2236 32.0 32.0 32.2236 32.0 32.4995 L 32.0 33.0 L 32.0 33.75 C 32.0 33.8880 31.8880 34.0 31.75 34.0 L 31.25 34.0 C 31.1119 34.0 31.0 33.8880 31.0 33.75 L 31.0 33.4995 C 31.0 33.2236 30.7763 33.0 30.5004 33.0 L 30.4995 33.0 C 30.2236 33.0 30.0 33.2236 30.0 33.4995 L 30.0 34.0 L 30.0 34.5004 C 30.0 34.7763 30.2236 35.0 30.4995 35.0 L 30.75 35.0 C 30.8880 35.0 31.0 35.1119 31.0 35.25 L 31.0 35.5004 C 31.0 35.7763 31.2236 36.0 31.4995 36.0 L 31.75 36.0 C 31.8880 36.0 32.0 36.1119 32.0 36.25 L 32.0 36.5004 C 32.0 36.7763 32.2236 37.0 32.4995 37.0 L 32.75 37.0 C 32.8880 37.0 33.0 37.1119 33.0 37.25 L 33.0 38.0 L 33.0 38.75 C 33.0 38.8880 32.8880 39.0 32.75 39.0 L 32.25 39.0 C 32.1119 39.0 32.0 38.8880 32.0 38.75 L 32.0 38.4995 C 32.0 38.2236 31.7763 38.0 31.5004 38.0 L 31.4995 38.0 C 31.2236 38.0 31.0 38.2236 31.0 38.4995 L 31.0 38.75 C 31.0 38.8880 30.8880 39.0 30.75 39.0 L 30.4995 39.0 C 30.2236 39.0 30.0 39.2236 30.0 39.4995 L 30.0 39.5004 C 30.0 39.7763 30.2236 40.0 30.4995 40.0 L 30.75 40.0 C 30.8880 40.0 31.0 40.1119 31.0 40.25 L 31.0 40.5004 C 31.0 40.7763 31.2236 41.0 31.4995 41.0 L 31.5004 41.0 C 31.7763 41.0 32.0 40.7763 32.0 40.5004 L 32.0 40.25 C 32.0 40.1119 32.1119 40.0 32.25 40.0 L 33.5004 40.0 C 33.7763 40.0 34.0 39.7763 34.0 39.5004 L 34.0 39.25 C 34.0 39.1119 34.1119 39.0 34.25 39.0 L 35.75 39.0 C 35.8880 39.0 36.0 39.1119 36.0 39.25 L 36.0 39.75 C 36.0 39.8880 35.8880 40.0 35.75 40.0 L 35.4995 40.0 C 35.2236 40.0 35.0 40.2236 35.0 40.4995 L 35.0 40.5004 C 35.0 40.7763 35.2236 41.0 35.4995 41.0 L 36.5004 41.0 C 36.7763 41.0 37.0 40.7763 37.0 40.5004 L 37.0 40.25 C 37.0 40.1119 37.1119 40.0 37.25 40.0 L 37.5004 40.0 C 37.7763 40.0 38.0 39.7763 38.0 39.5004 L 38.0 39.0 L 38.0 38.0 L 38.0 37.4995 C 38.0 37.2236 37.7763 37.0 37.5004 37.0 L 37.4995 37.0 C 37.2236 37.0 37.0 37.2236 37.0 37.4995 L 37.0 37.75 C 37.0 37.8880 36.8880 38.0 36.75 38.0 L 36.25 38.0 C 36.1119 38.0 36.0 37.8880 36.0 37.75 L 36.0 37.25 C 36.0 37.1119 36.1119 37.0 36.25 37.0 L 36.5004 37.0 C 36.7763 37.0 37.0 36.7763 37.0 36.5004 L 37.0 36.25 C 37.0 36.1119 37.1119 36.0 37.25 36.0 L 37.5004 36.0 C 37.7763 36.0 38.0 35.7763 38.0 35.5004 L 38.0 35.0 L 38.0 34.25 C 38.0 34.1119 38.1119 34.0 38.25 34.0 L 38.75 34.0 C 38.8880 34.0 39.0 34.1119 39.0 34.25 L 39.0 35.0 L 39.0 35.75 C 39.0 35.8880 38.8880 36.0 38.75 36.0 L 38.4995 36.0 C 38.2236 36.0 38.0 36.2236 38.0 36.4995 L 38.0 36.5004 C 38.0 36.7763 38.2236 37.0 38.4995 37.0 L 39.5004 37.0 C 39.7763 37.0 40.0 36.7763 40.0 36.5004 L 40.0 36.25 C 40.0 36.1119 40.1119 36.0 40.25 36.0 L 40.5004 36.0 C 40.7763 36.0 41.0 35.7763 41.0 35.5004 L 41.0 35.4995 C 41.0 35.2236 40.7763 35.0 40.5004 35.0 L 40.25 35.0 C 40.1119 35.0 40.0 34.8880 40.0 34.75 L 40.0 34.25 C 40.0 34.1119 40.1119 34.0 40.25 34.0 L 40.5004 34.0 C 40.7763 34.0 41.0 33.7763 41.0 33.5004 L 41.0 33.0 L 41.0 32.0 L 41.0 31.4995 C 41.0 31.2236 40.7763 31.0 40.5004 31.0 L 40.4995 31.0 C 40.2236 31.0 40.0 31.2236 40.0 31.4995 L 40.0 32.0 L 40.0 32.75 C 40.0 32.8880 39.8880 33.0 39.75 33.0 L 39.25 33.0 C 39.1119 33.0 39.0 32.8880 39.0 32.75 L 39.0 32.4995 C 39.0 32.2236 38.7763 32.0 38.5004 32.0 L 38.4995 32.0 C 38.2236 32.0 38.0 32.2236 38.0 32.4995 L 38.0 32.75 C 38.0 32.8880 37.8880 33.0 37.75 33.0 L 37.25 33.0 C 37.1119 33.0 37.0 32.8880 37.0 32.75 L 37.0 32.4995 C 37.0 32.2236 36.7763 32.0 36.5004 32.0 L 36.25 32.0 C 36.1119 32.0 36.0 31.8880 36.0 31.75 L 36.0 31.25 C 36.0 31.1119 36.1119 31.0 36.25 31.0 L 36.75 31.0 C 36.8880 31.0 37.0 31.1119 37.0 31.25 L 37.0 31.5004 C 37.0 31.7763 37.2236 32.0 37.4995 32.0 L 37.5004 32.0 C 37.7763 32.0 38.0 31.7763 38.0 31.5004 L 38.0 31.25 C 38.0 31.1119 38.1119 31.0 38.25 31.0 L 38.5004 31.0 C 38.7763 31.0 39.0 30.7763 39.0 30.5004 L 39.0 30.25 C 39.0 30.1119 39.1119 30.0 39.25 30.0 L 40.5004 30.0 C 40.7763 30.0 41.0 29.7763 41.0 29.5004 L 41.0 29.4995 C 41.0 29.2236 40.7763 29.0 40.5004 29.0 L 40.25 29.0 C 40.1119 29.0 40.0 28.8880 40.0 28.75 L 40.0 28.4995 C 40.0 28.2236 39.7763 28.0 39.5004 28.0 L 38.25 28.0 C 38.1119 28.0 38.0 27.8880 38.0 27.75 L 38.0 27.4995 C 38.0 27.2236 37.7763 27.0 37.5004 27.0 Z  M 38.4995 40.0 C 38.2236 40.0 38.0 40.2236 38.0 40.4995 L 38.0 40.5004 C 38.0 40.7763 38.2236 41.0 38.4995 41.0 L 38.5004 41.0 C 38.7763 41.0 39.0 40.7763 39.0 40.5004 L 39.0 40.4995 C 39.0 40.2236 38.7763 40.0 38.5004 40.0 Z "/></g></svg>
