<!DOCTYPE svg PUBLIC "-//W3C//DTD SVG 1.1//EN" "http://www.w3.org/Graphics/SVG/1.1/DTD/svg11.dtd">
<svg xmlns="http://www.w3.org/2000/svg" xmlns:xlink="http://www.w3.org/1999/xlink" xmlns:jfreesvg="http://www.jfree.org/jfreesvg/svg" width="304" height="304" text-rendering="auto" shape-rendering="auto">
<defs></defs>
<g style="fill: rgb(0,0,0); fill-opacity: 1.0; stroke: none" transform="matrix(8.0,0.0,0.0,8.0,0.0,0.0)" ><path d="M 20.5004 1.0 C 20.7763 1.0 21.0 1.2236 21.0 1.4995 L 21.0 1.5004 C 21.0 1.7763 20.7763 2.0 20.5004 2.0 L 20.4995 2.0 C 20.2236 2.0 20.0 1.7763 20.0 1.5004 L 20.0 1.4995 C 20.0 1.2236 20.2236 1.0 20.4995 1.0 Z  M 23.5004 2.0 C 23.7763 2.0 24.0 2.2236 24.0 2.4995 L 24.0 2.5004 C 24.0 2.7763 23.7763 3.0 23.5004 3.0 L 23.4995 3.0 C 23.2236 3.0 23.0 2.7763 23.0 2.5004 L 23.0 2.4995 C 23.0 2.2236 23.2236 2.0 23.4995 2.0 Z  M 21.5004 2.0 C 21.7763 2.0 22.0 2.2236 22.0 2.4995 L 22.0 3.0 L 22.0 3.5004 C 22.0 3.7763 21.7763 4.0 21.5004 4.0 L 21.4995 4.0 C 21.2236 4.0 21.0 3.7763 21.0 3.5004 L 21.0 3.0 L 21.0 2.4995 C 21.0 2.2236 21.2236 2.0 21.4995 2.0 Z  M 2.5 2.0 C 2.2238 2.0 2.0 2.2238 2.0 2.5 L 2.0 4.5 C 2.0 4.7761 2.2238 5.0 2.5 5.0 L 4.5 5.0 C 4.7761 5.0 5.0 4.7761 5.0 4.5 L 5.0 2.5 C 5.0 2.2238 4.7761 2.0 4.5 2.0 Z  M 15.5004 1.0 C 15.7763 1.0 16.0 1.2236 16.0 1.4995 L 16.0 2.0 L 16.0 3.0 L 16.0 4.0 L 17.0 4.0 L 17.0 3.4995 C 17.0 3.2236 17.2236 3.0 17.4995 3.0 L 19.0 3.0 L 19.0 2.4995 C 19.0 2.2236 19.2236 2.0 19.4995 2.0 L 19.5004 2.0 C 19.7763 2.0 20.0 2.2236 20.0 2.4995 L 20.0 3.0 L 20.0 3.5004 C 20.0 3.7763 19.7763 4.0 19.5004 4.0 L 19.0 4.0 L 19.0 4.5005 C 19.0 4.7763 18.7763 5.0 18.5004 5.0 L 15.4995 5.0 C 15.2236 5.0 15.0 4.7763 15.0 4.5005 L 15.0 4.0 L 15.0 3.0 L 15.0 2.0 L 15.0 1.4995 C 15.0 1.2236 15.2236 1.0 15.4995 1.0 Z  M 22.5004 4.0 C 22.7763 4.0 23.0 4.2236 23.0 4.4994 L 23.0 4.5005 C 23.0 4.7763 22.7763 5.0 22.5004 5.0 L 22.4995 5.0 C 22.2236 5.0 22.0 4.7763 22.0 4.5005 L 22.0 4.4994 C 22.0 4.2236 22.2236 4.0 22.4995 4.0 Z  M 26.5004 1.0 C 26.7763 1.0 27.0 1.2236 27.0 1.4995 L 27.0 2.0 L 27.0 2.5004 C 27.0 2.7763 26.7763 3.0 26.5004 3.0 L 26.0 3.0 L 26.0 4.0 L 26.0 4.5005 C 26.0 4.7763 25.7763 5.0 25.5004 5.0 L 24.4995 5.0 C 24.2236 5.0 24.0 4.7763 24.0 4.5005 L 24.0 4.0 L 24.0 3.4995 C 24.0 3.2236 24.2236 3.0 24.4995 3.0 L 25.0 3.0 L 25.0 2.4995 C 25.0 2.2236 25.2236 2.0 25.4995 2.0 L 26.0 2.0 L 26.0 1.4995 C 26.0 1.2236 26.2236 1.0 26.4995 1.0 Z  M 32.5 2.0 C 32.2238 2.0 32.0 2.2238 32.0 2.5 L 32.0 4.5 C 32.0 4.7761 32.2238 5.0 32.5 5.0 L 34.5 5.0 C 34.7761 5.0 35.0 4.7761 35.0 4.5 L 35.0 2.5 C 35.0 2.2238 34.7761 2.0 34.5 2.0 Z  M 5.5 1.0 C 5.7761 1.0 6.0 1.2238 6.0 1.5 L 6.0 5.5 C 6.0 5.7761 5.7761 6.0 5.5 6.0 L 1.5 6.0 C 1.2238 6.0 1.0 5.7761 1.0 5.5 L 1.0 1.5 C 1.0 1.2238 1.2238 1.0 1.5 1.0 Z  M 14.5004 5.0 C 14.7763 5.0 15.0 5.2236 15.0 5.4994 L 15.0 5.5005 C 15.0 5.7763 14.7763 6.0 14.5004 6.0 L 14.4995 6.0 C 14.2236 6.0 14.0 5.7763 14.0 5.5005 L 14.0 5.4994 C 14.0 5.2236 14.2236 5.0 14.4995 5.0 Z  M 26.5004 5.0 C 26.7763 5.0 27.0 5.2236 27.0 5.4994 L 27.0 5.5005 C 27.0 5.7763 26.7763 6.0 26.5004 6.0 L 26.4995 6.0 C 26.2236 6.0 26.0 5.7763 26.0 5.5005 L 26.0 5.4994 C 26.0 5.2236 26.2236 5.0 26.4995 5.0 Z  M 35.5 1.0 C 35.7761 1.0 36.0 1.2238 36.0 1.5 L 36.0 5.5 C 36.0 5.7761 35.7761 6.0 35.5 6.0 L 31.5 6.0 C 31.2238 6.0 31.0 5.7761 31.0 5.5 L 31.0 1.5 C 31.0 1.2238 31.2238 1.0 31.5 1.0 Z  M 0.0 0.0 L 0.0 7.0 L 7.0 7.0 L 7.0 0.0 Z  M 13.5004 6.0 C 13.7763 6.0 14.0 6.2236 14.0 6.4994 L 14.0 6.5005 C 14.0 6.7763 13.7763 7.0 13.5004 7.0 L 13.4995 7.0 C 13.2236 7.0 13.0 6.7763 13.0 6.5005 L 13.0 6.4994 C 13.0 6.2236 13.2236 6.0 13.4995 6.0 Z  M 17.5004 6.0 C 17.7763 6.0 18.0 6.2236 18.0 6.4994 L 18.0 6.5005 C 18.0 6.7763 17.7763 7.0 17.5004 7.0 L 17.4995 7.0 C 17.2236 7.0 17.0 6.7763 17.0 6.5005 L 17.0 6.4994 C 17.0 6.2236 17.2236 6.0 17.4995 6.0 Z  M 19.5004 6.0 C 19.7763 6.0 20.0 6.2236 20.0 6.4994 L 20.0 6.5005 C 20.0 6.7763 19.7763 7.0 19.5004 7.0 L 19.4995 7.0 C 19.2236 7.0 19.0 6.7763 19.0 6.5005 L 19.0 6.4994 C 19.0 6.2236 19.2236 6.0 19.4995 6.0 Z  M 20.5004 4.0 C 20.7763 4.0 21.0 4.2236 21.0 4.4994 L 21.0 5.0 L 21.5004 5.0 C 21.7763 5.0 22.0 5.2236 22.0 5.4994 L 22.0 6.0 L 22.0 6.5005 C 22.0 6.7763 21.7763 7.0 21.5004 7.0 L 21.4995 7.0 C 21.2236 7.0 21.0 6.7763 21.0 6.5005 L 21.0 6.0 L 20.4995 6.0 C 20.2236 6.0 20.0 5.7763 20.0 5.5005 L 20.0 5.0 L 20.0 4.4994 C 20.0 4.2236 20.2236 4.0 20.4995 4.0 Z  M 23.5004 6.0 C 23.7763 6.0 24.0 6.2236 24.0 6.4994 L 24.0 6.5005 C 24.0 6.7763 23.7763 7.0 23.5004 7.0 L 23.4995 7.0 C 23.2236 7.0 23.0 6.7763 23.0 6.5005 L 23.0 6.4994 C 23.0 6.2236 23.2236 6.0 23.4995 6.0 Z  M 25.5004 6.0 C 25.7763 6.0 26.0 6.2236 26.0 6.4994 L 26.0 6.5005 C 26.0 6.7763 25.7763 7.0 25.5004 7.0 L 25.4995 7.0 C 25.2236 7.0 25.0 6.7763 25.0 6.5005 L 25.0 6.4994 C 25.0 6.2236 25.2236 6.0 25.4995 6.0 Z  M 30.0 0.0 L 30.0 7.0 L 37.0 7.0 L 37.0 0.0 Z  M 15.5004 6.0 C 15.7763 6.0 16.0 6.2236 16.0 6.4994 L 16.0 7.0 L 16.5004 7.0 C 16.7763 7.0 17.0 7.2236 17.0 7.4994 L 17.0 7.5005 C 17.0 7.7763 16.7763 8.0 16.5004 8.0 L 15.4995 8.0 C 15.2236 8.0 15.0 7.7763 15.0 7.5005 L 15.0 7.0 L 15.0 6.4994 C 15.0 6.2236 15.2236 6.0 15.4995 6.0 Z  M 24.5004 7.0 C 24.7763 7.0 25.0 7.2236 25.0 7.4994 L 25.0 7.5005 C 25.0 7.7763 24.7763 8.0 24.5004 8.0 L 24.4995 8.0 C 24.2236 8.0 24.0 7.7763 24.0 7.5005 L 24.0 7.4994 C 24.0 7.2236 24.2236 7.0 24.4995 7.0 Z  M 27.5004 6.0 C 27.7763 6.0 28.0 6.2236 28.0 6.4994 L 28.0 7.0 L 28.0 7.5005 C 28.0 7.7763 27.7763 8.0 27.5004 8.0 L 27.4995 8.0 C 27.2236 8.0 27.0 7.7763 27.0 7.5005 L 27.0 7.0 L 27.0 6.4994 C 27.0 6.2236 27.2236 6.0 27.4995 6.0 Z  M 11.5004 1.0 C 11.7763 1.0 12.0 1.2236 12.0 1.4995 L 12.0 2.0 L 12.0 3.0 L 12.0 4.0 L 12.5004 4.0 C 12.7763 4.0 13.0 4.2236 13.0 4.4994 L 13.0 4.5005 C 13.0 4.7763 12.7763 5.0 12.5004 5.0 L 12.0 5.0 L 12.0 6.0 L 12.0 7.0 L 12.0 8.0 L 14.5004 8.0 C 14.7763 8.0 15.0 8.2236 15.0 8.4995 L 15.0 8.5004 C 15.0 8.7763 14.7763 9.0 14.5004 9.0 L 11.4995 9.0 C 11.2236 9.0 11.0 8.7763 11.0 8.5004 L 11.0 8.0 L 11.0 7.0 L 11.0 6.0 L 11.0 5.0 L 11.0 4.0 L 11.0 3.0 L 11.0 2.0 L 11.0 1.4995 C 11.0 1.2236 11.2236 1.0 11.4995 1.0 Z  M 20.5004 7.0 C 20.7763 7.0 21.0 7.2236 21.0 7.4994 L 21.0 8.0 L 21.0 8.5004 C 21.0 8.7763 20.7763 9.0 20.5004 9.0 L 20.4995 9.0 C 20.2236 9.0 20.0 8.7763 20.0 8.5004 L 20.0 8.0 L 20.0 7.4994 C 20.0 7.2236 20.2236 7.0 20.4995 7.0 Z  M 6.5005 9.0 C 6.7763 9.0 7.0 9.2236 7.0 9.4995 L 7.0 9.5004 C 7.0 9.7763 6.7763 10.0 6.5005 10.0 L 6.4994 10.0 C 6.2236 10.0 6.0 9.7763 6.0 9.5004 L 6.0 9.4995 C 6.0 9.2236 6.2236 9.0 6.4994 9.0 Z  M 18.5004 8.0 C 18.7763 8.0 19.0 8.2236 19.0 8.4995 L 19.0 9.0 L 19.0 9.5004 C 19.0 9.7763 18.7763 10.0 18.5004 10.0 L 18.4995 10.0 C 18.2236 10.0 18.0 9.7763 18.0 9.5004 L 18.0 9.0 L 17.4995 9.0 C 17.2236 9.0 17.0 8.7763 17.0 8.5004 L 17.0 8.4995 C 17.0 8.2236 17.2236 8.0 17.4995 8.0 Z  M 30.5004 9.0 C 30.7763 9.0 31.0 9.2236 31.0 9.4995 L 31.0 9.5004 C 31.0 9.7763 30.7763 10.0 30.5004 10.0 L 30.4995 10.0 C 30.2236 10.0 30.0 9.7763 30.0 9.5004 L 30.0 9.4995 C 30.0 9.2236 30.2236 9.0 30.4995 9.0 Z  M 4.5005 10.0 C 4.7763 10.0 5.0 10.2236 5.0 10.4995 L 5.0 10.5004 C 5.0 10.7763 4.7763 11.0 4.5005 11.0 L 4.4994 11.0 C 4.2236 11.0 4.0 10.7763 4.0 10.5004 L 4.0 10.4995 C 4.0 10.2236 4.2236 10.0 4.4994 10.0 Z  M 9.5004 8.0 C 9.7763 8.0 10.0 8.2236 10.0 8.4995 L 10.0 9.0 L 10.0 10.0 L 10.0 10.5004 C 10.0 10.7763 9.7763 11.0 9.5004 11.0 L 9.4995 11.0 C 9.2236 11.0 9.0 10.7763 9.0 10.5004 L 9.0 10.0 L 8.4995 10.0 C 8.2236 10.0 8.0 9.7763 8.0 9.5004 L 8.0 9.0 L 8.0 8.4995 C 8.0 8.2236 8.2236 8.0 8.4995 8.0 Z  M 12.5004 10.0 C 12.7763 10.0 13.0 10.2236 13.0 10.4995 L 13.0 10.5004 C 13.0 10.7763 12.7763 11.0 12.5004 11.0 L 12.4995 11.0 C 12.2236 11.0 12.0 10.7763 12.0 10.5004 L 12.0 10.4995 C 12.0 10.2236 12.2236 10.0 12.4995 10.0 Z  M 15.5004 9.0 C 15.7763 9.0 16.0 9.2236 16.0 9.4995 L 16.0 10.0 L 16.0 10.5004 C 16.0 10.7763 15.7763 11.0 15.5004 11.0 L 14.4995 11.0 C 14.2236 11.0 14.0 10.7763 14.0 10.5004 L 14.0 10.4995 C 14.0 10.2236 14.2236 10.0 14.4995 10.0 L 15.0 10.0 L 15.0 9.4995 C 15.0 9.2236 15.2236 9.0 15.4995 9.0 Z  M 17.5004 10.0 C 17.7763 10.0 18.0 10.2236 18.0 10.4995 L 18.0 10.5004 C 18.0 10.7763 17.7763 11.0 17.5004 11.0 L 17.4995 11.0 C 17.2236 11.0 17.0 10.7763 17.0 10.5004 L 17.0 10.4995 C 17.0 10.2236 17.2236 10.0 17.4995 10.0 Z  M 19.5004 10.0 C 19.7763 10.0 20.0 10.2236 20.0 10.4995 L 20.0 10.5004 C 20.0 10.7763 19.7763 11.0 19.5004 11.0 L 19.4995 11.0 C 19.2236 11.0 19.0 10.7763 19.0 10.5004 L 19.0 10.4995 C 19.0 10.2236 19.2236 10.0 19.4995 10.0 Z  M 26.5004 10.0 C 26.7763 10.0 27.0 10.2236 27.0 10.4995 L 27.0 10.5004 C 27.0 10.7763 26.7763 11.0 26.5004 11.0 L 26.4995 11.0 C 26.2236 11.0 26.0 10.7763 26.0 10.5004 L 26.0 10.4995 C 26.0 10.2236 26.2236 10.0 26.4995 10.0 Z  M 29.5004 10.0 C 29.7763 10.0 30.0 10.2236 30.0 10.4995 L 30.0 10.5004 C 30.0 10.7763 29.7763 11.0 29.5004 11.0 L 29.4995 11.0 C 29.2236 11.0 29.0 10.7763 29.0 10.5004 L 29.0 10.4995 C 29.0 10.2236 29.2236 10.0 29.4995 10.0 Z  M 1.5004 11.0 C 1.7763 11.0 2.0 11.2236 2.0 11.4995 L 2.0 11.5004 C 2.0 11.7763 1.7763 12.0 1.5004 12.0 L 1.4995 12.0 C 1.2236 12.0 1.0 11.7763 1.0 11.5004 L 1.0 11.4995 C 1.0 11.2236 1.2236 11.0 1.4995 11.0 Z  M 6.5005 11.0 C 6.7763 11.0 7.0 11.2236 7.0 11.4995 L 7.0 11.5004 C 7.0 11.7763 6.7763 12.0 6.5005 12.0 L 5.4994 12.0 C 5.2236 12.0 5.0 11.7763 5.0 11.5004 L 5.0 11.4995 C 5.0 11.2236 5.2236 11.0 5.4994 11.0 Z  M 8.5004 11.0 C 8.7763 11.0 9.0 11.2236 9.0 11.4995 L 9.0 11.5004 C 9.0 11.7763 8.7763 12.0 8.5004 12.0 L 8.4995 12.0 C 8.2236 12.0 8.0 11.7763 8.0 11.5004 L 8.0 11.4995 C 8.0 11.2236 8.2236 11.0 8.4995 11.0 Z  M 27.5004 11.0 C 27.7763 11.0 28.0 11.2236 28.0 11.4995 L 28.0 11.5004 C 28.0 11.7763 27.7763 12.0 27.5004 12.0 L 27.4995 12.0 C 27.2236 12.0 27.0 11.7763 27.0 11.5004 L 27.0 11.4995 C 27.0 11.2236 27.2236 11.0 27.4995 11.0 Z  M 30.5004 11.0 C 30.7763 11.0 31.0 11.2236 31.0 11.4995 L 31.0 11.5004 C 31.0 11.7763 30.7763 12.0 30.5004 12.0 L 30.4995 12.0 C 30.2236 12.0 30.0 11.7763 30.0 11.5004 L 30.0 11.4995 C 30.0 11.2236 30.2236 11.0 30.4995 11.0 Z  M 2.5004 12.0 C 2.7763 12.0 3.0 12.2236 3.0 12.4995 L 3.0 12.5004 C 3.0 12.7763 2.7763 13.0 2.5004 13.0 L 2.4995 13.0 C 2.2236 13.0 2.0 12.7763 2.0 12.5004 L 2.0 12.4995 C 2.0 12.2236 2.2236 12.0 2.4995 12.0 Z  M 7.5005 12.0 C 7.7763 12.0 8.0 12.2236 8.0 12.4995 L 8.0 12.5004 C 8.0 12.7763 7.7763 13.0 7.5005 13.0 L 7.4994 13.0 C 7.2236 13.0 7.0 12.7763 7.0 12.5004 L 7.0 12.4995 C 7.0 12.2236 7.2236 12.0 7.4994 12.0 Z  M 4.5005 12.0 C 4.7763 12.0 5.0 12.2236 5.0 12.4995 L 5.0 13.0 L 6.5005 13.0 C 6.7763 13.0 7.0 13.2236 7.0 13.4995 L 7.0 13.5004 C 7.0 13.7763 6.7763 14.0 6.5005 14.0 L 3.4995 14.0 C 3.2236 14.0 3.0 13.7763 3.0 13.5004 L 3.0 13.4995 C 3.0 13.2236 3.2236 13.0 3.4995 13.0 L 4.0 13.0 L 4.0 12.4995 C 4.0 12.2236 4.2236 12.0 4.4994 12.0 Z  M 29.5004 13.0 C 29.7763 13.0 30.0 13.2236 30.0 13.4995 L 30.0 13.5004 C 30.0 13.7763 29.7763 14.0 29.5004 14.0 L 29.4995 14.0 C 29.2236 14.0 29.0 13.7763 29.0 13.5004 L 29.0 13.4995 C 29.0 13.2236 29.2236 13.0 29.4995 13.0 Z  M 26.5004 12.0 C 26.7763 12.0 27.0 12.2236 27.0 12.4995 L 27.0 13.0 L 27.5004 13.0 C 27.7763 13.0 28.0 13.2236 28.0 13.4995 L 28.0 14.0 L 28.0 14.5004 C 28.0 14.7763 27.7763 15.0 27.5004 15.0 L 27.4995 15.0 C 27.2236 15.0 27.0 14.7763 27.0 14.5004 L 27.0 14.0 L 26.4995 14.0 C 26.2236 14.0 26.0 13.7763 26.0 13.5004 L 26.0 13.0 L 26.0 12.4995 C 26.0 12.2236 26.2236 12.0 26.4995 12.0 Z  M 30.5004 14.0 C 30.7763 14.0 31.0 14.2236 31.0 14.4995 L 31.0 14.5004 C 31.0 14.7763 30.7763 15.0 30.5004 15.0 L 30.4995 15.0 C 30.2236 15.0 30.0 14.7763 30.0 14.5004 L 30.0 14.4995 C 30.0 14.2236 30.2236 14.0 30.4995 14.0 Z  M 13.5880 15.2658 C 13.7769 15.2658 13.9555 15.3359 14.0927 15.4613 C 14.0856 15.5044 14.0824 15.5480 14.0833 15.5917 C 13.9475 15.7120 13.7715 15.7795 13.5880 15.7795 C 13.3701 15.7795 13.1642 15.6837 13.0233 15.5225 C 13.1642 15.3616 13.3701 15.2658 13.5880 15.2658 Z  M 17.3767 15.2658 C 17.5943 15.2658 17.8002 15.3616 17.9411 15.5226 C 17.8002 15.6837 17.5945 15.7795 17.3767 15.7795 C 17.1931 15.7795 17.0171 15.7120 16.8812 15.5920 C 16.8821 15.5480 16.8788 15.5042 16.8717 15.4614 C 17.0089 15.3359 17.1877 15.2658 17.3767 15.2658 Z  M 6.5005 15.0 C 6.7763 15.0 7.0 15.2236 7.0 15.4995 L 7.0 15.5004 C 7.0 15.7763 6.7763 16.0 6.5005 16.0 L 6.4994 16.0 C 6.2236 16.0 6.0 15.7763 6.0 15.5004 L 6.0 15.4995 C 6.0 15.2236 6.2236 15.0 6.4994 15.0 Z  M 8.5004 15.0 C 8.7763 15.0 9.0 15.2236 9.0 15.4995 L 9.0 15.5004 C 9.0 15.7763 8.7763 16.0 8.5004 16.0 L 8.4995 16.0 C 8.2236 16.0 8.0 15.7763 8.0 15.5004 L 8.0 15.4995 C 8.0 15.2236 8.2236 15.0 8.4995 15.0 Z  M 29.5004 15.0 C 29.7763 15.0 30.0 15.2236 30.0 15.4995 L 30.0 15.5004 C 30.0 15.7763 29.7763 16.0 29.5004 16.0 L 29.4995 16.0 C 29.2236 16.0 29.0 15.7763 29.0 15.5004 L 29.0 15.4995 C 29.0 15.2236 29.2236 15.0 29.4995 15.0 Z  M 16.1487 15.3171 C 16.2256 15.3171 16.2957 15.3491 16.3463 15.4070 C 16.3967 15.4649 16.4188 15.5388 16.4082 15.6148 L 16.3642 15.9345 C 16.3223 15.8823 16.2586 15.8486 16.1866 15.8486 C 16.0614 15.8486 15.9597 15.9501 15.9597 16.0752 C 15.9597 16.2004 16.0614 16.3018 16.1866 16.3018 C 16.2362 16.3018 16.2821 16.2856 16.3195 16.2585 L 16.3195 16.2588 L 16.1986 17.1350 L 14.7658 17.1350 L 14.6449 16.2585 L 14.6449 16.2583 C 14.6823 16.2856 14.7282 16.3018 14.7781 16.3018 C 14.9033 16.3018 15.0047 16.2004 15.0047 16.0752 C 15.0047 15.9501 14.9033 15.8486 14.7781 15.8486 C 14.7061 15.8486 14.6421 15.8823 14.6004 15.9345 L 14.5562 15.6148 C 14.5456 15.5388 14.5677 15.4649 14.6181 15.4070 C 14.6687 15.3491 14.7388 15.3171 14.8157 15.3171 Z  M 3.5004 17.0 C 3.7763 17.0 4.0 17.2236 4.0 17.4995 L 4.0 17.5004 C 4.0 17.7763 3.7763 18.0 3.5004 18.0 L 1.4995 18.0 C 1.2236 18.0 1.0 17.7763 1.0 17.5004 L 1.0 17.4995 C 1.0 17.2236 1.2236 17.0 1.4995 17.0 Z  M 4.5005 15.0 C 4.7763 15.0 5.0 15.2236 5.0 15.4995 L 5.0 16.0 L 5.5005 16.0 C 5.7763 16.0 6.0 16.2236 6.0 16.4995 L 6.0 17.0 L 7.5005 17.0 C 7.7763 17.0 8.0 17.2236 8.0 17.4995 L 8.0 17.5004 C 8.0 17.7763 7.7763 18.0 7.5005 18.0 L 5.4994 18.0 C 5.2236 18.0 5.0 17.7763 5.0 17.5004 L 5.0 17.0 L 4.4994 17.0 C 4.2236 17.0 4.0 16.7763 4.0 16.5004 L 4.0 16.0 L 3.4995 16.0 C 3.2236 16.0 3.0 15.7763 3.0 15.5004 L 3.0 15.4995 C 3.0 15.2236 3.2236 15.0 3.4995 15.0 Z  M 31.5004 15.0 C 31.7763 15.0 32.0 15.2236 32.0 15.4995 L 32.0 16.0 L 32.5004 16.0 C 32.7763 16.0 33.0 16.2236 33.0 16.4995 L 33.0 17.0 L 33.0 17.5004 C 33.0 17.7763 32.7763 18.0 32.5004 18.0 L 32.4995 18.0 C 32.2236 18.0 32.0 17.7763 32.0 17.5004 L 32.0 17.0 L 31.4995 17.0 C 31.2236 17.0 31.0 16.7763 31.0 16.5004 L 31.0 16.0 L 31.0 15.4995 C 31.0 15.2236 31.2236 15.0 31.4995 15.0 Z  M 20.0583 17.2028 C 19.9284 17.2028 19.8230 17.3082 19.8230 17.4380 C 19.8230 17.5679 19.9285 17.6733 20.0583 17.6733 L 21.1877 17.6733 C 21.2745 17.6733 21.3362 17.7216 21.3696 17.7675 C 21.3971 17.8051 21.4113 17.8637 21.4113 17.8971 C 21.4113 18.0270 21.5167 18.1324 21.6465 18.1324 C 21.7764 18.1324 21.8818 18.0270 21.8818 17.8971 C 21.8818 17.7962 21.8606 17.6988 21.8193 17.6086 C 21.8110 17.5901 21.7249 17.4425 21.6150 17.3505 C 21.5814 17.3223 21.4946 17.2745 21.4946 17.2745 C 21.3993 17.2270 21.2960 17.2028 21.1877 17.2028 Z  M 16.3183 17.6056 C 16.4176 17.6056 16.4986 17.6865 16.4986 17.7861 L 16.4986 17.9894 C 16.4986 18.0889 16.4176 18.1698 16.3183 18.1698 L 14.6464 18.1698 C 14.5468 18.1698 14.4659 18.0889 14.4659 17.9894 L 14.4659 17.7861 C 14.4659 17.6865 14.5468 17.6056 14.6464 17.6056 Z  M 4.5005 18.0 C 4.7763 18.0 5.0 18.2236 5.0 18.4995 L 5.0 18.5004 C 5.0 18.7763 4.7763 19.0 4.5005 19.0 L 4.4994 19.0 C 4.2236 19.0 4.0 18.7763 4.0 18.5004 L 4.0 18.4995 C 4.0 18.2236 4.2236 18.0 4.4994 18.0 Z  M 33.0 12.0 C 33.0 12.0 33.0 12.0 33.0 12.0 L 33.0 13.0 L 33.0 14.0 L 33.5004 14.0 C 33.7763 14.0 34.0 14.2236 34.0 14.4995 L 34.0 15.0 L 34.5004 15.0 C 34.7763 15.0 35.0 15.2236 35.0 15.4995 L 35.0 16.0 L 35.0 17.0 L 35.0 18.0 L 35.0 19.0 L 37.0 19.0 L 37.0 18.0 L 37.0 17.0 L 36.4995 17.0 C 36.2236 17.0 36.0 16.7763 36.0 16.5004 L 36.0 16.4995 C 36.0 16.2236 36.2236 16.0 36.4995 16.0 L 37.0 16.0 L 37.0 15.0 L 37.0 14.0 L 37.0 13.0 L 36.4995 13.0 C 36.2236 13.0 36.0 12.7763 36.0 12.5004 L 36.0 12.0 L 35.0 12.0 C 35.0 12.0 35.0 12.0 35.0 12.0 L 35.0 12.5004 C 35.0 12.7763 34.7763 13.0 34.5004 13.0 L 34.4995 13.0 C 34.2236 13.0 34.0 12.7763 34.0 12.5004 L 34.0 12.0 Z  M 23.9117 18.8129 L 24.0235 19.1823 L 23.7999 19.1823 L 23.9117 18.8129 Z  M 20.6023 20.6190 C 20.6891 20.7103 20.7856 20.7919 20.8894 20.8622 C 20.8138 20.9089 20.7334 20.9475 20.6494 20.9766 C 20.5221 21.0211 20.3877 21.0437 20.2501 21.0437 C 19.8870 21.0437 19.5524 20.8844 19.3251 20.6190 Z  M 9.5004 21.0 C 9.7763 21.0 10.0 21.2236 10.0 21.4995 L 10.0 21.5004 C 10.0 21.7763 9.7763 22.0 9.5004 22.0 L 9.4995 22.0 C 9.2236 22.0 9.0 21.7763 9.0 21.5004 L 9.0 21.4995 C 9.0 21.2236 9.2236 21.0 9.4995 21.0 Z  M 15.9826 20.5211 C 16.1051 20.5632 16.2322 20.5922 16.3618 20.6070 L 16.5322 22.6867 L 16.1597 22.6867 L 15.9826 20.5211 Z  M 21.3378 21.1171 L 21.3150 22.6867 L 20.9409 22.6867 L 20.9599 21.3578 C 21.0957 21.2948 21.2230 21.2138 21.3378 21.1171 Z  M 16.7534 16.5571 C 16.7750 16.5640 21.1877 16.5675 21.1877 16.5675 C 21.4411 16.5675 21.6861 16.6600 21.7783 16.7061 C 21.7802 16.7070 22.0411 16.8216 22.2708 17.1263 C 22.4397 17.3505 22.5171 17.7039 22.5171 17.8971 L 22.5171 20.7877 L 22.2108 22.6867 L 21.7858 22.6867 L 21.8115 20.9025 C 21.8131 20.7886 21.7329 20.6900 21.6209 20.6682 C 21.5461 20.6538 21.4705 20.6315 21.3964 20.6020 C 21.2004 20.5239 21.0247 20.3964 20.8879 20.2329 C 20.8432 20.1792 20.7771 20.1484 20.7075 20.1484 L 17.8153 20.1484 C 17.6927 20.1484 17.5908 20.2423 17.5807 20.3644 L 17.3906 22.6867 L 17.0047 22.6867 L 16.8143 20.3644 C 16.8042 20.2423 16.7023 20.1484 16.5797 20.1484 L 16.5783 20.1484 C 16.5748 20.1482 16.5710 20.1482 16.5675 20.1482 C 16.3089 20.1482 16.0583 20.0738 15.8428 19.9333 C 15.4642 19.6868 15.2381 19.2701 15.2381 18.8185 L 15.2381 18.6404 L 16.3183 18.6404 C 16.6772 18.6404 16.9691 18.3484 16.9691 17.9894 L 16.9691 17.7861 C 16.9691 17.5527 16.8456 17.3475 16.6604 17.2324 L 16.7534 16.5571 Z  M 4.5005 20.0 C 4.7763 20.0 5.0 20.2236 5.0 20.4995 L 5.0 20.5004 C 5.0 20.7763 4.7763 21.0 4.5005 21.0 L 4.0 21.0 L 4.0 21.5004 C 4.0 21.7763 3.7763 22.0 3.5004 22.0 L 3.0 22.0 L 3.0 22.5004 C 3.0 22.7763 2.7763 23.0 2.5004 23.0 L 2.4995 23.0 C 2.2236 23.0 2.0 22.7763 2.0 22.5004 L 2.0 22.0 L 2.0 21.0 L 2.0 20.4995 C 2.0 20.2236 2.2236 20.0 2.4995 20.0 Z  M 8.5004 22.0 C 8.7763 22.0 9.0 22.2236 9.0 22.4995 L 9.0 22.5004 C 9.0 22.7763 8.7763 23.0 8.5004 23.0 L 8.4995 23.0 C 8.2236 23.0 8.0 22.7763 8.0 22.5004 L 8.0 22.4995 C 8.0 22.2236 8.2236 22.0 8.4995 22.0 Z  M 25.0 22.0 L 25.0 23.0 L 26.0 23.0 L 26.0 22.0 Z  M 32.0 22.0 L 32.0 23.0 L 33.0 23.0 L 33.0 22.0 Z  M 14.1715 13.8426 C 14.0416 13.8426 13.9362 13.9477 13.9362 14.0779 C 13.9362 14.4480 14.0993 14.7807 14.3574 15.0078 C 14.3447 15.0179 14.3325 15.0282 14.3205 15.0393 C 14.1115 14.8821 13.8563 14.7953 13.5880 14.7953 C 13.1539 14.7953 12.7489 15.0289 12.5315 15.4047 C 12.4894 15.4776 12.4894 15.5673 12.5315 15.6402 C 12.7489 16.0164 13.1536 16.2501 13.5880 16.2501 C 13.7857 16.2501 13.9779 16.2021 14.1496 16.1129 L 14.3040 17.2324 C 14.1188 17.3475 13.9953 17.5526 13.9953 17.7860 L 13.9953 17.9893 C 13.9953 18.3484 14.2873 18.6404 14.6464 18.6404 L 14.7675 18.6404 L 14.7675 18.8185 C 14.7675 19.3900 15.0350 19.9204 15.4887 20.2597 L 15.7085 22.9413 C 15.7184 23.0634 15.8205 23.1573 15.9428 23.1573 L 17.6073 23.1573 C 17.7299 23.1573 17.8318 23.0634 17.8419 22.9413 L 18.0320 20.6190 L 18.7593 20.6190 C 18.7814 20.6606 18.8054 20.7011 18.8306 20.7404 L 18.8306 21.3710 C 18.8306 21.5011 18.9360 21.6063 19.0659 21.6063 C 19.1960 21.6063 19.3012 21.5011 19.3012 21.3710 L 19.3012 21.2232 C 19.4103 21.2973 19.5280 21.3587 19.6522 21.4056 L 19.6522 21.7905 C 19.6522 21.9204 19.7574 22.0258 19.8875 22.0258 C 20.0174 22.0258 20.1228 21.9204 20.1228 21.7905 L 20.1228 21.5096 C 20.1317 21.5102 20.1496 21.5105 20.1730 21.5105 C 20.2606 21.5105 20.4256 21.5061 20.4873 21.4973 L 20.4873 21.4973 L 20.4668 22.9187 C 20.4661 22.9818 20.4903 23.0425 20.5346 23.0872 C 20.5788 23.1321 20.6393 23.1573 20.7021 23.1573 L 22.4113 23.1573 C 22.5268 23.1573 22.6252 23.0736 22.6435 22.9594 L 22.9847 20.8439 C 22.9868 20.8314 22.9877 20.8190 22.9877 20.8065 L 22.9877 17.8971 C 22.9877 17.6359 22.9329 17.3837 22.8247 17.1477 C 22.8014 17.0966 22.6856 16.8976 22.6541 16.8533 C 22.5814 16.7517 22.4986 16.6583 22.4073 16.5741 L 22.4073 16.5741 C 23.1183 16.6411 23.6765 17.2414 23.6765 17.9698 L 23.6765 18.1613 L 23.3336 19.2948 C 23.3120 19.3661 23.3254 19.4432 23.3699 19.5030 C 23.4143 19.5628 23.4842 19.5981 23.5588 19.5981 L 24.2647 19.5981 C 24.3390 19.5981 24.4091 19.5628 24.4536 19.5030 C 24.4980 19.4432 24.5114 19.3661 24.4898 19.2948 L 24.1470 18.1613 L 24.1470 17.9698 C 24.1470 16.9371 23.3068 16.0969 22.2743 16.0969 L 17.9670 16.0969 C 18.1579 15.9912 18.3207 15.8350 18.4332 15.6404 C 18.4753 15.5675 18.4753 15.4776 18.4329 15.4047 C 18.2153 15.0287 17.8106 14.7953 17.3767 14.7953 C 17.1082 14.7953 16.8529 14.8821 16.6440 15.0395 C 16.6320 15.0284 16.6198 15.0179 16.6070 15.0078 C 16.8652 14.7805 17.0282 14.4478 17.0282 14.0779 C 17.0282 13.9477 16.9228 13.8426 16.7929 13.8426 C 16.6630 13.8426 16.5576 13.9477 16.5576 14.0779 C 16.5576 14.5016 16.2127 14.8466 15.7889 14.8466 L 15.1755 14.8466 C 14.7518 14.8466 14.4068 14.5016 14.4068 14.0779 C 14.4068 13.9477 14.3017 13.8426 14.1715 13.8426 Z  M 0.0 24.0 L 0.0 25.0 L 1.0 25.0 L 1.0 24.0 Z  M 27.0 24.0 L 27.0 25.0 L 27.0 26.0 L 28.0 26.0 L 28.0 25.0 L 28.0 24.0 Z  M 11.5004 26.0 C 11.7763 26.0 12.0 26.2236 12.0 26.4995 L 12.0 26.5004 C 12.0 26.7763 11.7763 27.0 11.5004 27.0 L 11.4995 27.0 C 11.2236 27.0 11.0 26.7763 11.0 26.5004 L 11.0 26.4995 C 11.0 26.2236 11.2236 26.0 11.4995 26.0 Z  M 6.5005 27.0 C 6.7763 27.0 7.0 27.2236 7.0 27.4995 L 7.0 27.5004 C 7.0 27.7763 6.7763 28.0 6.5005 28.0 L 6.4994 28.0 C 6.2236 28.0 6.0 27.7763 6.0 27.5004 L 6.0 27.4995 C 6.0 27.2236 6.2236 27.0 6.4994 27.0 Z  M 14.5004 27.0 C 14.7763 27.0 15.0 27.2236 15.0 27.4995 L 15.0 28.0 L 15.0 28.5004 C 15.0 28.7763 14.7763 29.0 14.5004 29.0 L 13.4995 29.0 C 13.2236 29.0 13.0 28.7763 13.0 28.5004 L 13.0 28.0 L 12.4995 28.0 C 12.2236 28.0 12.0 27.7763 12.0 27.5004 L 12.0 27.4995 C 12.0 27.2236 12.2236 27.0 12.4995 27.0 Z  M 20.5004 28.0 C 20.7763 28.0 21.0 28.2236 21.0 28.4995 L 21.0 28.5004 C 21.0 28.7763 20.7763 29.0 20.5004 29.0 L 20.4995 29.0 C 20.2236 29.0 20.0 28.7763 20.0 28.5004 L 20.0 28.4995 C 20.0 28.2236 20.2236 28.0 20.4995 28.0 Z  M 24.5004 28.0 C 24.7763 28.0 25.0 28.2236 25.0 28.4995 L 25.0 28.5004 C 25.0 28.7763 24.7763 29.0 24.5004 29.0 L 24.4995 29.0 C 24.2236 29.0 24.0 28.7763 24.0 28.5004 L 24.0 28.4995 C 24.0 28.2236 24.2236 28.0 24.4995 28.0 Z  M 16.5004 29.0 C 16.7763 29.0 17.0 29.2236 17.0 29.4995 L 17.0 29.5004 C 17.0 29.7763 16.7763 30.0 16.5004 30.0 L 16.4995 30.0 C 16.2236 30.0 16.0 29.7763 16.0 29.5004 L 16.0 29.4995 C 16.0 29.2236 16.2236 29.0 16.4995 29.0 Z  M 14.5004 30.0 C 14.7763 30.0 15.0 30.2236 15.0 30.4995 L 15.0 30.5004 C 15.0 30.7763 14.7763 31.0 14.5004 31.0 L 14.4995 31.0 C 14.2236 31.0 14.0 30.7763 14.0 30.5004 L 14.0 30.4995 C 14.0 30.2236 14.2236 30.0 14.4995 30.0 Z  M 25.5004 8.0 C 25.7763 8.0 26.0 8.2236 26.0 8.4995 L 26.0 9.0 L 26.0 9.5004 C 26.0 9.7763 25.7763 10.0 25.5004 10.0 L 24.0 10.0 L 24.0 11.0 L 24.0 12.0 L 24.5004 12.0 C 24.7763 12.0 25.0 12.2236 25.0 12.4995 L 25.0 13.0 L 25.0 14.0 L 25.0 15.0 L 25.0 16.0 L 25.0 17.0 L 26.0 17.0 L 26.0 16.4995 C 26.0 16.2236 26.2236 16.0 26.4995 16.0 L 28.5004 16.0 C 28.7763 16.0 29.0 16.2236 29.0 16.4995 L 29.0 16.5004 C 29.0 16.7763 28.7763 17.0 28.5004 17.0 L 28.0 17.0 L 28.0 18.0 L 28.5004 18.0 C 28.7763 18.0 29.0 18.2236 29.0 18.4995 L 29.0 19.0 L 31.5004 19.0 C 31.7763 19.0 32.0 19.2236 32.0 19.4995 L 32.0 19.5004 C 32.0 19.7763 31.7763 20.0 31.5004 20.0 L 28.4995 20.0 C 28.2236 20.0 28.0 19.7763 28.0 19.5004 L 28.0 19.0 L 27.4995 19.0 C 27.2236 19.0 27.0 18.7763 27.0 18.5004 L 27.0 18.0 L 26.0 18.0 L 26.0 18.5004 C 26.0 18.7763 25.7763 19.0 25.5004 19.0 L 25.0 19.0 L 25.0 20.0 L 25.0 21.0 L 26.0 21.0 L 26.0 20.4995 C 26.0 20.2236 26.2236 20.0 26.4995 20.0 L 27.5004 20.0 C 27.7763 20.0 28.0 20.2236 28.0 20.4995 L 28.0 21.0 L 28.5004 21.0 C 28.7763 21.0 29.0 21.2236 29.0 21.4995 L 29.0 21.5004 C 29.0 21.7763 28.7763 22.0 28.5004 22.0 L 28.0 22.0 L 28.0 23.0 L 28.5004 23.0 C 28.7763 23.0 29.0 23.2236 29.0 23.4995 L 29.0 24.0 L 29.0 25.0 L 29.0 26.0 L 29.5004 26.0 C 29.7763 26.0 30.0 26.2236 30.0 26.4995 L 30.0 27.0 L 30.0 27.5004 C 30.0 27.7763 29.7763 28.0 29.5004 28.0 L 28.4995 28.0 C 28.2236 28.0 28.0 27.7763 28.0 27.5004 L 28.0 27.0 L 26.4995 27.0 C 26.2236 27.0 26.0 26.7763 26.0 26.5004 L 26.0 26.0 L 26.0 25.0 L 24.0 25.0 L 24.0 26.0 L 24.5004 26.0 C 24.7763 26.0 25.0 26.2236 25.0 26.4995 L 25.0 26.5004 C 25.0 26.7763 24.7763 27.0 24.5004 27.0 L 24.0 27.0 L 24.0 27.5004 C 24.0 27.7763 23.7763 28.0 23.5004 28.0 L 23.0 28.0 L 23.0 28.5004 C 23.0 28.7763 22.7763 29.0 22.5004 29.0 L 22.4995 29.0 C 22.2236 29.0 22.0 28.7763 22.0 28.5004 L 22.0 28.0 L 22.0 27.0 L 21.4995 27.0 C 21.2236 27.0 21.0 26.7763 21.0 26.5004 L 21.0 26.4995 C 21.0 26.2236 21.2236 26.0 21.4995 26.0 L 22.0 26.0 L 22.0 25.0 L 18.0 25.0 L 18.0 26.0 L 18.5004 26.0 C 18.7763 26.0 19.0 26.2236 19.0 26.4995 L 19.0 26.5004 C 19.0 26.7763 18.7763 27.0 18.5004 27.0 L 18.0 27.0 L 18.0 28.0 L 18.5004 28.0 C 18.7763 28.0 19.0 28.2236 19.0 28.4995 L 19.0 29.0 L 19.5004 29.0 C 19.7763 29.0 20.0 29.2236 20.0 29.4995 L 20.0 29.5004 C 20.0 29.7763 19.7763 30.0 19.5004 30.0 L 19.0 30.0 L 19.0 30.5004 C 19.0 30.7763 18.7763 31.0 18.5004 31.0 L 17.4995 31.0 C 17.2236 31.0 17.0 30.7763 17.0 30.5004 L 17.0 30.4995 C 17.0 30.2236 17.2236 30.0 17.4995 30.0 L 18.0 30.0 L 18.0 29.0 L 17.4995 29.0 C 17.2236 29.0 17.0 28.7763 17.0 28.5004 L 17.0 28.0 L 17.0 27.0 L 17.0 26.0 L 16.4995 26.0 C 16.2236 26.0 16.0 25.7763 16.0 25.5004 L 16.0 25.0 L 14.0 25.0 L 14.0 25.5004 C 14.0 25.7763 13.7763 26.0 13.5004 26.0 L 13.4995 26.0 C 13.2236 26.0 13.0 25.7763 13.0 25.5004 L 13.0 25.0 L 12.4995 25.0 C 12.2236 25.0 12.0 24.7763 12.0 24.5004 L 12.0 24.0 L 9.4995 24.0 C 9.2236 24.0 9.0 23.7763 9.0 23.5004 L 9.0 23.4995 C 9.0 23.2236 9.2236 23.0 9.4995 23.0 L 12.0 23.0 L 12.0 22.0 L 12.0 21.0 L 12.0 20.0 L 10.4995 20.0 C 10.2236 20.0 10.0 19.7763 10.0 19.5004 L 10.0 19.0 L 8.4995 19.0 C 8.2236 19.0 8.0 18.7763 8.0 18.5004 L 8.0 18.4995 C 8.0 18.2236 8.2236 18.0 8.4995 18.0 L 9.0 18.0 L 9.0 17.0 L 9.0 16.4995 C 9.0 16.2236 9.2236 16.0 9.4995 16.0 L 9.5004 16.0 C 9.7763 16.0 10.0 16.2236 10.0 16.4995 L 10.0 17.0 L 10.5004 17.0 C 10.7763 17.0 11.0 17.2236 11.0 17.4995 L 11.0 18.0 L 12.0 18.0 L 12.0 17.0 L 12.0 16.0 L 11.4995 16.0 C 11.2236 16.0 11.0 15.7763 11.0 15.5004 L 11.0 15.0 L 9.4995 15.0 C 9.2236 15.0 9.0 14.7763 9.0 14.5004 L 9.0 14.0 L 8.4995 14.0 C 8.2236 14.0 8.0 13.7763 8.0 13.5004 L 8.0 13.4995 C 8.0 13.2236 8.2236 13.0 8.4995 13.0 L 9.0 13.0 L 9.0 12.4995 C 9.0 12.2236 9.2236 12.0 9.4995 12.0 L 9.5004 12.0 C 9.7763 12.0 10.0 12.2236 10.0 12.4995 L 10.0 13.0 L 10.0 14.0 L 11.0 14.0 L 11.0 13.0 L 11.0 12.0 L 11.0 11.4995 C 11.0 11.2236 11.2236 11.0 11.4995 11.0 L 11.5004 11.0 C 11.7763 11.0 12.0 11.2236 12.0 11.4995 L 12.0 12.0 L 13.0 12.0 L 13.0 11.4995 C 13.0 11.2236 13.2236 11.0 13.4995 11.0 L 13.5004 11.0 C 13.7763 11.0 14.0 11.2236 14.0 11.4995 L 14.0 12.0 L 18.0 12.0 L 18.0 11.4995 C 18.0 11.2236 18.2236 11.0 18.4995 11.0 L 18.5004 11.0 C 18.7763 11.0 19.0 11.2236 19.0 11.4995 L 19.0 12.0 L 20.0 12.0 L 20.0 11.4995 C 20.0 11.2236 20.2236 11.0 20.4995 11.0 L 20.5004 11.0 C 20.7763 11.0 21.0 11.2236 21.0 11.4995 L 21.0 12.0 L 22.0 12.0 L 22.0 11.0 L 22.0 10.0 L 21.4995 10.0 C 21.2236 10.0 21.0 9.7763 21.0 9.5004 L 21.0 9.4995 C 21.0 9.2236 21.2236 9.0 21.4995 9.0 L 22.0 9.0 L 22.0 8.4995 C 22.0 8.2236 22.2236 8.0 22.4995 8.0 L 22.5004 8.0 C 22.7763 8.0 23.0 8.2236 23.0 8.4995 L 23.0 9.0 L 25.0 9.0 L 25.0 8.4995 C 25.0 8.2236 25.2236 8.0 25.4995 8.0 Z  M 30.0 30.0 L 30.0 31.0 L 31.0 31.0 L 31.0 30.0 Z  M 35.5004 30.0 C 35.7763 30.0 36.0 30.2236 36.0 30.4995 L 36.0 30.5004 C 36.0 30.7763 35.7763 31.0 35.5004 31.0 L 35.4995 31.0 C 35.2236 31.0 35.0 30.7763 35.0 30.5004 L 35.0 30.4995 C 35.0 30.2236 35.2236 30.0 35.4995 30.0 Z  M 16.5004 31.0 C 16.7763 31.0 17.0 31.2236 17.0 31.4995 L 17.0 31.5004 C 17.0 31.7763 16.7763 32.0 16.5004 32.0 L 16.4995 32.0 C 16.2236 32.0 16.0 31.7763 16.0 31.5004 L 16.0 31.4995 C 16.0 31.2236 16.2236 31.0 16.4995 31.0 Z  M 21.5004 30.0 C 21.7763 30.0 22.0 30.2236 22.0 30.4995 L 22.0 30.5004 C 22.0 30.7763 21.7763 31.0 21.5004 31.0 L 21.0 31.0 L 21.0 31.5004 C 21.0 31.7763 20.7763 32.0 20.5004 32.0 L 20.4995 32.0 C 20.2236 32.0 20.0 31.7763 20.0 31.5004 L 20.0 31.0 L 20.0 30.4995 C 20.0 30.2236 20.2236 30.0 20.4995 30.0 Z  M 31.5004 29.0 C 31.7763 29.0 32.0 29.2236 32.0 29.4995 L 32.0 30.0 L 32.0 31.0 L 32.0 31.5004 C 32.0 31.7763 31.7763 32.0 31.5004 32.0 L 29.4995 32.0 C 29.2236 32.0 29.0 31.7763 29.0 31.5004 L 29.0 31.0 L 29.0 30.0 L 29.0 29.4995 C 29.0 29.2236 29.2236 29.0 29.4995 29.0 Z  M 10.5004 32.0 C 10.7763 32.0 11.0 32.2236 11.0 32.4995 L 11.0 32.5004 C 11.0 32.7763 10.7763 33.0 10.5004 33.0 L 9.4995 33.0 C 9.2236 33.0 9.0 32.7763 9.0 32.5004 L 9.0 32.4995 C 9.0 32.2236 9.2236 32.0 9.4995 32.0 Z  M 13.5004 31.0 C 13.7763 31.0 14.0 31.2236 14.0 31.4995 L 14.0 32.0 L 14.0 32.5004 C 14.0 32.7763 13.7763 33.0 13.5004 33.0 L 13.4995 33.0 C 13.2236 33.0 13.0 32.7763 13.0 32.5004 L 13.0 32.0 L 13.0 31.4995 C 13.0 31.2236 13.2236 31.0 13.4995 31.0 Z  M 21.5004 32.0 C 21.7763 32.0 22.0 32.2236 22.0 32.4995 L 22.0 32.5004 C 22.0 32.7763 21.7763 33.0 21.5004 33.0 L 21.4995 33.0 C 21.2236 33.0 21.0 32.7763 21.0 32.5004 L 21.0 32.4995 C 21.0 32.2236 21.2236 32.0 21.4995 32.0 Z  M 8.0 33.0 L 8.0 33.0 C 8.0 33.0 8.0 33.0 8.0 33.0 Z  M 11.5004 33.0 C 11.7763 33.0 12.0 33.2236 12.0 33.4995 L 12.0 33.5004 C 12.0 33.7763 11.7763 34.0 11.5004 34.0 L 11.4995 34.0 C 11.2236 34.0 11.0 33.7763 11.0 33.5004 L 11.0 33.4995 C 11.0 33.2236 11.2236 33.0 11.4995 33.0 Z  M 33.5004 33.0 C 33.7763 33.0 34.0 33.2236 34.0 33.4995 L 34.0 33.5004 C 34.0 33.7763 33.7763 34.0 33.5004 34.0 L 33.4995 34.0 C 33.2236 34.0 33.0 33.7763 33.0 33.5004 L 33.0 33.4995 C 33.0 33.2236 33.2236 33.0 33.4995 33.0 Z  M 2.5 32.0 C 2.2238 32.0 2.0 32.2238 2.0 32.5 L 2.0 34.5 C 2.0 34.7761 2.2238 35.0 2.5 35.0 L 4.5 35.0 C 4.7761 35.0 5.0 34.7761 5.0 34.5 L 5.0 32.5 C 5.0 32.2238 4.7761 32.0 4.5 32.0 Z  M 9.5004 34.0 C 9.7763 34.0 10.0 34.2236 10.0 34.4995 L 10.0 34.5004 C 10.0 34.7763 9.7763 35.0 9.5004 35.0 L 9.4995 35.0 C 9.2236 35.0 9.0 34.7763 9.0 34.5004 L 9.0 34.4995 C 9.0 34.2236 9.2236 34.0 9.4995 34.0 Z  M 14.5004 33.0 C 14.7763 33.0 15.0 33.2236 15.0 33.4995 L 15.0 34.0 L 15.0 34.5004 C 15.0 34.7763 14.7763 35.0 14.5004 35.0 L 14.4995 35.0 C 14.2236 35.0 14.0 34.7763 14.0 34.5004 L 14.0 34.0 L 14.0 33.4995 C 14.0 33.2236 14.2236 33.0 14.4995 33.0 Z  M 19.5004 32.0 C 19.7763 32.0 20.0 32.2236 20.0 32.4995 L 20.0 32.5004 C 20.0 32.7763 19.7763 33.0 19.5004 33.0 L 19.0 33.0 L 19.0 34.0 L 19.0 34.5004 C 19.0 34.7763 18.7763 35.0 18.5004 35.0 L 18.4995 35.0 C 18.2236 35.0 18.0 34.7763 18.0 34.5004 L 18.0 34.0 L 17.0 34.0 L 17.0 34.5004 C 17.0 34.7763 16.7763 35.0 16.5004 35.0 L 16.4995 35.0 C 16.2236 35.0 16.0 34.7763 16.0 34.5004 L 16.0 34.0 L 16.0 33.4995 C 16.0 33.2236 16.2236 33.0 16.4995 33.0 L 18.0 33.0 L 18.0 32.4995 C 18.0 32.2236 18.2236 32.0 18.4995 32.0 Z  M 28.5004 34.0 C 28.7763 34.0 29.0 34.2236 29.0 34.4995 L 29.0 34.5004 C 29.0 34.7763 28.7763 35.0 28.5004 35.0 L 28.4995 35.0 C 28.2236 35.0 28.0 34.7763 28.0 34.5004 L 28.0 34.4995 C 28.0 34.2236 28.2236 34.0 28.4995 34.0 Z  M 30.5004 33.0 C 30.7763 33.0 31.0 33.2236 31.0 33.4995 L 31.0 34.0 L 31.0 34.5004 C 31.0 34.7763 30.7763 35.0 30.5004 35.0 L 30.4995 35.0 C 30.2236 35.0 30.0 34.7763 30.0 34.5004 L 30.0 34.0 L 30.0 33.4995 C 30.0 33.2236 30.2236 33.0 30.4995 33.0 Z  M 5.5 31.0 C 5.7761 31.0 6.0 31.2238 6.0 31.5 L 6.0 35.5 C 6.0 35.7761 5.7761 36.0 5.5 36.0 L 1.5 36.0 C 1.2238 36.0 1.0 35.7761 1.0 35.5 L 1.0 31.5 C 1.0 31.2238 1.2238 31.0 1.5 31.0 Z  M 19.5004 35.0 C 19.7763 35.0 20.0 35.2236 20.0 35.4995 L 20.0 35.5004 C 20.0 35.7763 19.7763 36.0 19.5004 36.0 L 19.4995 36.0 C 19.2236 36.0 19.0 35.7763 19.0 35.5004 L 19.0 35.4995 C 19.0 35.2236 19.2236 35.0 19.4995 35.0 Z  M 29.5004 35.0 C 29.7763 35.0 30.0 35.2236 30.0 35.4995 L 30.0 35.5004 C 30.0 35.7763 29.7763 36.0 29.5004 36.0 L 29.4995 36.0 C 29.2236 36.0 29.0 35.7763 29.0 35.5004 L 29.0 35.4995 C 29.0 35.2236 29.2236 35.0 29.4995 35.0 Z  M 8.0 36.0 L 8.0 36.0 C 8.0 36.0 8.0 36.0 8.0 36.0 Z  M 0.0 30.0 L 0.0 37.0 L 7.0 37.0 L 7.0 30.0 Z  M 8.0 0.0 L 8.0 1.0 L 8.0 2.0 L 8.0 3.0 L 8.0 4.0 L 8.0 5.0 L 9.0 5.0 L 9.0 4.0 L 9.0 3.0 L 9.0 2.0 L 9.0 1.4995 C 9.0 1.2236 9.2236 1.0 9.4995 1.0 L 9.5004 1.0 C 9.7763 1.0 10.0 1.2236 10.0 1.4995 L 10.0 2.0 L 10.0 3.0 L 10.0 4.0 L 10.0 5.0 L 10.0 6.0 L 10.0 6.5005 C 10.0 6.7763 9.7763 7.0 9.5004 7.0 L 9.4995 7.0 C 9.2236 7.0 9.0 6.7763 9.0 6.5005 L 9.0 6.0 L 8.0 6.0 L 8.0 7.0 L 8.0 7.5005 C 8.0 7.7763 7.7763 8.0 7.5005 8.0 L 6.0 8.0 L 6.0 8.5004 C 6.0 8.7763 5.7763 9.0 5.5005 9.0 L 5.4994 9.0 C 5.2236 9.0 5.0 8.7763 5.0 8.5004 L 5.0 8.0 L 4.0 8.0 L 4.0 8.5004 C 4.0 8.7763 3.7763 9.0 3.5004 9.0 L 3.4995 9.0 C 3.2236 9.0 3.0 8.7763 3.0 8.5004 L 3.0 8.0 L 1.0 8.0 L 1.0 9.0 L 2.5004 9.0 C 2.7763 9.0 3.0 9.2236 3.0 9.4995 L 3.0 10.0 L 3.0 10.5004 C 3.0 10.7763 2.7763 11.0 2.5004 11.0 L 2.4995 11.0 C 2.2236 11.0 2.0 10.7763 2.0 10.5004 L 2.0 10.0 L 0.0 10.0 L 0.0 11.0 L 0.0 12.0 L 0.5004 12.0 C 0.7763 12.0 1.0 12.2236 1.0 12.4995 L 1.0 13.0 L 1.0 13.5004 C 1.0 13.7763 0.7763 14.0 0.5004 14.0 L 0.0 14.0 L 0.0 15.0 L 1.5004 15.0 C 1.7763 15.0 2.0 15.2236 2.0 15.4995 L 2.0 15.5004 C 2.0 15.7763 1.7763 16.0 1.5004 16.0 L 0.0 16.0 L 0.0 17.0 L 0.0 18.0 L 0.0 19.0 L 0.0 20.0 L 0.0 21.0 L 0.0 22.0 L 0.5004 22.0 C 0.7763 22.0 1.0 22.2236 1.0 22.4995 L 1.0 23.0 L 1.5004 23.0 C 1.7763 23.0 2.0 23.2236 2.0 23.4995 L 2.0 24.0 L 2.0 25.0 L 3.0 25.0 L 3.0 24.0 L 3.0 23.4995 C 3.0 23.2236 3.2236 23.0 3.4995 23.0 L 4.0 23.0 L 4.0 22.4995 C 4.0 22.2236 4.2236 22.0 4.4994 22.0 L 5.0 22.0 L 5.0 21.4995 C 5.0 21.2236 5.2236 21.0 5.4994 21.0 L 7.0 21.0 L 7.0 20.0 L 6.4994 20.0 C 6.2236 20.0 6.0 19.7763 6.0 19.5004 L 6.0 19.4995 C 6.0 19.2236 6.2236 19.0 6.4994 19.0 L 7.5005 19.0 C 7.7763 19.0 8.0 19.2236 8.0 19.4995 L 8.0 20.0 L 8.5004 20.0 C 8.7763 20.0 9.0 20.2236 9.0 20.4995 L 9.0 20.5004 C 9.0 20.7763 8.7763 21.0 8.5004 21.0 L 8.0 21.0 L 8.0 21.5004 C 8.0 21.7763 7.7763 22.0 7.5005 22.0 L 6.0 22.0 L 6.0 23.0 L 7.5005 23.0 C 7.7763 23.0 8.0 23.2236 8.0 23.4995 L 8.0 24.0 L 8.5004 24.0 C 8.7763 24.0 9.0 24.2236 9.0 24.4995 L 9.0 25.0 L 10.5004 25.0 C 10.7763 25.0 11.0 25.2236 11.0 25.4995 L 11.0 25.5004 C 11.0 25.7763 10.7763 26.0 10.5004 26.0 L 9.0 26.0 L 9.0 26.5004 C 9.0 26.7763 8.7763 27.0 8.5004 27.0 L 7.4994 27.0 C 7.2236 27.0 7.0 26.7763 7.0 26.5004 L 7.0 26.0 L 6.4994 26.0 C 6.2236 26.0 6.0 25.7763 6.0 25.5004 L 6.0 25.4995 C 6.0 25.2236 6.2236 25.0 6.4994 25.0 L 7.0 25.0 L 7.0 24.0 L 6.0 24.0 L 6.0 24.5004 C 6.0 24.7763 5.7763 25.0 5.5005 25.0 L 5.0 25.0 L 5.0 25.5004 C 5.0 25.7763 4.7763 26.0 4.5005 26.0 L 3.0 26.0 L 3.0 26.5004 C 3.0 26.7763 2.7763 27.0 2.5004 27.0 L 1.4995 27.0 C 1.2236 27.0 1.0 26.7763 1.0 26.5004 L 1.0 26.0 L 0.0 26.0 L 0.0 27.0 L 0.5004 27.0 C 0.7763 27.0 1.0 27.2236 1.0 27.4995 L 1.0 27.5004 C 1.0 27.7763 0.7763 28.0 0.5004 28.0 L 0.0 28.0 L 0.0 29.0 L 1.0 29.0 L 1.0 28.4995 C 1.0 28.2236 1.2236 28.0 1.4995 28.0 L 1.5004 28.0 C 1.7763 28.0 2.0 28.2236 2.0 28.4995 L 2.0 29.0 L 4.0 29.0 L 4.0 28.4995 C 4.0 28.2236 4.2236 28.0 4.4994 28.0 L 4.5005 28.0 C 4.7763 28.0 5.0 28.2236 5.0 28.4995 L 5.0 29.0 L 7.0 29.0 L 7.0 28.4995 C 7.0 28.2236 7.2236 28.0 7.4994 28.0 L 11.5004 28.0 C 11.7763 28.0 12.0 28.2236 12.0 28.4995 L 12.0 29.0 L 12.0 30.0 L 12.5004 30.0 C 12.7763 30.0 13.0 30.2236 13.0 30.4995 L 13.0 30.5004 C 13.0 30.7763 12.7763 31.0 12.5004 31.0 L 9.4995 31.0 C 9.2236 31.0 9.0 30.7763 9.0 30.5004 L 9.0 30.4995 C 9.0 30.2236 9.2236 30.0 9.4995 30.0 L 10.0 30.0 L 10.0 29.0 L 8.0 29.0 L 8.0 30.0 L 8.0 31.0 L 8.5004 31.0 C 8.7763 31.0 9.0 31.2236 9.0 31.4995 L 9.0 31.5004 C 9.0 31.7763 8.7763 32.0 8.5004 32.0 L 8.0 32.0 L 8.0 33.0 L 8.5004 33.0 C 8.7763 33.0 9.0 33.2236 9.0 33.4995 L 9.0 33.5004 C 9.0 33.7763 8.7763 34.0 8.5004 34.0 L 8.0 34.0 L 8.0 35.0 L 8.0 36.0 L 10.0 36.0 L 10.0 35.4995 C 10.0 35.2236 10.2236 35.0 10.4995 35.0 L 12.0 35.0 L 12.0 34.4995 C 12.0 34.2236 12.2236 34.0 12.4995 34.0 L 12.5004 34.0 C 12.7763 34.0 13.0 34.2236 13.0 34.4995 L 13.0 35.0 L 13.0 35.5004 C 13.0 35.7763 12.7763 36.0 12.5004 36.0 L 12.0 36.0 L 12.0 37.0 L 14.0 37.0 L 14.0 36.4995 C 14.0 36.2236 14.2236 36.0 14.4995 36.0 L 15.5004 36.0 C 15.7763 36.0 16.0 36.2236 16.0 36.4995 L 16.0 37.0 L 17.0 37.0 L 17.0 36.0 L 17.0 35.4995 C 17.0 35.2236 17.2236 35.0 17.4995 35.0 L 17.5004 35.0 C 17.7763 35.0 18.0 35.2236 18.0 35.4995 L 18.0 36.0 L 18.0 37.0 L 23.0 37.0 L 23.0 36.4995 C 23.0 36.2236 23.2236 36.0 23.4995 36.0 L 23.5004 36.0 C 23.7763 36.0 24.0 36.2236 24.0 36.4995 L 24.0 37.0 L 26.0 37.0 L 26.0 36.0 L 26.0 35.0 L 26.0 34.0 L 25.0 34.0 L 25.0 35.0 L 25.0 35.5004 C 25.0 35.7763 24.7763 36.0 24.5004 36.0 L 24.4995 36.0 C 24.2236 36.0 24.0 35.7763 24.0 35.5004 L 24.0 35.0 L 23.4995 35.0 C 23.2236 35.0 23.0 34.7763 23.0 34.5004 L 23.0 34.4995 C 23.0 34.2236 23.2236 34.0 23.4995 34.0 L 24.0 34.0 L 24.0 33.0 L 24.0 32.0 L 24.0 31.0 L 23.4995 31.0 C 23.2236 31.0 23.0 30.7763 23.0 30.5004 L 23.0 30.0 L 23.0 29.4995 C 23.0 29.2236 23.2236 29.0 23.4995 29.0 L 23.5004 29.0 C 23.7763 29.0 24.0 29.2236 24.0 29.4995 L 24.0 30.0 L 25.0 30.0 L 25.0 29.4995 C 25.0 29.2236 25.2236 29.0 25.4995 29.0 L 26.0 29.0 L 26.0 28.4995 C 26.0 28.2236 26.2236 28.0 26.4995 28.0 L 27.5004 28.0 C 27.7763 28.0 28.0 28.2236 28.0 28.4995 L 28.0 29.0 L 28.0 29.5004 C 28.0 29.7763 27.7763 30.0 27.5004 30.0 L 26.0 30.0 L 26.0 30.5004 C 26.0 30.7763 25.7763 31.0 25.5004 31.0 L 25.0 31.0 L 25.0 32.0 L 25.0 33.0 L 26.0 33.0 L 26.0 32.0 L 26.0 31.4995 C 26.0 31.2236 26.2236 31.0 26.4995 31.0 L 27.5004 31.0 C 27.7763 31.0 28.0 31.2236 28.0 31.4995 L 28.0 32.0 L 28.0 32.5004 C 28.0 32.7763 27.7763 33.0 27.5004 33.0 L 27.0 33.0 L 27.0 34.0 L 27.0 35.0 L 27.0 36.0 L 27.0 37.0 L 32.0 37.0 L 32.0 36.0 L 31.4995 36.0 C 31.2236 36.0 31.0 35.7763 31.0 35.5004 L 31.0 35.4995 C 31.0 35.2236 31.2236 35.0 31.4995 35.0 L 34.0 35.0 L 34.0 34.4995 C 34.0 34.2236 34.2236 34.0 34.4995 34.0 L 35.0 34.0 L 35.0 33.0 L 34.4995 33.0 C 34.2236 33.0 34.0 32.7763 34.0 32.5004 L 34.0 32.0 L 33.4995 32.0 C 33.2236 32.0 33.0 31.7763 33.0 31.5004 L 33.0 31.0 L 33.0 30.0 L 33.0 29.0 L 33.0 28.0 L 33.0 27.4995 C 33.0 27.2236 33.2236 27.0 33.4995 27.0 L 35.5004 27.0 C 35.7763 27.0 36.0 27.2236 36.0 27.4995 L 36.0 27.5004 C 36.0 27.7763 35.7763 28.0 35.5004 28.0 L 35.0 28.0 L 35.0 29.0 L 35.0 29.5004 C 35.0 29.7763 34.7763 30.0 34.5004 30.0 L 34.0 30.0 L 34.0 31.0 L 34.5004 31.0 C 34.7763 31.0 35.0 31.2236 35.0 31.4995 L 35.0 32.0 L 35.5004 32.0 C 35.7763 32.0 36.0 32.2236 36.0 32.4995 L 36.0 33.0 L 36.0 34.0 L 36.0 34.5004 C 36.0 34.7763 35.7763 35.0 35.5004 35.0 L 35.0 35.0 L 35.0 36.0 L 35.0 37.0 L 37.0 37.0 L 37.0 36.0 L 36.4995 36.0 C 36.2236 36.0 36.0 35.7763 36.0 35.5004 L 36.0 35.4995 C 36.0 35.2236 36.2236 35.0 36.4995 35.0 L 37.0 35.0 L 37.0 34.0 L 37.0 33.0 L 37.0 32.0 L 37.0 31.0 L 37.0 30.0 L 37.0 29.0 L 36.4995 29.0 C 36.2236 29.0 36.0 28.7763 36.0 28.5004 L 36.0 28.4995 C 36.0 28.2236 36.2236 28.0 36.4995 28.0 L 37.0 28.0 L 37.0 27.0 L 37.0 26.0 L 37.0 25.0 L 36.4995 25.0 C 36.2236 25.0 36.0 24.7763 36.0 24.5004 L 36.0 24.4995 C 36.0 24.2236 36.2236 24.0 36.4995 24.0 L 37.0 24.0 L 37.0 23.0 L 37.0 22.0 L 37.0 21.0 L 37.0 20.0 L 36.0 20.0 L 36.0 20.5004 C 36.0 20.7763 35.7763 21.0 35.5004 21.0 L 34.0 21.0 L 34.0 22.0 L 34.5004 22.0 C 34.7763 22.0 35.0 22.2236 35.0 22.4995 L 35.0 23.0 L 35.0 24.0 L 35.0 25.0 L 35.0 25.5004 C 35.0 25.7763 34.7763 26.0 34.5004 26.0 L 32.0 26.0 L 32.0 26.5004 C 32.0 26.7763 31.7763 27.0 31.5004 27.0 L 31.4995 27.0 C 31.2236 27.0 31.0 26.7763 31.0 26.5004 L 31.0 26.0 L 30.4995 26.0 C 30.2236 26.0 30.0 25.7763 30.0 25.5004 L 30.0 25.0 L 30.0 24.4995 C 30.0 24.2236 30.2236 24.0 30.4995 24.0 L 30.5004 24.0 C 30.7763 24.0 31.0 24.2236 31.0 24.4995 L 31.0 25.0 L 32.0 25.0 L 32.0 24.0 L 31.4995 24.0 C 31.2236 24.0 31.0 23.7763 31.0 23.5004 L 31.0 23.0 L 30.4995 23.0 C 30.2236 23.0 30.0 22.7763 30.0 22.5004 L 30.0 22.4995 C 30.0 22.2236 30.2236 22.0 30.4995 22.0 L 31.0 22.0 L 31.0 21.4995 C 31.0 21.2236 31.2236 21.0 31.4995 21.0 L 32.0 21.0 L 32.0 20.4995 C 32.0 20.2236 32.2236 20.0 32.4995 20.0 L 33.0 20.0 L 33.0 19.4995 C 33.0 19.2236 33.2236 19.0 33.4995 19.0 L 34.0 19.0 L 34.0 18.0 L 34.0 17.0 L 34.0 16.0 L 33.4995 16.0 C 33.2236 16.0 33.0 15.7763 33.0 15.5004 L 33.0 15.0 L 32.4995 15.0 C 32.2236 15.0 32.0 14.7763 32.0 14.5004 L 32.0 14.0 L 31.4995 14.0 C 31.2236 14.0 31.0 13.7763 31.0 13.5004 L 31.0 13.4995 C 31.0 13.2236 31.2236 13.0 31.4995 13.0 L 32.0 13.0 C 32.0 13.0 32.0 13.0 32.0 13.0 L 32.0 12.0 L 32.0 11.0 L 31.4995 11.0 C 31.2236 11.0 31.0 10.7763 31.0 10.5004 L 31.0 10.4995 C 31.0 10.2236 31.2236 10.0 31.4995 10.0 L 32.0 10.0 C 32.0 10.0 32.0 10.0 32.0 10.0 L 32.0 9.4995 C 32.0 9.2236 32.2236 9.0 32.4995 9.0 L 32.5004 9.0 C 32.7763 9.0 33.0 9.2236 33.0 9.4995 L 33.0 10.0 L 33.0 11.0 L 34.0 11.0 C 34.0 11.0 34.0 11.0 34.0 11.0 L 34.0 10.4995 C 34.0 10.2236 34.2236 10.0 34.4995 10.0 L 35.5004 10.0 C 35.7763 10.0 36.0 10.2236 36.0 10.4995 L 36.0 11.0 L 37.0 11.0 C 37.0 11.0 37.0 11.0 37.0 11.0 L 37.0 10.0 L 37.0 9.0 L 37.0 8.0 L 32.0 8.0 L 32.0 8.5004 C 32.0 8.7763 31.7763 9.0 31.5004 9.0 L 31.4995 9.0 C 31.2236 9.0 31.0 8.7763 31.0 8.5004 L 31.0 8.0 L 30.0 8.0 L 30.0 8.5004 C 30.0 8.7763 29.7763 9.0 29.5004 9.0 L 29.4995 9.0 C 29.2236 9.0 29.0 8.7763 29.0 8.5004 L 29.0 8.0 L 29.0 7.0 L 29.0 6.0 L 29.0 5.0 L 29.0 4.0 L 28.4995 4.0 C 28.2236 4.0 28.0 3.7763 28.0 3.5004 L 28.0 3.4995 C 28.0 3.2236 28.2236 3.0 28.4995 3.0 L 29.0 3.0 L 29.0 2.0 L 28.4995 2.0 C 28.2236 2.0 28.0 1.7763 28.0 1.5004 L 28.0 1.0 L 28.0 0.0 L 26.0 0.0 L 26.0 0.5004 C 26.0 0.7763 25.7763 1.0 25.5004 1.0 L 25.4995 1.0 C 25.2236 1.0 25.0 0.7763 25.0 0.5004 L 25.0 0.0 L 24.0 0.0 L 24.0 0.5004 C 24.0 0.7763 23.7763 1.0 23.5004 1.0 L 23.0 1.0 L 23.0 1.5004 C 23.0 1.7763 22.7763 2.0 22.5004 2.0 L 22.4995 2.0 C 22.2236 2.0 22.0 1.7763 22.0 1.5004 L 22.0 1.0 L 22.0 0.0 L 19.0 0.0 L 19.0 0.5004 C 19.0 0.7763 18.7763 1.0 18.5004 1.0 L 18.0 1.0 L 18.0 1.5004 C 18.0 1.7763 17.7763 2.0 17.5004 2.0 L 17.4995 2.0 C 17.2236 2.0 17.0 1.7763 17.0 1.5004 L 17.0 1.0 L 17.0 0.0 L 14.0 0.0 L 14.0 0.5004 C 14.0 0.7763 13.7763 1.0 13.5004 1.0 L 12.4995 1.0 C 12.2236 1.0 12.0 0.7763 12.0 0.5004 L 12.0 0.0 L 11.0 0.0 L 11.0 0.5004 C 11.0 0.7763 10.7763 1.0 10.5004 1.0 L 10.4995 1.0 C 10.2236 1.0 10.0 0.7763 10.0 0.5004 L 10.0 0.0 Z  M 12.0 37.0 L 12.0 37.0 C 12.0 37.0 12.0 37.0 12.0 37.0 Z "/></g></svg>
