<!DOCTYPE svg PUBLIC "-//W3C//DTD SVG 1.1//EN" "http://www.w3.org/Graphics/SVG/1.1/DTD/svg11.dtd">
<svg xmlns="http://www.w3.org/2000/svg" xmlns:xlink="http://www.w3.org/1999/xlink" xmlns:jfreesvg="http://www.jfree.org/jfreesvg/svg" width="304" height="304" text-rendering="auto" shape-rendering="auto">
<defs></defs>
<g style="fill: rgb(0,0,0); fill-opacity: 1.0; stroke: none" transform="matrix(8.0,0.0,0.0,8.0,0.0,0.0)" ><path d="M 20.5004 1.0 C 20.7763 1.0 21.0 1.2236 21.0 1.4995 L 21.0 1.5004 C 21.0 1.7763 20.7763 2.0 20.5004 2.0 L 20.4995 2.0 C 20.2236 2.0 20.0 1.7763 20.0 1.5004 L 20.0 1.4995 C 20.0 1.2236 20.2236 1.0 20.4995 1.0 Z  M 23.5004 2.0 C 23.7763 2.0 24.0 2.2236 24.0 2.4995 L 24.0 2.5004 C 24.0 2.7763 23.7763 3.0 23.5004 3.0 L 23.4995 3.0 C 23.2236 3.0 23.0 2.7763 23.0 2.5004 L 23.0 2.4995 C 23.0 2.2236 23.2236 2.0 23.4995 2.0 Z  M 21.5004 2.0 C 21.7763 2.0 22.0 2.2236 22.0 2.4995 L 22.0 3.0 L 22.0 3.5004 C 22.0 3.7763 21.7763 4.0 21.5004 4.0 L 21.4995 4.0 C 21.2236 4.0 21.0 3.7763 21.0 3.5004 L 21.0 3.0 L 21.0 2.4995 C 21.0 2.2236 21.2236 2.0 21.4995 2.0 Z  M 2.5 2.0 C 2.2238 2.0 2.0 2.2238 2.0 2.5 L 2.0 4.5 C 2.0 4.7761 2.2238 5.0 2.5 5.0 L 4.5 5.0 C 4.7761 5.0 5.0 4.7761 5.0 4.5 L 5.0 2.5 C 5.0 2.2238 4.7761 2.0 4.5 2.0 Z  M 15.5004 1.0 C 15.7763 1.0 16.0 1.2236 16.0 1.4995 L 16.0 2.0 L 16.0 3.0 L 16.0 4.0 L 17.0 4.0 L 17.0 3.4995 C 17.0 3.2236 17.2236 3.0 17.4995 3.0 L 19.0 3.0 L 19.0 2.4995 C 19.0 2.2236 19.2236 2.0 19.4995 2.0 L 19.5004 2.0 C 19.7763 2.0 20.0 2.2236 20.0 2.4995 L 20.0 3.0 L 20.0 3.5004 C 20.0 3.7763 19.7763 4.0 19.5004 4.0 L 19.0 4.0 L 19.0 4.5005 C 19.0 4.7763 18.7763 5.0 18.5004 5.0 L 15.4995 5.0 C 15.2236 5.0 15.0 4.7763 15.0 4.5005 L 15.0 4.0 L 15.0 3.0 L 15.0 2.0 L 15.0 1.4995 C 15.0 1.2236 15.2236 1.0 15.4995 1.0 Z  M 22.5004 4.0 C 22.7763 4.0 23.0 4.2236 23.0 4.4994 L 23.0 4.5005 C 23.0 4.7763 22.7763 5.0 22.5004 5.0 L 22.4995 5.0 C 22.2236 5.0 22.0 4.7763 22.0 4.5005 L 22.0 4.4994 C 22.0 4.2236 22.2236 4.0 22.4995 4.0 Z  M 26.5004 1.0 C 26.7763 1.0 27.0 1.2236 27.0 1.4995 L 27.0 2.0 L 27.0 2.5004 C 27.0 2.7763 26.7763 3.0 26.5004 3.0 L 26.0 3.0 L 26.0 4.0 L 26.0 4.5005 C 26.0 4.7763 25.7763 5.0 25.5004 5.0 L 24.4995 5.0 C 24.2236 5.0 24.0 4.7763 24.0 4.5005 L 24.0 4.0 L 24.0 3.4995 C 24.0 3.2236 24.2236 3.0 24.4995 3.0 L 25.0 3.0 L 25.0 2.4995 C 25.0 2.2236 25.2236 2.0 25.4995 2.0 L 26.0 2.0 L 26.0 1.4995 C 26.0 1.2236 26.2236 1.0 26.4995 1.0 Z  M 32.5 2.0 C 32.2238 2.0 32.0 2.2238 32.0 2.5 L 32.0 4.5 C 32.0 4.7761 32.2238 5.0 32.5 5.0 L 34.5 5.0 C 34.7761 5.0 35.0 4.7761 35.0 4.5 L 35.0 2.5 C 35.0 2.2238 34.7761 2.0 34.5 2.0 Z  M 5.5 1.0 C 5.7761 1.0 6.0 1.2238 6.0 1.5 L 6.0 5.5 C 6.0 5.7761 5.7761 6.0 5.5 6.0 L 1.5 6.0 C 1.2238 6.0 1.0 5.7761 1.0 5.5 L 1.0 1.5 C 1.0 1.2238 1.2238 1.0 1.5 1.0 Z  M 14.5004 5.0 C 14.7763 5.0 15.0 5.2236 15.0 5.4994 L 15.0 5.5005 C 15.0 5.7763 14.7763 6.0 14.5004 6.0 L 14.4995 6.0 C 14.2236 6.0 14.0 5.7763 14.0 5.5005 L 14.0 5.4994 C 14.0 5.2236 14.2236 5.0 14.4995 5.0 Z  M 26.5004 5.0 C 26.7763 5.0 27.0 5.2236 27.0 5.4994 L 27.0 5.5005 C 27.0 5.7763 26.7763 6.0 26.5004 6.0 L 26.4995 6.0 C 26.2236 6.0 26.0 5.7763 26.0 5.5005 L 26.0 5.4994 C 26.0 5.2236 26.2236 5.0 26.4995 5.0 Z  M 35.5 1.0 C 35.7761 1.0 36.0 1.2238 36.0 1.5 L 36.0 5.5 C 36.0 5.7761 35.7761 6.0 35.5 6.0 L 31.5 6.0 C 31.2238 6.0 31.0 5.7761 31.0 5.5 L 31.0 1.5 C 31.0 1.2238 31.2238 1.0 31.5 1.0 Z  M 0.0 0.0 L 0.0 7.0 L 7.0 7.0 L 7.0 0.0 Z  M 13.5004 6.0 C 13.7763 6.0 14.0 6.2236 14.0 6.4994 L 14.0 6.5005 C 14.0 6.7763 13.7763 7.0 13.5004 7.0 L 13.4995 7.0 C 13.2236 7.0 13.0 6.7763 13.0 6.5005 L 13.0 6.4994 C 13.0 6.2236 13.2236 6.0 13.4995 6.0 Z  M 17.5004 6.0 C 17.7763 6.0 18.0 6.2236 18.0 6.4994 L 18.0 6.5005 C 18.0 6.7763 17.7763 7.0 17.5004 7.0 L 17.4995 7.0 C 17.2236 7.0 17.0 6.7763 17.0 6.5005 L 17.0 6.4994 C 17.0 6.2236 17.2236 6.0 17.4995 6.0 Z  M 19.5004 6.0 C 19.7763 6.0 20.0 6.2236 20.0 6.4994 L 20.0 6.5005 C 20.0 6.7763 19.7763 7.0 19.5004 7.0 L 19.4995 7.0 C 19.2236 7.0 19.0 6.7763 19.0 6.5005 L 19.0 6.4994 C 19.0 6.2236 19.2236 6.0 19.4995 6.0 Z  M 20.5004 4.0 C 20.7763 4.0 21.0 4.2236 21.0 4.4994 L 21.0 5.0 L 21.5004 5.0 C 21.7763 5.0 22.0 5.2236 22.0 5.4994 L 22.0 6.0 L 22.0 6.5005 C 22.0 6.7763 21.7763 7.0 21.5004 7.0 L 21.4995 7.0 C 21.2236 7.0 21.0 6.7763 21.0 6.5005 L 21.0 6.0 L 20.4995 6.0 C 20.2236 6.0 20.0 5.7763 20.0 5.5005 L 20.0 5.0 L 20.0 4.4994 C 20.0 4.2236 20.2236 4.0 20.4995 4.0 Z  M 23.5004 6.0 C 23.7763 6.0 24.0 6.2236 24.0 6.4994 L 24.0 6.5005 C 24.0 6.7763 23.7763 7.0 23.5004 7.0 L 23.4995 7.0 C 23.2236 7.0 23.0 6.7763 23.0 6.5005 L 23.0 6.4994 C 23.0 6.2236 23.2236 6.0 23.4995 6.0 Z  M 25.5004 6.0 C 25.7763 6.0 26.0 6.2236 26.0 6.4994 L 26.0 6.5005 C 26.0 6.7763 25.7763 7.0 25.5004 7.0 L 25.4995 7.0 C 25.2236 7.0 25.0 6.7763 25.0 6.5005 L 25.0 6.4994 C 25.0 6.2236 25.2236 6.0 25.4995 6.0 Z  M 30.0 0.0 L 30.0 7.0 L 37.0 7.0 L 37.0 0.0 Z  M 15.5004 6.0 C 15.7763 6.0 16.0 6.2236 16.0 6.4994 L 16.0 7.0 L 16.5004 7.0 C 16.7763 7.0 17.0 7.2236 17.0 7.4994 L 17.0 7.5005 C 17.0 7.7763 16.7763 8.0 16.5004 8.0 L 15.4995 8.0 C 15.2236 8.0 15.0 7.7763 15.0 7.5005 L 15.0 7.0 L 15.0 6.4994 C 15.0 6.2236 15.2236 6.0 15.4995 6.0 Z  M 24.5004 7.0 C 24.7763 7.0 25.0 7.2236 25.0 7.4994 L 25.0 7.5005 C 25.0 7.7763 24.7763 8.0 24.5004 8.0 L 24.4995 8.0 C 24.2236 8.0 24.0 7.7763 24.0 7.5005 L 24.0 7.4994 C 24.0 7.2236 24.2236 7.0 24.4995 7.0 Z  M 27.5004 6.0 C 27.7763 6.0 28.0 6.2236 28.0 6.4994 L 28.0 7.0 L 28.0 7.5005 C 28.0 7.7763 27.7763 8.0 27.5004 8.0 L 27.4995 8.0 C 27.2236 8.0 27.0 7.7763 27.0 7.5005 L 27.0 7.0 L 27.0 6.4994 C 27.0 6.2236 27.2236 6.0 27.4995 6.0 Z  M 11.5004 1.0 C 11.7763 1.0 12.0 1.2236 12.0 1.4995 L 12.0 2.0 L 12.0 3.0 L 12.0 4.0 L 12.5004 4.0 C 12.7763 4.0 13.0 4.2236 13.0 4.4994 L 13.0 4.5005 C 13.0 4.7763 12.7763 5.0 12.5004 5.0 L 12.0 5.0 L 12.0 6.0 L 12.0 7.0 L 12.0 8.0 L 14.5004 8.0 C 14.7763 8.0 15.0 8.2236 15.0 8.4995 L 15.0 8.5004 C 15.0 8.7763 14.7763 9.0 14.5004 9.0 L 11.4995 9.0 C 11.2236 9.0 11.0 8.7763 11.0 8.5004 L 11.0 8.0 L 11.0 7.0 L 11.0 6.0 L 11.0 5.0 L 11.0 4.0 L 11.0 3.0 L 11.0 2.0 L 11.0 1.4995 C 11.0 1.2236 11.2236 1.0 11.4995 1.0 Z  M 20.5004 7.0 C 20.7763 7.0 21.0 7.2236 21.0 7.4994 L 21.0 8.0 L 21.0 8.5004 C 21.0 8.7763 20.7763 9.0 20.5004 9.0 L 20.4995 9.0 C 20.2236 9.0 20.0 8.7763 20.0 8.5004 L 20.0 8.0 L 20.0 7.4994 C 20.0 7.2236 20.2236 7.0 20.4995 7.0 Z  M 6.5005 9.0 C 6.7763 9.0 7.0 9.2236 7.0 9.4995 L 7.0 9.5004 C 7.0 9.7763 6.7763 10.0 6.5005 10.0 L 6.4994 10.0 C 6.2236 10.0 6.0 9.7763 6.0 9.5004 L 6.0 9.4995 C 6.0 9.2236 6.2236 9.0 6.4994 9.0 Z  M 18.5004 8.0 C 18.7763 8.0 19.0 8.2236 19.0 8.4995 L 19.0 9.0 L 19.0 9.5004 C 19.0 9.7763 18.7763 10.0 18.5004 10.0 L 18.4995 10.0 C 18.2236 10.0 18.0 9.7763 18.0 9.5004 L 18.0 9.0 L 17.4995 9.0 C 17.2236 9.0 17.0 8.7763 17.0 8.5004 L 17.0 8.4995 C 17.0 8.2236 17.2236 8.0 17.4995 8.0 Z  M 30.5004 9.0 C 30.7763 9.0 31.0 9.2236 31.0 9.4995 L 31.0 9.5004 C 31.0 9.7763 30.7763 10.0 30.5004 10.0 L 30.4995 10.0 C 30.2236 10.0 30.0 9.7763 30.0 9.5004 L 30.0 9.4995 C 30.0 9.2236 30.2236 9.0 30.4995 9.0 Z  M 4.5005 10.0 C 4.7763 10.0 5.0 10.2236 5.0 10.4995 L 5.0 10.5004 C 5.0 10.7763 4.7763 11.0 4.5005 11.0 L 4.4994 11.0 C 4.2236 11.0 4.0 10.7763 4.0 10.5004 L 4.0 10.4995 C 4.0 10.2236 4.2236 10.0 4.4994 10.0 Z  M 9.5004 8.0 C 9.7763 8.0 10.0 8.2236 10.0 8.4995 L 10.0 9.0 L 10.0 10.0 L 10.0 10.5004 C 10.0 10.7763 9.7763 11.0 9.5004 11.0 L 9.4995 11.0 C 9.2236 11.0 9.0 10.7763 9.0 10.5004 L 9.0 10.0 L 8.4995 10.0 C 8.2236 10.0 8.0 9.7763 8.0 9.5004 L 8.0 9.0 L 8.0 8.4995 C 8.0 8.2236 8.2236 8.0 8.4995 8.0 Z  M 12.5004 10.0 C 12.7763 10.0 13.0 10.2236 13.0 10.4995 L 13.0 10.5004 C 13.0 10.7763 12.7763 11.0 12.5004 11.0 L 12.4995 11.0 C 12.2236 11.0 12.0 10.7763 12.0 10.5004 L 12.0 10.4995 C 12.0 10.2236 12.2236 10.0 12.4995 10.0 Z  M 15.5004 9.0 C 15.7763 9.0 16.0 9.2236 16.0 9.4995 L 16.0 10.0 L 16.0 10.5004 C 16.0 10.7763 15.7763 11.0 15.5004 11.0 L 14.4995 11.0 C 14.2236 11.0 14.0 10.7763 14.0 10.5004 L 14.0 10.4995 C 14.0 10.2236 14.2236 10.0 14.4995 10.0 L 15.0 10.0 L 15.0 9.4995 C 15.0 9.2236 15.2236 9.0 15.4995 9.0 Z  M 17.5004 10.0 C 17.7763 10.0 18.0 10.2236 18.0 10.4995 L 18.0 10.5004 C 18.0 10.7763 17.7763 11.0 17.5004 11.0 L 17.4995 11.0 C 17.2236 11.0 17.0 10.7763 17.0 10.5004 L 17.0 10.4995 C 17.0 10.2236 17.2236 10.0 17.4995 10.0 Z  M 19.5004 10.0 C 19.7763 10.0 20.0 10.2236 20.0 10.4995 L 20.0 10.5004 C 20.0 10.7763 19.7763 11.0 19.5004 11.0 L 19.4995 11.0 C 19.2236 11.0 19.0 10.7763 19.0 10.5004 L 19.0 10.4995 C 19.0 10.2236 19.2236 10.0 19.4995 10.0 Z  M 26.5004 10.0 C 26.7763 10.0 27.0 10.2236 27.0 10.4995 L 27.0 10.5004 C 27.0 10.7763 26.7763 11.0 26.5004 11.0 L 26.4995 11.0 C 26.2236 11.0 26.0 10.7763 26.0 10.5004 L 26.0 10.4995 C 26.0 10.2236 26.2236 10.0 26.4995 10.0 Z  M 29.5004 10.0 C 29.7763 10.0 30.0 10.2236 30.0 10.4995 L 30.0 10.5004 C 30.0 10.7763 29.7763 11.0 29.5004 11.0 L 29.4995 11.0 C 29.2236 11.0 29.0 10.7763 29.0 10.5004 L 29.0 10.4995 C 29.0 10.2236 29.2236 10.0 29.4995 10.0 Z  M 1.5004 11.0 C 1.7763 11.0 2.0 11.2236 2.0 11.4995 L 2.0 11.5004 C 2.0 11.7763 1.7763 12.0 1.5004 12.0 L 1.4995 12.0 C 1.2236 12.0 1.0 11.7763 1.0 11.5004 L 1.0 11.4995 C 1.0 11.2236 1.2236 11.0 1.4995 11.0 Z  M 6.5005 11.0 C 6.7763 11.0 7.0 11.2236 7.0 11.4995 L 7.0 11.5004 C 7.0 11.7763 6.7763 12.0 6.5005 12.0 L 5.4994 12.0 C 5.2236 12.0 5.0 11.7763 5.0 11.5004 L 5.0 11.4995 C 5.0 11.2236 5.2236 11.0 5.4994 11.0 Z  M 8.5004 11.0 C 8.7763 11.0 9.0 11.2236 9.0 11.4995 L 9.0 11.5004 C 9.0 11.7763 8.7763 12.0 8.5004 12.0 L 8.4995 12.0 C 8.2236 12.0 8.0 11.7763 8.0 11.5004 L 8.0 11.4995 C 8.0 11.2236 8.2236 11.0 8.4995 11.0 Z  M 27.5004 11.0 C 27.7763 11.0 28.0 11.2236 28.0 11.4995 L 28.0 11.5004 C 28.0 11.7763 27.7763 12.0 27.5004 12.0 L 27.4995 12.0 C 27.2236 12.0 27.0 11.7763 27.0 11.5004 L 27.0 11.4995 C 27.0 11.2236 27.2236 11.0 27.4995 11.0 Z  M 30.5004 11.0 C 30.7763 11.0 31.0 11.2236 31.0 11.4995 L 31.0 11.5004 C 31.0 11.7763 30.7763 12.0 30.5004 12.0 L 30.4995 12.0 C 30.2236 12.0 30.0 11.7763 30.0 11.5004 L 30.0 11.4995 C 30.0 11.2236 30.2236 11.0 30.4995 11.0 Z  M 2.5004 12.0 C 2.7763 12.0 3.0 12.2236 3.0 12.4995 L 3.0 12.5004 C 3.0 12.7763 2.7763 13.0 2.5004 13.0 L 2.4995 13.0 C 2.2236 13.0 2.0 12.7763 2.0 12.5004 L 2.0 12.4995 C 2.0 12.2236 2.2236 12.0 2.4995 12.0 Z  M 7.5005 12.0 C 7.7763 12.0 8.0 12.2236 8.0 12.4995 L 8.0 12.5004 C 8.0 12.7763 7.7763 13.0 7.5005 13.0 L 7.4994 13.0 C 7.2236 13.0 7.0 12.7763 7.0 12.5004 L 7.0 12.4995 C 7.0 12.2236 7.2236 12.0 7.4994 12.0 Z  M 4.5005 12.0 C 4.7763 12.0 5.0 12.2236 5.0 12.4995 L 5.0 13.0 L 6.5005 13.0 C 6.7763 13.0 7.0 13.2236 7.0 13.4995 L 7.0 13.5004 C 7.0 13.7763 6.7763 14.0 6.5005 14.0 L 3.4995 14.0 C 3.2236 14.0 3.0 13.7763 3.0 13.5004 L 3.0 13.4995 C 3.0 13.2236 3.2236 13.0 3.4995 13.0 L 4.0 13.0 L 4.0 12.4995 C 4.0 12.2236 4.2236 12.0 4.4994 12.0 Z  M 29.5004 13.0 C 29.7763 13.0 30.0 13.2236 30.0 13.4995 L 30.0 13.5004 C 30.0 13.7763 29.7763 14.0 29.5004 14.0 L 29.4995 14.0 C 29.2236 14.0 29.0 13.7763 29.0 13.5004 L 29.0 13.4995 C 29.0 13.2236 29.2236 13.0 29.4995 13.0 Z  M 26.5004 12.0 C 26.7763 12.0 27.0 12.2236 27.0 12.4995 L 27.0 13.0 L 27.5004 13.0 C 27.7763 13.0 28.0 13.2236 28.0 13.4995 L 28.0 14.0 L 28.0 14.5004 C 28.0 14.7763 27.7763 15.0 27.5004 15.0 L 27.4995 15.0 C 27.2236 15.0 27.0 14.7763 27.0 14.5004 L 27.0 14.0 L 26.4995 14.0 C 26.2236 14.0 26.0 13.7763 26.0 13.5004 L 26.0 13.0 L 26.0 12.4995 C 26.0 12.2236 26.2236 12.0 26.4995 12.0 Z  M 30.5004 14.0 C 30.7763 14.0 31.0 14.2236 31.0 14.4995 L 31.0 14.5004 C 31.0 14.7763 30.7763 15.0 30.5004 15.0 L 30.4995 15.0 C 30.2236 15.0 30.0 14.7763 30.0 14.5004 L 30.0 14.4995 C 30.0 14.2236 30.2236 14.0 30.4995 14.0 Z  M 6.5005 15.0 C 6.7763 15.0 7.0 15.2236 7.0 15.4995 L 7.0 15.5004 C 7.0 15.7763 6.7763 16.0 6.5005 16.0 L 6.4994 16.0 C 6.2236 16.0 6.0 15.7763 6.0 15.5004 L 6.0 15.4995 C 6.0 15.2236 6.2236 15.0 6.4994 15.0 Z  M 8.5004 15.0 C 8.7763 15.0 9.0 15.2236 9.0 15.4995 L 9.0 15.5004 C 9.0 15.7763 8.7763 16.0 8.5004 16.0 L 8.4995 16.0 C 8.2236 16.0 8.0 15.7763 8.0 15.5004 L 8.0 15.4995 C 8.0 15.2236 8.2236 15.0 8.4995 15.0 Z  M 29.5004 15.0 C 29.7763 15.0 30.0 15.2236 30.0 15.4995 L 30.0 15.5004 C 30.0 15.7763 29.7763 16.0 29.5004 16.0 L 29.4995 16.0 C 29.2236 16.0 29.0 15.7763 29.0 15.5004 L 29.0 15.4995 C 29.0 15.2236 29.2236 15.0 29.4995 15.0 Z  M 3.5004 17.0 C 3.7763 17.0 4.0 17.2236 4.0 17.4995 L 4.0 17.5004 C 4.0 17.7763 3.7763 18.0 3.5004 18.0 L 1.4995 18.0 C 1.2236 18.0 1.0 17.7763 1.0 17.5004 L 1.0 17.4995 C 1.0 17.2236 1.2236 17.0 1.4995 17.0 Z  M 4.5005 15.0 C 4.7763 15.0 5.0 15.2236 5.0 15.4995 L 5.0 16.0 L 5.5005 16.0 C 5.7763 16.0 6.0 16.2236 6.0 16.4995 L 6.0 17.0 L 7.5005 17.0 C 7.7763 17.0 8.0 17.2236 8.0 17.4995 L 8.0 17.5004 C 8.0 17.7763 7.7763 18.0 7.5005 18.0 L 5.4994 18.0 C 5.2236 18.0 5.0 17.7763 5.0 17.5004 L 5.0 17.0 L 4.4994 17.0 C 4.2236 17.0 4.0 16.7763 4.0 16.5004 L 4.0 16.0 L 3.4995 16.0 C 3.2236 16.0 3.0 15.7763 3.0 15.5004 L 3.0 15.4995 C 3.0 15.2236 3.2236 15.0 3.4995 15.0 Z  M 31.5004 15.0 C 31.7763 15.0 32.0 15.2236 32.0 15.4995 L 32.0 16.0 L 32.5004 16.0 C 32.7763 16.0 33.0 16.2236 33.0 16.4995 L 33.0 17.0 L 33.0 17.5004 C 33.0 17.7763 32.7763 18.0 32.5004 18.0 L 32.4995 18.0 C 32.2236 18.0 32.0 17.7763 32.0 17.5004 L 32.0 17.0 L 31.4995 17.0 C 31.2236 17.0 31.0 16.7763 31.0 16.5004 L 31.0 16.0 L 31.0 15.4995 C 31.0 15.2236 31.2236 15.0 31.4995 15.0 Z  M 4.5005 18.0 C 4.7763 18.0 5.0 18.2236 5.0 18.4995 L 5.0 18.5004 C 5.0 18.7763 4.7763 19.0 4.5005 19.0 L 4.4994 19.0 C 4.2236 19.0 4.0 18.7763 4.0 18.5004 L 4.0 18.4995 C 4.0 18.2236 4.2236 18.0 4.4994 18.0 Z  M 33.0 12.0 C 33.0 12.0 33.0 12.0 33.0 12.0 L 33.0 13.0 L 33.0 14.0 L 33.5004 14.0 C 33.7763 14.0 34.0 14.2236 34.0 14.4995 L 34.0 15.0 L 34.5004 15.0 C 34.7763 15.0 35.0 15.2236 35.0 15.4995 L 35.0 16.0 L 35.0 17.0 L 35.0 18.0 L 35.0 19.0 L 37.0 19.0 L 37.0 18.0 L 37.0 17.0 L 36.4995 17.0 C 36.2236 17.0 36.0 16.7763 36.0 16.5004 L 36.0 16.4995 C 36.0 16.2236 36.2236 16.0 36.4995 16.0 L 37.0 16.0 L 37.0 15.0 L 37.0 14.0 L 37.0 13.0 L 36.4995 13.0 C 36.2236 13.0 36.0 12.7763 36.0 12.5004 L 36.0 12.0 L 35.0 12.0 C 35.0 12.0 35.0 12.0 35.0 12.0 L 35.0 12.5004 C 35.0 12.7763 34.7763 13.0 34.5004 13.0 L 34.4995 13.0 C 34.2236 13.0 34.0 12.7763 34.0 12.5004 L 34.0 12.0 Z  M 9.5004 21.0 C 9.7763 21.0 10.0 21.2236 10.0 21.4995 L 10.0 21.5004 C 10.0 21.7763 9.7763 22.0 9.5004 22.0 L 9.4995 22.0 C 9.2236 22.0 9.0 21.7763 9.0 21.5004 L 9.0 21.4995 C 9.0 21.2236 9.2236 21.0 9.4995 21.0 Z  M 4.5005 20.0 C 4.7763 20.0 5.0 20.2236 5.0 20.4995 L 5.0 20.5004 C 5.0 20.7763 4.7763 21.0 4.5005 21.0 L 4.0 21.0 L 4.0 21.5004 C 4.0 21.7763 3.7763 22.0 3.5004 22.0 L 3.0 22.0 L 3.0 22.5004 C 3.0 22.7763 2.7763 23.0 2.5004 23.0 L 2.4995 23.0 C 2.2236 23.0 2.0 22.7763 2.0 22.5004 L 2.0 22.0 L 2.0 21.0 L 2.0 20.4995 C 2.0 20.2236 2.2236 20.0 2.4995 20.0 Z  M 8.5004 22.0 C 8.7763 22.0 9.0 22.2236 9.0 22.4995 L 9.0 22.5004 C 9.0 22.7763 8.7763 23.0 8.5004 23.0 L 8.4995 23.0 C 8.2236 23.0 8.0 22.7763 8.0 22.5004 L 8.0 22.4995 C 8.0 22.2236 8.2236 22.0 8.4995 22.0 Z  M 25.0 22.0 L 25.0 23.0 L 26.0 23.0 L 26.0 22.0 Z  M 32.0 22.0 L 32.0 23.0 L 33.0 23.0 L 33.0 22.0 Z  M 0.0 24.0 L 0.0 25.0 L 1.0 25.0 L 1.0 24.0 Z  M 27.0 24.0 L 27.0 25.0 L 27.0 26.0 L 28.0 26.0 L 28.0 25.0 L 28.0 24.0 Z  M 11.5004 26.0 C 11.7763 26.0 12.0 26.2236 12.0 26.4995 L 12.0 26.5004 C 12.0 26.7763 11.7763 27.0 11.5004 27.0 L 11.4995 27.0 C 11.2236 27.0 11.0 26.7763 11.0 26.5004 L 11.0 26.4995 C 11.0 26.2236 11.2236 26.0 11.4995 26.0 Z  M 6.5005 27.0 C 6.7763 27.0 7.0 27.2236 7.0 27.4995 L 7.0 27.5004 C 7.0 27.7763 6.7763 28.0 6.5005 28.0 L 6.4994 28.0 C 6.2236 28.0 6.0 27.7763 6.0 27.5004 L 6.0 27.4995 C 6.0 27.2236 6.2236 27.0 6.4994 27.0 Z  M 14.5004 27.0 C 14.7763 27.0 15.0 27.2236 15.0 27.4995 L 15.0 28.0 L 15.0 28.5004 C 15.0 28.7763 14.7763 29.0 14.5004 29.0 L 13.4995 29.0 C 13.2236 29.0 13.0 28.7763 13.0 28.5004 L 13.0 28.0 L 12.4995 28.0 C 12.2236 28.0 12.0 27.7763 12.0 27.5004 L 12.0 27.4995 C 12.0 27.2236 12.2236 27.0 12.4995 27.0 Z  M 20.5004 28.0 C 20.7763 28.0 21.0 28.2236 21.0 28.4995 L 21.0 28.5004 C 21.0 28.7763 20.7763 29.0 20.5004 29.0 L 20.4995 29.0 C 20.2236 29.0 20.0 28.7763 20.0 28.5004 L 20.0 28.4995 C 20.0 28.2236 20.2236 28.0 20.4995 28.0 Z  M 24.5004 28.0 C 24.7763 28.0 25.0 28.2236 25.0 28.4995 L 25.0 28.5004 C 25.0 28.7763 24.7763 29.0 24.5004 29.0 L 24.4995 29.0 C 24.2236 29.0 24.0 28.7763 24.0 28.5004 L 24.0 28.4995 C 24.0 28.2236 24.2236 28.0 24.4995 28.0 Z  M 16.5004 29.0 C 16.7763 29.0 17.0 29.2236 17.0 29.4995 L 17.0 29.5004 C 17.0 29.7763 16.7763 30.0 16.5004 30.0 L 16.4995 30.0 C 16.2236 30.0 16.0 29.7763 16.0 29.5004 L 16.0 29.4995 C 16.0 29.2236 16.2236 29.0 16.4995 29.0 Z  M 14.5004 30.0 C 14.7763 30.0 15.0 30.2236 15.0 30.4995 L 15.0 30.5004 C 15.0 30.7763 14.7763 31.0 14.5004 31.0 L 14.4995 31.0 C 14.2236 31.0 14.0 30.7763 14.0 30.5004 L 14.0 30.4995 C 14.0 30.2236 14.2236 30.0 14.4995 30.0 Z  M 25.5004 8.0 C 25.7763 8.0 26.0 8.2236 26.0 8.4995 L 26.0 9.0 L 26.0 9.5004 C 26.0 9.7763 25.7763 10.0 25.5004 10.0 L 24.0 10.0 L 24.0 11.0 L 24.0 12.0 L 24.5004 12.0 C 24.7763 12.0 25.0 12.2236 25.0 12.4995 L 25.0 13.0 L 25.0 14.0 L 25.0 15.0 L 25.0 16.0 L 25.0 17.0 L 26.0 17.0 L 26.0 16.4995 C 26.0 16.2236 26.2236 16.0 26.4995 16.0 L 28.5004 16.0 C 28.7763 16.0 29.0 16.2236 29.0 16.4995 L 29.0 16.5004 C 29.0 16.7763 28.7763 17.0 28.5004 17.0 L 28.0 17.0 L 28.0 18.0 L 28.5004 18.0 C 28.7763 18.0 29.0 18.2236 29.0 18.4995 L 29.0 19.0 L 31.5004 19.0 C 31.7763 19.0 32.0 19.2236 32.0 19.4995 L 32.0 19.5004 C 32.0 19.7763 31.7763 20.0 31.5004 20.0 L 28.4995 20.0 C 28.2236 20.0 28.0 19.7763 28.0 19.5004 L 28.0 19.0 L 27.4995 19.0 C 27.2236 19.0 27.0 18.7763 27.0 18.5004 L 27.0 18.0 L 26.0 18.0 L 26.0 18.5004 C 26.0 18.7763 25.7763 19.0 25.5004 19.0 L 25.0 19.0 L 25.0 20.0 L 25.0 21.0 L 26.0 21.0 L 26.0 20.4995 C 26.0 20.2236 26.2236 20.0 26.4995 20.0 L 27.5004 20.0 C 27.7763 20.0 28.0 20.2236 28.0 20.4995 L 28.0 21.0 L 28.5004 21.0 C 28.7763 21.0 29.0 21.2236 29.0 21.4995 L 29.0 21.5004 C 29.0 21.7763 28.7763 22.0 28.5004 22.0 L 28.0 22.0 L 28.0 23.0 L 28.5004 23.0 C 28.7763 23.0 29.0 23.2236 29.0 23.4995 L 29.0 24.0 L 29.0 25.0 L 29.0 26.0 L 29.5004 26.0 C 29.7763 26.0 30.0 26.2236 30.0 26.4995 L 30.0 27.0 L 30.0 27.5004 C 30.0 27.7763 29.7763 28.0 29.5004 28.0 L 28.4995 28.0 C 28.2236 28.0 28.0 27.7763 28.0 27.5004 L 28.0 27.0 L 26.4995 27.0 C 26.2236 27.0 26.0 26.7763 26.0 26.5004 L 26.0 26.0 L 26.0 25.0 L 24.0 25.0 L 24.0 26.0 L 24.5004 26.0 C 24.7763 26.0 25.0 26.2236 25.0 26.4995 L 25.0 26.5004 C 25.0 26.7763 24.7763 27.0 24.5004 27.0 L 24.0 27.0 L 24.0 27.5004 C 24.0 27.7763 23.7763 28.0 23.5004 28.0 L 23.0 28.0 L 23.0 28.5004 C 23.0 28.7763 22.7763 29.0 22.5004 29.0 L 22.4995 29.0 C 22.2236 29.0 22.0 28.7763 22.0 28.5004 L 22.0 28.0 L 22.0 27.0 L 21.4995 27.0 C 21.2236 27.0 21.0 26.7763 21.0 26.5004 L 21.0 26.4995 C 21.0 26.2236 21.2236 26.0 21.4995 26.0 L 22.0 26.0 L 22.0 25.0 L 18.0 25.0 L 18.0 26.0 L 18.5004 26.0 C 18.7763 26.0 19.0 26.2236 19.0 26.4995 L 19.0 26.5004 C 19.0 26.7763 18.7763 27.0 18.5004 27.0 L 18.0 27.0 L 18.0 28.0 L 18.5004 28.0 C 18.7763 28.0 19.0 28.2236 19.0 28.4995 L 19.0 29.0 L 19.5004 29.0 C 19.7763 29.0 20.0 29.2236 20.0 29.4995 L 20.0 29.5004 C 20.0 29.7763 19.7763 30.0 19.5004 30.0 L 19.0 30.0 L 19.0 30.5004 C 19.0 30.7763 18.7763 31.0 18.5004 31.0 L 17.4995 31.0 C 17.2236 31.0 17.0 30.7763 17.0 30.5004 L 17.0 30.4995 C 17.0 30.2236 17.2236 30.0 17.4995 30.0 L 18.0 30.0 L 18.0 29.0 L 17.4995 29.0 C 17.2236 29.0 17.0 28.7763 17.0 28.5004 L 17.0 28.0 L 17.0 27.0 L 17.0 26.0 L 16.4995 26.0 C 16.2236 26.0 16.0 25.7763 16.0 25.5004 L 16.0 25.0 L 14.0 25.0 L 14.0 25.5004 C 14.0 25.7763 13.7763 26.0 13.5004 26.0 L 13.4995 26.0 C 13.2236 26.0 13.0 25.7763 13.0 25.5004 L 13.0 25.0 L 12.4995 25.0 C 12.2236 25.0 12.0 24.7763 12.0 24.5004 L 12.0 24.0 L 9.4995 24.0 C 9.2236 24.0 9.0 23.7763 9.0 23.5004 L 9.0 23.4995 C 9.0 23.2236 9.2236 23.0 9.4995 23.0 L 12.0 23.0 L 12.0 22.0 L 12.0 21.0 L 12.0 20.0 L 10.4995 20.0 C 10.2236 20.0 10.0 19.7763 10.0 19.5004 L 10.0 19.0 L 8.4995 19.0 C 8.2236 19.0 8.0 18.7763 8.0 18.5004 L 8.0 18.4995 C 8.0 18.2236 8.2236 18.0 8.4995 18.0 L 9.0 18.0 L 9.0 17.0 L 9.0 16.4995 C 9.0 16.2236 9.2236 16.0 9.4995 16.0 L 9.5004 16.0 C 9.7763 16.0 10.0 16.2236 10.0 16.4995 L 10.0 17.0 L 10.5004 17.0 C 10.7763 17.0 11.0 17.2236 11.0 17.4995 L 11.0 18.0 L 12.0 18.0 L 12.0 17.0 L 12.0 16.0 L 11.4995 16.0 C 11.2236 16.0 11.0 15.7763 11.0 15.5004 L 11.0 15.0 L 9.4995 15.0 C 9.2236 15.0 9.0 14.7763 9.0 14.5004 L 9.0 14.0 L 8.4995 14.0 C 8.2236 14.0 8.0 13.7763 8.0 13.5004 L 8.0 13.4995 C 8.0 13.2236 8.2236 13.0 8.4995 13.0 L 9.0 13.0 L 9.0 12.4995 C 9.0 12.2236 9.2236 12.0 9.4995 12.0 L 9.5004 12.0 C 9.7763 12.0 10.0 12.2236 10.0 12.4995 L 10.0 13.0 L 10.0 14.0 L 11.0 14.0 L 11.0 13.0 L 11.0 12.0 L 11.0 11.4995 C 11.0 11.2236 11.2236 11.0 11.4995 11.0 L 11.5004 11.0 C 11.7763 11.0 12.0 11.2236 12.0 11.4995 L 12.0 12.0 L 13.0 12.0 L 13.0 11.4995 C 13.0 11.2236 13.2236 11.0 13.4995 11.0 L 13.5004 11.0 C 13.7763 11.0 14.0 11.2236 14.0 11.4995 L 14.0 12.0 L 18.0 12.0 L 18.0 11.4995 C 18.0 11.2236 18.2236 11.0 18.4995 11.0 L 18.5004 11.0 C 18.7763 11.0 19.0 11.2236 19.0 11.4995 L 19.0 12.0 L 20.0 12.0 L 20.0 11.4995 C 20.0 11.2236 20.2236 11.0 20.4995 11.0 L 20.5004 11.0 C 20.7763 11.0 21.0 11.2236 21.0 11.4995 L 21.0 12.0 L 22.0 12.0 L 22.0 11.0 L 22.0 10.0 L 21.4995 10.0 C 21.2236 10.0 21.0 9.7763 21.0 9.5004 L 21.0 9.4995 C 21.0 9.2236 21.2236 9.0 21.4995 9.0 L 22.0 9.0 L 22.0 8.4995 C 22.0 8.2236 22.2236 8.0 22.4995 8.0 L 22.5004 8.0 C 22.7763 8.0 23.0 8.2236 23.0 8.4995 L 23.0 9.0 L 25.0 9.0 L 25.0 8.4995 C 25.0 8.2236 25.2236 8.0 25.4995 8.0 Z  M 30.0 30.0 L 30.0 31.0 L 31.0 31.0 L 31.0 30.0 Z  M 35.5004 30.0 C 35.7763 30.0 36.0 30.2236 36.0 30.4995 L 36.0 30.5004 C 36.0 30.7763 35.7763 31.0 35.5004 31.0 L 35.4995 31.0 C 35.2236 31.0 35.0 30.7763 35.0 30.5004 L 35.0 30.4995 C 35.0 30.2236 35.2236 30.0 35.4995 30.0 Z  M 16.5004 31.0 C 16.7763 31.0 17.0 31.2236 17.0 31.4995 L 17.0 31.5004 C 17.0 31.7763 16.7763 32.0 16.5004 32.0 L 16.4995 32.0 C 16.2236 32.0 16.0 31.7763 16.0 31.5004 L 16.0 31.4995 C 16.0 31.2236 16.2236 31.0 16.4995 31.0 Z  M 21.5004 30.0 C 21.7763 30.0 22.0 30.2236 22.0 30.4995 L 22.0 30.5004 C 22.0 30.7763 21.7763 31.0 21.5004 31.0 L 21.0 31.0 L 21.0 31.5004 C 21.0 31.7763 20.7763 32.0 20.5004 32.0 L 20.4995 32.0 C 20.2236 32.0 20.0 31.7763 20.0 31.5004 L 20.0 31.0 L 20.0 30.4995 C 20.0 30.2236 20.2236 30.0 20.4995 30.0 Z  M 31.5004 29.0 C 31.7763 29.0 32.0 29.2236 32.0 29.4995 L 32.0 30.0 L 32.0 31.0 L 32.0 31.5004 C 32.0 31.7763 31.7763 32.0 31.5004 32.0 L 29.4995 32.0 C 29.2236 32.0 29.0 31.7763 29.0 31.5004 L 29.0 31.0 L 29.0 30.0 L 29.0 29.4995 C 29.0 29.2236 29.2236 29.0 29.4995 29.0 Z  M 10.5004 32.0 C 10.7763 32.0 11.0 32.2236 11.0 32.4995 L 11.0 32.5004 C 11.0 32.7763 10.7763 33.0 10.5004 33.0 L 9.4995 33.0 C 9.2236 33.0 9.0 32.7763 9.0 32.5004 L 9.0 32.4995 C 9.0 32.2236 9.2236 32.0 9.4995 32.0 Z  M 13.5004 31.0 C 13.7763 31.0 14.0 31.2236 14.0 31.4995 L 14.0 32.0 L 14.0 32.5004 C 14.0 32.7763 13.7763 33.0 13.5004 33.0 L 13.4995 33.0 C 13.2236 33.0 13.0 32.7763 13.0 32.5004 L 13.0 32.0 L 13.0 31.4995 C 13.0 31.2236 13.2236 31.0 13.4995 31.0 Z  M 21.5004 32.0 C 21.7763 32.0 22.0 32.2236 22.0 32.4995 L 22.0 32.5004 C 22.0 32.7763 21.7763 33.0 21.5004 33.0 L 21.4995 33.0 C 21.2236 33.0 21.0 32.7763 21.0 32.5004 L 21.0 32.4995 C 21.0 32.2236 21.2236 32.0 21.4995 32.0 Z  M 8.0 33.0 L 8.0 33.0 C 8.0 33.0 8.0 33.0 8.0 33.0 Z  M 11.5004 33.0 C 11.7763 33.0 12.0 33.2236 12.0 33.4995 L 12.0 33.5004 C 12.0 33.7763 11.7763 34.0 11.5004 34.0 L 11.4995 34.0 C 11.2236 34.0 11.0 33.7763 11.0 33.5004 L 11.0 33.4995 C 11.0 33.2236 11.2236 33.0 11.4995 33.0 Z  M 33.5004 33.0 C 33.7763 33.0 34.0 33.2236 34.0 33.4995 L 34.0 33.5004 C 34.0 33.7763 33.7763 34.0 33.5004 34.0 L 33.4995 34.0 C 33.2236 34.0 33.0 33.7763 33.0 33.5004 L 33.0 33.4995 C 33.0 33.2236 33.2236 33.0 33.4995 33.0 Z  M 2.5 32.0 C 2.2238 32.0 2.0 32.2238 2.0 32.5 L 2.0 34.5 C 2.0 34.7761 2.2238 35.0 2.5 35.0 L 4.5 35.0 C 4.7761 35.0 5.0 34.7761 5.0 34.5 L 5.0 32.5 C 5.0 32.2238 4.7761 32.0 4.5 32.0 Z  M 9.5004 34.0 C 9.7763 34.0 10.0 34.2236 10.0 34.4995 L 10.0 34.5004 C 10.0 34.7763 9.7763 35.0 9.5004 35.0 L 9.4995 35.0 C 9.2236 35.0 9.0 34.7763 9.0 34.5004 L 9.0 34.4995 C 9.0 34.2236 9.2236 34.0 9.4995 34.0 Z  M 14.5004 33.0 C 14.7763 33.0 15.0 33.2236 15.0 33.4995 L 15.0 34.0 L 15.0 34.5004 C 15.0 34.7763 14.7763 35.0 14.5004 35.0 L 14.4995 35.0 C 14.2236 35.0 14.0 34.7763 14.0 34.5004 L 14.0 34.0 L 14.0 33.4995 C 14.0 33.2236 14.2236 33.0 14.4995 33.0 Z  M 19.5004 32.0 C 19.7763 32.0 20.0 32.2236 20.0 32.4995 L 20.0 32.5004 C 20.0 32.7763 19.7763 33.0 19.5004 33.0 L 19.0 33.0 L 19.0 34.0 L 19.0 34.5004 C 19.0 34.7763 18.7763 35.0 18.5004 35.0 L 18.4995 35.0 C 18.2236 35.0 18.0 34.7763 18.0 34.5004 L 18.0 34.0 L 17.0 34.0 L 17.0 34.5004 C 17.0 34.7763 16.7763 35.0 16.5004 35.0 L 16.4995 35.0 C 16.2236 35.0 16.0 34.7763 16.0 34.5004 L 16.0 34.0 L 16.0 33.4995 C 16.0 33.2236 16.2236 33.0 16.4995 33.0 L 18.0 33.0 L 18.0 32.4995 C 18.0 32.2236 18.2236 32.0 18.4995 32.0 Z  M 28.5004 34.0 C 28.7763 34.0 29.0 34.2236 29.0 34.4995 L 29.0 34.5004 C 29.0 34.7763 28.7763 35.0 28.5004 35.0 L 28.4995 35.0 C 28.2236 35.0 28.0 34.7763 28.0 34.5004 L 28.0 34.4995 C 28.0 34.2236 28.2236 34.0 28.4995 34.0 Z  M 30.5004 33.0 C 30.7763 33.0 31.0 33.2236 31.0 33.4995 L 31.0 34.0 L 31.0 34.5004 C 31.0 34.7763 30.7763 35.0 30.5004 35.0 L 30.4995 35.0 C 30.2236 35.0 30.0 34.7763 30.0 34.5004 L 30.0 34.0 L 30.0 33.4995 C 30.0 33.2236 30.2236 33.0 30.4995 33.0 Z  M 5.5 31.0 C 5.7761 31.0 6.0 31.2238 6.0 31.5 L 6.0 35.5 C 6.0 35.7761 5.7761 36.0 5.5 36.0 L 1.5 36.0 C 1.2238 36.0 1.0 35.7761 1.0 35.5 L 1.0 31.5 C 1.0 31.2238 1.2238 31.0 1.5 31.0 Z  M 19.5004 35.0 C 19.7763 35.0 20.0 35.2236 20.0 35.4995 L 20.0 35.5004 C 20.0 35.7763 19.7763 36.0 19.5004 36.0 L 19.4995 36.0 C 19.2236 36.0 19.0 35.7763 19.0 35.5004 L 19.0 35.4995 C 19.0 35.2236 19.2236 35.0 19.4995 35.0 Z  M 29.5004 35.0 C 29.7763 35.0 30.0 35.2236 30.0 35.4995 L 30.0 35.5004 C 30.0 35.7763 29.7763 36.0 29.5004 36.0 L 29.4995 36.0 C 29.2236 36.0 29.0 35.7763 29.0 35.5004 L 29.0 35.4995 C 29.0 35.2236 29.2236 35.0 29.4995 35.0 Z  M 8.0 36.0 L 8.0 36.0 C 8.0 36.0 8.0 36.0 8.0 36.0 Z  M 0.0 30.0 L 0.0 37.0 L 7.0 37.0 L 7.0 30.0 Z  M 8.0 0.0 L 8.0 1.0 L 8.0 2.0 L 8.0 3.0 L 8.0 4.0 L 8.0 5.0 L 9.0 5.0 L 9.0 4.0 L 9.0 3.0 L 9.0 2.0 L 9.0 1.4995 C 9.0 1.2236 9.2236 1.0 9.4995 1.0 L 9.5004 1.0 C 9.7763 1.0 10.0 1.2236 10.0 1.4995 L 10.0 2.0 L 10.0 3.0 L 10.0 4.0 L 10.0 5.0 L 10.0 6.0 L 10.0 6.5005 C 10.0 6.7763 9.7763 7.0 9.5004 7.0 L 9.4995 7.0 C 9.2236 7.0 9.0 6.7763 9.0 6.5005 L 9.0 6.0 L 8.0 6.0 L 8.0 7.0 L 8.0 7.5005 C 8.0 7.7763 7.7763 8.0 7.5005 8.0 L 6.0 8.0 L 6.0 8.5004 C 6.0 8.7763 5.7763 9.0 5.5005 9.0 L 5.4994 9.0 C 5.2236 9.0 5.0 8.7763 5.0 8.5004 L 5.0 8.0 L 4.0 8.0 L 4.0 8.5004 C 4.0 8.7763 3.7763 9.0 3.5004 9.0 L 3.4995 9.0 C 3.2236 9.0 3.0 8.7763 3.0 8.5004 L 3.0 8.0 L 1.0 8.0 L 1.0 9.0 L 2.5004 9.0 C 2.7763 9.0 3.0 9.2236 3.0 9.4995 L 3.0 10.0 L 3.0 10.5004 C 3.0 10.7763 2.7763 11.0 2.5004 11.0 L 2.4995 11.0 C 2.2236 11.0 2.0 10.7763 2.0 10.5004 L 2.0 10.0 L 0.0 10.0 L 0.0 11.0 L 0.0 12.0 L 0.5004 12.0 C 0.7763 12.0 1.0 12.2236 1.0 12.4995 L 1.0 13.0 L 1.0 13.5004 C 1.0 13.7763 0.7763 14.0 0.5004 14.0 L 0.0 14.0 L 0.0 15.0 L 1.5004 15.0 C 1.7763 15.0 2.0 15.2236 2.0 15.4995 L 2.0 15.5004 C 2.0 15.7763 1.7763 16.0 1.5004 16.0 L 0.0 16.0 L 0.0 17.0 L 0.0 18.0 L 0.0 19.0 L 0.0 20.0 L 0.0 21.0 L 0.0 22.0 L 0.5004 22.0 C 0.7763 22.0 1.0 22.2236 1.0 22.4995 L 1.0 23.0 L 1.5004 23.0 C 1.7763 23.0 2.0 23.2236 2.0 23.4995 L 2.0 24.0 L 2.0 25.0 L 3.0 25.0 L 3.0 24.0 L 3.0 23.4995 C 3.0 23.2236 3.2236 23.0 3.4995 23.0 L 4.0 23.0 L 4.0 22.4995 C 4.0 22.2236 4.2236 22.0 4.4994 22.0 L 5.0 22.0 L 5.0 21.4995 C 5.0 21.2236 5.2236 21.0 5.4994 21.0 L 7.0 21.0 L 7.0 20.0 L 6.4994 20.0 C 6.2236 20.0 6.0 19.7763 6.0 19.5004 L 6.0 19.4995 C 6.0 19.2236 6.2236 19.0 6.4994 19.0 L 7.5005 19.0 C 7.7763 19.0 8.0 19.2236 8.0 19.4995 L 8.0 20.0 L 8.5004 20.0 C 8.7763 20.0 9.0 20.2236 9.0 20.4995 L 9.0 20.5004 C 9.0 20.7763 8.7763 21.0 8.5004 21.0 L 8.0 21.0 L 8.0 21.5004 C 8.0 21.7763 7.7763 22.0 7.5005 22.0 L 6.0 22.0 L 6.0 23.0 L 7.5005 23.0 C 7.7763 23.0 8.0 23.2236 8.0 23.4995 L 8.0 24.0 L 8.5004 24.0 C 8.7763 24.0 9.0 24.2236 9.0 24.4995 L 9.0 25.0 L 10.5004 25.0 C 10.7763 25.0 11.0 25.2236 11.0 25.4995 L 11.0 25.5004 C 11.0 25.7763 10.7763 26.0 10.5004 26.0 L 9.0 26.0 L 9.0 26.5004 C 9.0 26.7763 8.7763 27.0 8.5004 27.0 L 7.4994 27.0 C 7.2236 27.0 7.0 26.7763 7.0 26.5004 L 7.0 26.0 L 6.4994 26.0 C 6.2236 26.0 6.0 25.7763 6.0 25.5004 L 6.0 25.4995 C 6.0 25.2236 6.2236 25.0 6.4994 25.0 L 7.0 25.0 L 7.0 24.0 L 6.0 24.0 L 6.0 24.5004 C 6.0 24.7763 5.7763 25.0 5.5005 25.0 L 5.0 25.0 L 5.0 25.5004 C 5.0 25.7763 4.7763 26.0 4.5005 26.0 L 3.0 26.0 L 3.0 26.5004 C 3.0 26.7763 2.7763 27.0 2.5004 27.0 L 1.4995 27.0 C 1.2236 27.0 1.0 26.7763 1.0 26.5004 L 1.0 26.0 L 0.0 26.0 L 0.0 27.0 L 0.5004 27.0 C 0.7763 27.0 1.0 27.2236 1.0 27.4995 L 1.0 27.5004 C 1.0 27.7763 0.7763 28.0 0.5004 28.0 L 0.0 28.0 L 0.0 29.0 L 1.0 29.0 L 1.0 28.4995 C 1.0 28.2236 1.2236 28.0 1.4995 28.0 L 1.5004 28.0 C 1.7763 28.0 2.0 28.2236 2.0 28.4995 L 2.0 29.0 L 4.0 29.0 L 4.0 28.4995 C 4.0 28.2236 4.2236 28.0 4.4994 28.0 L 4.5005 28.0 C 4.7763 28.0 5.0 28.2236 5.0 28.4995 L 5.0 29.0 L 7.0 29.0 L 7.0 28.4995 C 7.0 28.2236 7.2236 28.0 7.4994 28.0 L 11.5004 28.0 C 11.7763 28.0 12.0 28.2236 12.0 28.4995 L 12.0 29.0 L 12.0 30.0 L 12.5004 30.0 C 12.7763 30.0 13.0 30.2236 13.0 30.4995 L 13.0 30.5004 C 13.0 30.7763 12.7763 31.0 12.5004 31.0 L 9.4995 31.0 C 9.2236 31.0 9.0 30.7763 9.0 30.5004 L 9.0 30.4995 C 9.0 30.2236 9.2236 30.0 9.4995 30.0 L 10.0 30.0 L 10.0 29.0 L 8.0 29.0 L 8.0 30.0 L 8.0 31.0 L 8.5004 31.0 C 8.7763 31.0 9.0 31.2236 9.0 31.4995 L 9.0 31.5004 C 9.0 31.7763 8.7763 32.0 8.5004 32.0 L 8.0 32.0 L 8.0 33.0 L 8.5004 33.0 C 8.7763 33.0 9.0 33.2236 9.0 33.4995 L 9.0 33.5004 C 9.0 33.7763 8.7763 34.0 8.5004 34.0 L 8.0 34.0 L 8.0 35.0 L 8.0 36.0 L 10.0 36.0 L 10.0 35.4995 C 10.0 35.2236 10.2236 35.0 10.4995 35.0 L 12.0 35.0 L 12.0 34.4995 C 12.0 34.2236 12.2236 34.0 12.4995 34.0 L 12.5004 34.0 C 12.7763 34.0 13.0 34.2236 13.0 34.4995 L 13.0 35.0 L 13.0 35.5004 C 13.0 35.7763 12.7763 36.0 12.5004 36.0 L 12.0 36.0 L 12.0 37.0 L 14.0 37.0 L 14.0 36.4995 C 14.0 36.2236 14.2236 36.0 14.4995 36.0 L 15.5004 36.0 C 15.7763 36.0 16.0 36.2236 16.0 36.4995 L 16.0 37.0 L 17.0 37.0 L 17.0 36.0 L 17.0 35.4995 C 17.0 35.2236 17.2236 35.0 17.4995 35.0 L 17.5004 35.0 C 17.7763 35.0 18.0 35.2236 18.0 35.4995 L 18.0 36.0 L 18.0 37.0 L 23.0 37.0 L 23.0 36.4995 C 23.0 36.2236 23.2236 36.0 23.4995 36.0 L 23.5004 36.0 C 23.7763 36.0 24.0 36.2236 24.0 36.4995 L 24.0 37.0 L 26.0 37.0 L 26.0 36.0 L 26.0 35.0 L 26.0 34.0 L 25.0 34.0 L 25.0 35.0 L 25.0 35.5004 C 25.0 35.7763 24.7763 36.0 24.5004 36.0 L 24.4995 36.0 C 24.2236 36.0 24.0 35.7763 24.0 35.5004 L 24.0 35.0 L 23.4995 35.0 C 23.2236 35.0 23.0 34.7763 23.0 34.5004 L 23.0 34.4995 C 23.0 34.2236 23.2236 34.0 23.4995 34.0 L 24.0 34.0 L 24.0 33.0 L 24.0 32.0 L 24.0 31.0 L 23.4995 31.0 C 23.2236 31.0 23.0 30.7763 23.0 30.5004 L 23.0 30.0 L 23.0 29.4995 C 23.0 29.2236 23.2236 29.0 23.4995 29.0 L 23.5004 29.0 C 23.7763 29.0 24.0 29.2236 24.0 29.4995 L 24.0 30.0 L 25.0 30.0 L 25.0 29.4995 C 25.0 29.2236 25.2236 29.0 25.4995 29.0 L 26.0 29.0 L 26.0 28.4995 C 26.0 28.2236 26.2236 28.0 26.4995 28.0 L 27.5004 28.0 C 27.7763 28.0 28.0 28.2236 28.0 28.4995 L 28.0 29.0 L 28.0 29.5004 C 28.0 29.7763 27.7763 30.0 27.5004 30.0 L 26.0 30.0 L 26.0 30.5004 C 26.0 30.7763 25.7763 31.0 25.5004 31.0 L 25.0 31.0 L 25.0 32.0 L 25.0 33.0 L 26.0 33.0 L 26.0 32.0 L 26.0 31.4995 C 26.0 31.2236 26.2236 31.0 26.4995 31.0 L 27.5004 31.0 C 27.7763 31.0 28.0 31.2236 28.0 31.4995 L 28.0 32.0 L 28.0 32.5004 C 28.0 32.7763 27.7763 33.0 27.5004 33.0 L 27.0 33.0 L 27.0 34.0 L 27.0 35.0 L 27.0 36.0 L 27.0 37.0 L 32.0 37.0 L 32.0 36.0 L 31.4995 36.0 C 31.2236 36.0 31.0 35.7763 31.0 35.5004 L 31.0 35.4995 C 31.0 35.2236 31.2236 35.0 31.4995 35.0 L 34.0 35.0 L 34.0 34.4995 C 34.0 34.2236 34.2236 34.0 34.4995 34.0 L 35.0 34.0 L 35.0 33.0 L 34.4995 33.0 C 34.2236 33.0 34.0 32.7763 34.0 32.5004 L 34.0 32.0 L 33.4995 32.0 C 33.2236 32.0 33.0 31.7763 33.0 31.5004 L 33.0 31.0 L 33.0 30.0 L 33.0 29.0 L 33.0 28.0 L 33.0 27.4995 C 33.0 27.2236 33.2236 27.0 33.4995 27.0 L 35.5004 27.0 C 35.7763 27.0 36.0 27.2236 36.0 27.4995 L 36.0 27.5004 C 36.0 27.7763 35.7763 28.0 35.5004 28.0 L 35.0 28.0 L 35.0 29.0 L 35.0 29.5004 C 35.0 29.7763 34.7763 30.0 34.5004 30.0 L 34.0 30.0 L 34.0 31.0 L 34.5004 31.0 C 34.7763 31.0 35.0 31.2236 35.0 31.4995 L 35.0 32.0 L 35.5004 32.0 C 35.7763 32.0 36.0 32.2236 36.0 32.4995 L 36.0 33.0 L 36.0 34.0 L 36.0 34.5004 C 36.0 34.7763 35.7763 35.0 35.5004 35.0 L 35.0 35.0 L 35.0 36.0 L 35.0 37.0 L 37.0 37.0 L 37.0 36.0 L 36.4995 36.0 C 36.2236 36.0 36.0 35.7763 36.0 35.5004 L 36.0 35.4995 C 36.0 35.2236 36.2236 35.0 36.4995 35.0 L 37.0 35.0 L 37.0 34.0 L 37.0 33.0 L 37.0 32.0 L 37.0 31.0 L 37.0 30.0 L 37.0 29.0 L 36.4995 29.0 C 36.2236 29.0 36.0 28.7763 36.0 28.5004 L 36.0 28.4995 C 36.0 28.2236 36.2236 28.0 36.4995 28.0 L 37.0 28.0 L 37.0 27.0 L 37.0 26.0 L 37.0 25.0 L 36.4995 25.0 C 36.2236 25.0 36.0 24.7763 36.0 24.5004 L 36.0 24.4995 C 36.0 24.2236 36.2236 24.0 36.4995 24.0 L 37.0 24.0 L 37.0 23.0 L 37.0 22.0 L 37.0 21.0 L 37.0 20.0 L 36.0 20.0 L 36.0 20.5004 C 36.0 20.7763 35.7763 21.0 35.5004 21.0 L 34.0 21.0 L 34.0 22.0 L 34.5004 22.0 C 34.7763 22.0 35.0 22.2236 35.0 22.4995 L 35.0 23.0 L 35.0 24.0 L 35.0 25.0 L 35.0 25.5004 C 35.0 25.7763 34.7763 26.0 34.5004 26.0 L 32.0 26.0 L 32.0 26.5004 C 32.0 26.7763 31.7763 27.0 31.5004 27.0 L 31.4995 27.0 C 31.2236 27.0 31.0 26.7763 31.0 26.5004 L 31.0 26.0 L 30.4995 26.0 C 30.2236 26.0 30.0 25.7763 30.0 25.5004 L 30.0 25.0 L 30.0 24.4995 C 30.0 24.2236 30.2236 24.0 30.4995 24.0 L 30.5004 24.0 C 30.7763 24.0 31.0 24.2236 31.0 24.4995 L 31.0 25.0 L 32.0 25.0 L 32.0 24.0 L 31.4995 24.0 C 31.2236 24.0 31.0 23.7763 31.0 23.5004 L 31.0 23.0 L 30.4995 23.0 C 30.2236 23.0 30.0 22.7763 30.0 22.5004 L 30.0 22.4995 C 30.0 22.2236 30.2236 22.0 30.4995 22.0 L 31.0 22.0 L 31.0 21.4995 C 31.0 21.2236 31.2236 21.0 31.4995 21.0 L 32.0 21.0 L 32.0 20.4995 C 32.0 20.2236 32.2236 20.0 32.4995 20.0 L 33.0 20.0 L 33.0 19.4995 C 33.0 19.2236 33.2236 19.0 33.4995 19.0 L 34.0 19.0 L 34.0 18.0 L 34.0 17.0 L 34.0 16.0 L 33.4995 16.0 C 33.2236 16.0 33.0 15.7763 33.0 15.5004 L 33.0 15.0 L 32.4995 15.0 C 32.2236 15.0 32.0 14.7763 32.0 14.5004 L 32.0 14.0 L 31.4995 14.0 C 31.2236 14.0 31.0 13.7763 31.0 13.5004 L 31.0 13.4995 C 31.0 13.2236 31.2236 13.0 31.4995 13.0 L 32.0 13.0 C 32.0 13.0 32.0 13.0 32.0 13.0 L 32.0 12.0 L 32.0 11.0 L 31.4995 11.0 C 31.2236 11.0 31.0 10.7763 31.0 10.5004 L 31.0 10.4995 C 31.0 10.2236 31.2236 10.0 31.4995 10.0 L 32.0 10.0 C 32.0 10.0 32.0 10.0 32.0 10.0 L 32.0 9.4995 C 32.0 9.2236 32.2236 9.0 32.4995 9.0 L 32.5004 9.0 C 32.7763 9.0 33.0 9.2236 33.0 9.4995 L 33.0 10.0 L 33.0 11.0 L 34.0 11.0 C 34.0 11.0 34.0 11.0 34.0 11.0 L 34.0 10.4995 C 34.0 10.2236 34.2236 10.0 34.4995 10.0 L 35.5004 10.0 C 35.7763 10.0 36.0 10.2236 36.0 10.4995 L 36.0 11.0 L 37.0 11.0 C 37.0 11.0 37.0 11.0 37.0 11.0 L 37.0 10.0 L 37.0 9.0 L 37.0 8.0 L 32.0 8.0 L 32.0 8.5004 C 32.0 8.7763 31.7763 9.0 31.5004 9.0 L 31.4995 9.0 C 31.2236 9.0 31.0 8.7763 31.0 8.5004 L 31.0 8.0 L 30.0 8.0 L 30.0 8.5004 C 30.0 8.7763 29.7763 9.0 29.5004 9.0 L 29.4995 9.0 C 29.2236 9.0 29.0 8.7763 29.0 8.5004 L 29.0 8.0 L 29.0 7.0 L 29.0 6.0 L 29.0 5.0 L 29.0 4.0 L 28.4995 4.0 C 28.2236 4.0 28.0 3.7763 28.0 3.5004 L 28.0 3.4995 C 28.0 3.2236 28.2236 3.0 28.4995 3.0 L 29.0 3.0 L 29.0 2.0 L 28.4995 2.0 C 28.2236 2.0 28.0 1.7763 28.0 1.5004 L 28.0 1.0 L 28.0 0.0 L 26.0 0.0 L 26.0 0.5004 C 26.0 0.7763 25.7763 1.0 25.5004 1.0 L 25.4995 1.0 C 25.2236 1.0 25.0 0.7763 25.0 0.5004 L 25.0 0.0 L 24.0 0.0 L 24.0 0.5004 C 24.0 0.7763 23.7763 1.0 23.5004 1.0 L 23.0 1.0 L 23.0 1.5004 C 23.0 1.7763 22.7763 2.0 22.5004 2.0 L 22.4995 2.0 C 22.2236 2.0 22.0 1.7763 22.0 1.5004 L 22.0 1.0 L 22.0 0.0 L 19.0 0.0 L 19.0 0.5004 C 19.0 0.7763 18.7763 1.0 18.5004 1.0 L 18.0 1.0 L 18.0 1.5004 C 18.0 1.7763 17.7763 2.0 17.5004 2.0 L 17.4995 2.0 C 17.2236 2.0 17.0 1.7763 17.0 1.5004 L 17.0 1.0 L 17.0 0.0 L 14.0 0.0 L 14.0 0.5004 C 14.0 0.7763 13.7763 1.0 13.5004 1.0 L 12.4995 1.0 C 12.2236 1.0 12.0 0.7763 12.0 0.5004 L 12.0 0.0 L 11.0 0.0 L 11.0 0.5004 C 11.0 0.7763 10.7763 1.0 10.5004 1.0 L 10.4995 1.0 C 10.2236 1.0 10.0 0.7763 10.0 0.5004 L 10.0 0.0 Z  M 12.0 37.0 L 12.0 37.0 C 12.0 37.0 12.0 37.0 12.0 37.0 Z "/></g></svg>
