<?xml version="1.0" encoding="utf-8"?>
<!DOCTYPE svg PUBLIC "-//W3C//DTD SVG 1.1//EN" "http://www.w3.org/Graphics/SVG/1.1/DTD/svg11.dtd">
<svg version="1.1" xmlns="http://www.w3.org/2000/svg" xmlns:xlink="http://www.w3.org/1999/xlink" x="0px" y="0px" viewBox="0 0 1000 1000" enable-background="new 0 0 1000 1000">
<g><path d="M10,535.7C298.1,683.6,466.8,879,466.8,879h46.6C338.6,673,101.8,555.2,41.7,527.7L10,535.7L10,535.7z M511.6,428.1c0,11,9,19.8,19.9,19.8h297.4c-32.6-19.7-64.6-41.4-96-65.7c-56.9-43.8-107-91.9-150-142.4h-51.3c-11,0-19.9,8.9-19.9,19.8V428.1L511.6,428.1z M834.1,785.5l-361-3.7l54.5,50.5h363.5c33.2,28.4,52.3,46.7,52.3,46.7H990c-40-45.4-86-86.9-133.6-124.2c47.7-12.6,83.2-57.6,83.2-109V253.1c0-60.8-49.3-132.1-110.2-132.1H490c-27.8,0-53.3,15.1-72.7,37.2c-46.4,30.8-256.2,168.6-307,177.5c0,0-14.8,5-14.8,29.8c0,24.9,0,136.9,0,136.9s1.5,22.5,24.8,29.9C198,556.7,354.8,678,408.1,720.4c20.2,23.1,49.3,38.1,81.8,38.1h309.4C811.6,767.8,823.3,776.7,834.1,785.5L834.1,785.5L834.1,785.5z M158.8,418.2c-11.8,0.3-23.6,1-35.4,2.1v-66.2c0,0,13.7-3.7,35.4-10.3V418.2L158.8,418.2z M236.6,318.7v100.4c-15.5-0.9-31.4-1.4-47.7-1.4v-83.1C203.4,330,219.6,324.7,236.6,318.7L236.6,318.7L236.6,318.7z M316.3,289.1v137.5c-14-1.9-29.5-3.6-45.9-5.1V306.8C285.8,301.2,301.1,295.4,316.3,289.1L316.3,289.1L316.3,289.1z M350.1,274.7c16.9-7.6,33.1-15.4,47.3-23.4l-1.9,188.5c0,0-17.4-3.8-45.4-8.3V274.7L350.1,274.7z M548.3,666.3c-28.5,0-51.6-23.1-51.6-51.7c0-28.4,23.1-51.6,51.6-51.6c28.5,0,51.7,23.2,51.7,51.6C600,643.2,576.9,666.3,548.3,666.3L548.3,666.3z M828.3,144.6c11-0.7,28.4,18.1,39.5,31.8H533.3c-4.9-10-12.3-23-21.1-31.8C584.1,144.6,804,146,828.3,144.6L828.3,144.6z M904.6,428.1c0,20.7-16.9,37.5-37.5,37.5H531.5c-20.8,0-37.6-16.8-37.6-37.5V259.6c0-20.8,16.9-37.5,37.6-37.5h335.7c20.6,0,37.5,16.7,37.5,37.5L904.6,428.1L904.6,428.1z M901.9,614.6c0,28.6-23.1,51.7-51.8,51.7c-28.5,0-51.6-23.1-51.6-51.7c0-28.4,23.1-51.6,51.6-51.6C878.8,563,901.9,586.2,901.9,614.6L901.9,614.6z"/></g>
</svg>